  0
SECTION
  2
BLOCKS
  0
ENDSEC
  0
SECTION
  2
ENTITIES
  0
LINE
  8
0
 10
39.0954
 20
0.501105
 11
40.2992
 21
1.32844
  0
LINE
  8
0
 10
40.2992
 20
1.32844
 11
41.458
 21
2.21764
  0
LINE
  8
0
 10
41.458
 20
2.21764
 11
42.5687
 21
3.16627
  0
LINE
  8
0
 10
42.5687
 20
3.16627
 11
43.6283
 21
4.17173
  0
LINE
  8
0
 10
43.6283
 20
4.17173
 11
44.6337
 21
5.23127
  0
LINE
  8
0
 10
44.6337
 20
5.23127
 11
45.5824
 21
6.34197
  0
LINE
  8
0
 10
45.5824
 20
6.34197
 11
46.4716
 21
7.5008
  0
LINE
  8
0
 10
46.4716
 20
7.5008
 11
47.2989
 21
8.70458
  0
LINE
  8
0
 10
47.2989
 20
8.70458
 11
47.8
 21
9.5223
  0
LINE
  8
0
 10
47.8
 20
9.5223
 11
47.8
 21
38.2777
  0
LINE
  8
0
 10
47.8
 20
38.2777
 11
47.2989
 21
39.0954
  0
LINE
  8
0
 10
47.2989
 20
39.0954
 11
46.4716
 21
40.2992
  0
LINE
  8
0
 10
46.4716
 20
40.2992
 11
45.5824
 21
41.458
  0
LINE
  8
0
 10
45.5824
 20
41.458
 11
44.6337
 21
42.5687
  0
LINE
  8
0
 10
44.6337
 20
42.5687
 11
43.6283
 21
43.6283
  0
LINE
  8
0
 10
43.6283
 20
43.6283
 11
42.5687
 21
44.6337
  0
LINE
  8
0
 10
42.5687
 20
44.6337
 11
41.458
 21
45.5824
  0
LINE
  8
0
 10
41.458
 20
45.5824
 11
40.2992
 21
46.4716
  0
LINE
  8
0
 10
40.2992
 20
46.4716
 11
39.0954
 21
47.2989
  0
LINE
  8
0
 10
39.0954
 20
47.2989
 11
38.2777
 21
47.8
  0
LINE
  8
0
 10
38.2777
 20
47.8
 11
9.5223
 21
47.8
  0
LINE
  8
0
 10
9.5223
 20
47.8
 11
8.70458
 21
47.2989
  0
LINE
  8
0
 10
8.70458
 20
47.2989
 11
7.5008
 21
46.4716
  0
LINE
  8
0
 10
7.5008
 20
46.4716
 11
6.34197
 21
45.5824
  0
LINE
  8
0
 10
6.34197
 20
45.5824
 11
5.23127
 21
44.6337
  0
LINE
  8
0
 10
5.23127
 20
44.6337
 11
4.17173
 21
43.6283
  0
LINE
  8
0
 10
4.17173
 20
43.6283
 11
3.16627
 21
42.5687
  0
LINE
  8
0
 10
3.16627
 20
42.5687
 11
2.21764
 21
41.458
  0
LINE
  8
0
 10
2.21764
 20
41.458
 11
1.32844
 21
40.2992
  0
LINE
  8
0
 10
1.32844
 20
40.2992
 11
0.501105
 21
39.0954
  0
LINE
  8
0
 10
0.501105
 20
39.0954
 11
6.10352e-06
 21
38.2777
  0
LINE
  8
0
 10
6.10352e-06
 20
38.2777
 11
6.10352e-06
 21
9.5223
  0
LINE
  8
0
 10
6.10352e-06
 20
9.5223
 11
0.501105
 21
8.70458
  0
LINE
  8
0
 10
0.501105
 20
8.70458
 11
1.32844
 21
7.5008
  0
LINE
  8
0
 10
1.32844
 20
7.5008
 11
2.21764
 21
6.34197
  0
LINE
  8
0
 10
2.21764
 20
6.34197
 11
3.16627
 21
5.23127
  0
LINE
  8
0
 10
3.16627
 20
5.23127
 11
4.17173
 21
4.17173
  0
LINE
  8
0
 10
4.17173
 20
4.17173
 11
5.23127
 21
3.16627
  0
LINE
  8
0
 10
5.23127
 20
3.16627
 11
6.34197
 21
2.21764
  0
LINE
  8
0
 10
6.34197
 20
2.21764
 11
7.5008
 21
1.32844
  0
LINE
  8
0
 10
7.5008
 20
1.32844
 11
8.70458
 21
0.501105
  0
LINE
  8
0
 10
8.70458
 20
0.501105
 11
9.5223
 21
6.10352e-06
  0
LINE
  8
0
 10
9.5223
 20
6.10352e-06
 11
38.2777
 21
6.10352e-06
  0
LINE
  8
0
 10
38.2777
 20
6.10352e-06
 11
39.0954
 21
0.501105
  0
ENDSEC
  0
SECTION
  2
OBJECTS
  0
DICTIONARY
  0
ENDSEC
  0
EOF
