%FSLAX45Y45*%
G04 Gerber Fmt 4.5, Leading zero omitted, Abs format (unit mm)*
G04 Created by KiCad (PCBNEW 5.1.12) date 2022-08-14 20:08:38*
%MOMM*%
%LPD*%
G01*
G04 APERTURE LIST*
%TA.AperFunction,Profile*%
%ADD10C,0.200000*%
%TD*%
%ADD11C,0.200000*%
%ADD12C,0.300000*%
G04 APERTURE END LIST*
D10*
X4781156Y954150D02*
X4781156Y3829690D01*
X4731046Y3911462D02*
X4648316Y4031840D01*
X953386Y1920D02*
X3828926Y1920D01*
X51266Y872380D02*
X134000Y752000D01*
X4031076Y4649076D02*
X3910696Y4731810D01*
X4731046Y872380D02*
X4781156Y954150D01*
X4781156Y3829690D02*
X4731046Y3911462D01*
X222920Y4147723D02*
X134000Y4031840D01*
X51266Y3911462D02*
X1157Y3829690D01*
X317783Y4258793D02*
X222920Y4147723D01*
X871614Y52030D02*
X953386Y1920D01*
X751236Y4649076D02*
X635353Y4560156D01*
X4258026Y4465293D02*
X4146956Y4560156D01*
X524283Y318550D02*
X635353Y223680D01*
X4648316Y4031840D02*
X4559396Y4147723D01*
X222920Y636120D02*
X317783Y525050D01*
X4031076Y134760D02*
X4146956Y223680D01*
X635353Y4560156D02*
X524283Y4465293D01*
X4146956Y4560156D02*
X4031076Y4649076D01*
X3828926Y1920D02*
X3910696Y52030D01*
X751236Y134760D02*
X871614Y52030D01*
X4559396Y4147723D02*
X4464526Y4258793D01*
X4648316Y752000D02*
X4731046Y872380D01*
X317783Y525050D02*
X418329Y419090D01*
X134000Y4031840D02*
X51266Y3911462D01*
X418329Y4364747D02*
X317783Y4258793D01*
X4464526Y4258793D02*
X4363986Y4364747D01*
X3910696Y52030D02*
X4031076Y134760D01*
X4464526Y525050D02*
X4559396Y636120D01*
X4146956Y223680D02*
X4258026Y318550D01*
X418329Y419090D02*
X524283Y318550D01*
X871614Y4731810D02*
X751236Y4649076D01*
X4363986Y419090D02*
X4464526Y525050D01*
X4258026Y318550D02*
X4363986Y419090D01*
X1157Y954150D02*
X51266Y872380D01*
X4363986Y4364747D02*
X4258026Y4465293D01*
X4559396Y636120D02*
X4648316Y752000D01*
X524283Y4465293D02*
X418329Y4364747D01*
X3910696Y4731810D02*
X3828926Y4781919D01*
X635353Y223680D02*
X751236Y134760D01*
X3828926Y4781919D02*
X953386Y4781919D01*
X1157Y3829690D02*
X1157Y954150D01*
X953386Y4781919D02*
X871614Y4731810D01*
X134000Y752000D02*
X222920Y636120D01*
D11*
X130470Y2979530D02*
X229530Y2880470D01*
X229530Y2979530D02*
X130470Y2880470D01*
X232070Y3741530D02*
X331130Y3642470D01*
X331130Y3741530D02*
X232070Y3642470D01*
X333670Y2979530D02*
X432730Y2880470D01*
X432730Y2979530D02*
X333670Y2880470D01*
X642620Y4044950D02*
X741680Y3945890D01*
X741680Y4044950D02*
X642620Y3945890D01*
X744220Y4552950D02*
X843280Y4453890D01*
X843280Y4552950D02*
X744220Y4453890D01*
X845820Y4044950D02*
X944880Y3945890D01*
X944880Y4044950D02*
X845820Y3945890D01*
X1172360Y4359910D02*
G75*
G03*
X1172360Y4359910I-70000J0D01*
G01*
D12*
X277585Y-473794D02*
X277585Y-173794D01*
X349014Y-173794D01*
X391871Y-188080D01*
X420442Y-216651D01*
X434728Y-245223D01*
X449014Y-302366D01*
X449014Y-345223D01*
X434728Y-402366D01*
X420442Y-430937D01*
X391871Y-459509D01*
X349014Y-473794D01*
X277585Y-473794D01*
X577585Y-473794D02*
X577585Y-273794D01*
X577585Y-330937D02*
X591871Y-302366D01*
X606157Y-288080D01*
X634728Y-273794D01*
X663299Y-273794D01*
X763299Y-473794D02*
X763299Y-273794D01*
X763299Y-173794D02*
X749014Y-188080D01*
X763299Y-202366D01*
X777585Y-188080D01*
X763299Y-173794D01*
X763299Y-202366D01*
X949014Y-473794D02*
X920442Y-459509D01*
X906156Y-430937D01*
X906156Y-173794D01*
X1106157Y-473794D02*
X1077585Y-459509D01*
X1063299Y-430937D01*
X1063299Y-173794D01*
X1449014Y-473794D02*
X1449014Y-173794D01*
X1549014Y-388080D01*
X1649014Y-173794D01*
X1649014Y-473794D01*
X1920442Y-473794D02*
X1920442Y-316652D01*
X1906156Y-288080D01*
X1877585Y-273794D01*
X1820442Y-273794D01*
X1791871Y-288080D01*
X1920442Y-459509D02*
X1891871Y-473794D01*
X1820442Y-473794D01*
X1791871Y-459509D01*
X1777585Y-430937D01*
X1777585Y-402366D01*
X1791871Y-373794D01*
X1820442Y-359509D01*
X1891871Y-359509D01*
X1920442Y-345223D01*
X2063299Y-273794D02*
X2063299Y-573794D01*
X2063299Y-288080D02*
X2091871Y-273794D01*
X2149014Y-273794D01*
X2177585Y-288080D01*
X2191871Y-302366D01*
X2206157Y-330937D01*
X2206157Y-416651D01*
X2191871Y-445223D01*
X2177585Y-459509D01*
X2149014Y-473794D01*
X2091871Y-473794D01*
X2063299Y-459509D01*
X2334728Y-445223D02*
X2349014Y-459509D01*
X2334728Y-473794D01*
X2320442Y-459509D01*
X2334728Y-445223D01*
X2334728Y-473794D01*
X2334728Y-288080D02*
X2349014Y-302366D01*
X2334728Y-316652D01*
X2320442Y-302366D01*
X2334728Y-288080D01*
X2334728Y-316652D01*
X-107903Y-918550D02*
X-8844Y-1017610D01*
X-8844Y-918550D02*
X-107903Y-1017610D01*
X334728Y-803794D02*
X363299Y-803794D01*
X391871Y-818080D01*
X406156Y-832366D01*
X420442Y-860937D01*
X434728Y-918080D01*
X434728Y-989509D01*
X420442Y-1046651D01*
X406156Y-1075223D01*
X391871Y-1089509D01*
X363299Y-1103794D01*
X334728Y-1103794D01*
X306157Y-1089509D01*
X291871Y-1075223D01*
X277585Y-1046651D01*
X263299Y-989509D01*
X263299Y-918080D01*
X277585Y-860937D01*
X291871Y-832366D01*
X306157Y-818080D01*
X334728Y-803794D01*
X563299Y-1075223D02*
X577585Y-1089509D01*
X563299Y-1103794D01*
X549014Y-1089509D01*
X563299Y-1075223D01*
X563299Y-1103794D01*
X720442Y-1103794D02*
X777585Y-1103794D01*
X806156Y-1089509D01*
X820442Y-1075223D01*
X849014Y-1032366D01*
X863299Y-975223D01*
X863299Y-860937D01*
X849014Y-832366D01*
X834728Y-818080D01*
X806156Y-803794D01*
X749014Y-803794D01*
X720442Y-818080D01*
X706156Y-832366D01*
X691871Y-860937D01*
X691871Y-932366D01*
X706156Y-960937D01*
X720442Y-975223D01*
X749014Y-989509D01*
X806156Y-989509D01*
X834728Y-975223D01*
X849014Y-960937D01*
X863299Y-932366D01*
X1006156Y-1103794D02*
X1063299Y-1103794D01*
X1091871Y-1089509D01*
X1106157Y-1075223D01*
X1134728Y-1032366D01*
X1149014Y-975223D01*
X1149014Y-860937D01*
X1134728Y-832366D01*
X1120442Y-818080D01*
X1091871Y-803794D01*
X1034728Y-803794D01*
X1006156Y-818080D01*
X991871Y-832366D01*
X977585Y-860937D01*
X977585Y-932366D01*
X991871Y-960937D01*
X1006156Y-975223D01*
X1034728Y-989509D01*
X1091871Y-989509D01*
X1120442Y-975223D01*
X1134728Y-960937D01*
X1149014Y-932366D01*
X1434728Y-1103794D02*
X1263299Y-1103794D01*
X1349014Y-1103794D02*
X1349014Y-803794D01*
X1320442Y-846651D01*
X1291871Y-875223D01*
X1263299Y-889509D01*
X1563299Y-1103794D02*
X1563299Y-903794D01*
X1563299Y-932366D02*
X1577585Y-918080D01*
X1606156Y-903794D01*
X1649014Y-903794D01*
X1677585Y-918080D01*
X1691871Y-946651D01*
X1691871Y-1103794D01*
X1691871Y-946651D02*
X1706156Y-918080D01*
X1734728Y-903794D01*
X1777585Y-903794D01*
X1806156Y-918080D01*
X1820442Y-946651D01*
X1820442Y-1103794D01*
X1963299Y-1103794D02*
X1963299Y-903794D01*
X1963299Y-932366D02*
X1977585Y-918080D01*
X2006156Y-903794D01*
X2049014Y-903794D01*
X2077585Y-918080D01*
X2091871Y-946651D01*
X2091871Y-1103794D01*
X2091871Y-946651D02*
X2106157Y-918080D01*
X2134728Y-903794D01*
X2177585Y-903794D01*
X2206157Y-918080D01*
X2220442Y-946651D01*
X2220442Y-1103794D01*
X2806156Y-789509D02*
X2549014Y-1175223D01*
X3191871Y-803794D02*
X3220442Y-803794D01*
X3249014Y-818080D01*
X3263299Y-832366D01*
X3277585Y-860937D01*
X3291871Y-918080D01*
X3291871Y-989509D01*
X3277585Y-1046651D01*
X3263299Y-1075223D01*
X3249014Y-1089509D01*
X3220442Y-1103794D01*
X3191871Y-1103794D01*
X3163299Y-1089509D01*
X3149014Y-1075223D01*
X3134728Y-1046651D01*
X3120442Y-989509D01*
X3120442Y-918080D01*
X3134728Y-860937D01*
X3149014Y-832366D01*
X3163299Y-818080D01*
X3191871Y-803794D01*
X3420442Y-1075223D02*
X3434728Y-1089509D01*
X3420442Y-1103794D01*
X3406156Y-1089509D01*
X3420442Y-1075223D01*
X3420442Y-1103794D01*
X3620442Y-803794D02*
X3649014Y-803794D01*
X3677585Y-818080D01*
X3691871Y-832366D01*
X3706156Y-860937D01*
X3720442Y-918080D01*
X3720442Y-989509D01*
X3706156Y-1046651D01*
X3691871Y-1075223D01*
X3677585Y-1089509D01*
X3649014Y-1103794D01*
X3620442Y-1103794D01*
X3591871Y-1089509D01*
X3577585Y-1075223D01*
X3563299Y-1046651D01*
X3549014Y-989509D01*
X3549014Y-918080D01*
X3563299Y-860937D01*
X3577585Y-832366D01*
X3591871Y-818080D01*
X3620442Y-803794D01*
X3820442Y-803794D02*
X4006156Y-803794D01*
X3906156Y-918080D01*
X3949014Y-918080D01*
X3977585Y-932366D01*
X3991871Y-946651D01*
X4006156Y-975223D01*
X4006156Y-1046651D01*
X3991871Y-1075223D01*
X3977585Y-1089509D01*
X3949014Y-1103794D01*
X3863299Y-1103794D01*
X3834728Y-1089509D01*
X3820442Y-1075223D01*
X4149014Y-1103794D02*
X4206157Y-1103794D01*
X4234728Y-1089509D01*
X4249014Y-1075223D01*
X4277585Y-1032366D01*
X4291871Y-975223D01*
X4291871Y-860937D01*
X4277585Y-832366D01*
X4263299Y-818080D01*
X4234728Y-803794D01*
X4177585Y-803794D01*
X4149014Y-818080D01*
X4134728Y-832366D01*
X4120442Y-860937D01*
X4120442Y-932366D01*
X4134728Y-960937D01*
X4149014Y-975223D01*
X4177585Y-989509D01*
X4234728Y-989509D01*
X4263299Y-975223D01*
X4277585Y-960937D01*
X4291871Y-932366D01*
X4477585Y-803794D02*
X4506157Y-803794D01*
X4534728Y-818080D01*
X4549014Y-832366D01*
X4563299Y-860937D01*
X4577585Y-918080D01*
X4577585Y-989509D01*
X4563299Y-1046651D01*
X4549014Y-1075223D01*
X4534728Y-1089509D01*
X4506157Y-1103794D01*
X4477585Y-1103794D01*
X4449014Y-1089509D01*
X4434728Y-1075223D01*
X4420442Y-1046651D01*
X4406157Y-989509D01*
X4406157Y-918080D01*
X4420442Y-860937D01*
X4434728Y-832366D01*
X4449014Y-818080D01*
X4477585Y-803794D01*
X4691871Y-803794D02*
X4691871Y-860937D01*
X4806157Y-803794D02*
X4806157Y-860937D01*
X5249014Y-1218080D02*
X5234728Y-1203794D01*
X5206157Y-1160937D01*
X5191871Y-1132366D01*
X5177585Y-1089509D01*
X5163299Y-1018080D01*
X5163299Y-960937D01*
X5177585Y-889509D01*
X5191871Y-846651D01*
X5206157Y-818080D01*
X5234728Y-775223D01*
X5249014Y-760937D01*
X5491871Y-803794D02*
X5434728Y-803794D01*
X5406157Y-818080D01*
X5391871Y-832366D01*
X5363299Y-875223D01*
X5349014Y-932366D01*
X5349014Y-1046651D01*
X5363299Y-1075223D01*
X5377585Y-1089509D01*
X5406157Y-1103794D01*
X5463299Y-1103794D01*
X5491871Y-1089509D01*
X5506157Y-1075223D01*
X5520442Y-1046651D01*
X5520442Y-975223D01*
X5506157Y-946651D01*
X5491871Y-932366D01*
X5463299Y-918080D01*
X5406157Y-918080D01*
X5377585Y-932366D01*
X5363299Y-946651D01*
X5349014Y-975223D01*
X5877585Y-1103794D02*
X5877585Y-803794D01*
X6006156Y-1103794D02*
X6006156Y-946651D01*
X5991871Y-918080D01*
X5963299Y-903794D01*
X5920442Y-903794D01*
X5891871Y-918080D01*
X5877585Y-932366D01*
X6191871Y-1103794D02*
X6163299Y-1089509D01*
X6149014Y-1075223D01*
X6134728Y-1046651D01*
X6134728Y-960937D01*
X6149014Y-932366D01*
X6163299Y-918080D01*
X6191871Y-903794D01*
X6234728Y-903794D01*
X6263299Y-918080D01*
X6277585Y-932366D01*
X6291871Y-960937D01*
X6291871Y-1046651D01*
X6277585Y-1075223D01*
X6263299Y-1089509D01*
X6234728Y-1103794D01*
X6191871Y-1103794D01*
X6463299Y-1103794D02*
X6434728Y-1089509D01*
X6420442Y-1060937D01*
X6420442Y-803794D01*
X6691871Y-1089509D02*
X6663299Y-1103794D01*
X6606156Y-1103794D01*
X6577585Y-1089509D01*
X6563299Y-1060937D01*
X6563299Y-946651D01*
X6577585Y-918080D01*
X6606156Y-903794D01*
X6663299Y-903794D01*
X6691871Y-918080D01*
X6706156Y-946651D01*
X6706156Y-975223D01*
X6563299Y-1003794D01*
X6820442Y-1089509D02*
X6849014Y-1103794D01*
X6906156Y-1103794D01*
X6934728Y-1089509D01*
X6949014Y-1060937D01*
X6949014Y-1046651D01*
X6934728Y-1018080D01*
X6906156Y-1003794D01*
X6863299Y-1003794D01*
X6834728Y-989509D01*
X6820442Y-960937D01*
X6820442Y-946651D01*
X6834728Y-918080D01*
X6863299Y-903794D01*
X6906156Y-903794D01*
X6934728Y-918080D01*
X7049014Y-1218080D02*
X7063299Y-1203794D01*
X7091871Y-1160937D01*
X7106156Y-1132366D01*
X7120442Y-1089509D01*
X7134728Y-1018080D01*
X7134728Y-960937D01*
X7120442Y-889509D01*
X7106156Y-846651D01*
X7091871Y-818080D01*
X7063299Y-775223D01*
X7049014Y-760937D01*
X7591871Y-1218080D02*
X7577585Y-1203794D01*
X7549014Y-1160937D01*
X7534728Y-1132366D01*
X7520442Y-1089509D01*
X7506156Y-1018080D01*
X7506156Y-960937D01*
X7520442Y-889509D01*
X7534728Y-846651D01*
X7549014Y-818080D01*
X7577585Y-775223D01*
X7591871Y-760937D01*
X7706156Y-903794D02*
X7706156Y-1103794D01*
X7706156Y-932366D02*
X7720442Y-918080D01*
X7749014Y-903794D01*
X7791871Y-903794D01*
X7820442Y-918080D01*
X7834728Y-946651D01*
X7834728Y-1103794D01*
X8020442Y-1103794D02*
X7991871Y-1089509D01*
X7977585Y-1075223D01*
X7963299Y-1046651D01*
X7963299Y-960937D01*
X7977585Y-932366D01*
X7991871Y-918080D01*
X8020442Y-903794D01*
X8063299Y-903794D01*
X8091871Y-918080D01*
X8106156Y-932366D01*
X8120442Y-960937D01*
X8120442Y-1046651D01*
X8106156Y-1075223D01*
X8091871Y-1089509D01*
X8063299Y-1103794D01*
X8020442Y-1103794D01*
X8206156Y-903794D02*
X8320442Y-903794D01*
X8249014Y-803794D02*
X8249014Y-1060937D01*
X8263299Y-1089509D01*
X8291871Y-1103794D01*
X8320442Y-1103794D01*
X8649014Y-903794D02*
X8649014Y-1203794D01*
X8649014Y-918080D02*
X8677585Y-903794D01*
X8734728Y-903794D01*
X8763299Y-918080D01*
X8777585Y-932366D01*
X8791871Y-960937D01*
X8791871Y-1046651D01*
X8777585Y-1075223D01*
X8763299Y-1089509D01*
X8734728Y-1103794D01*
X8677585Y-1103794D01*
X8649014Y-1089509D01*
X8963299Y-1103794D02*
X8934728Y-1089509D01*
X8920442Y-1060937D01*
X8920442Y-803794D01*
X9206157Y-1103794D02*
X9206157Y-946651D01*
X9191871Y-918080D01*
X9163299Y-903794D01*
X9106157Y-903794D01*
X9077585Y-918080D01*
X9206157Y-1089509D02*
X9177585Y-1103794D01*
X9106157Y-1103794D01*
X9077585Y-1089509D01*
X9063299Y-1060937D01*
X9063299Y-1032366D01*
X9077585Y-1003794D01*
X9106157Y-989509D01*
X9177585Y-989509D01*
X9206157Y-975223D01*
X9306157Y-903794D02*
X9420442Y-903794D01*
X9349014Y-803794D02*
X9349014Y-1060937D01*
X9363299Y-1089509D01*
X9391871Y-1103794D01*
X9420442Y-1103794D01*
X9634728Y-1089509D02*
X9606157Y-1103794D01*
X9549014Y-1103794D01*
X9520442Y-1089509D01*
X9506157Y-1060937D01*
X9506157Y-946651D01*
X9520442Y-918080D01*
X9549014Y-903794D01*
X9606157Y-903794D01*
X9634728Y-918080D01*
X9649014Y-946651D01*
X9649014Y-975223D01*
X9506157Y-1003794D01*
X9906157Y-1103794D02*
X9906157Y-803794D01*
X9906157Y-1089509D02*
X9877585Y-1103794D01*
X9820442Y-1103794D01*
X9791871Y-1089509D01*
X9777585Y-1075223D01*
X9763299Y-1046651D01*
X9763299Y-960937D01*
X9777585Y-932366D01*
X9791871Y-918080D01*
X9820442Y-903794D01*
X9877585Y-903794D01*
X9906157Y-918080D01*
X10020442Y-1218080D02*
X10034728Y-1203794D01*
X10063299Y-1160937D01*
X10077585Y-1132366D01*
X10091871Y-1089509D01*
X10106157Y-1018080D01*
X10106157Y-960937D01*
X10091871Y-889509D01*
X10077585Y-846651D01*
X10063299Y-818080D01*
X10034728Y-775223D01*
X10020442Y-760937D01*
X-8844Y-1364080D02*
G75*
G03*
X-8844Y-1364080I-70000J0D01*
G01*
X434728Y-1499794D02*
X263299Y-1499794D01*
X349014Y-1499794D02*
X349014Y-1199794D01*
X320442Y-1242652D01*
X291871Y-1271223D01*
X263299Y-1285509D01*
X563299Y-1471223D02*
X577585Y-1485509D01*
X563299Y-1499794D01*
X549014Y-1485509D01*
X563299Y-1471223D01*
X563299Y-1499794D01*
X834728Y-1299794D02*
X834728Y-1499794D01*
X763299Y-1185509D02*
X691871Y-1399794D01*
X877585Y-1399794D01*
X1049014Y-1199794D02*
X1077585Y-1199794D01*
X1106157Y-1214080D01*
X1120442Y-1228366D01*
X1134728Y-1256937D01*
X1149014Y-1314080D01*
X1149014Y-1385509D01*
X1134728Y-1442651D01*
X1120442Y-1471223D01*
X1106157Y-1485509D01*
X1077585Y-1499794D01*
X1049014Y-1499794D01*
X1020442Y-1485509D01*
X1006156Y-1471223D01*
X991871Y-1442651D01*
X977585Y-1385509D01*
X977585Y-1314080D01*
X991871Y-1256937D01*
X1006156Y-1228366D01*
X1020442Y-1214080D01*
X1049014Y-1199794D01*
X1334728Y-1199794D02*
X1363299Y-1199794D01*
X1391871Y-1214080D01*
X1406156Y-1228366D01*
X1420442Y-1256937D01*
X1434728Y-1314080D01*
X1434728Y-1385509D01*
X1420442Y-1442651D01*
X1406156Y-1471223D01*
X1391871Y-1485509D01*
X1363299Y-1499794D01*
X1334728Y-1499794D01*
X1306157Y-1485509D01*
X1291871Y-1471223D01*
X1277585Y-1442651D01*
X1263299Y-1385509D01*
X1263299Y-1314080D01*
X1277585Y-1256937D01*
X1291871Y-1228366D01*
X1306157Y-1214080D01*
X1334728Y-1199794D01*
X1563299Y-1499794D02*
X1563299Y-1299794D01*
X1563299Y-1328366D02*
X1577585Y-1314080D01*
X1606156Y-1299794D01*
X1649014Y-1299794D01*
X1677585Y-1314080D01*
X1691871Y-1342652D01*
X1691871Y-1499794D01*
X1691871Y-1342652D02*
X1706156Y-1314080D01*
X1734728Y-1299794D01*
X1777585Y-1299794D01*
X1806156Y-1314080D01*
X1820442Y-1342652D01*
X1820442Y-1499794D01*
X1963299Y-1499794D02*
X1963299Y-1299794D01*
X1963299Y-1328366D02*
X1977585Y-1314080D01*
X2006156Y-1299794D01*
X2049014Y-1299794D01*
X2077585Y-1314080D01*
X2091871Y-1342652D01*
X2091871Y-1499794D01*
X2091871Y-1342652D02*
X2106157Y-1314080D01*
X2134728Y-1299794D01*
X2177585Y-1299794D01*
X2206157Y-1314080D01*
X2220442Y-1342652D01*
X2220442Y-1499794D01*
X2806156Y-1185509D02*
X2549014Y-1571223D01*
X3191871Y-1199794D02*
X3220442Y-1199794D01*
X3249014Y-1214080D01*
X3263299Y-1228366D01*
X3277585Y-1256937D01*
X3291871Y-1314080D01*
X3291871Y-1385509D01*
X3277585Y-1442651D01*
X3263299Y-1471223D01*
X3249014Y-1485509D01*
X3220442Y-1499794D01*
X3191871Y-1499794D01*
X3163299Y-1485509D01*
X3149014Y-1471223D01*
X3134728Y-1442651D01*
X3120442Y-1385509D01*
X3120442Y-1314080D01*
X3134728Y-1256937D01*
X3149014Y-1228366D01*
X3163299Y-1214080D01*
X3191871Y-1199794D01*
X3420442Y-1471223D02*
X3434728Y-1485509D01*
X3420442Y-1499794D01*
X3406156Y-1485509D01*
X3420442Y-1471223D01*
X3420442Y-1499794D01*
X3620442Y-1199794D02*
X3649014Y-1199794D01*
X3677585Y-1214080D01*
X3691871Y-1228366D01*
X3706156Y-1256937D01*
X3720442Y-1314080D01*
X3720442Y-1385509D01*
X3706156Y-1442651D01*
X3691871Y-1471223D01*
X3677585Y-1485509D01*
X3649014Y-1499794D01*
X3620442Y-1499794D01*
X3591871Y-1485509D01*
X3577585Y-1471223D01*
X3563299Y-1442651D01*
X3549014Y-1385509D01*
X3549014Y-1314080D01*
X3563299Y-1256937D01*
X3577585Y-1228366D01*
X3591871Y-1214080D01*
X3620442Y-1199794D01*
X3991871Y-1199794D02*
X3849014Y-1199794D01*
X3834728Y-1342652D01*
X3849014Y-1328366D01*
X3877585Y-1314080D01*
X3949014Y-1314080D01*
X3977585Y-1328366D01*
X3991871Y-1342652D01*
X4006156Y-1371223D01*
X4006156Y-1442651D01*
X3991871Y-1471223D01*
X3977585Y-1485509D01*
X3949014Y-1499794D01*
X3877585Y-1499794D01*
X3849014Y-1485509D01*
X3834728Y-1471223D01*
X4277585Y-1199794D02*
X4134728Y-1199794D01*
X4120442Y-1342652D01*
X4134728Y-1328366D01*
X4163299Y-1314080D01*
X4234728Y-1314080D01*
X4263299Y-1328366D01*
X4277585Y-1342652D01*
X4291871Y-1371223D01*
X4291871Y-1442651D01*
X4277585Y-1471223D01*
X4263299Y-1485509D01*
X4234728Y-1499794D01*
X4163299Y-1499794D01*
X4134728Y-1485509D01*
X4120442Y-1471223D01*
X4577585Y-1499794D02*
X4406157Y-1499794D01*
X4491871Y-1499794D02*
X4491871Y-1199794D01*
X4463299Y-1242652D01*
X4434728Y-1271223D01*
X4406157Y-1285509D01*
X4691871Y-1199794D02*
X4691871Y-1256937D01*
X4806157Y-1199794D02*
X4806157Y-1256937D01*
X5249014Y-1614080D02*
X5234728Y-1599794D01*
X5206157Y-1556937D01*
X5191871Y-1528366D01*
X5177585Y-1485509D01*
X5163299Y-1414080D01*
X5163299Y-1356937D01*
X5177585Y-1285509D01*
X5191871Y-1242652D01*
X5206157Y-1214080D01*
X5234728Y-1171223D01*
X5249014Y-1156937D01*
X5520442Y-1499794D02*
X5349014Y-1499794D01*
X5434728Y-1499794D02*
X5434728Y-1199794D01*
X5406157Y-1242652D01*
X5377585Y-1271223D01*
X5349014Y-1285509D01*
X5877585Y-1499794D02*
X5877585Y-1199794D01*
X6006156Y-1499794D02*
X6006156Y-1342652D01*
X5991871Y-1314080D01*
X5963299Y-1299794D01*
X5920442Y-1299794D01*
X5891871Y-1314080D01*
X5877585Y-1328366D01*
X6191871Y-1499794D02*
X6163299Y-1485509D01*
X6149014Y-1471223D01*
X6134728Y-1442651D01*
X6134728Y-1356937D01*
X6149014Y-1328366D01*
X6163299Y-1314080D01*
X6191871Y-1299794D01*
X6234728Y-1299794D01*
X6263299Y-1314080D01*
X6277585Y-1328366D01*
X6291871Y-1356937D01*
X6291871Y-1442651D01*
X6277585Y-1471223D01*
X6263299Y-1485509D01*
X6234728Y-1499794D01*
X6191871Y-1499794D01*
X6463299Y-1499794D02*
X6434728Y-1485509D01*
X6420442Y-1456937D01*
X6420442Y-1199794D01*
X6691871Y-1485509D02*
X6663299Y-1499794D01*
X6606156Y-1499794D01*
X6577585Y-1485509D01*
X6563299Y-1456937D01*
X6563299Y-1342652D01*
X6577585Y-1314080D01*
X6606156Y-1299794D01*
X6663299Y-1299794D01*
X6691871Y-1314080D01*
X6706156Y-1342652D01*
X6706156Y-1371223D01*
X6563299Y-1399794D01*
X6806156Y-1614080D02*
X6820442Y-1599794D01*
X6849014Y-1556937D01*
X6863299Y-1528366D01*
X6877585Y-1485509D01*
X6891871Y-1414080D01*
X6891871Y-1356937D01*
X6877585Y-1285509D01*
X6863299Y-1242652D01*
X6849014Y-1214080D01*
X6820442Y-1171223D01*
X6806156Y-1156937D01*
X7349014Y-1614080D02*
X7334728Y-1599794D01*
X7306156Y-1556937D01*
X7291871Y-1528366D01*
X7277585Y-1485509D01*
X7263299Y-1414080D01*
X7263299Y-1356937D01*
X7277585Y-1285509D01*
X7291871Y-1242652D01*
X7306156Y-1214080D01*
X7334728Y-1171223D01*
X7349014Y-1156937D01*
X7463299Y-1299794D02*
X7463299Y-1499794D01*
X7463299Y-1328366D02*
X7477585Y-1314080D01*
X7506156Y-1299794D01*
X7549014Y-1299794D01*
X7577585Y-1314080D01*
X7591871Y-1342652D01*
X7591871Y-1499794D01*
X7777585Y-1499794D02*
X7749014Y-1485509D01*
X7734728Y-1471223D01*
X7720442Y-1442651D01*
X7720442Y-1356937D01*
X7734728Y-1328366D01*
X7749014Y-1314080D01*
X7777585Y-1299794D01*
X7820442Y-1299794D01*
X7849014Y-1314080D01*
X7863299Y-1328366D01*
X7877585Y-1356937D01*
X7877585Y-1442651D01*
X7863299Y-1471223D01*
X7849014Y-1485509D01*
X7820442Y-1499794D01*
X7777585Y-1499794D01*
X7963299Y-1299794D02*
X8077585Y-1299794D01*
X8006156Y-1199794D02*
X8006156Y-1456937D01*
X8020442Y-1485509D01*
X8049014Y-1499794D01*
X8077585Y-1499794D01*
X8406157Y-1299794D02*
X8406157Y-1599794D01*
X8406157Y-1314080D02*
X8434728Y-1299794D01*
X8491871Y-1299794D01*
X8520442Y-1314080D01*
X8534728Y-1328366D01*
X8549014Y-1356937D01*
X8549014Y-1442651D01*
X8534728Y-1471223D01*
X8520442Y-1485509D01*
X8491871Y-1499794D01*
X8434728Y-1499794D01*
X8406157Y-1485509D01*
X8720442Y-1499794D02*
X8691871Y-1485509D01*
X8677585Y-1456937D01*
X8677585Y-1199794D01*
X8963299Y-1499794D02*
X8963299Y-1342652D01*
X8949014Y-1314080D01*
X8920442Y-1299794D01*
X8863299Y-1299794D01*
X8834728Y-1314080D01*
X8963299Y-1485509D02*
X8934728Y-1499794D01*
X8863299Y-1499794D01*
X8834728Y-1485509D01*
X8820442Y-1456937D01*
X8820442Y-1428366D01*
X8834728Y-1399794D01*
X8863299Y-1385509D01*
X8934728Y-1385509D01*
X8963299Y-1371223D01*
X9063299Y-1299794D02*
X9177585Y-1299794D01*
X9106157Y-1199794D02*
X9106157Y-1456937D01*
X9120442Y-1485509D01*
X9149014Y-1499794D01*
X9177585Y-1499794D01*
X9391871Y-1485509D02*
X9363299Y-1499794D01*
X9306157Y-1499794D01*
X9277585Y-1485509D01*
X9263299Y-1456937D01*
X9263299Y-1342652D01*
X9277585Y-1314080D01*
X9306157Y-1299794D01*
X9363299Y-1299794D01*
X9391871Y-1314080D01*
X9406157Y-1342652D01*
X9406157Y-1371223D01*
X9263299Y-1399794D01*
X9663299Y-1499794D02*
X9663299Y-1199794D01*
X9663299Y-1485509D02*
X9634728Y-1499794D01*
X9577585Y-1499794D01*
X9549014Y-1485509D01*
X9534728Y-1471223D01*
X9520442Y-1442651D01*
X9520442Y-1356937D01*
X9534728Y-1328366D01*
X9549014Y-1314080D01*
X9577585Y-1299794D01*
X9634728Y-1299794D01*
X9663299Y-1314080D01*
X9777585Y-1614080D02*
X9791871Y-1599794D01*
X9820442Y-1556937D01*
X9834728Y-1528366D01*
X9849014Y-1485509D01*
X9863299Y-1414080D01*
X9863299Y-1356937D01*
X9849014Y-1285509D01*
X9834728Y-1242652D01*
X9820442Y-1214080D01*
X9791871Y-1171223D01*
X9777585Y-1156937D01*
M02*
