G04 #@! TF.GenerationSoftware,KiCad,Pcbnew,5.1.12*
G04 #@! TF.CreationDate,2022-08-14T20:08:33+02:00*
G04 #@! TF.ProjectId,hec-base,6865632d-6261-4736-952e-6b696361645f,0001*
G04 #@! TF.SameCoordinates,PX4cec620PY8f8c0c0*
G04 #@! TF.FileFunction,Paste,Bot*
G04 #@! TF.FilePolarity,Positive*
%FSLAX46Y46*%
G04 Gerber Fmt 4.6, Leading zero omitted, Abs format (unit mm)*
G04 Created by KiCad (PCBNEW 5.1.12) date 2022-08-14 20:08:33*
%MOMM*%
%LPD*%
G01*
G04 APERTURE LIST*
G04 #@! TA.AperFunction,Profile*
%ADD10C,0.200000*%
G04 #@! TD*
%ADD11R,2.500000X2.300000*%
%ADD12R,0.900000X0.800000*%
%ADD13R,2.300000X2.500000*%
%ADD14C,0.100000*%
%ADD15R,0.400000X0.650000*%
%ADD16R,0.800000X0.900000*%
G04 APERTURE END LIST*
D10*
X47811560Y9541500D02*
X47811560Y38296900D01*
X47310460Y39114620D02*
X46483160Y40318400D01*
X9533860Y19200D02*
X38289260Y19200D01*
X512665Y8723800D02*
X1340000Y7520000D01*
X40310760Y46490760D02*
X39106960Y47318095D01*
X47310460Y8723800D02*
X47811560Y9541500D01*
X47811560Y38296900D02*
X47310460Y39114620D01*
X2229200Y41477230D02*
X1340000Y40318400D01*
X512665Y39114620D02*
X11566Y38296900D01*
X3177830Y42587930D02*
X2229200Y41477230D01*
X8716140Y520300D02*
X9533860Y19200D01*
X7512360Y46490760D02*
X6353530Y45601560D01*
X42580260Y44652930D02*
X41469560Y45601560D01*
X5242830Y3185500D02*
X6353530Y2236800D01*
X46483160Y40318400D02*
X45593960Y41477230D01*
X2229200Y6361200D02*
X3177830Y5250500D01*
X40310760Y1347600D02*
X41469560Y2236800D01*
X6353530Y45601560D02*
X5242830Y44652930D01*
X41469560Y45601560D02*
X40310760Y46490760D01*
X38289260Y19200D02*
X39106960Y520300D01*
X7512360Y1347600D02*
X8716140Y520300D01*
X45593960Y41477230D02*
X44645260Y42587930D01*
X46483160Y7520000D02*
X47310460Y8723800D01*
X3177830Y5250500D02*
X4183290Y4190900D01*
X1340000Y40318400D02*
X512665Y39114620D01*
X4183290Y43647470D02*
X3177830Y42587930D01*
X44645260Y42587930D02*
X43639860Y43647470D01*
X39106960Y520300D02*
X40310760Y1347600D01*
X44645260Y5250500D02*
X45593960Y6361200D01*
X41469560Y2236800D02*
X42580260Y3185500D01*
X4183290Y4190900D02*
X5242830Y3185500D01*
X8716140Y47318095D02*
X7512360Y46490760D01*
X43639860Y4190900D02*
X44645260Y5250500D01*
X42580260Y3185500D02*
X43639860Y4190900D01*
X11566Y9541500D02*
X512665Y8723800D01*
X43639860Y43647470D02*
X42580260Y44652930D01*
X45593960Y6361200D02*
X46483160Y7520000D01*
X5242830Y44652930D02*
X4183290Y43647470D01*
X39106960Y47318095D02*
X38289260Y47819194D01*
X6353530Y2236800D02*
X7512360Y1347600D01*
X38289260Y47819194D02*
X9533860Y47819194D01*
X11566Y38296900D02*
X11566Y9541500D01*
X9533860Y47819194D02*
X8716140Y47318095D01*
X1340000Y7520000D02*
X2229200Y6361200D01*
G04 #@! TO.C,FL203*
G36*
G01*
X35762440Y44391480D02*
X35762440Y42791480D01*
G75*
G02*
X35262440Y42291480I-500000J0D01*
G01*
X34262440Y42291480D01*
G75*
G02*
X33762440Y42791480I0J500000D01*
G01*
X33762440Y44391480D01*
G75*
G02*
X34262440Y44891480I500000J0D01*
G01*
X35262440Y44891480D01*
G75*
G02*
X35762440Y44391480I0J-500000D01*
G01*
G37*
G36*
G01*
X32362440Y44007480D02*
X32362440Y43175480D01*
G75*
G02*
X31978440Y42791480I-384000J0D01*
G01*
X30746440Y42791480D01*
G75*
G02*
X30362440Y43175480I0J384000D01*
G01*
X30362440Y44007480D01*
G75*
G02*
X30746440Y44391480I384000J0D01*
G01*
X31978440Y44391480D01*
G75*
G02*
X32362440Y44007480I0J-384000D01*
G01*
G37*
G36*
G01*
X39162440Y44007480D02*
X39162440Y43175480D01*
G75*
G02*
X38778440Y42791480I-384000J0D01*
G01*
X37546440Y42791480D01*
G75*
G02*
X37162440Y43175480I0J384000D01*
G01*
X37162440Y44007480D01*
G75*
G02*
X37546440Y44391480I384000J0D01*
G01*
X38778440Y44391480D01*
G75*
G02*
X39162440Y44007480I0J-384000D01*
G01*
G37*
G04 #@! TD*
G04 #@! TO.C,FL502*
G36*
G01*
X31562800Y15049600D02*
X31562800Y16649600D01*
G75*
G02*
X32062800Y17149600I500000J0D01*
G01*
X33062800Y17149600D01*
G75*
G02*
X33562800Y16649600I0J-500000D01*
G01*
X33562800Y15049600D01*
G75*
G02*
X33062800Y14549600I-500000J0D01*
G01*
X32062800Y14549600D01*
G75*
G02*
X31562800Y15049600I0J500000D01*
G01*
G37*
G36*
G01*
X34962800Y15433600D02*
X34962800Y16265600D01*
G75*
G02*
X35346800Y16649600I384000J0D01*
G01*
X36578800Y16649600D01*
G75*
G02*
X36962800Y16265600I0J-384000D01*
G01*
X36962800Y15433600D01*
G75*
G02*
X36578800Y15049600I-384000J0D01*
G01*
X35346800Y15049600D01*
G75*
G02*
X34962800Y15433600I0J384000D01*
G01*
G37*
G36*
G01*
X28162800Y15433600D02*
X28162800Y16265600D01*
G75*
G02*
X28546800Y16649600I384000J0D01*
G01*
X29778800Y16649600D01*
G75*
G02*
X30162800Y16265600I0J-384000D01*
G01*
X30162800Y15433600D01*
G75*
G02*
X29778800Y15049600I-384000J0D01*
G01*
X28546800Y15049600D01*
G75*
G02*
X28162800Y15433600I0J384000D01*
G01*
G37*
G04 #@! TD*
G04 #@! TO.C,R215*
G36*
G01*
X17596300Y41245200D02*
X17596300Y40695200D01*
G75*
G02*
X17396300Y40495200I-200000J0D01*
G01*
X16996300Y40495200D01*
G75*
G02*
X16796300Y40695200I0J200000D01*
G01*
X16796300Y41245200D01*
G75*
G02*
X16996300Y41445200I200000J0D01*
G01*
X17396300Y41445200D01*
G75*
G02*
X17596300Y41245200I0J-200000D01*
G01*
G37*
G36*
G01*
X19246300Y41245200D02*
X19246300Y40695200D01*
G75*
G02*
X19046300Y40495200I-200000J0D01*
G01*
X18646300Y40495200D01*
G75*
G02*
X18446300Y40695200I0J200000D01*
G01*
X18446300Y41245200D01*
G75*
G02*
X18646300Y41445200I200000J0D01*
G01*
X19046300Y41445200D01*
G75*
G02*
X19246300Y41245200I0J-200000D01*
G01*
G37*
G04 #@! TD*
G04 #@! TO.C,C201*
G36*
G01*
X27782100Y31577300D02*
X27782100Y30627300D01*
G75*
G02*
X27532100Y30377300I-250000J0D01*
G01*
X27032100Y30377300D01*
G75*
G02*
X26782100Y30627300I0J250000D01*
G01*
X26782100Y31577300D01*
G75*
G02*
X27032100Y31827300I250000J0D01*
G01*
X27532100Y31827300D01*
G75*
G02*
X27782100Y31577300I0J-250000D01*
G01*
G37*
G36*
G01*
X29682100Y31577300D02*
X29682100Y30627300D01*
G75*
G02*
X29432100Y30377300I-250000J0D01*
G01*
X28932100Y30377300D01*
G75*
G02*
X28682100Y30627300I0J250000D01*
G01*
X28682100Y31577300D01*
G75*
G02*
X28932100Y31827300I250000J0D01*
G01*
X29432100Y31827300D01*
G75*
G02*
X29682100Y31577300I0J-250000D01*
G01*
G37*
G04 #@! TD*
G04 #@! TO.C,C208*
G36*
G01*
X36978400Y40342700D02*
X36478400Y40342700D01*
G75*
G02*
X36253400Y40567700I0J225000D01*
G01*
X36253400Y41017700D01*
G75*
G02*
X36478400Y41242700I225000J0D01*
G01*
X36978400Y41242700D01*
G75*
G02*
X37203400Y41017700I0J-225000D01*
G01*
X37203400Y40567700D01*
G75*
G02*
X36978400Y40342700I-225000J0D01*
G01*
G37*
G36*
G01*
X36978400Y38792700D02*
X36478400Y38792700D01*
G75*
G02*
X36253400Y39017700I0J225000D01*
G01*
X36253400Y39467700D01*
G75*
G02*
X36478400Y39692700I225000J0D01*
G01*
X36978400Y39692700D01*
G75*
G02*
X37203400Y39467700I0J-225000D01*
G01*
X37203400Y39017700D01*
G75*
G02*
X36978400Y38792700I-225000J0D01*
G01*
G37*
G04 #@! TD*
G04 #@! TO.C,C209*
G36*
G01*
X35387300Y40277200D02*
X34437300Y40277200D01*
G75*
G02*
X34187300Y40527200I0J250000D01*
G01*
X34187300Y41027200D01*
G75*
G02*
X34437300Y41277200I250000J0D01*
G01*
X35387300Y41277200D01*
G75*
G02*
X35637300Y41027200I0J-250000D01*
G01*
X35637300Y40527200D01*
G75*
G02*
X35387300Y40277200I-250000J0D01*
G01*
G37*
G36*
G01*
X35387300Y38377200D02*
X34437300Y38377200D01*
G75*
G02*
X34187300Y38627200I0J250000D01*
G01*
X34187300Y39127200D01*
G75*
G02*
X34437300Y39377200I250000J0D01*
G01*
X35387300Y39377200D01*
G75*
G02*
X35637300Y39127200I0J-250000D01*
G01*
X35637300Y38627200D01*
G75*
G02*
X35387300Y38377200I-250000J0D01*
G01*
G37*
G04 #@! TD*
G04 #@! TO.C,C210*
G36*
G01*
X33355300Y40277200D02*
X32405300Y40277200D01*
G75*
G02*
X32155300Y40527200I0J250000D01*
G01*
X32155300Y41027200D01*
G75*
G02*
X32405300Y41277200I250000J0D01*
G01*
X33355300Y41277200D01*
G75*
G02*
X33605300Y41027200I0J-250000D01*
G01*
X33605300Y40527200D01*
G75*
G02*
X33355300Y40277200I-250000J0D01*
G01*
G37*
G36*
G01*
X33355300Y38377200D02*
X32405300Y38377200D01*
G75*
G02*
X32155300Y38627200I0J250000D01*
G01*
X32155300Y39127200D01*
G75*
G02*
X32405300Y39377200I250000J0D01*
G01*
X33355300Y39377200D01*
G75*
G02*
X33605300Y39127200I0J-250000D01*
G01*
X33605300Y38627200D01*
G75*
G02*
X33355300Y38377200I-250000J0D01*
G01*
G37*
G04 #@! TD*
G04 #@! TO.C,C211*
G36*
G01*
X40581700Y42795000D02*
X40581700Y42295000D01*
G75*
G02*
X40356700Y42070000I-225000J0D01*
G01*
X39906700Y42070000D01*
G75*
G02*
X39681700Y42295000I0J225000D01*
G01*
X39681700Y42795000D01*
G75*
G02*
X39906700Y43020000I225000J0D01*
G01*
X40356700Y43020000D01*
G75*
G02*
X40581700Y42795000I0J-225000D01*
G01*
G37*
G36*
G01*
X42131700Y42795000D02*
X42131700Y42295000D01*
G75*
G02*
X41906700Y42070000I-225000J0D01*
G01*
X41456700Y42070000D01*
G75*
G02*
X41231700Y42295000I0J225000D01*
G01*
X41231700Y42795000D01*
G75*
G02*
X41456700Y43020000I225000J0D01*
G01*
X41906700Y43020000D01*
G75*
G02*
X42131700Y42795000I0J-225000D01*
G01*
G37*
G04 #@! TD*
G04 #@! TO.C,C212*
G36*
G01*
X28341200Y45584300D02*
X28341200Y46084300D01*
G75*
G02*
X28566200Y46309300I225000J0D01*
G01*
X29016200Y46309300D01*
G75*
G02*
X29241200Y46084300I0J-225000D01*
G01*
X29241200Y45584300D01*
G75*
G02*
X29016200Y45359300I-225000J0D01*
G01*
X28566200Y45359300D01*
G75*
G02*
X28341200Y45584300I0J225000D01*
G01*
G37*
G36*
G01*
X26791200Y45584300D02*
X26791200Y46084300D01*
G75*
G02*
X27016200Y46309300I225000J0D01*
G01*
X27466200Y46309300D01*
G75*
G02*
X27691200Y46084300I0J-225000D01*
G01*
X27691200Y45584300D01*
G75*
G02*
X27466200Y45359300I-225000J0D01*
G01*
X27016200Y45359300D01*
G75*
G02*
X26791200Y45584300I0J225000D01*
G01*
G37*
G04 #@! TD*
G04 #@! TO.C,C213*
G36*
G01*
X29942600Y40393500D02*
X29442600Y40393500D01*
G75*
G02*
X29217600Y40618500I0J225000D01*
G01*
X29217600Y41068500D01*
G75*
G02*
X29442600Y41293500I225000J0D01*
G01*
X29942600Y41293500D01*
G75*
G02*
X30167600Y41068500I0J-225000D01*
G01*
X30167600Y40618500D01*
G75*
G02*
X29942600Y40393500I-225000J0D01*
G01*
G37*
G36*
G01*
X29942600Y38843500D02*
X29442600Y38843500D01*
G75*
G02*
X29217600Y39068500I0J225000D01*
G01*
X29217600Y39518500D01*
G75*
G02*
X29442600Y39743500I225000J0D01*
G01*
X29942600Y39743500D01*
G75*
G02*
X30167600Y39518500I0J-225000D01*
G01*
X30167600Y39068500D01*
G75*
G02*
X29942600Y38843500I-225000J0D01*
G01*
G37*
G04 #@! TD*
G04 #@! TO.C,C302*
G36*
G01*
X31060200Y9596000D02*
X30560200Y9596000D01*
G75*
G02*
X30335200Y9821000I0J225000D01*
G01*
X30335200Y10271000D01*
G75*
G02*
X30560200Y10496000I225000J0D01*
G01*
X31060200Y10496000D01*
G75*
G02*
X31285200Y10271000I0J-225000D01*
G01*
X31285200Y9821000D01*
G75*
G02*
X31060200Y9596000I-225000J0D01*
G01*
G37*
G36*
G01*
X31060200Y8046000D02*
X30560200Y8046000D01*
G75*
G02*
X30335200Y8271000I0J225000D01*
G01*
X30335200Y8721000D01*
G75*
G02*
X30560200Y8946000I225000J0D01*
G01*
X31060200Y8946000D01*
G75*
G02*
X31285200Y8721000I0J-225000D01*
G01*
X31285200Y8271000D01*
G75*
G02*
X31060200Y8046000I-225000J0D01*
G01*
G37*
G04 #@! TD*
G04 #@! TO.C,C303*
G36*
G01*
X11450200Y12704000D02*
X11450200Y13204000D01*
G75*
G02*
X11675200Y13429000I225000J0D01*
G01*
X12125200Y13429000D01*
G75*
G02*
X12350200Y13204000I0J-225000D01*
G01*
X12350200Y12704000D01*
G75*
G02*
X12125200Y12479000I-225000J0D01*
G01*
X11675200Y12479000D01*
G75*
G02*
X11450200Y12704000I0J225000D01*
G01*
G37*
G36*
G01*
X9900200Y12704000D02*
X9900200Y13204000D01*
G75*
G02*
X10125200Y13429000I225000J0D01*
G01*
X10575200Y13429000D01*
G75*
G02*
X10800200Y13204000I0J-225000D01*
G01*
X10800200Y12704000D01*
G75*
G02*
X10575200Y12479000I-225000J0D01*
G01*
X10125200Y12479000D01*
G75*
G02*
X9900200Y12704000I0J225000D01*
G01*
G37*
G04 #@! TD*
G04 #@! TO.C,C304*
G36*
G01*
X19503200Y11907400D02*
X19003200Y11907400D01*
G75*
G02*
X18778200Y12132400I0J225000D01*
G01*
X18778200Y12582400D01*
G75*
G02*
X19003200Y12807400I225000J0D01*
G01*
X19503200Y12807400D01*
G75*
G02*
X19728200Y12582400I0J-225000D01*
G01*
X19728200Y12132400D01*
G75*
G02*
X19503200Y11907400I-225000J0D01*
G01*
G37*
G36*
G01*
X19503200Y10357400D02*
X19003200Y10357400D01*
G75*
G02*
X18778200Y10582400I0J225000D01*
G01*
X18778200Y11032400D01*
G75*
G02*
X19003200Y11257400I225000J0D01*
G01*
X19503200Y11257400D01*
G75*
G02*
X19728200Y11032400I0J-225000D01*
G01*
X19728200Y10582400D01*
G75*
G02*
X19503200Y10357400I-225000J0D01*
G01*
G37*
G04 #@! TD*
G04 #@! TO.C,C305*
G36*
G01*
X30653800Y12986900D02*
X30153800Y12986900D01*
G75*
G02*
X29928800Y13211900I0J225000D01*
G01*
X29928800Y13661900D01*
G75*
G02*
X30153800Y13886900I225000J0D01*
G01*
X30653800Y13886900D01*
G75*
G02*
X30878800Y13661900I0J-225000D01*
G01*
X30878800Y13211900D01*
G75*
G02*
X30653800Y12986900I-225000J0D01*
G01*
G37*
G36*
G01*
X30653800Y11436900D02*
X30153800Y11436900D01*
G75*
G02*
X29928800Y11661900I0J225000D01*
G01*
X29928800Y12111900D01*
G75*
G02*
X30153800Y12336900I225000J0D01*
G01*
X30653800Y12336900D01*
G75*
G02*
X30878800Y12111900I0J-225000D01*
G01*
X30878800Y11661900D01*
G75*
G02*
X30653800Y11436900I-225000J0D01*
G01*
G37*
G04 #@! TD*
G04 #@! TO.C,C402*
G36*
G01*
X22635400Y25189300D02*
X23135400Y25189300D01*
G75*
G02*
X23360400Y24964300I0J-225000D01*
G01*
X23360400Y24514300D01*
G75*
G02*
X23135400Y24289300I-225000J0D01*
G01*
X22635400Y24289300D01*
G75*
G02*
X22410400Y24514300I0J225000D01*
G01*
X22410400Y24964300D01*
G75*
G02*
X22635400Y25189300I225000J0D01*
G01*
G37*
G36*
G01*
X22635400Y26739300D02*
X23135400Y26739300D01*
G75*
G02*
X23360400Y26514300I0J-225000D01*
G01*
X23360400Y26064300D01*
G75*
G02*
X23135400Y25839300I-225000J0D01*
G01*
X22635400Y25839300D01*
G75*
G02*
X22410400Y26064300I0J225000D01*
G01*
X22410400Y26514300D01*
G75*
G02*
X22635400Y26739300I225000J0D01*
G01*
G37*
G04 #@! TD*
G04 #@! TO.C,C403*
G36*
G01*
X23084600Y31986100D02*
X22584600Y31986100D01*
G75*
G02*
X22359600Y32211100I0J225000D01*
G01*
X22359600Y32661100D01*
G75*
G02*
X22584600Y32886100I225000J0D01*
G01*
X23084600Y32886100D01*
G75*
G02*
X23309600Y32661100I0J-225000D01*
G01*
X23309600Y32211100D01*
G75*
G02*
X23084600Y31986100I-225000J0D01*
G01*
G37*
G36*
G01*
X23084600Y30436100D02*
X22584600Y30436100D01*
G75*
G02*
X22359600Y30661100I0J225000D01*
G01*
X22359600Y31111100D01*
G75*
G02*
X22584600Y31336100I225000J0D01*
G01*
X23084600Y31336100D01*
G75*
G02*
X23309600Y31111100I0J-225000D01*
G01*
X23309600Y30661100D01*
G75*
G02*
X23084600Y30436100I-225000J0D01*
G01*
G37*
G04 #@! TD*
G04 #@! TO.C,C501*
G36*
G01*
X24226400Y15713900D02*
X24226400Y16213900D01*
G75*
G02*
X24451400Y16438900I225000J0D01*
G01*
X24901400Y16438900D01*
G75*
G02*
X25126400Y16213900I0J-225000D01*
G01*
X25126400Y15713900D01*
G75*
G02*
X24901400Y15488900I-225000J0D01*
G01*
X24451400Y15488900D01*
G75*
G02*
X24226400Y15713900I0J225000D01*
G01*
G37*
G36*
G01*
X22676400Y15713900D02*
X22676400Y16213900D01*
G75*
G02*
X22901400Y16438900I225000J0D01*
G01*
X23351400Y16438900D01*
G75*
G02*
X23576400Y16213900I0J-225000D01*
G01*
X23576400Y15713900D01*
G75*
G02*
X23351400Y15488900I-225000J0D01*
G01*
X22901400Y15488900D01*
G75*
G02*
X22676400Y15713900I0J225000D01*
G01*
G37*
G04 #@! TD*
G04 #@! TO.C,C504*
G36*
G01*
X17466500Y18128100D02*
X17966500Y18128100D01*
G75*
G02*
X18191500Y17903100I0J-225000D01*
G01*
X18191500Y17453100D01*
G75*
G02*
X17966500Y17228100I-225000J0D01*
G01*
X17466500Y17228100D01*
G75*
G02*
X17241500Y17453100I0J225000D01*
G01*
X17241500Y17903100D01*
G75*
G02*
X17466500Y18128100I225000J0D01*
G01*
G37*
G36*
G01*
X17466500Y19678100D02*
X17966500Y19678100D01*
G75*
G02*
X18191500Y19453100I0J-225000D01*
G01*
X18191500Y19003100D01*
G75*
G02*
X17966500Y18778100I-225000J0D01*
G01*
X17466500Y18778100D01*
G75*
G02*
X17241500Y19003100I0J225000D01*
G01*
X17241500Y19453100D01*
G75*
G02*
X17466500Y19678100I225000J0D01*
G01*
G37*
G04 #@! TD*
D11*
G04 #@! TO.C,D201*
X36490800Y30822900D03*
X32190800Y30822900D03*
G04 #@! TD*
D12*
G04 #@! TO.C,D302*
X26349200Y11684000D03*
X24349200Y12634000D03*
X24349200Y10734000D03*
G04 #@! TD*
D13*
G04 #@! TO.C,D303*
X40855900Y7870300D03*
X40855900Y12170300D03*
G04 #@! TD*
G04 #@! TO.C,D305*
X36271200Y12157600D03*
X36271200Y7857600D03*
G04 #@! TD*
G04 #@! TO.C,D502*
X39725600Y16747600D03*
X39725600Y21047600D03*
G04 #@! TD*
D14*
G04 #@! TO.C,E301*
G36*
X23846660Y4548182D02*
G01*
X23846660Y4548150D01*
X23671660Y4464850D01*
X23671660Y4631482D01*
X23846660Y4548182D01*
G37*
G36*
X23846660Y4878382D02*
G01*
X23846660Y4878350D01*
X23671660Y4795050D01*
X23671660Y4961682D01*
X23846660Y4878382D01*
G37*
G36*
X23846660Y4713282D02*
G01*
X23846660Y4713250D01*
X23671660Y4629950D01*
X23671660Y4796582D01*
X23846660Y4713282D01*
G37*
G36*
X24181940Y4631482D02*
G01*
X24181940Y4464850D01*
X24006940Y4548150D01*
X24006940Y4548182D01*
X24181940Y4631482D01*
G37*
G36*
X24181940Y4796582D02*
G01*
X24181940Y4629950D01*
X24006940Y4713250D01*
X24006940Y4713282D01*
X24181940Y4796582D01*
G37*
G36*
X24181940Y4961682D02*
G01*
X24181940Y4795050D01*
X24006940Y4878350D01*
X24006940Y4878382D01*
X24181940Y4961682D01*
G37*
G04 #@! TD*
G04 #@! TO.C,E302*
G36*
X29044916Y6262500D02*
G01*
X29044884Y6262500D01*
X28961584Y6437500D01*
X29128216Y6437500D01*
X29044916Y6262500D01*
G37*
G36*
X29375116Y6262500D02*
G01*
X29375084Y6262500D01*
X29291784Y6437500D01*
X29458416Y6437500D01*
X29375116Y6262500D01*
G37*
G36*
X29210016Y6262500D02*
G01*
X29209984Y6262500D01*
X29126684Y6437500D01*
X29293316Y6437500D01*
X29210016Y6262500D01*
G37*
G36*
X29128216Y5927220D02*
G01*
X28961584Y5927220D01*
X29044884Y6102220D01*
X29044916Y6102220D01*
X29128216Y5927220D01*
G37*
G36*
X29293316Y5927220D02*
G01*
X29126684Y5927220D01*
X29209984Y6102220D01*
X29210016Y6102220D01*
X29293316Y5927220D01*
G37*
G36*
X29458416Y5927220D02*
G01*
X29291784Y5927220D01*
X29375084Y6102220D01*
X29375116Y6102220D01*
X29458416Y5927220D01*
G37*
G04 #@! TD*
G04 #@! TO.C,E303*
G36*
X13280260Y4560882D02*
G01*
X13280260Y4560850D01*
X13105260Y4477550D01*
X13105260Y4644182D01*
X13280260Y4560882D01*
G37*
G36*
X13280260Y4891082D02*
G01*
X13280260Y4891050D01*
X13105260Y4807750D01*
X13105260Y4974382D01*
X13280260Y4891082D01*
G37*
G36*
X13280260Y4725982D02*
G01*
X13280260Y4725950D01*
X13105260Y4642650D01*
X13105260Y4809282D01*
X13280260Y4725982D01*
G37*
G36*
X13615540Y4644182D02*
G01*
X13615540Y4477550D01*
X13440540Y4560850D01*
X13440540Y4560882D01*
X13615540Y4644182D01*
G37*
G36*
X13615540Y4809282D02*
G01*
X13615540Y4642650D01*
X13440540Y4725950D01*
X13440540Y4725982D01*
X13615540Y4809282D01*
G37*
G36*
X13615540Y4974382D02*
G01*
X13615540Y4807750D01*
X13440540Y4891050D01*
X13440540Y4891082D01*
X13615540Y4974382D01*
G37*
G04 #@! TD*
G04 #@! TO.C,E304*
G36*
X20450940Y4887918D02*
G01*
X20450940Y4887950D01*
X20625940Y4971250D01*
X20625940Y4804618D01*
X20450940Y4887918D01*
G37*
G36*
X20450940Y4557718D02*
G01*
X20450940Y4557750D01*
X20625940Y4641050D01*
X20625940Y4474418D01*
X20450940Y4557718D01*
G37*
G36*
X20450940Y4722818D02*
G01*
X20450940Y4722850D01*
X20625940Y4806150D01*
X20625940Y4639518D01*
X20450940Y4722818D01*
G37*
G36*
X20115660Y4804618D02*
G01*
X20115660Y4971250D01*
X20290660Y4887950D01*
X20290660Y4887918D01*
X20115660Y4804618D01*
G37*
G36*
X20115660Y4639518D02*
G01*
X20115660Y4806150D01*
X20290660Y4722850D01*
X20290660Y4722818D01*
X20115660Y4639518D01*
G37*
G36*
X20115660Y4474418D02*
G01*
X20115660Y4641050D01*
X20290660Y4557750D01*
X20290660Y4557718D01*
X20115660Y4474418D01*
G37*
G04 #@! TD*
G04 #@! TO.C,E305*
G36*
X34624140Y4837118D02*
G01*
X34624140Y4837150D01*
X34799140Y4920450D01*
X34799140Y4753818D01*
X34624140Y4837118D01*
G37*
G36*
X34624140Y4506918D02*
G01*
X34624140Y4506950D01*
X34799140Y4590250D01*
X34799140Y4423618D01*
X34624140Y4506918D01*
G37*
G36*
X34624140Y4672018D02*
G01*
X34624140Y4672050D01*
X34799140Y4755350D01*
X34799140Y4588718D01*
X34624140Y4672018D01*
G37*
G36*
X34288860Y4753818D02*
G01*
X34288860Y4920450D01*
X34463860Y4837150D01*
X34463860Y4837118D01*
X34288860Y4753818D01*
G37*
G36*
X34288860Y4588718D02*
G01*
X34288860Y4755350D01*
X34463860Y4672050D01*
X34463860Y4672018D01*
X34288860Y4588718D01*
G37*
G36*
X34288860Y4423618D02*
G01*
X34288860Y4590250D01*
X34463860Y4506950D01*
X34463860Y4506918D01*
X34288860Y4423618D01*
G37*
G04 #@! TD*
G04 #@! TO.C,F301*
G36*
G01*
X27822999Y9310800D02*
X29073001Y9310800D01*
G75*
G02*
X29323000Y9060801I0J-249999D01*
G01*
X29323000Y8435799D01*
G75*
G02*
X29073001Y8185800I-249999J0D01*
G01*
X27822999Y8185800D01*
G75*
G02*
X27573000Y8435799I0J249999D01*
G01*
X27573000Y9060801D01*
G75*
G02*
X27822999Y9310800I249999J0D01*
G01*
G37*
G36*
G01*
X27822999Y12235800D02*
X29073001Y12235800D01*
G75*
G02*
X29323000Y11985801I0J-249999D01*
G01*
X29323000Y11360799D01*
G75*
G02*
X29073001Y11110800I-249999J0D01*
G01*
X27822999Y11110800D01*
G75*
G02*
X27573000Y11360799I0J249999D01*
G01*
X27573000Y11985801D01*
G75*
G02*
X27822999Y12235800I249999J0D01*
G01*
G37*
G04 #@! TD*
G04 #@! TO.C,F302*
G36*
G01*
X32191799Y7736000D02*
X33441801Y7736000D01*
G75*
G02*
X33691800Y7486001I0J-249999D01*
G01*
X33691800Y6860999D01*
G75*
G02*
X33441801Y6611000I-249999J0D01*
G01*
X32191799Y6611000D01*
G75*
G02*
X31941800Y6860999I0J249999D01*
G01*
X31941800Y7486001D01*
G75*
G02*
X32191799Y7736000I249999J0D01*
G01*
G37*
G36*
G01*
X32191799Y10661000D02*
X33441801Y10661000D01*
G75*
G02*
X33691800Y10411001I0J-249999D01*
G01*
X33691800Y9785999D01*
G75*
G02*
X33441801Y9536000I-249999J0D01*
G01*
X32191799Y9536000D01*
G75*
G02*
X31941800Y9785999I0J249999D01*
G01*
X31941800Y10411001D01*
G75*
G02*
X32191799Y10661000I249999J0D01*
G01*
G37*
G04 #@! TD*
D15*
G04 #@! TO.C,IC203*
X28107400Y40967700D03*
X26807400Y40967700D03*
X27457400Y39067700D03*
X27457400Y40967700D03*
X26807400Y39067700D03*
X28107400Y39067700D03*
G04 #@! TD*
G04 #@! TO.C,IC205*
G36*
G01*
X19219500Y34377900D02*
X19219500Y33052900D01*
G75*
G02*
X19144500Y32977900I-75000J0D01*
G01*
X18994500Y32977900D01*
G75*
G02*
X18919500Y33052900I0J75000D01*
G01*
X18919500Y34377900D01*
G75*
G02*
X18994500Y34452900I75000J0D01*
G01*
X19144500Y34452900D01*
G75*
G02*
X19219500Y34377900I0J-75000D01*
G01*
G37*
G36*
G01*
X18719500Y34377900D02*
X18719500Y33052900D01*
G75*
G02*
X18644500Y32977900I-75000J0D01*
G01*
X18494500Y32977900D01*
G75*
G02*
X18419500Y33052900I0J75000D01*
G01*
X18419500Y34377900D01*
G75*
G02*
X18494500Y34452900I75000J0D01*
G01*
X18644500Y34452900D01*
G75*
G02*
X18719500Y34377900I0J-75000D01*
G01*
G37*
G36*
G01*
X18219500Y34377900D02*
X18219500Y33052900D01*
G75*
G02*
X18144500Y32977900I-75000J0D01*
G01*
X17994500Y32977900D01*
G75*
G02*
X17919500Y33052900I0J75000D01*
G01*
X17919500Y34377900D01*
G75*
G02*
X17994500Y34452900I75000J0D01*
G01*
X18144500Y34452900D01*
G75*
G02*
X18219500Y34377900I0J-75000D01*
G01*
G37*
G36*
G01*
X17719500Y34377900D02*
X17719500Y33052900D01*
G75*
G02*
X17644500Y32977900I-75000J0D01*
G01*
X17494500Y32977900D01*
G75*
G02*
X17419500Y33052900I0J75000D01*
G01*
X17419500Y34377900D01*
G75*
G02*
X17494500Y34452900I75000J0D01*
G01*
X17644500Y34452900D01*
G75*
G02*
X17719500Y34377900I0J-75000D01*
G01*
G37*
G36*
G01*
X17219500Y34377900D02*
X17219500Y33052900D01*
G75*
G02*
X17144500Y32977900I-75000J0D01*
G01*
X16994500Y32977900D01*
G75*
G02*
X16919500Y33052900I0J75000D01*
G01*
X16919500Y34377900D01*
G75*
G02*
X16994500Y34452900I75000J0D01*
G01*
X17144500Y34452900D01*
G75*
G02*
X17219500Y34377900I0J-75000D01*
G01*
G37*
G36*
G01*
X16719500Y34377900D02*
X16719500Y33052900D01*
G75*
G02*
X16644500Y32977900I-75000J0D01*
G01*
X16494500Y32977900D01*
G75*
G02*
X16419500Y33052900I0J75000D01*
G01*
X16419500Y34377900D01*
G75*
G02*
X16494500Y34452900I75000J0D01*
G01*
X16644500Y34452900D01*
G75*
G02*
X16719500Y34377900I0J-75000D01*
G01*
G37*
G36*
G01*
X16219500Y34377900D02*
X16219500Y33052900D01*
G75*
G02*
X16144500Y32977900I-75000J0D01*
G01*
X15994500Y32977900D01*
G75*
G02*
X15919500Y33052900I0J75000D01*
G01*
X15919500Y34377900D01*
G75*
G02*
X15994500Y34452900I75000J0D01*
G01*
X16144500Y34452900D01*
G75*
G02*
X16219500Y34377900I0J-75000D01*
G01*
G37*
G36*
G01*
X15719500Y34377900D02*
X15719500Y33052900D01*
G75*
G02*
X15644500Y32977900I-75000J0D01*
G01*
X15494500Y32977900D01*
G75*
G02*
X15419500Y33052900I0J75000D01*
G01*
X15419500Y34377900D01*
G75*
G02*
X15494500Y34452900I75000J0D01*
G01*
X15644500Y34452900D01*
G75*
G02*
X15719500Y34377900I0J-75000D01*
G01*
G37*
G36*
G01*
X15219500Y34377900D02*
X15219500Y33052900D01*
G75*
G02*
X15144500Y32977900I-75000J0D01*
G01*
X14994500Y32977900D01*
G75*
G02*
X14919500Y33052900I0J75000D01*
G01*
X14919500Y34377900D01*
G75*
G02*
X14994500Y34452900I75000J0D01*
G01*
X15144500Y34452900D01*
G75*
G02*
X15219500Y34377900I0J-75000D01*
G01*
G37*
G36*
G01*
X14719500Y34377900D02*
X14719500Y33052900D01*
G75*
G02*
X14644500Y32977900I-75000J0D01*
G01*
X14494500Y32977900D01*
G75*
G02*
X14419500Y33052900I0J75000D01*
G01*
X14419500Y34377900D01*
G75*
G02*
X14494500Y34452900I75000J0D01*
G01*
X14644500Y34452900D01*
G75*
G02*
X14719500Y34377900I0J-75000D01*
G01*
G37*
G36*
G01*
X14219500Y34377900D02*
X14219500Y33052900D01*
G75*
G02*
X14144500Y32977900I-75000J0D01*
G01*
X13994500Y32977900D01*
G75*
G02*
X13919500Y33052900I0J75000D01*
G01*
X13919500Y34377900D01*
G75*
G02*
X13994500Y34452900I75000J0D01*
G01*
X14144500Y34452900D01*
G75*
G02*
X14219500Y34377900I0J-75000D01*
G01*
G37*
G36*
G01*
X13719500Y34377900D02*
X13719500Y33052900D01*
G75*
G02*
X13644500Y32977900I-75000J0D01*
G01*
X13494500Y32977900D01*
G75*
G02*
X13419500Y33052900I0J75000D01*
G01*
X13419500Y34377900D01*
G75*
G02*
X13494500Y34452900I75000J0D01*
G01*
X13644500Y34452900D01*
G75*
G02*
X13719500Y34377900I0J-75000D01*
G01*
G37*
G36*
G01*
X12894500Y32377900D02*
X12894500Y32227900D01*
G75*
G02*
X12819500Y32152900I-75000J0D01*
G01*
X11494500Y32152900D01*
G75*
G02*
X11419500Y32227900I0J75000D01*
G01*
X11419500Y32377900D01*
G75*
G02*
X11494500Y32452900I75000J0D01*
G01*
X12819500Y32452900D01*
G75*
G02*
X12894500Y32377900I0J-75000D01*
G01*
G37*
G36*
G01*
X12894500Y31877900D02*
X12894500Y31727900D01*
G75*
G02*
X12819500Y31652900I-75000J0D01*
G01*
X11494500Y31652900D01*
G75*
G02*
X11419500Y31727900I0J75000D01*
G01*
X11419500Y31877900D01*
G75*
G02*
X11494500Y31952900I75000J0D01*
G01*
X12819500Y31952900D01*
G75*
G02*
X12894500Y31877900I0J-75000D01*
G01*
G37*
G36*
G01*
X12894500Y31377900D02*
X12894500Y31227900D01*
G75*
G02*
X12819500Y31152900I-75000J0D01*
G01*
X11494500Y31152900D01*
G75*
G02*
X11419500Y31227900I0J75000D01*
G01*
X11419500Y31377900D01*
G75*
G02*
X11494500Y31452900I75000J0D01*
G01*
X12819500Y31452900D01*
G75*
G02*
X12894500Y31377900I0J-75000D01*
G01*
G37*
G36*
G01*
X12894500Y30877900D02*
X12894500Y30727900D01*
G75*
G02*
X12819500Y30652900I-75000J0D01*
G01*
X11494500Y30652900D01*
G75*
G02*
X11419500Y30727900I0J75000D01*
G01*
X11419500Y30877900D01*
G75*
G02*
X11494500Y30952900I75000J0D01*
G01*
X12819500Y30952900D01*
G75*
G02*
X12894500Y30877900I0J-75000D01*
G01*
G37*
G36*
G01*
X12894500Y30377900D02*
X12894500Y30227900D01*
G75*
G02*
X12819500Y30152900I-75000J0D01*
G01*
X11494500Y30152900D01*
G75*
G02*
X11419500Y30227900I0J75000D01*
G01*
X11419500Y30377900D01*
G75*
G02*
X11494500Y30452900I75000J0D01*
G01*
X12819500Y30452900D01*
G75*
G02*
X12894500Y30377900I0J-75000D01*
G01*
G37*
G36*
G01*
X12894500Y29877900D02*
X12894500Y29727900D01*
G75*
G02*
X12819500Y29652900I-75000J0D01*
G01*
X11494500Y29652900D01*
G75*
G02*
X11419500Y29727900I0J75000D01*
G01*
X11419500Y29877900D01*
G75*
G02*
X11494500Y29952900I75000J0D01*
G01*
X12819500Y29952900D01*
G75*
G02*
X12894500Y29877900I0J-75000D01*
G01*
G37*
G36*
G01*
X12894500Y29377900D02*
X12894500Y29227900D01*
G75*
G02*
X12819500Y29152900I-75000J0D01*
G01*
X11494500Y29152900D01*
G75*
G02*
X11419500Y29227900I0J75000D01*
G01*
X11419500Y29377900D01*
G75*
G02*
X11494500Y29452900I75000J0D01*
G01*
X12819500Y29452900D01*
G75*
G02*
X12894500Y29377900I0J-75000D01*
G01*
G37*
G36*
G01*
X12894500Y28877900D02*
X12894500Y28727900D01*
G75*
G02*
X12819500Y28652900I-75000J0D01*
G01*
X11494500Y28652900D01*
G75*
G02*
X11419500Y28727900I0J75000D01*
G01*
X11419500Y28877900D01*
G75*
G02*
X11494500Y28952900I75000J0D01*
G01*
X12819500Y28952900D01*
G75*
G02*
X12894500Y28877900I0J-75000D01*
G01*
G37*
G36*
G01*
X12894500Y28377900D02*
X12894500Y28227900D01*
G75*
G02*
X12819500Y28152900I-75000J0D01*
G01*
X11494500Y28152900D01*
G75*
G02*
X11419500Y28227900I0J75000D01*
G01*
X11419500Y28377900D01*
G75*
G02*
X11494500Y28452900I75000J0D01*
G01*
X12819500Y28452900D01*
G75*
G02*
X12894500Y28377900I0J-75000D01*
G01*
G37*
G36*
G01*
X12894500Y27877900D02*
X12894500Y27727900D01*
G75*
G02*
X12819500Y27652900I-75000J0D01*
G01*
X11494500Y27652900D01*
G75*
G02*
X11419500Y27727900I0J75000D01*
G01*
X11419500Y27877900D01*
G75*
G02*
X11494500Y27952900I75000J0D01*
G01*
X12819500Y27952900D01*
G75*
G02*
X12894500Y27877900I0J-75000D01*
G01*
G37*
G36*
G01*
X12894500Y27377900D02*
X12894500Y27227900D01*
G75*
G02*
X12819500Y27152900I-75000J0D01*
G01*
X11494500Y27152900D01*
G75*
G02*
X11419500Y27227900I0J75000D01*
G01*
X11419500Y27377900D01*
G75*
G02*
X11494500Y27452900I75000J0D01*
G01*
X12819500Y27452900D01*
G75*
G02*
X12894500Y27377900I0J-75000D01*
G01*
G37*
G36*
G01*
X12894500Y26877900D02*
X12894500Y26727900D01*
G75*
G02*
X12819500Y26652900I-75000J0D01*
G01*
X11494500Y26652900D01*
G75*
G02*
X11419500Y26727900I0J75000D01*
G01*
X11419500Y26877900D01*
G75*
G02*
X11494500Y26952900I75000J0D01*
G01*
X12819500Y26952900D01*
G75*
G02*
X12894500Y26877900I0J-75000D01*
G01*
G37*
G36*
G01*
X13719500Y26052900D02*
X13719500Y24727900D01*
G75*
G02*
X13644500Y24652900I-75000J0D01*
G01*
X13494500Y24652900D01*
G75*
G02*
X13419500Y24727900I0J75000D01*
G01*
X13419500Y26052900D01*
G75*
G02*
X13494500Y26127900I75000J0D01*
G01*
X13644500Y26127900D01*
G75*
G02*
X13719500Y26052900I0J-75000D01*
G01*
G37*
G36*
G01*
X14219500Y26052900D02*
X14219500Y24727900D01*
G75*
G02*
X14144500Y24652900I-75000J0D01*
G01*
X13994500Y24652900D01*
G75*
G02*
X13919500Y24727900I0J75000D01*
G01*
X13919500Y26052900D01*
G75*
G02*
X13994500Y26127900I75000J0D01*
G01*
X14144500Y26127900D01*
G75*
G02*
X14219500Y26052900I0J-75000D01*
G01*
G37*
G36*
G01*
X14719500Y26052900D02*
X14719500Y24727900D01*
G75*
G02*
X14644500Y24652900I-75000J0D01*
G01*
X14494500Y24652900D01*
G75*
G02*
X14419500Y24727900I0J75000D01*
G01*
X14419500Y26052900D01*
G75*
G02*
X14494500Y26127900I75000J0D01*
G01*
X14644500Y26127900D01*
G75*
G02*
X14719500Y26052900I0J-75000D01*
G01*
G37*
G36*
G01*
X15219500Y26052900D02*
X15219500Y24727900D01*
G75*
G02*
X15144500Y24652900I-75000J0D01*
G01*
X14994500Y24652900D01*
G75*
G02*
X14919500Y24727900I0J75000D01*
G01*
X14919500Y26052900D01*
G75*
G02*
X14994500Y26127900I75000J0D01*
G01*
X15144500Y26127900D01*
G75*
G02*
X15219500Y26052900I0J-75000D01*
G01*
G37*
G36*
G01*
X15719500Y26052900D02*
X15719500Y24727900D01*
G75*
G02*
X15644500Y24652900I-75000J0D01*
G01*
X15494500Y24652900D01*
G75*
G02*
X15419500Y24727900I0J75000D01*
G01*
X15419500Y26052900D01*
G75*
G02*
X15494500Y26127900I75000J0D01*
G01*
X15644500Y26127900D01*
G75*
G02*
X15719500Y26052900I0J-75000D01*
G01*
G37*
G36*
G01*
X16219500Y26052900D02*
X16219500Y24727900D01*
G75*
G02*
X16144500Y24652900I-75000J0D01*
G01*
X15994500Y24652900D01*
G75*
G02*
X15919500Y24727900I0J75000D01*
G01*
X15919500Y26052900D01*
G75*
G02*
X15994500Y26127900I75000J0D01*
G01*
X16144500Y26127900D01*
G75*
G02*
X16219500Y26052900I0J-75000D01*
G01*
G37*
G36*
G01*
X16719500Y26052900D02*
X16719500Y24727900D01*
G75*
G02*
X16644500Y24652900I-75000J0D01*
G01*
X16494500Y24652900D01*
G75*
G02*
X16419500Y24727900I0J75000D01*
G01*
X16419500Y26052900D01*
G75*
G02*
X16494500Y26127900I75000J0D01*
G01*
X16644500Y26127900D01*
G75*
G02*
X16719500Y26052900I0J-75000D01*
G01*
G37*
G36*
G01*
X17219500Y26052900D02*
X17219500Y24727900D01*
G75*
G02*
X17144500Y24652900I-75000J0D01*
G01*
X16994500Y24652900D01*
G75*
G02*
X16919500Y24727900I0J75000D01*
G01*
X16919500Y26052900D01*
G75*
G02*
X16994500Y26127900I75000J0D01*
G01*
X17144500Y26127900D01*
G75*
G02*
X17219500Y26052900I0J-75000D01*
G01*
G37*
G36*
G01*
X17719500Y26052900D02*
X17719500Y24727900D01*
G75*
G02*
X17644500Y24652900I-75000J0D01*
G01*
X17494500Y24652900D01*
G75*
G02*
X17419500Y24727900I0J75000D01*
G01*
X17419500Y26052900D01*
G75*
G02*
X17494500Y26127900I75000J0D01*
G01*
X17644500Y26127900D01*
G75*
G02*
X17719500Y26052900I0J-75000D01*
G01*
G37*
G36*
G01*
X18219500Y26052900D02*
X18219500Y24727900D01*
G75*
G02*
X18144500Y24652900I-75000J0D01*
G01*
X17994500Y24652900D01*
G75*
G02*
X17919500Y24727900I0J75000D01*
G01*
X17919500Y26052900D01*
G75*
G02*
X17994500Y26127900I75000J0D01*
G01*
X18144500Y26127900D01*
G75*
G02*
X18219500Y26052900I0J-75000D01*
G01*
G37*
G36*
G01*
X18719500Y26052900D02*
X18719500Y24727900D01*
G75*
G02*
X18644500Y24652900I-75000J0D01*
G01*
X18494500Y24652900D01*
G75*
G02*
X18419500Y24727900I0J75000D01*
G01*
X18419500Y26052900D01*
G75*
G02*
X18494500Y26127900I75000J0D01*
G01*
X18644500Y26127900D01*
G75*
G02*
X18719500Y26052900I0J-75000D01*
G01*
G37*
G36*
G01*
X19219500Y26052900D02*
X19219500Y24727900D01*
G75*
G02*
X19144500Y24652900I-75000J0D01*
G01*
X18994500Y24652900D01*
G75*
G02*
X18919500Y24727900I0J75000D01*
G01*
X18919500Y26052900D01*
G75*
G02*
X18994500Y26127900I75000J0D01*
G01*
X19144500Y26127900D01*
G75*
G02*
X19219500Y26052900I0J-75000D01*
G01*
G37*
G36*
G01*
X21219500Y26877900D02*
X21219500Y26727900D01*
G75*
G02*
X21144500Y26652900I-75000J0D01*
G01*
X19819500Y26652900D01*
G75*
G02*
X19744500Y26727900I0J75000D01*
G01*
X19744500Y26877900D01*
G75*
G02*
X19819500Y26952900I75000J0D01*
G01*
X21144500Y26952900D01*
G75*
G02*
X21219500Y26877900I0J-75000D01*
G01*
G37*
G36*
G01*
X21219500Y27377900D02*
X21219500Y27227900D01*
G75*
G02*
X21144500Y27152900I-75000J0D01*
G01*
X19819500Y27152900D01*
G75*
G02*
X19744500Y27227900I0J75000D01*
G01*
X19744500Y27377900D01*
G75*
G02*
X19819500Y27452900I75000J0D01*
G01*
X21144500Y27452900D01*
G75*
G02*
X21219500Y27377900I0J-75000D01*
G01*
G37*
G36*
G01*
X21219500Y27877900D02*
X21219500Y27727900D01*
G75*
G02*
X21144500Y27652900I-75000J0D01*
G01*
X19819500Y27652900D01*
G75*
G02*
X19744500Y27727900I0J75000D01*
G01*
X19744500Y27877900D01*
G75*
G02*
X19819500Y27952900I75000J0D01*
G01*
X21144500Y27952900D01*
G75*
G02*
X21219500Y27877900I0J-75000D01*
G01*
G37*
G36*
G01*
X21219500Y28377900D02*
X21219500Y28227900D01*
G75*
G02*
X21144500Y28152900I-75000J0D01*
G01*
X19819500Y28152900D01*
G75*
G02*
X19744500Y28227900I0J75000D01*
G01*
X19744500Y28377900D01*
G75*
G02*
X19819500Y28452900I75000J0D01*
G01*
X21144500Y28452900D01*
G75*
G02*
X21219500Y28377900I0J-75000D01*
G01*
G37*
G36*
G01*
X21219500Y28877900D02*
X21219500Y28727900D01*
G75*
G02*
X21144500Y28652900I-75000J0D01*
G01*
X19819500Y28652900D01*
G75*
G02*
X19744500Y28727900I0J75000D01*
G01*
X19744500Y28877900D01*
G75*
G02*
X19819500Y28952900I75000J0D01*
G01*
X21144500Y28952900D01*
G75*
G02*
X21219500Y28877900I0J-75000D01*
G01*
G37*
G36*
G01*
X21219500Y29377900D02*
X21219500Y29227900D01*
G75*
G02*
X21144500Y29152900I-75000J0D01*
G01*
X19819500Y29152900D01*
G75*
G02*
X19744500Y29227900I0J75000D01*
G01*
X19744500Y29377900D01*
G75*
G02*
X19819500Y29452900I75000J0D01*
G01*
X21144500Y29452900D01*
G75*
G02*
X21219500Y29377900I0J-75000D01*
G01*
G37*
G36*
G01*
X21219500Y29877900D02*
X21219500Y29727900D01*
G75*
G02*
X21144500Y29652900I-75000J0D01*
G01*
X19819500Y29652900D01*
G75*
G02*
X19744500Y29727900I0J75000D01*
G01*
X19744500Y29877900D01*
G75*
G02*
X19819500Y29952900I75000J0D01*
G01*
X21144500Y29952900D01*
G75*
G02*
X21219500Y29877900I0J-75000D01*
G01*
G37*
G36*
G01*
X21219500Y30377900D02*
X21219500Y30227900D01*
G75*
G02*
X21144500Y30152900I-75000J0D01*
G01*
X19819500Y30152900D01*
G75*
G02*
X19744500Y30227900I0J75000D01*
G01*
X19744500Y30377900D01*
G75*
G02*
X19819500Y30452900I75000J0D01*
G01*
X21144500Y30452900D01*
G75*
G02*
X21219500Y30377900I0J-75000D01*
G01*
G37*
G36*
G01*
X21219500Y30877900D02*
X21219500Y30727900D01*
G75*
G02*
X21144500Y30652900I-75000J0D01*
G01*
X19819500Y30652900D01*
G75*
G02*
X19744500Y30727900I0J75000D01*
G01*
X19744500Y30877900D01*
G75*
G02*
X19819500Y30952900I75000J0D01*
G01*
X21144500Y30952900D01*
G75*
G02*
X21219500Y30877900I0J-75000D01*
G01*
G37*
G36*
G01*
X21219500Y31377900D02*
X21219500Y31227900D01*
G75*
G02*
X21144500Y31152900I-75000J0D01*
G01*
X19819500Y31152900D01*
G75*
G02*
X19744500Y31227900I0J75000D01*
G01*
X19744500Y31377900D01*
G75*
G02*
X19819500Y31452900I75000J0D01*
G01*
X21144500Y31452900D01*
G75*
G02*
X21219500Y31377900I0J-75000D01*
G01*
G37*
G36*
G01*
X21219500Y31877900D02*
X21219500Y31727900D01*
G75*
G02*
X21144500Y31652900I-75000J0D01*
G01*
X19819500Y31652900D01*
G75*
G02*
X19744500Y31727900I0J75000D01*
G01*
X19744500Y31877900D01*
G75*
G02*
X19819500Y31952900I75000J0D01*
G01*
X21144500Y31952900D01*
G75*
G02*
X21219500Y31877900I0J-75000D01*
G01*
G37*
G36*
G01*
X21219500Y32377900D02*
X21219500Y32227900D01*
G75*
G02*
X21144500Y32152900I-75000J0D01*
G01*
X19819500Y32152900D01*
G75*
G02*
X19744500Y32227900I0J75000D01*
G01*
X19744500Y32377900D01*
G75*
G02*
X19819500Y32452900I75000J0D01*
G01*
X21144500Y32452900D01*
G75*
G02*
X21219500Y32377900I0J-75000D01*
G01*
G37*
G04 #@! TD*
D14*
G04 #@! TO.C,L202*
G36*
X42142300Y39871800D02*
G01*
X41170222Y39871800D01*
X41056878Y40067905D01*
X40911217Y40241361D01*
X40737659Y40386901D01*
X40541474Y40500107D01*
X40328618Y40577543D01*
X40105552Y40616858D01*
X39879048Y40616858D01*
X39655982Y40577543D01*
X39443126Y40500107D01*
X39246941Y40386901D01*
X39073383Y40241361D01*
X38927722Y40067905D01*
X38814378Y39871800D01*
X37842300Y39871800D01*
X37842300Y41471800D01*
X42142300Y41471800D01*
X42142300Y39871800D01*
G37*
G36*
X38927722Y38575695D02*
G01*
X39073383Y38402239D01*
X39246941Y38256699D01*
X39443126Y38143493D01*
X39655982Y38066057D01*
X39879048Y38026742D01*
X40105552Y38026742D01*
X40328618Y38066057D01*
X40541474Y38143493D01*
X40737659Y38256699D01*
X40911217Y38402239D01*
X41056878Y38575695D01*
X41170222Y38771800D01*
X42142300Y38771800D01*
X42142300Y37171800D01*
X37842300Y37171800D01*
X37842300Y38771800D01*
X38814378Y38771800D01*
X38927722Y38575695D01*
G37*
G04 #@! TD*
D12*
G04 #@! TO.C,T502*
X14198600Y15151100D03*
X16198600Y14201100D03*
X16198600Y16101100D03*
G04 #@! TD*
G04 #@! TO.C,R203*
G36*
G01*
X30245500Y27770500D02*
X30245500Y27220500D01*
G75*
G02*
X30045500Y27020500I-200000J0D01*
G01*
X29645500Y27020500D01*
G75*
G02*
X29445500Y27220500I0J200000D01*
G01*
X29445500Y27770500D01*
G75*
G02*
X29645500Y27970500I200000J0D01*
G01*
X30045500Y27970500D01*
G75*
G02*
X30245500Y27770500I0J-200000D01*
G01*
G37*
G36*
G01*
X31895500Y27770500D02*
X31895500Y27220500D01*
G75*
G02*
X31695500Y27020500I-200000J0D01*
G01*
X31295500Y27020500D01*
G75*
G02*
X31095500Y27220500I0J200000D01*
G01*
X31095500Y27770500D01*
G75*
G02*
X31295500Y27970500I200000J0D01*
G01*
X31695500Y27970500D01*
G75*
G02*
X31895500Y27770500I0J-200000D01*
G01*
G37*
G04 #@! TD*
G04 #@! TO.C,R204*
G36*
G01*
X27984000Y27245900D02*
X27984000Y27795900D01*
G75*
G02*
X28184000Y27995900I200000J0D01*
G01*
X28584000Y27995900D01*
G75*
G02*
X28784000Y27795900I0J-200000D01*
G01*
X28784000Y27245900D01*
G75*
G02*
X28584000Y27045900I-200000J0D01*
G01*
X28184000Y27045900D01*
G75*
G02*
X27984000Y27245900I0J200000D01*
G01*
G37*
G36*
G01*
X26334000Y27245900D02*
X26334000Y27795900D01*
G75*
G02*
X26534000Y27995900I200000J0D01*
G01*
X26934000Y27995900D01*
G75*
G02*
X27134000Y27795900I0J-200000D01*
G01*
X27134000Y27245900D01*
G75*
G02*
X26934000Y27045900I-200000J0D01*
G01*
X26534000Y27045900D01*
G75*
G02*
X26334000Y27245900I0J200000D01*
G01*
G37*
G04 #@! TD*
G04 #@! TO.C,R210*
G36*
G01*
X24540800Y27357520D02*
X25090800Y27357520D01*
G75*
G02*
X25290800Y27157520I0J-200000D01*
G01*
X25290800Y26757520D01*
G75*
G02*
X25090800Y26557520I-200000J0D01*
G01*
X24540800Y26557520D01*
G75*
G02*
X24340800Y26757520I0J200000D01*
G01*
X24340800Y27157520D01*
G75*
G02*
X24540800Y27357520I200000J0D01*
G01*
G37*
G36*
G01*
X24540800Y29007520D02*
X25090800Y29007520D01*
G75*
G02*
X25290800Y28807520I0J-200000D01*
G01*
X25290800Y28407520D01*
G75*
G02*
X25090800Y28207520I-200000J0D01*
G01*
X24540800Y28207520D01*
G75*
G02*
X24340800Y28407520I0J200000D01*
G01*
X24340800Y28807520D01*
G75*
G02*
X24540800Y29007520I200000J0D01*
G01*
G37*
G04 #@! TD*
G04 #@! TO.C,R213*
G36*
G01*
X24083600Y36620900D02*
X24633600Y36620900D01*
G75*
G02*
X24833600Y36420900I0J-200000D01*
G01*
X24833600Y36020900D01*
G75*
G02*
X24633600Y35820900I-200000J0D01*
G01*
X24083600Y35820900D01*
G75*
G02*
X23883600Y36020900I0J200000D01*
G01*
X23883600Y36420900D01*
G75*
G02*
X24083600Y36620900I200000J0D01*
G01*
G37*
G36*
G01*
X24083600Y38270900D02*
X24633600Y38270900D01*
G75*
G02*
X24833600Y38070900I0J-200000D01*
G01*
X24833600Y37670900D01*
G75*
G02*
X24633600Y37470900I-200000J0D01*
G01*
X24083600Y37470900D01*
G75*
G02*
X23883600Y37670900I0J200000D01*
G01*
X23883600Y38070900D01*
G75*
G02*
X24083600Y38270900I200000J0D01*
G01*
G37*
G04 #@! TD*
G04 #@! TO.C,R214*
G36*
G01*
X22944500Y37470900D02*
X22394500Y37470900D01*
G75*
G02*
X22194500Y37670900I0J200000D01*
G01*
X22194500Y38070900D01*
G75*
G02*
X22394500Y38270900I200000J0D01*
G01*
X22944500Y38270900D01*
G75*
G02*
X23144500Y38070900I0J-200000D01*
G01*
X23144500Y37670900D01*
G75*
G02*
X22944500Y37470900I-200000J0D01*
G01*
G37*
G36*
G01*
X22944500Y35820900D02*
X22394500Y35820900D01*
G75*
G02*
X22194500Y36020900I0J200000D01*
G01*
X22194500Y36420900D01*
G75*
G02*
X22394500Y36620900I200000J0D01*
G01*
X22944500Y36620900D01*
G75*
G02*
X23144500Y36420900I0J-200000D01*
G01*
X23144500Y36020900D01*
G75*
G02*
X22944500Y35820900I-200000J0D01*
G01*
G37*
G04 #@! TD*
G04 #@! TO.C,R303*
G36*
G01*
X16134400Y11256600D02*
X16134400Y11806600D01*
G75*
G02*
X16334400Y12006600I200000J0D01*
G01*
X16734400Y12006600D01*
G75*
G02*
X16934400Y11806600I0J-200000D01*
G01*
X16934400Y11256600D01*
G75*
G02*
X16734400Y11056600I-200000J0D01*
G01*
X16334400Y11056600D01*
G75*
G02*
X16134400Y11256600I0J200000D01*
G01*
G37*
G36*
G01*
X14484400Y11256600D02*
X14484400Y11806600D01*
G75*
G02*
X14684400Y12006600I200000J0D01*
G01*
X15084400Y12006600D01*
G75*
G02*
X15284400Y11806600I0J-200000D01*
G01*
X15284400Y11256600D01*
G75*
G02*
X15084400Y11056600I-200000J0D01*
G01*
X14684400Y11056600D01*
G75*
G02*
X14484400Y11256600I0J200000D01*
G01*
G37*
G04 #@! TD*
G04 #@! TO.C,R304*
G36*
G01*
X23945400Y13949000D02*
X23945400Y14499000D01*
G75*
G02*
X24145400Y14699000I200000J0D01*
G01*
X24545400Y14699000D01*
G75*
G02*
X24745400Y14499000I0J-200000D01*
G01*
X24745400Y13949000D01*
G75*
G02*
X24545400Y13749000I-200000J0D01*
G01*
X24145400Y13749000D01*
G75*
G02*
X23945400Y13949000I0J200000D01*
G01*
G37*
G36*
G01*
X22295400Y13949000D02*
X22295400Y14499000D01*
G75*
G02*
X22495400Y14699000I200000J0D01*
G01*
X22895400Y14699000D01*
G75*
G02*
X23095400Y14499000I0J-200000D01*
G01*
X23095400Y13949000D01*
G75*
G02*
X22895400Y13749000I-200000J0D01*
G01*
X22495400Y13749000D01*
G75*
G02*
X22295400Y13949000I0J200000D01*
G01*
G37*
G04 #@! TD*
G04 #@! TO.C,R306*
G36*
G01*
X22982600Y12058200D02*
X22432600Y12058200D01*
G75*
G02*
X22232600Y12258200I0J200000D01*
G01*
X22232600Y12658200D01*
G75*
G02*
X22432600Y12858200I200000J0D01*
G01*
X22982600Y12858200D01*
G75*
G02*
X23182600Y12658200I0J-200000D01*
G01*
X23182600Y12258200D01*
G75*
G02*
X22982600Y12058200I-200000J0D01*
G01*
G37*
G36*
G01*
X22982600Y10408200D02*
X22432600Y10408200D01*
G75*
G02*
X22232600Y10608200I0J200000D01*
G01*
X22232600Y11008200D01*
G75*
G02*
X22432600Y11208200I200000J0D01*
G01*
X22982600Y11208200D01*
G75*
G02*
X23182600Y11008200I0J-200000D01*
G01*
X23182600Y10608200D01*
G75*
G02*
X22982600Y10408200I-200000J0D01*
G01*
G37*
G04 #@! TD*
G04 #@! TO.C,R307*
G36*
G01*
X23932700Y8843600D02*
X23932700Y9393600D01*
G75*
G02*
X24132700Y9593600I200000J0D01*
G01*
X24532700Y9593600D01*
G75*
G02*
X24732700Y9393600I0J-200000D01*
G01*
X24732700Y8843600D01*
G75*
G02*
X24532700Y8643600I-200000J0D01*
G01*
X24132700Y8643600D01*
G75*
G02*
X23932700Y8843600I0J200000D01*
G01*
G37*
G36*
G01*
X22282700Y8843600D02*
X22282700Y9393600D01*
G75*
G02*
X22482700Y9593600I200000J0D01*
G01*
X22882700Y9593600D01*
G75*
G02*
X23082700Y9393600I0J-200000D01*
G01*
X23082700Y8843600D01*
G75*
G02*
X22882700Y8643600I-200000J0D01*
G01*
X22482700Y8643600D01*
G75*
G02*
X22282700Y8843600I0J200000D01*
G01*
G37*
G04 #@! TD*
G04 #@! TO.C,R308*
G36*
G01*
X11651800Y8665800D02*
X11651800Y9215800D01*
G75*
G02*
X11851800Y9415800I200000J0D01*
G01*
X12251800Y9415800D01*
G75*
G02*
X12451800Y9215800I0J-200000D01*
G01*
X12451800Y8665800D01*
G75*
G02*
X12251800Y8465800I-200000J0D01*
G01*
X11851800Y8465800D01*
G75*
G02*
X11651800Y8665800I0J200000D01*
G01*
G37*
G36*
G01*
X10001800Y8665800D02*
X10001800Y9215800D01*
G75*
G02*
X10201800Y9415800I200000J0D01*
G01*
X10601800Y9415800D01*
G75*
G02*
X10801800Y9215800I0J-200000D01*
G01*
X10801800Y8665800D01*
G75*
G02*
X10601800Y8465800I-200000J0D01*
G01*
X10201800Y8465800D01*
G75*
G02*
X10001800Y8665800I0J200000D01*
G01*
G37*
G04 #@! TD*
G04 #@! TO.C,R401*
G36*
G01*
X6927400Y41152400D02*
X6927400Y41702400D01*
G75*
G02*
X7127400Y41902400I200000J0D01*
G01*
X7527400Y41902400D01*
G75*
G02*
X7727400Y41702400I0J-200000D01*
G01*
X7727400Y41152400D01*
G75*
G02*
X7527400Y40952400I-200000J0D01*
G01*
X7127400Y40952400D01*
G75*
G02*
X6927400Y41152400I0J200000D01*
G01*
G37*
G36*
G01*
X5277400Y41152400D02*
X5277400Y41702400D01*
G75*
G02*
X5477400Y41902400I200000J0D01*
G01*
X5877400Y41902400D01*
G75*
G02*
X6077400Y41702400I0J-200000D01*
G01*
X6077400Y41152400D01*
G75*
G02*
X5877400Y40952400I-200000J0D01*
G01*
X5477400Y40952400D01*
G75*
G02*
X5277400Y41152400I0J200000D01*
G01*
G37*
G04 #@! TD*
G04 #@! TO.C,R402*
G36*
G01*
X6838500Y42701800D02*
X6838500Y43251800D01*
G75*
G02*
X7038500Y43451800I200000J0D01*
G01*
X7438500Y43451800D01*
G75*
G02*
X7638500Y43251800I0J-200000D01*
G01*
X7638500Y42701800D01*
G75*
G02*
X7438500Y42501800I-200000J0D01*
G01*
X7038500Y42501800D01*
G75*
G02*
X6838500Y42701800I0J200000D01*
G01*
G37*
G36*
G01*
X5188500Y42701800D02*
X5188500Y43251800D01*
G75*
G02*
X5388500Y43451800I200000J0D01*
G01*
X5788500Y43451800D01*
G75*
G02*
X5988500Y43251800I0J-200000D01*
G01*
X5988500Y42701800D01*
G75*
G02*
X5788500Y42501800I-200000J0D01*
G01*
X5388500Y42501800D01*
G75*
G02*
X5188500Y42701800I0J200000D01*
G01*
G37*
G04 #@! TD*
G04 #@! TO.C,R403*
G36*
G01*
X11957500Y40153000D02*
X11957500Y39603000D01*
G75*
G02*
X11757500Y39403000I-200000J0D01*
G01*
X11357500Y39403000D01*
G75*
G02*
X11157500Y39603000I0J200000D01*
G01*
X11157500Y40153000D01*
G75*
G02*
X11357500Y40353000I200000J0D01*
G01*
X11757500Y40353000D01*
G75*
G02*
X11957500Y40153000I0J-200000D01*
G01*
G37*
G36*
G01*
X13607500Y40153000D02*
X13607500Y39603000D01*
G75*
G02*
X13407500Y39403000I-200000J0D01*
G01*
X13007500Y39403000D01*
G75*
G02*
X12807500Y39603000I0J200000D01*
G01*
X12807500Y40153000D01*
G75*
G02*
X13007500Y40353000I200000J0D01*
G01*
X13407500Y40353000D01*
G75*
G02*
X13607500Y40153000I0J-200000D01*
G01*
G37*
G04 #@! TD*
G04 #@! TO.C,R404*
G36*
G01*
X11957500Y41727800D02*
X11957500Y41177800D01*
G75*
G02*
X11757500Y40977800I-200000J0D01*
G01*
X11357500Y40977800D01*
G75*
G02*
X11157500Y41177800I0J200000D01*
G01*
X11157500Y41727800D01*
G75*
G02*
X11357500Y41927800I200000J0D01*
G01*
X11757500Y41927800D01*
G75*
G02*
X11957500Y41727800I0J-200000D01*
G01*
G37*
G36*
G01*
X13607500Y41727800D02*
X13607500Y41177800D01*
G75*
G02*
X13407500Y40977800I-200000J0D01*
G01*
X13007500Y40977800D01*
G75*
G02*
X12807500Y41177800I0J200000D01*
G01*
X12807500Y41727800D01*
G75*
G02*
X13007500Y41927800I200000J0D01*
G01*
X13407500Y41927800D01*
G75*
G02*
X13607500Y41727800I0J-200000D01*
G01*
G37*
G04 #@! TD*
G04 #@! TO.C,R405*
G36*
G01*
X7093400Y11171600D02*
X7093400Y10621600D01*
G75*
G02*
X6893400Y10421600I-200000J0D01*
G01*
X6493400Y10421600D01*
G75*
G02*
X6293400Y10621600I0J200000D01*
G01*
X6293400Y11171600D01*
G75*
G02*
X6493400Y11371600I200000J0D01*
G01*
X6893400Y11371600D01*
G75*
G02*
X7093400Y11171600I0J-200000D01*
G01*
G37*
G36*
G01*
X8743400Y11171600D02*
X8743400Y10621600D01*
G75*
G02*
X8543400Y10421600I-200000J0D01*
G01*
X8143400Y10421600D01*
G75*
G02*
X7943400Y10621600I0J200000D01*
G01*
X7943400Y11171600D01*
G75*
G02*
X8143400Y11371600I200000J0D01*
G01*
X8543400Y11371600D01*
G75*
G02*
X8743400Y11171600I0J-200000D01*
G01*
G37*
G04 #@! TD*
G04 #@! TO.C,R406*
G36*
G01*
X6750500Y21293500D02*
X6750500Y20743500D01*
G75*
G02*
X6550500Y20543500I-200000J0D01*
G01*
X6150500Y20543500D01*
G75*
G02*
X5950500Y20743500I0J200000D01*
G01*
X5950500Y21293500D01*
G75*
G02*
X6150500Y21493500I200000J0D01*
G01*
X6550500Y21493500D01*
G75*
G02*
X6750500Y21293500I0J-200000D01*
G01*
G37*
G36*
G01*
X8400500Y21293500D02*
X8400500Y20743500D01*
G75*
G02*
X8200500Y20543500I-200000J0D01*
G01*
X7800500Y20543500D01*
G75*
G02*
X7600500Y20743500I0J200000D01*
G01*
X7600500Y21293500D01*
G75*
G02*
X7800500Y21493500I200000J0D01*
G01*
X8200500Y21493500D01*
G75*
G02*
X8400500Y21293500I0J-200000D01*
G01*
G37*
G04 #@! TD*
G04 #@! TO.C,R407*
G36*
G01*
X6750500Y19807600D02*
X6750500Y19257600D01*
G75*
G02*
X6550500Y19057600I-200000J0D01*
G01*
X6150500Y19057600D01*
G75*
G02*
X5950500Y19257600I0J200000D01*
G01*
X5950500Y19807600D01*
G75*
G02*
X6150500Y20007600I200000J0D01*
G01*
X6550500Y20007600D01*
G75*
G02*
X6750500Y19807600I0J-200000D01*
G01*
G37*
G36*
G01*
X8400500Y19807600D02*
X8400500Y19257600D01*
G75*
G02*
X8200500Y19057600I-200000J0D01*
G01*
X7800500Y19057600D01*
G75*
G02*
X7600500Y19257600I0J200000D01*
G01*
X7600500Y19807600D01*
G75*
G02*
X7800500Y20007600I200000J0D01*
G01*
X8200500Y20007600D01*
G75*
G02*
X8400500Y19807600I0J-200000D01*
G01*
G37*
G04 #@! TD*
G04 #@! TO.C,R408*
G36*
G01*
X10712900Y14841900D02*
X10712900Y14291900D01*
G75*
G02*
X10512900Y14091900I-200000J0D01*
G01*
X10112900Y14091900D01*
G75*
G02*
X9912900Y14291900I0J200000D01*
G01*
X9912900Y14841900D01*
G75*
G02*
X10112900Y15041900I200000J0D01*
G01*
X10512900Y15041900D01*
G75*
G02*
X10712900Y14841900I0J-200000D01*
G01*
G37*
G36*
G01*
X12362900Y14841900D02*
X12362900Y14291900D01*
G75*
G02*
X12162900Y14091900I-200000J0D01*
G01*
X11762900Y14091900D01*
G75*
G02*
X11562900Y14291900I0J200000D01*
G01*
X11562900Y14841900D01*
G75*
G02*
X11762900Y15041900I200000J0D01*
G01*
X12162900Y15041900D01*
G75*
G02*
X12362900Y14841900I0J-200000D01*
G01*
G37*
G04 #@! TD*
G04 #@! TO.C,R409*
G36*
G01*
X24684400Y32073400D02*
X24134400Y32073400D01*
G75*
G02*
X23934400Y32273400I0J200000D01*
G01*
X23934400Y32673400D01*
G75*
G02*
X24134400Y32873400I200000J0D01*
G01*
X24684400Y32873400D01*
G75*
G02*
X24884400Y32673400I0J-200000D01*
G01*
X24884400Y32273400D01*
G75*
G02*
X24684400Y32073400I-200000J0D01*
G01*
G37*
G36*
G01*
X24684400Y30423400D02*
X24134400Y30423400D01*
G75*
G02*
X23934400Y30623400I0J200000D01*
G01*
X23934400Y31023400D01*
G75*
G02*
X24134400Y31223400I200000J0D01*
G01*
X24684400Y31223400D01*
G75*
G02*
X24884400Y31023400I0J-200000D01*
G01*
X24884400Y30623400D01*
G75*
G02*
X24684400Y30423400I-200000J0D01*
G01*
G37*
G04 #@! TD*
G04 #@! TO.C,R410*
G36*
G01*
X24034300Y33710200D02*
X24034300Y34260200D01*
G75*
G02*
X24234300Y34460200I200000J0D01*
G01*
X24634300Y34460200D01*
G75*
G02*
X24834300Y34260200I0J-200000D01*
G01*
X24834300Y33710200D01*
G75*
G02*
X24634300Y33510200I-200000J0D01*
G01*
X24234300Y33510200D01*
G75*
G02*
X24034300Y33710200I0J200000D01*
G01*
G37*
G36*
G01*
X22384300Y33710200D02*
X22384300Y34260200D01*
G75*
G02*
X22584300Y34460200I200000J0D01*
G01*
X22984300Y34460200D01*
G75*
G02*
X23184300Y34260200I0J-200000D01*
G01*
X23184300Y33710200D01*
G75*
G02*
X22984300Y33510200I-200000J0D01*
G01*
X22584300Y33510200D01*
G75*
G02*
X22384300Y33710200I0J200000D01*
G01*
G37*
G04 #@! TD*
G04 #@! TO.C,R501*
G36*
G01*
X32921760Y18419400D02*
X32921760Y18969400D01*
G75*
G02*
X33121760Y19169400I200000J0D01*
G01*
X33521760Y19169400D01*
G75*
G02*
X33721760Y18969400I0J-200000D01*
G01*
X33721760Y18419400D01*
G75*
G02*
X33521760Y18219400I-200000J0D01*
G01*
X33121760Y18219400D01*
G75*
G02*
X32921760Y18419400I0J200000D01*
G01*
G37*
G36*
G01*
X31271760Y18419400D02*
X31271760Y18969400D01*
G75*
G02*
X31471760Y19169400I200000J0D01*
G01*
X31871760Y19169400D01*
G75*
G02*
X32071760Y18969400I0J-200000D01*
G01*
X32071760Y18419400D01*
G75*
G02*
X31871760Y18219400I-200000J0D01*
G01*
X31471760Y18219400D01*
G75*
G02*
X31271760Y18419400I0J200000D01*
G01*
G37*
G04 #@! TD*
G04 #@! TO.C,R503*
G36*
G01*
X26830700Y17074700D02*
X26280700Y17074700D01*
G75*
G02*
X26080700Y17274700I0J200000D01*
G01*
X26080700Y17674700D01*
G75*
G02*
X26280700Y17874700I200000J0D01*
G01*
X26830700Y17874700D01*
G75*
G02*
X27030700Y17674700I0J-200000D01*
G01*
X27030700Y17274700D01*
G75*
G02*
X26830700Y17074700I-200000J0D01*
G01*
G37*
G36*
G01*
X26830700Y15424700D02*
X26280700Y15424700D01*
G75*
G02*
X26080700Y15624700I0J200000D01*
G01*
X26080700Y16024700D01*
G75*
G02*
X26280700Y16224700I200000J0D01*
G01*
X26830700Y16224700D01*
G75*
G02*
X27030700Y16024700I0J-200000D01*
G01*
X27030700Y15624700D01*
G75*
G02*
X26830700Y15424700I-200000J0D01*
G01*
G37*
G04 #@! TD*
G04 #@! TO.C,R504*
G36*
G01*
X24346720Y18353360D02*
X24346720Y18903360D01*
G75*
G02*
X24546720Y19103360I200000J0D01*
G01*
X24946720Y19103360D01*
G75*
G02*
X25146720Y18903360I0J-200000D01*
G01*
X25146720Y18353360D01*
G75*
G02*
X24946720Y18153360I-200000J0D01*
G01*
X24546720Y18153360D01*
G75*
G02*
X24346720Y18353360I0J200000D01*
G01*
G37*
G36*
G01*
X22696720Y18353360D02*
X22696720Y18903360D01*
G75*
G02*
X22896720Y19103360I200000J0D01*
G01*
X23296720Y19103360D01*
G75*
G02*
X23496720Y18903360I0J-200000D01*
G01*
X23496720Y18353360D01*
G75*
G02*
X23296720Y18153360I-200000J0D01*
G01*
X22896720Y18153360D01*
G75*
G02*
X22696720Y18353360I0J200000D01*
G01*
G37*
G04 #@! TD*
G04 #@! TO.C,R505*
G36*
G01*
X24372120Y19923080D02*
X24372120Y20473080D01*
G75*
G02*
X24572120Y20673080I200000J0D01*
G01*
X24972120Y20673080D01*
G75*
G02*
X25172120Y20473080I0J-200000D01*
G01*
X25172120Y19923080D01*
G75*
G02*
X24972120Y19723080I-200000J0D01*
G01*
X24572120Y19723080D01*
G75*
G02*
X24372120Y19923080I0J200000D01*
G01*
G37*
G36*
G01*
X22722120Y19923080D02*
X22722120Y20473080D01*
G75*
G02*
X22922120Y20673080I200000J0D01*
G01*
X23322120Y20673080D01*
G75*
G02*
X23522120Y20473080I0J-200000D01*
G01*
X23522120Y19923080D01*
G75*
G02*
X23322120Y19723080I-200000J0D01*
G01*
X22922120Y19723080D01*
G75*
G02*
X22722120Y19923080I0J200000D01*
G01*
G37*
G04 #@! TD*
G04 #@! TO.C,R506*
G36*
G01*
X17530400Y14776900D02*
X18080400Y14776900D01*
G75*
G02*
X18280400Y14576900I0J-200000D01*
G01*
X18280400Y14176900D01*
G75*
G02*
X18080400Y13976900I-200000J0D01*
G01*
X17530400Y13976900D01*
G75*
G02*
X17330400Y14176900I0J200000D01*
G01*
X17330400Y14576900D01*
G75*
G02*
X17530400Y14776900I200000J0D01*
G01*
G37*
G36*
G01*
X17530400Y16426900D02*
X18080400Y16426900D01*
G75*
G02*
X18280400Y16226900I0J-200000D01*
G01*
X18280400Y15826900D01*
G75*
G02*
X18080400Y15626900I-200000J0D01*
G01*
X17530400Y15626900D01*
G75*
G02*
X17330400Y15826900I0J200000D01*
G01*
X17330400Y16226900D01*
G75*
G02*
X17530400Y16426900I200000J0D01*
G01*
G37*
G04 #@! TD*
D16*
G04 #@! TO.C,T501*
X29210000Y17846800D03*
X30160000Y19846800D03*
X28260000Y19846800D03*
G04 #@! TD*
M02*
