M48
; DRILL file {KiCad 5.1.12} date So 14 Aug 2022 20:08:39 CEST
; FORMAT={-:-/ absolute / metric / decimal}
; #@! TF.CreationDate,2022-08-14T20:08:39+02:00
; #@! TF.GenerationSoftware,Kicad,Pcbnew,5.1.12
; #@! TF.FileFunction,Plated,1,4,PTH
FMAT,2
METRIC
T1C0.200
T2C0.400
T3C0.750
T4C0.800
T5C1.200
%
G90
G05
T1
X0.902Y38.291
X1.143Y30.607
X1.27Y32.258
X1.27Y31.496
X1.46Y11.646
X1.689Y36.398
X3.467Y18.402
X3.797Y37.782
X3.899Y41.974
X4.064Y33.782
X4.267Y35.941
X4.394Y31.826
X4.867Y42.199
X5.69Y33.896
X5.969Y18.567
X6.134Y23.685
X6.363Y30.632
X6.477Y43.053
X6.896Y9.893
X6.921Y4.801
X7.048Y29.324
X7.15Y25.057
X7.747Y37.871
X7.938Y31.255
X8.128Y27.051
X8.293Y33.414
X8.331Y35.674
X8.547Y23.762
X8.649Y14.389
X9.119Y29.743
X9.258Y38.9
X9.271Y44.45
X9.271Y41.161
X9.284Y19.863
X9.703Y19.152
X9.779Y41.91
X9.842Y29.159
X9.982Y46.152
X10.168Y18.259
X10.279Y40.421
X10.673Y30.591
X10.681Y31.509
X10.693Y17.653
X10.913Y36.931
X10.973Y35.484
X11.079Y14.756
X11.204Y36.174
X11.252Y8.006
X11.265Y38.291
X11.278Y11.333
X11.367Y19.126
X11.976Y23.558
X12.272Y32.914
X12.357Y38.608
X12.763Y21.031
X12.776Y42.469
X12.817Y25.37
X12.939Y13.513
X12.939Y12.37
X12.954Y14.605
X13.066Y8.047
X13.31Y16.713
X13.345Y27.595
X13.381Y21.699
X13.4Y11.073
X13.462Y42.926
X13.906Y23.685
X13.957Y2.299
X14.381Y13.117
X14.465Y16.015
X14.541Y28.321
X14.624Y32.256
X14.795Y38.494
X15.109Y26.998
X15.57Y21.285
X15.608Y37.084
X15.674Y32.432
X15.752Y17.081
X15.926Y35.433
X15.951Y23.419
X16.066Y42.875
X16.104Y36.36
X16.256Y18.732
X16.332Y27.724
X16.451Y28.599
X16.709Y26.472
X16.919Y23.974
X16.998Y12.913
X17.219Y35.161
X17.348Y36.258
X17.376Y29.288
X17.544Y24.402
X17.653Y10.622
X18.059Y23.47
X18.269Y35.108
X18.669Y42.659
X18.669Y38.227
X18.741Y23.994
X18.834Y14.529
X18.872Y29.134
X18.948Y30.543
X18.999Y8.915
X19.698Y24.054
X19.708Y33.86
X19.994Y35.7
X20.398Y23.533
X20.726Y14.757
X20.98Y33.236
X21.142Y20.628
X21.666Y28.644
X21.666Y43.015
X21.907Y46.19
X21.907Y36.957
X21.933Y30.734
X22.085Y29.718
X22.2Y16.413
X22.271Y18.796
X22.835Y27.432
X23.368Y8.014
X23.439Y10.099
X23.5Y13.172
X23.609Y36.97
X23.901Y19.091
X24.447Y22.339
X24.582Y24.003
X24.684Y16.774
X24.892Y34.798
X24.92Y31.623
X25.019Y33.185
X25.082Y37.084
X25.303Y11.669
X25.603Y39.306
X25.7Y13.927
X25.908Y28.702
X26.218Y18.826
X26.797Y42.774
X27.391Y16.596
X28.194Y28.738
X28.199Y31.918
X28.473Y23.304
X28.61Y34.877
X28.702Y43.79
X28.727Y40.195
X28.931Y44.602
X29.312Y32.38
X29.781Y10.884
X30.137Y46.584
X30.275Y14.447
X30.541Y18.669
X30.734Y36.195
X30.861Y2.362
X31.867Y45.629
X32.222Y33.117
X32.347Y11.862
X32.842Y36.779
X33.007Y41.986
X33.134Y33.452
X35.042Y29.23
X35.115Y25.565
X36.398Y42.151
X36.728Y37.833
X37.931Y30.089
X38.153Y39.312
X38.316Y42.291
X38.456Y33.147
X39.332Y45.466
X39.814Y43.675
X39.916Y3.886
X40.295Y38.383
X40.589Y39.408
X41.351Y43.65
X41.422Y18.847
X41.686Y23.017
X41.796Y28.321
X42.164Y32.893
X42.352Y11.699
X42.367Y10.465
X43.18Y42.012
X43.828Y10.465
X43.84Y11.722
X44.869Y9.093
X45.212Y32.766
X45.593Y33.782
X46.368Y38.773
X46.571Y32.626
T2
X30.15Y24.906
X30.15Y21.906
X32.55Y20.347
X32.55Y17.347
X32.563Y17.35
X32.563Y14.35
X34.762Y45.091
X34.762Y42.091
X40.132Y35.942
X40.132Y32.942
T3
X12.497Y18.453
X15.037Y18.453
X20.028Y19.101
X20.028Y17.831
X20.028Y16.561
T4
X1.86Y26.07
X1.86Y23.53
X1.86Y20.99
X1.86Y18.45
X1.86Y15.91
X1.86Y13.37
X4.4Y24.8
X4.4Y22.26
X4.4Y19.72
X4.4Y17.18
X4.4Y14.64
X4.4Y12.1
X43.46Y23.53
X43.46Y20.99
X43.46Y18.45
X43.46Y15.91
X43.46Y13.37
X46.0Y22.26
X46.0Y19.72
X46.0Y17.18
X46.0Y14.64
X46.0Y12.1
T5
X11.6Y4.718
X15.1Y4.718
X18.6Y4.718
X22.184Y4.715
X25.684Y4.715
X29.184Y4.715
X32.8Y4.7
X36.3Y4.7
T0
M30
