G04 #@! TF.GenerationSoftware,KiCad,Pcbnew,5.1.12*
G04 #@! TF.CreationDate,2022-08-14T20:08:33+02:00*
G04 #@! TF.ProjectId,hec-base,6865632d-6261-4736-952e-6b696361645f,0001*
G04 #@! TF.SameCoordinates,PX4cec620PY8f8c0c0*
G04 #@! TF.FileFunction,Legend,Bot*
G04 #@! TF.FilePolarity,Positive*
%FSLAX46Y46*%
G04 Gerber Fmt 4.6, Leading zero omitted, Abs format (unit mm)*
G04 Created by KiCad (PCBNEW 5.1.12) date 2022-08-14 20:08:33*
%MOMM*%
%LPD*%
G01*
G04 APERTURE LIST*
G04 #@! TA.AperFunction,Profile*
%ADD10C,0.200000*%
G04 #@! TD*
%ADD11C,0.120000*%
%ADD12C,0.150000*%
%ADD13C,0.100000*%
%ADD14C,0.050000*%
%ADD15R,1.500000X1.000000*%
%ADD16C,1.500000*%
%ADD17C,0.800000*%
%ADD18O,2.000000X1.200000*%
%ADD19C,1.000000*%
%ADD20R,2.500000X2.300000*%
%ADD21R,0.900000X0.800000*%
%ADD22R,2.300000X2.500000*%
%ADD23R,0.400000X0.650000*%
%ADD24R,1.500000X1.050000*%
%ADD25O,1.500000X1.050000*%
%ADD26R,1.050000X1.500000*%
%ADD27O,1.050000X1.500000*%
%ADD28C,2.300000*%
%ADD29R,2.300000X2.300000*%
%ADD30R,0.800000X0.900000*%
%ADD31R,1.000000X1.500000*%
%ADD32C,0.990600*%
%ADD33C,0.450000*%
%ADD34C,0.500000*%
G04 APERTURE END LIST*
D10*
X47811560Y9541500D02*
X47811560Y38296900D01*
X47310460Y39114620D02*
X46483160Y40318400D01*
X9533860Y19200D02*
X38289260Y19200D01*
X512665Y8723800D02*
X1340000Y7520000D01*
X40310760Y46490760D02*
X39106960Y47318095D01*
X47310460Y8723800D02*
X47811560Y9541500D01*
X47811560Y38296900D02*
X47310460Y39114620D01*
X2229200Y41477230D02*
X1340000Y40318400D01*
X512665Y39114620D02*
X11566Y38296900D01*
X3177830Y42587930D02*
X2229200Y41477230D01*
X8716140Y520300D02*
X9533860Y19200D01*
X7512360Y46490760D02*
X6353530Y45601560D01*
X42580260Y44652930D02*
X41469560Y45601560D01*
X5242830Y3185500D02*
X6353530Y2236800D01*
X46483160Y40318400D02*
X45593960Y41477230D01*
X2229200Y6361200D02*
X3177830Y5250500D01*
X40310760Y1347600D02*
X41469560Y2236800D01*
X6353530Y45601560D02*
X5242830Y44652930D01*
X41469560Y45601560D02*
X40310760Y46490760D01*
X38289260Y19200D02*
X39106960Y520300D01*
X7512360Y1347600D02*
X8716140Y520300D01*
X45593960Y41477230D02*
X44645260Y42587930D01*
X46483160Y7520000D02*
X47310460Y8723800D01*
X3177830Y5250500D02*
X4183290Y4190900D01*
X1340000Y40318400D02*
X512665Y39114620D01*
X4183290Y43647470D02*
X3177830Y42587930D01*
X44645260Y42587930D02*
X43639860Y43647470D01*
X39106960Y520300D02*
X40310760Y1347600D01*
X44645260Y5250500D02*
X45593960Y6361200D01*
X41469560Y2236800D02*
X42580260Y3185500D01*
X4183290Y4190900D02*
X5242830Y3185500D01*
X8716140Y47318095D02*
X7512360Y46490760D01*
X43639860Y4190900D02*
X44645260Y5250500D01*
X42580260Y3185500D02*
X43639860Y4190900D01*
X11566Y9541500D02*
X512665Y8723800D01*
X43639860Y43647470D02*
X42580260Y44652930D01*
X45593960Y6361200D02*
X46483160Y7520000D01*
X5242830Y44652930D02*
X4183290Y43647470D01*
X39106960Y47318095D02*
X38289260Y47819194D01*
X6353530Y2236800D02*
X7512360Y1347600D01*
X38289260Y47819194D02*
X9533860Y47819194D01*
X11566Y38296900D02*
X11566Y9541500D01*
X9533860Y47819194D02*
X8716140Y47318095D01*
X1340000Y7520000D02*
X2229200Y6361200D01*
D11*
G04 #@! TO.C,JP405*
X1743200Y34928000D02*
X1743200Y32128000D01*
X2443200Y31478000D02*
X3043200Y31478000D01*
X3743200Y32128000D02*
X3743200Y34928000D01*
X3043200Y35578000D02*
X2443200Y35578000D01*
X2443200Y35578000D02*
G75*
G03*
X1743200Y34878000I0J-700000D01*
G01*
X3743200Y34878000D02*
G75*
G03*
X3043200Y35578000I-700000J0D01*
G01*
X3043200Y31478000D02*
G75*
G03*
X3743200Y32178000I0J700000D01*
G01*
X1743200Y32178000D02*
G75*
G03*
X2443200Y31478000I700000J0D01*
G01*
D12*
G04 #@! TO.C,FL203*
X36047680Y41767760D02*
X36047680Y42428160D01*
X31417260Y42458640D02*
X33489900Y42458640D01*
X33492440Y42458640D02*
X33492440Y41767760D01*
X33492440Y41767760D02*
X36047680Y41767760D01*
X36047680Y42428160D02*
X38138100Y42430700D01*
X33487360Y44754800D02*
X31396940Y44752260D01*
X33487360Y45415200D02*
X33487360Y44754800D01*
X36042600Y45415200D02*
X33487360Y45415200D01*
X36042600Y44724320D02*
X36042600Y45415200D01*
X38117780Y44724320D02*
X36045140Y44724320D01*
G04 #@! TO.C,FL502*
X31277560Y17673320D02*
X31277560Y17012920D01*
X35907980Y16982440D02*
X33835340Y16982440D01*
X33832800Y16982440D02*
X33832800Y17673320D01*
X33832800Y17673320D02*
X31277560Y17673320D01*
X31277560Y17012920D02*
X29187140Y17010380D01*
X33837880Y14686280D02*
X35928300Y14688820D01*
X33837880Y14025880D02*
X33837880Y14686280D01*
X31282640Y14025880D02*
X33837880Y14025880D01*
X31282640Y14716760D02*
X31282640Y14025880D01*
X29207460Y14716760D02*
X31280100Y14716760D01*
D11*
G04 #@! TO.C,R215*
X18258558Y40447700D02*
X17784042Y40447700D01*
X18258558Y41492700D02*
X17784042Y41492700D01*
G04 #@! TO.C,C201*
X28493352Y30367300D02*
X27970848Y30367300D01*
X28493352Y31837300D02*
X27970848Y31837300D01*
G04 #@! TO.C,C208*
X36218400Y39877120D02*
X36218400Y40158280D01*
X37238400Y39877120D02*
X37238400Y40158280D01*
G04 #@! TO.C,C209*
X34177300Y39565948D02*
X34177300Y40088452D01*
X35647300Y39565948D02*
X35647300Y40088452D01*
G04 #@! TO.C,C210*
X32145300Y39565948D02*
X32145300Y40088452D01*
X33615300Y39565948D02*
X33615300Y40088452D01*
G04 #@! TO.C,C211*
X41047280Y42035000D02*
X40766120Y42035000D01*
X41047280Y43055000D02*
X40766120Y43055000D01*
G04 #@! TO.C,C212*
X27875620Y46344300D02*
X28156780Y46344300D01*
X27875620Y45324300D02*
X28156780Y45324300D01*
G04 #@! TO.C,C213*
X29182600Y39927920D02*
X29182600Y40209080D01*
X30202600Y39927920D02*
X30202600Y40209080D01*
G04 #@! TO.C,C302*
X30300200Y9130420D02*
X30300200Y9411580D01*
X31320200Y9130420D02*
X31320200Y9411580D01*
G04 #@! TO.C,C303*
X10984620Y13464000D02*
X11265780Y13464000D01*
X10984620Y12444000D02*
X11265780Y12444000D01*
G04 #@! TO.C,C304*
X18743200Y11441820D02*
X18743200Y11722980D01*
X19763200Y11441820D02*
X19763200Y11722980D01*
G04 #@! TO.C,C305*
X29893800Y12521320D02*
X29893800Y12802480D01*
X30913800Y12521320D02*
X30913800Y12802480D01*
G04 #@! TO.C,C402*
X23395400Y25654880D02*
X23395400Y25373720D01*
X22375400Y25654880D02*
X22375400Y25373720D01*
G04 #@! TO.C,C403*
X22324600Y31520520D02*
X22324600Y31801680D01*
X23344600Y31520520D02*
X23344600Y31801680D01*
G04 #@! TO.C,C501*
X23760820Y16473900D02*
X24041980Y16473900D01*
X23760820Y15453900D02*
X24041980Y15453900D01*
G04 #@! TO.C,C504*
X18226500Y18593680D02*
X18226500Y18312520D01*
X17206500Y18593680D02*
X17206500Y18312520D01*
G04 #@! TO.C,D201*
X30790800Y28672900D02*
X36490800Y28672900D01*
X30790800Y32972900D02*
X36490800Y32972900D01*
X30790800Y28672900D02*
X30790800Y32972900D01*
G04 #@! TO.C,D302*
X26109200Y13264000D02*
X24649200Y13264000D01*
X26109200Y10104000D02*
X23949200Y10104000D01*
X26109200Y10104000D02*
X26109200Y11034000D01*
X26109200Y13264000D02*
X26109200Y12334000D01*
G04 #@! TO.C,D303*
X38705900Y13570300D02*
X38705900Y7870300D01*
X43005900Y13570300D02*
X43005900Y7870300D01*
X38705900Y13570300D02*
X43005900Y13570300D01*
G04 #@! TO.C,D305*
X38421200Y6457600D02*
X38421200Y12157600D01*
X34121200Y6457600D02*
X34121200Y12157600D01*
X38421200Y6457600D02*
X34121200Y6457600D01*
G04 #@! TO.C,D502*
X37575600Y22447600D02*
X37575600Y16747600D01*
X41875600Y22447600D02*
X41875600Y16747600D01*
X37575600Y22447600D02*
X41875600Y22447600D01*
G04 #@! TO.C,F301*
X29358000Y10937864D02*
X29358000Y9483736D01*
X27538000Y10937864D02*
X27538000Y9483736D01*
G04 #@! TO.C,F302*
X33726800Y9363064D02*
X33726800Y7908936D01*
X31906800Y9363064D02*
X31906800Y7908936D01*
G04 #@! TO.C,IC203*
X26297400Y39317700D02*
X26297400Y40717700D01*
X28617400Y40717700D02*
X28617400Y38817700D01*
G04 #@! TO.C,IC205*
X19929500Y32712900D02*
X21219500Y32712900D01*
X19929500Y33162900D02*
X19929500Y32712900D01*
X19479500Y33162900D02*
X19929500Y33162900D01*
X12709500Y33162900D02*
X12709500Y32712900D01*
X13159500Y33162900D02*
X12709500Y33162900D01*
X19929500Y25942900D02*
X19929500Y26392900D01*
X19479500Y25942900D02*
X19929500Y25942900D01*
X12709500Y25942900D02*
X12709500Y26392900D01*
X13159500Y25942900D02*
X12709500Y25942900D01*
G04 #@! TO.C,JP401*
X6454600Y9356600D02*
X3654600Y9356600D01*
X3654600Y9356600D02*
X3654600Y7356600D01*
X3654600Y7356600D02*
X6454600Y7356600D01*
X6454600Y7356600D02*
X6454600Y9356600D01*
G04 #@! TO.C,JP403*
X5374000Y40293800D02*
X2574000Y40293800D01*
X2574000Y40293800D02*
X2574000Y38293800D01*
X2574000Y38293800D02*
X5374000Y38293800D01*
X5374000Y38293800D02*
X5374000Y40293800D01*
G04 #@! TO.C,L202*
X37982300Y39691800D02*
X37982300Y38951800D01*
X42002300Y38951800D02*
X42002300Y39691800D01*
G04 #@! TO.C,T502*
X14438600Y13571100D02*
X15898600Y13571100D01*
X14438600Y16731100D02*
X16598600Y16731100D01*
X14438600Y16731100D02*
X14438600Y15801100D01*
X14438600Y13571100D02*
X14438600Y14501100D01*
G04 #@! TO.C,R203*
X30907758Y26973000D02*
X30433242Y26973000D01*
X30907758Y28018000D02*
X30433242Y28018000D01*
G04 #@! TO.C,R204*
X27321742Y28043400D02*
X27796258Y28043400D01*
X27321742Y26998400D02*
X27796258Y26998400D01*
G04 #@! TO.C,R210*
X25338300Y28019778D02*
X25338300Y27545262D01*
X24293300Y28019778D02*
X24293300Y27545262D01*
G04 #@! TO.C,R213*
X24881100Y37283158D02*
X24881100Y36808642D01*
X23836100Y37283158D02*
X23836100Y36808642D01*
G04 #@! TO.C,R214*
X22147000Y36808642D02*
X22147000Y37283158D01*
X23192000Y36808642D02*
X23192000Y37283158D01*
G04 #@! TO.C,R303*
X15472142Y12054100D02*
X15946658Y12054100D01*
X15472142Y11009100D02*
X15946658Y11009100D01*
G04 #@! TO.C,R304*
X23283142Y14746500D02*
X23757658Y14746500D01*
X23283142Y13701500D02*
X23757658Y13701500D01*
G04 #@! TO.C,R306*
X22185100Y11395942D02*
X22185100Y11870458D01*
X23230100Y11395942D02*
X23230100Y11870458D01*
G04 #@! TO.C,R307*
X23270442Y9641100D02*
X23744958Y9641100D01*
X23270442Y8596100D02*
X23744958Y8596100D01*
G04 #@! TO.C,R308*
X10989542Y9463300D02*
X11464058Y9463300D01*
X10989542Y8418300D02*
X11464058Y8418300D01*
G04 #@! TO.C,R401*
X6265142Y41949900D02*
X6739658Y41949900D01*
X6265142Y40904900D02*
X6739658Y40904900D01*
G04 #@! TO.C,R402*
X6176242Y43499300D02*
X6650758Y43499300D01*
X6176242Y42454300D02*
X6650758Y42454300D01*
G04 #@! TO.C,R403*
X12619758Y39355500D02*
X12145242Y39355500D01*
X12619758Y40400500D02*
X12145242Y40400500D01*
G04 #@! TO.C,R404*
X12619758Y40930300D02*
X12145242Y40930300D01*
X12619758Y41975300D02*
X12145242Y41975300D01*
G04 #@! TO.C,R405*
X7755658Y10374100D02*
X7281142Y10374100D01*
X7755658Y11419100D02*
X7281142Y11419100D01*
G04 #@! TO.C,R406*
X7412758Y20496000D02*
X6938242Y20496000D01*
X7412758Y21541000D02*
X6938242Y21541000D01*
G04 #@! TO.C,R407*
X7412758Y19010100D02*
X6938242Y19010100D01*
X7412758Y20055100D02*
X6938242Y20055100D01*
G04 #@! TO.C,R408*
X11375158Y14044400D02*
X10900642Y14044400D01*
X11375158Y15089400D02*
X10900642Y15089400D01*
G04 #@! TO.C,R409*
X23886900Y31411142D02*
X23886900Y31885658D01*
X24931900Y31411142D02*
X24931900Y31885658D01*
G04 #@! TO.C,R410*
X23372042Y34507700D02*
X23846558Y34507700D01*
X23372042Y33462700D02*
X23846558Y33462700D01*
G04 #@! TO.C,R501*
X32259502Y19216900D02*
X32734018Y19216900D01*
X32259502Y18171900D02*
X32734018Y18171900D01*
G04 #@! TO.C,R503*
X26033200Y16412442D02*
X26033200Y16886958D01*
X27078200Y16412442D02*
X27078200Y16886958D01*
G04 #@! TO.C,R504*
X23684462Y19150860D02*
X24158978Y19150860D01*
X23684462Y18105860D02*
X24158978Y18105860D01*
G04 #@! TO.C,R505*
X23709862Y20720580D02*
X24184378Y20720580D01*
X23709862Y19675580D02*
X24184378Y19675580D01*
G04 #@! TO.C,R506*
X18327900Y15439158D02*
X18327900Y14964642D01*
X17282900Y15439158D02*
X17282900Y14964642D01*
G04 #@! TO.C,T501*
X30790000Y18086800D02*
X30790000Y19546800D01*
X27630000Y18086800D02*
X27630000Y20246800D01*
X27630000Y18086800D02*
X28560000Y18086800D01*
X30790000Y18086800D02*
X29860000Y18086800D01*
G04 #@! TO.C,TP401*
X5767300Y36969700D02*
G75*
G03*
X5767300Y36969700I-700000J0D01*
G01*
G04 #@! TO.C,TP402*
X5754600Y34912300D02*
G75*
G03*
X5754600Y34912300I-700000J0D01*
G01*
G04 #@! TO.C,TP403*
X7596100Y35890200D02*
G75*
G03*
X7596100Y35890200I-700000J0D01*
G01*
G04 #@! TO.C,TP404*
X5818100Y32842200D02*
G75*
G03*
X5818100Y32842200I-700000J0D01*
G01*
G04 #@! TO.C,TP405*
X7596100Y33845500D02*
G75*
G03*
X7596100Y33845500I-700000J0D01*
G01*
G04 #@! TO.C,TP406*
X5792700Y30797500D02*
G75*
G03*
X5792700Y30797500I-700000J0D01*
G01*
G04 #@! TO.C,JP404*
X4289600Y26025600D02*
X7089600Y26025600D01*
X7739600Y26725600D02*
X7739600Y27325600D01*
X7089600Y28025600D02*
X4289600Y28025600D01*
X3639600Y27325600D02*
X3639600Y26725600D01*
X3639600Y26725600D02*
G75*
G03*
X4339600Y26025600I700000J0D01*
G01*
X4339600Y28025600D02*
G75*
G03*
X3639600Y27325600I0J-700000D01*
G01*
X7739600Y27325600D02*
G75*
G03*
X7039600Y28025600I-700000J0D01*
G01*
X7039600Y26025600D02*
G75*
G03*
X7739600Y26725600I0J700000D01*
G01*
G04 #@! TD*
G04 #@! TO.C,JP405*
D12*
X1473460Y35299686D02*
X1473460Y35871115D01*
X1473460Y35585400D02*
X473460Y35585400D01*
X616318Y35680639D01*
X711556Y35775877D01*
X759175Y35871115D01*
X2195580Y31261334D02*
X2195580Y30642286D01*
X2576533Y30975620D01*
X2576533Y30832762D01*
X2624152Y30737524D01*
X2671771Y30689905D01*
X2767009Y30642286D01*
X3005104Y30642286D01*
X3100342Y30689905D01*
X3147961Y30737524D01*
X3195580Y30832762D01*
X3195580Y31118477D01*
X3147961Y31213715D01*
X3100342Y31261334D01*
D13*
X1031750Y34547858D02*
X1388893Y34547858D01*
X1460321Y34571667D01*
X1507940Y34619286D01*
X1531750Y34690715D01*
X1531750Y34738334D01*
X1531750Y34309762D02*
X1031750Y34309762D01*
X1031750Y34119286D01*
X1055560Y34071667D01*
X1079369Y34047858D01*
X1126988Y34024048D01*
X1198417Y34024048D01*
X1246036Y34047858D01*
X1269845Y34071667D01*
X1293655Y34119286D01*
X1293655Y34309762D01*
X1198417Y33595477D02*
X1531750Y33595477D01*
X1007940Y33714524D02*
X1365083Y33833572D01*
X1365083Y33524048D01*
X1031750Y33238334D02*
X1031750Y33190715D01*
X1055560Y33143096D01*
X1079369Y33119286D01*
X1126988Y33095477D01*
X1222226Y33071667D01*
X1341274Y33071667D01*
X1436512Y33095477D01*
X1484131Y33119286D01*
X1507940Y33143096D01*
X1531750Y33190715D01*
X1531750Y33238334D01*
X1507940Y33285953D01*
X1484131Y33309762D01*
X1436512Y33333572D01*
X1341274Y33357381D01*
X1222226Y33357381D01*
X1126988Y33333572D01*
X1079369Y33309762D01*
X1055560Y33285953D01*
X1031750Y33238334D01*
X1031750Y32619286D02*
X1031750Y32857381D01*
X1269845Y32881191D01*
X1246036Y32857381D01*
X1222226Y32809762D01*
X1222226Y32690715D01*
X1246036Y32643096D01*
X1269845Y32619286D01*
X1317464Y32595477D01*
X1436512Y32595477D01*
X1484131Y32619286D01*
X1507940Y32643096D01*
X1531750Y32690715D01*
X1531750Y32809762D01*
X1507940Y32857381D01*
X1484131Y32881191D01*
G04 #@! TO.C,FL203*
X38195938Y45323915D02*
X38362604Y45323915D01*
X38362604Y45062010D02*
X38362604Y45562010D01*
X38124509Y45562010D01*
X37695938Y45062010D02*
X37934033Y45062010D01*
X37934033Y45562010D01*
X37553080Y45514391D02*
X37529271Y45538200D01*
X37481652Y45562010D01*
X37362604Y45562010D01*
X37314985Y45538200D01*
X37291176Y45514391D01*
X37267366Y45466772D01*
X37267366Y45419153D01*
X37291176Y45347724D01*
X37576890Y45062010D01*
X37267366Y45062010D01*
X36957842Y45562010D02*
X36910223Y45562010D01*
X36862604Y45538200D01*
X36838795Y45514391D01*
X36814985Y45466772D01*
X36791176Y45371534D01*
X36791176Y45252486D01*
X36814985Y45157248D01*
X36838795Y45109629D01*
X36862604Y45085820D01*
X36910223Y45062010D01*
X36957842Y45062010D01*
X37005461Y45085820D01*
X37029271Y45109629D01*
X37053080Y45157248D01*
X37076890Y45252486D01*
X37076890Y45371534D01*
X37053080Y45466772D01*
X37029271Y45514391D01*
X37005461Y45538200D01*
X36957842Y45562010D01*
X36624509Y45562010D02*
X36314985Y45562010D01*
X36481652Y45371534D01*
X36410223Y45371534D01*
X36362604Y45347724D01*
X36338795Y45323915D01*
X36314985Y45276296D01*
X36314985Y45157248D01*
X36338795Y45109629D01*
X36362604Y45085820D01*
X36410223Y45062010D01*
X36553080Y45062010D01*
X36600700Y45085820D01*
X36624509Y45109629D01*
G04 #@! TO.C,FL502*
X36019158Y14163195D02*
X36185824Y14163195D01*
X36185824Y13901290D02*
X36185824Y14401290D01*
X35947729Y14401290D01*
X35519158Y13901290D02*
X35757253Y13901290D01*
X35757253Y14401290D01*
X35114396Y14401290D02*
X35352491Y14401290D01*
X35376300Y14163195D01*
X35352491Y14187004D01*
X35304872Y14210814D01*
X35185824Y14210814D01*
X35138205Y14187004D01*
X35114396Y14163195D01*
X35090586Y14115576D01*
X35090586Y13996528D01*
X35114396Y13948909D01*
X35138205Y13925100D01*
X35185824Y13901290D01*
X35304872Y13901290D01*
X35352491Y13925100D01*
X35376300Y13948909D01*
X34781062Y14401290D02*
X34733443Y14401290D01*
X34685824Y14377480D01*
X34662015Y14353671D01*
X34638205Y14306052D01*
X34614396Y14210814D01*
X34614396Y14091766D01*
X34638205Y13996528D01*
X34662015Y13948909D01*
X34685824Y13925100D01*
X34733443Y13901290D01*
X34781062Y13901290D01*
X34828681Y13925100D01*
X34852491Y13948909D01*
X34876300Y13996528D01*
X34900110Y14091766D01*
X34900110Y14210814D01*
X34876300Y14306052D01*
X34852491Y14353671D01*
X34828681Y14377480D01*
X34781062Y14401290D01*
X34423920Y14353671D02*
X34400110Y14377480D01*
X34352491Y14401290D01*
X34233443Y14401290D01*
X34185824Y14377480D01*
X34162015Y14353671D01*
X34138205Y14306052D01*
X34138205Y14258433D01*
X34162015Y14187004D01*
X34447729Y13901290D01*
X34138205Y13901290D01*
G04 #@! TO.C,R215*
X18563043Y41892090D02*
X18729710Y42130185D01*
X18848758Y41892090D02*
X18848758Y42392090D01*
X18658281Y42392090D01*
X18610662Y42368280D01*
X18586853Y42344471D01*
X18563043Y42296852D01*
X18563043Y42225423D01*
X18586853Y42177804D01*
X18610662Y42153995D01*
X18658281Y42130185D01*
X18848758Y42130185D01*
X18372567Y42344471D02*
X18348758Y42368280D01*
X18301139Y42392090D01*
X18182091Y42392090D01*
X18134472Y42368280D01*
X18110662Y42344471D01*
X18086853Y42296852D01*
X18086853Y42249233D01*
X18110662Y42177804D01*
X18396377Y41892090D01*
X18086853Y41892090D01*
X17610662Y41892090D02*
X17896377Y41892090D01*
X17753520Y41892090D02*
X17753520Y42392090D01*
X17801139Y42320661D01*
X17848758Y42273042D01*
X17896377Y42249233D01*
X17158281Y42392090D02*
X17396377Y42392090D01*
X17420186Y42153995D01*
X17396377Y42177804D01*
X17348758Y42201614D01*
X17229710Y42201614D01*
X17182091Y42177804D01*
X17158281Y42153995D01*
X17134472Y42106376D01*
X17134472Y41987328D01*
X17158281Y41939709D01*
X17182091Y41915900D01*
X17229710Y41892090D01*
X17348758Y41892090D01*
X17396377Y41915900D01*
X17420186Y41939709D01*
G04 #@! TO.C,C201*
X28657003Y32236909D02*
X28680813Y32213100D01*
X28752241Y32189290D01*
X28799860Y32189290D01*
X28871289Y32213100D01*
X28918908Y32260719D01*
X28942718Y32308338D01*
X28966527Y32403576D01*
X28966527Y32475004D01*
X28942718Y32570242D01*
X28918908Y32617861D01*
X28871289Y32665480D01*
X28799860Y32689290D01*
X28752241Y32689290D01*
X28680813Y32665480D01*
X28657003Y32641671D01*
X28466527Y32641671D02*
X28442718Y32665480D01*
X28395099Y32689290D01*
X28276051Y32689290D01*
X28228432Y32665480D01*
X28204622Y32641671D01*
X28180813Y32594052D01*
X28180813Y32546433D01*
X28204622Y32475004D01*
X28490337Y32189290D01*
X28180813Y32189290D01*
X27871289Y32689290D02*
X27823670Y32689290D01*
X27776051Y32665480D01*
X27752241Y32641671D01*
X27728432Y32594052D01*
X27704622Y32498814D01*
X27704622Y32379766D01*
X27728432Y32284528D01*
X27752241Y32236909D01*
X27776051Y32213100D01*
X27823670Y32189290D01*
X27871289Y32189290D01*
X27918908Y32213100D01*
X27942718Y32236909D01*
X27966527Y32284528D01*
X27990337Y32379766D01*
X27990337Y32498814D01*
X27966527Y32594052D01*
X27942718Y32641671D01*
X27918908Y32665480D01*
X27871289Y32689290D01*
X27228432Y32189290D02*
X27514146Y32189290D01*
X27371289Y32189290D02*
X27371289Y32689290D01*
X27418908Y32617861D01*
X27466527Y32570242D01*
X27514146Y32546433D01*
G04 #@! TO.C,C208*
X37186323Y37667429D02*
X37210133Y37643620D01*
X37281561Y37619810D01*
X37329180Y37619810D01*
X37400609Y37643620D01*
X37448228Y37691239D01*
X37472038Y37738858D01*
X37495847Y37834096D01*
X37495847Y37905524D01*
X37472038Y38000762D01*
X37448228Y38048381D01*
X37400609Y38096000D01*
X37329180Y38119810D01*
X37281561Y38119810D01*
X37210133Y38096000D01*
X37186323Y38072191D01*
X36995847Y38072191D02*
X36972038Y38096000D01*
X36924419Y38119810D01*
X36805371Y38119810D01*
X36757752Y38096000D01*
X36733942Y38072191D01*
X36710133Y38024572D01*
X36710133Y37976953D01*
X36733942Y37905524D01*
X37019657Y37619810D01*
X36710133Y37619810D01*
X36400609Y38119810D02*
X36352990Y38119810D01*
X36305371Y38096000D01*
X36281561Y38072191D01*
X36257752Y38024572D01*
X36233942Y37929334D01*
X36233942Y37810286D01*
X36257752Y37715048D01*
X36281561Y37667429D01*
X36305371Y37643620D01*
X36352990Y37619810D01*
X36400609Y37619810D01*
X36448228Y37643620D01*
X36472038Y37667429D01*
X36495847Y37715048D01*
X36519657Y37810286D01*
X36519657Y37929334D01*
X36495847Y38024572D01*
X36472038Y38072191D01*
X36448228Y38096000D01*
X36400609Y38119810D01*
X35948228Y37905524D02*
X35995847Y37929334D01*
X36019657Y37953143D01*
X36043466Y38000762D01*
X36043466Y38024572D01*
X36019657Y38072191D01*
X35995847Y38096000D01*
X35948228Y38119810D01*
X35852990Y38119810D01*
X35805371Y38096000D01*
X35781561Y38072191D01*
X35757752Y38024572D01*
X35757752Y38000762D01*
X35781561Y37953143D01*
X35805371Y37929334D01*
X35852990Y37905524D01*
X35948228Y37905524D01*
X35995847Y37881715D01*
X36019657Y37857905D01*
X36043466Y37810286D01*
X36043466Y37715048D01*
X36019657Y37667429D01*
X35995847Y37643620D01*
X35948228Y37619810D01*
X35852990Y37619810D01*
X35805371Y37643620D01*
X35781561Y37667429D01*
X35757752Y37715048D01*
X35757752Y37810286D01*
X35781561Y37857905D01*
X35805371Y37881715D01*
X35852990Y37905524D01*
G04 #@! TO.C,C209*
X35174643Y37352469D02*
X35198453Y37328660D01*
X35269881Y37304850D01*
X35317500Y37304850D01*
X35388929Y37328660D01*
X35436548Y37376279D01*
X35460358Y37423898D01*
X35484167Y37519136D01*
X35484167Y37590564D01*
X35460358Y37685802D01*
X35436548Y37733421D01*
X35388929Y37781040D01*
X35317500Y37804850D01*
X35269881Y37804850D01*
X35198453Y37781040D01*
X35174643Y37757231D01*
X34984167Y37757231D02*
X34960358Y37781040D01*
X34912739Y37804850D01*
X34793691Y37804850D01*
X34746072Y37781040D01*
X34722262Y37757231D01*
X34698453Y37709612D01*
X34698453Y37661993D01*
X34722262Y37590564D01*
X35007977Y37304850D01*
X34698453Y37304850D01*
X34388929Y37804850D02*
X34341310Y37804850D01*
X34293691Y37781040D01*
X34269881Y37757231D01*
X34246072Y37709612D01*
X34222262Y37614374D01*
X34222262Y37495326D01*
X34246072Y37400088D01*
X34269881Y37352469D01*
X34293691Y37328660D01*
X34341310Y37304850D01*
X34388929Y37304850D01*
X34436548Y37328660D01*
X34460358Y37352469D01*
X34484167Y37400088D01*
X34507977Y37495326D01*
X34507977Y37614374D01*
X34484167Y37709612D01*
X34460358Y37757231D01*
X34436548Y37781040D01*
X34388929Y37804850D01*
X33984167Y37304850D02*
X33888929Y37304850D01*
X33841310Y37328660D01*
X33817500Y37352469D01*
X33769881Y37423898D01*
X33746072Y37519136D01*
X33746072Y37709612D01*
X33769881Y37757231D01*
X33793691Y37781040D01*
X33841310Y37804850D01*
X33936548Y37804850D01*
X33984167Y37781040D01*
X34007977Y37757231D01*
X34031786Y37709612D01*
X34031786Y37590564D01*
X34007977Y37542945D01*
X33984167Y37519136D01*
X33936548Y37495326D01*
X33841310Y37495326D01*
X33793691Y37519136D01*
X33769881Y37542945D01*
X33746072Y37590564D01*
G04 #@! TO.C,C210*
X31766011Y40711844D02*
X31789820Y40735654D01*
X31813630Y40807082D01*
X31813630Y40854701D01*
X31789820Y40926130D01*
X31742201Y40973749D01*
X31694582Y40997559D01*
X31599344Y41021368D01*
X31527916Y41021368D01*
X31432678Y40997559D01*
X31385059Y40973749D01*
X31337440Y40926130D01*
X31313630Y40854701D01*
X31313630Y40807082D01*
X31337440Y40735654D01*
X31361249Y40711844D01*
X31361249Y40521368D02*
X31337440Y40497559D01*
X31313630Y40449940D01*
X31313630Y40330892D01*
X31337440Y40283273D01*
X31361249Y40259463D01*
X31408868Y40235654D01*
X31456487Y40235654D01*
X31527916Y40259463D01*
X31813630Y40545178D01*
X31813630Y40235654D01*
X31813630Y39759463D02*
X31813630Y40045178D01*
X31813630Y39902320D02*
X31313630Y39902320D01*
X31385059Y39949940D01*
X31432678Y39997559D01*
X31456487Y40045178D01*
X31313630Y39449940D02*
X31313630Y39402320D01*
X31337440Y39354701D01*
X31361249Y39330892D01*
X31408868Y39307082D01*
X31504106Y39283273D01*
X31623154Y39283273D01*
X31718392Y39307082D01*
X31766011Y39330892D01*
X31789820Y39354701D01*
X31813630Y39402320D01*
X31813630Y39449940D01*
X31789820Y39497559D01*
X31766011Y39521368D01*
X31718392Y39545178D01*
X31623154Y39568987D01*
X31504106Y39568987D01*
X31408868Y39545178D01*
X31361249Y39521368D01*
X31337440Y39497559D01*
X31313630Y39449940D01*
G04 #@! TO.C,C211*
X41280803Y43997109D02*
X41304613Y43973300D01*
X41376041Y43949490D01*
X41423660Y43949490D01*
X41495089Y43973300D01*
X41542708Y44020919D01*
X41566518Y44068538D01*
X41590327Y44163776D01*
X41590327Y44235204D01*
X41566518Y44330442D01*
X41542708Y44378061D01*
X41495089Y44425680D01*
X41423660Y44449490D01*
X41376041Y44449490D01*
X41304613Y44425680D01*
X41280803Y44401871D01*
X41090327Y44401871D02*
X41066518Y44425680D01*
X41018899Y44449490D01*
X40899851Y44449490D01*
X40852232Y44425680D01*
X40828422Y44401871D01*
X40804613Y44354252D01*
X40804613Y44306633D01*
X40828422Y44235204D01*
X41114137Y43949490D01*
X40804613Y43949490D01*
X40328422Y43949490D02*
X40614137Y43949490D01*
X40471280Y43949490D02*
X40471280Y44449490D01*
X40518899Y44378061D01*
X40566518Y44330442D01*
X40614137Y44306633D01*
X39852232Y43949490D02*
X40137946Y43949490D01*
X39995089Y43949490D02*
X39995089Y44449490D01*
X40042708Y44378061D01*
X40090327Y44330442D01*
X40137946Y44306633D01*
G04 #@! TO.C,C212*
X28712883Y46709829D02*
X28736693Y46686020D01*
X28808121Y46662210D01*
X28855740Y46662210D01*
X28927169Y46686020D01*
X28974788Y46733639D01*
X28998598Y46781258D01*
X29022407Y46876496D01*
X29022407Y46947924D01*
X28998598Y47043162D01*
X28974788Y47090781D01*
X28927169Y47138400D01*
X28855740Y47162210D01*
X28808121Y47162210D01*
X28736693Y47138400D01*
X28712883Y47114591D01*
X28522407Y47114591D02*
X28498598Y47138400D01*
X28450979Y47162210D01*
X28331931Y47162210D01*
X28284312Y47138400D01*
X28260502Y47114591D01*
X28236693Y47066972D01*
X28236693Y47019353D01*
X28260502Y46947924D01*
X28546217Y46662210D01*
X28236693Y46662210D01*
X27760502Y46662210D02*
X28046217Y46662210D01*
X27903360Y46662210D02*
X27903360Y47162210D01*
X27950979Y47090781D01*
X27998598Y47043162D01*
X28046217Y47019353D01*
X27570026Y47114591D02*
X27546217Y47138400D01*
X27498598Y47162210D01*
X27379550Y47162210D01*
X27331931Y47138400D01*
X27308121Y47114591D01*
X27284312Y47066972D01*
X27284312Y47019353D01*
X27308121Y46947924D01*
X27593836Y46662210D01*
X27284312Y46662210D01*
G04 #@! TO.C,C213*
X30927811Y40711844D02*
X30951620Y40735654D01*
X30975430Y40807082D01*
X30975430Y40854701D01*
X30951620Y40926130D01*
X30904001Y40973749D01*
X30856382Y40997559D01*
X30761144Y41021368D01*
X30689716Y41021368D01*
X30594478Y40997559D01*
X30546859Y40973749D01*
X30499240Y40926130D01*
X30475430Y40854701D01*
X30475430Y40807082D01*
X30499240Y40735654D01*
X30523049Y40711844D01*
X30523049Y40521368D02*
X30499240Y40497559D01*
X30475430Y40449940D01*
X30475430Y40330892D01*
X30499240Y40283273D01*
X30523049Y40259463D01*
X30570668Y40235654D01*
X30618287Y40235654D01*
X30689716Y40259463D01*
X30975430Y40545178D01*
X30975430Y40235654D01*
X30975430Y39759463D02*
X30975430Y40045178D01*
X30975430Y39902320D02*
X30475430Y39902320D01*
X30546859Y39949940D01*
X30594478Y39997559D01*
X30618287Y40045178D01*
X30475430Y39592797D02*
X30475430Y39283273D01*
X30665906Y39449940D01*
X30665906Y39378511D01*
X30689716Y39330892D01*
X30713525Y39307082D01*
X30761144Y39283273D01*
X30880192Y39283273D01*
X30927811Y39307082D01*
X30951620Y39330892D01*
X30975430Y39378511D01*
X30975430Y39521368D01*
X30951620Y39568987D01*
X30927811Y39592797D01*
G04 #@! TO.C,C302*
X32418771Y9830524D02*
X32442580Y9854334D01*
X32466390Y9925762D01*
X32466390Y9973381D01*
X32442580Y10044810D01*
X32394961Y10092429D01*
X32347342Y10116239D01*
X32252104Y10140048D01*
X32180676Y10140048D01*
X32085438Y10116239D01*
X32037819Y10092429D01*
X31990200Y10044810D01*
X31966390Y9973381D01*
X31966390Y9925762D01*
X31990200Y9854334D01*
X32014009Y9830524D01*
X31966390Y9663858D02*
X31966390Y9354334D01*
X32156866Y9521000D01*
X32156866Y9449572D01*
X32180676Y9401953D01*
X32204485Y9378143D01*
X32252104Y9354334D01*
X32371152Y9354334D01*
X32418771Y9378143D01*
X32442580Y9401953D01*
X32466390Y9449572D01*
X32466390Y9592429D01*
X32442580Y9640048D01*
X32418771Y9663858D01*
X31966390Y9044810D02*
X31966390Y8997191D01*
X31990200Y8949572D01*
X32014009Y8925762D01*
X32061628Y8901953D01*
X32156866Y8878143D01*
X32275914Y8878143D01*
X32371152Y8901953D01*
X32418771Y8925762D01*
X32442580Y8949572D01*
X32466390Y8997191D01*
X32466390Y9044810D01*
X32442580Y9092429D01*
X32418771Y9116239D01*
X32371152Y9140048D01*
X32275914Y9163858D01*
X32156866Y9163858D01*
X32061628Y9140048D01*
X32014009Y9116239D01*
X31990200Y9092429D01*
X31966390Y9044810D01*
X32014009Y8687667D02*
X31990200Y8663858D01*
X31966390Y8616239D01*
X31966390Y8497191D01*
X31990200Y8449572D01*
X32014009Y8425762D01*
X32061628Y8401953D01*
X32109247Y8401953D01*
X32180676Y8425762D01*
X32466390Y8711477D01*
X32466390Y8401953D01*
G04 #@! TO.C,C303*
X11750763Y11642589D02*
X11774573Y11618780D01*
X11846001Y11594970D01*
X11893620Y11594970D01*
X11965049Y11618780D01*
X12012668Y11666399D01*
X12036478Y11714018D01*
X12060287Y11809256D01*
X12060287Y11880684D01*
X12036478Y11975922D01*
X12012668Y12023541D01*
X11965049Y12071160D01*
X11893620Y12094970D01*
X11846001Y12094970D01*
X11774573Y12071160D01*
X11750763Y12047351D01*
X11584097Y12094970D02*
X11274573Y12094970D01*
X11441240Y11904494D01*
X11369811Y11904494D01*
X11322192Y11880684D01*
X11298382Y11856875D01*
X11274573Y11809256D01*
X11274573Y11690208D01*
X11298382Y11642589D01*
X11322192Y11618780D01*
X11369811Y11594970D01*
X11512668Y11594970D01*
X11560287Y11618780D01*
X11584097Y11642589D01*
X10965049Y12094970D02*
X10917430Y12094970D01*
X10869811Y12071160D01*
X10846001Y12047351D01*
X10822192Y11999732D01*
X10798382Y11904494D01*
X10798382Y11785446D01*
X10822192Y11690208D01*
X10846001Y11642589D01*
X10869811Y11618780D01*
X10917430Y11594970D01*
X10965049Y11594970D01*
X11012668Y11618780D01*
X11036478Y11642589D01*
X11060287Y11690208D01*
X11084097Y11785446D01*
X11084097Y11904494D01*
X11060287Y11999732D01*
X11036478Y12047351D01*
X11012668Y12071160D01*
X10965049Y12094970D01*
X10631716Y12094970D02*
X10322192Y12094970D01*
X10488859Y11904494D01*
X10417430Y11904494D01*
X10369811Y11880684D01*
X10346001Y11856875D01*
X10322192Y11809256D01*
X10322192Y11690208D01*
X10346001Y11642589D01*
X10369811Y11618780D01*
X10417430Y11594970D01*
X10560287Y11594970D01*
X10607906Y11618780D01*
X10631716Y11642589D01*
G04 #@! TO.C,C304*
X20539211Y12035244D02*
X20563020Y12059054D01*
X20586830Y12130482D01*
X20586830Y12178101D01*
X20563020Y12249530D01*
X20515401Y12297149D01*
X20467782Y12320959D01*
X20372544Y12344768D01*
X20301116Y12344768D01*
X20205878Y12320959D01*
X20158259Y12297149D01*
X20110640Y12249530D01*
X20086830Y12178101D01*
X20086830Y12130482D01*
X20110640Y12059054D01*
X20134449Y12035244D01*
X20086830Y11868578D02*
X20086830Y11559054D01*
X20277306Y11725720D01*
X20277306Y11654292D01*
X20301116Y11606673D01*
X20324925Y11582863D01*
X20372544Y11559054D01*
X20491592Y11559054D01*
X20539211Y11582863D01*
X20563020Y11606673D01*
X20586830Y11654292D01*
X20586830Y11797149D01*
X20563020Y11844768D01*
X20539211Y11868578D01*
X20086830Y11249530D02*
X20086830Y11201911D01*
X20110640Y11154292D01*
X20134449Y11130482D01*
X20182068Y11106673D01*
X20277306Y11082863D01*
X20396354Y11082863D01*
X20491592Y11106673D01*
X20539211Y11130482D01*
X20563020Y11154292D01*
X20586830Y11201911D01*
X20586830Y11249530D01*
X20563020Y11297149D01*
X20539211Y11320959D01*
X20491592Y11344768D01*
X20396354Y11368578D01*
X20277306Y11368578D01*
X20182068Y11344768D01*
X20134449Y11320959D01*
X20110640Y11297149D01*
X20086830Y11249530D01*
X20253497Y10654292D02*
X20586830Y10654292D01*
X20063020Y10773340D02*
X20420163Y10892387D01*
X20420163Y10582863D01*
G04 #@! TO.C,C305*
X29576531Y14077404D02*
X29600340Y14101214D01*
X29624150Y14172642D01*
X29624150Y14220261D01*
X29600340Y14291690D01*
X29552721Y14339309D01*
X29505102Y14363119D01*
X29409864Y14386928D01*
X29338436Y14386928D01*
X29243198Y14363119D01*
X29195579Y14339309D01*
X29147960Y14291690D01*
X29124150Y14220261D01*
X29124150Y14172642D01*
X29147960Y14101214D01*
X29171769Y14077404D01*
X29124150Y13910738D02*
X29124150Y13601214D01*
X29314626Y13767880D01*
X29314626Y13696452D01*
X29338436Y13648833D01*
X29362245Y13625023D01*
X29409864Y13601214D01*
X29528912Y13601214D01*
X29576531Y13625023D01*
X29600340Y13648833D01*
X29624150Y13696452D01*
X29624150Y13839309D01*
X29600340Y13886928D01*
X29576531Y13910738D01*
X29124150Y13291690D02*
X29124150Y13244071D01*
X29147960Y13196452D01*
X29171769Y13172642D01*
X29219388Y13148833D01*
X29314626Y13125023D01*
X29433674Y13125023D01*
X29528912Y13148833D01*
X29576531Y13172642D01*
X29600340Y13196452D01*
X29624150Y13244071D01*
X29624150Y13291690D01*
X29600340Y13339309D01*
X29576531Y13363119D01*
X29528912Y13386928D01*
X29433674Y13410738D01*
X29314626Y13410738D01*
X29219388Y13386928D01*
X29171769Y13363119D01*
X29147960Y13339309D01*
X29124150Y13291690D01*
X29124150Y12672642D02*
X29124150Y12910738D01*
X29362245Y12934547D01*
X29338436Y12910738D01*
X29314626Y12863119D01*
X29314626Y12744071D01*
X29338436Y12696452D01*
X29362245Y12672642D01*
X29409864Y12648833D01*
X29528912Y12648833D01*
X29576531Y12672642D01*
X29600340Y12696452D01*
X29624150Y12744071D01*
X29624150Y12863119D01*
X29600340Y12910738D01*
X29576531Y12934547D01*
G04 #@! TO.C,C402*
X22027651Y25939204D02*
X22051460Y25963014D01*
X22075270Y26034442D01*
X22075270Y26082061D01*
X22051460Y26153490D01*
X22003841Y26201109D01*
X21956222Y26224919D01*
X21860984Y26248728D01*
X21789556Y26248728D01*
X21694318Y26224919D01*
X21646699Y26201109D01*
X21599080Y26153490D01*
X21575270Y26082061D01*
X21575270Y26034442D01*
X21599080Y25963014D01*
X21622889Y25939204D01*
X21741937Y25510633D02*
X22075270Y25510633D01*
X21551460Y25629680D02*
X21908603Y25748728D01*
X21908603Y25439204D01*
X21575270Y25153490D02*
X21575270Y25105871D01*
X21599080Y25058252D01*
X21622889Y25034442D01*
X21670508Y25010633D01*
X21765746Y24986823D01*
X21884794Y24986823D01*
X21980032Y25010633D01*
X22027651Y25034442D01*
X22051460Y25058252D01*
X22075270Y25105871D01*
X22075270Y25153490D01*
X22051460Y25201109D01*
X22027651Y25224919D01*
X21980032Y25248728D01*
X21884794Y25272538D01*
X21765746Y25272538D01*
X21670508Y25248728D01*
X21622889Y25224919D01*
X21599080Y25201109D01*
X21575270Y25153490D01*
X21622889Y24796347D02*
X21599080Y24772538D01*
X21575270Y24724919D01*
X21575270Y24605871D01*
X21599080Y24558252D01*
X21622889Y24534442D01*
X21670508Y24510633D01*
X21718127Y24510633D01*
X21789556Y24534442D01*
X22075270Y24820157D01*
X22075270Y24510633D01*
G04 #@! TO.C,C403*
X21997171Y32436524D02*
X22020980Y32460334D01*
X22044790Y32531762D01*
X22044790Y32579381D01*
X22020980Y32650810D01*
X21973361Y32698429D01*
X21925742Y32722239D01*
X21830504Y32746048D01*
X21759076Y32746048D01*
X21663838Y32722239D01*
X21616219Y32698429D01*
X21568600Y32650810D01*
X21544790Y32579381D01*
X21544790Y32531762D01*
X21568600Y32460334D01*
X21592409Y32436524D01*
X21711457Y32007953D02*
X22044790Y32007953D01*
X21520980Y32127000D02*
X21878123Y32246048D01*
X21878123Y31936524D01*
X21544790Y31650810D02*
X21544790Y31603191D01*
X21568600Y31555572D01*
X21592409Y31531762D01*
X21640028Y31507953D01*
X21735266Y31484143D01*
X21854314Y31484143D01*
X21949552Y31507953D01*
X21997171Y31531762D01*
X22020980Y31555572D01*
X22044790Y31603191D01*
X22044790Y31650810D01*
X22020980Y31698429D01*
X21997171Y31722239D01*
X21949552Y31746048D01*
X21854314Y31769858D01*
X21735266Y31769858D01*
X21640028Y31746048D01*
X21592409Y31722239D01*
X21568600Y31698429D01*
X21544790Y31650810D01*
X21544790Y31317477D02*
X21544790Y31007953D01*
X21735266Y31174620D01*
X21735266Y31103191D01*
X21759076Y31055572D01*
X21782885Y31031762D01*
X21830504Y31007953D01*
X21949552Y31007953D01*
X21997171Y31031762D01*
X22020980Y31055572D01*
X22044790Y31103191D01*
X22044790Y31246048D01*
X22020980Y31293667D01*
X21997171Y31317477D01*
G04 #@! TO.C,C501*
X22215611Y16541204D02*
X22239420Y16565014D01*
X22263230Y16636442D01*
X22263230Y16684061D01*
X22239420Y16755490D01*
X22191801Y16803109D01*
X22144182Y16826919D01*
X22048944Y16850728D01*
X21977516Y16850728D01*
X21882278Y16826919D01*
X21834659Y16803109D01*
X21787040Y16755490D01*
X21763230Y16684061D01*
X21763230Y16636442D01*
X21787040Y16565014D01*
X21810849Y16541204D01*
X21763230Y16088823D02*
X21763230Y16326919D01*
X22001325Y16350728D01*
X21977516Y16326919D01*
X21953706Y16279300D01*
X21953706Y16160252D01*
X21977516Y16112633D01*
X22001325Y16088823D01*
X22048944Y16065014D01*
X22167992Y16065014D01*
X22215611Y16088823D01*
X22239420Y16112633D01*
X22263230Y16160252D01*
X22263230Y16279300D01*
X22239420Y16326919D01*
X22215611Y16350728D01*
X21763230Y15755490D02*
X21763230Y15707871D01*
X21787040Y15660252D01*
X21810849Y15636442D01*
X21858468Y15612633D01*
X21953706Y15588823D01*
X22072754Y15588823D01*
X22167992Y15612633D01*
X22215611Y15636442D01*
X22239420Y15660252D01*
X22263230Y15707871D01*
X22263230Y15755490D01*
X22239420Y15803109D01*
X22215611Y15826919D01*
X22167992Y15850728D01*
X22072754Y15874538D01*
X21953706Y15874538D01*
X21858468Y15850728D01*
X21810849Y15826919D01*
X21787040Y15803109D01*
X21763230Y15755490D01*
X22263230Y15112633D02*
X22263230Y15398347D01*
X22263230Y15255490D02*
X21763230Y15255490D01*
X21834659Y15303109D01*
X21882278Y15350728D01*
X21906087Y15398347D01*
G04 #@! TO.C,C504*
X16912091Y18954204D02*
X16935900Y18978014D01*
X16959710Y19049442D01*
X16959710Y19097061D01*
X16935900Y19168490D01*
X16888281Y19216109D01*
X16840662Y19239919D01*
X16745424Y19263728D01*
X16673996Y19263728D01*
X16578758Y19239919D01*
X16531139Y19216109D01*
X16483520Y19168490D01*
X16459710Y19097061D01*
X16459710Y19049442D01*
X16483520Y18978014D01*
X16507329Y18954204D01*
X16459710Y18501823D02*
X16459710Y18739919D01*
X16697805Y18763728D01*
X16673996Y18739919D01*
X16650186Y18692300D01*
X16650186Y18573252D01*
X16673996Y18525633D01*
X16697805Y18501823D01*
X16745424Y18478014D01*
X16864472Y18478014D01*
X16912091Y18501823D01*
X16935900Y18525633D01*
X16959710Y18573252D01*
X16959710Y18692300D01*
X16935900Y18739919D01*
X16912091Y18763728D01*
X16459710Y18168490D02*
X16459710Y18120871D01*
X16483520Y18073252D01*
X16507329Y18049442D01*
X16554948Y18025633D01*
X16650186Y18001823D01*
X16769234Y18001823D01*
X16864472Y18025633D01*
X16912091Y18049442D01*
X16935900Y18073252D01*
X16959710Y18120871D01*
X16959710Y18168490D01*
X16935900Y18216109D01*
X16912091Y18239919D01*
X16864472Y18263728D01*
X16769234Y18287538D01*
X16650186Y18287538D01*
X16554948Y18263728D01*
X16507329Y18239919D01*
X16483520Y18216109D01*
X16459710Y18168490D01*
X16626377Y17573252D02*
X16959710Y17573252D01*
X16435900Y17692300D02*
X16793043Y17811347D01*
X16793043Y17501823D01*
G04 #@! TO.C,D201*
X35252078Y27962730D02*
X35252078Y28462730D01*
X35133030Y28462730D01*
X35061601Y28438920D01*
X35013982Y28391301D01*
X34990173Y28343682D01*
X34966363Y28248444D01*
X34966363Y28177016D01*
X34990173Y28081778D01*
X35013982Y28034159D01*
X35061601Y27986540D01*
X35133030Y27962730D01*
X35252078Y27962730D01*
X34775887Y28415111D02*
X34752078Y28438920D01*
X34704459Y28462730D01*
X34585411Y28462730D01*
X34537792Y28438920D01*
X34513982Y28415111D01*
X34490173Y28367492D01*
X34490173Y28319873D01*
X34513982Y28248444D01*
X34799697Y27962730D01*
X34490173Y27962730D01*
X34180649Y28462730D02*
X34133030Y28462730D01*
X34085411Y28438920D01*
X34061601Y28415111D01*
X34037792Y28367492D01*
X34013982Y28272254D01*
X34013982Y28153206D01*
X34037792Y28057968D01*
X34061601Y28010349D01*
X34085411Y27986540D01*
X34133030Y27962730D01*
X34180649Y27962730D01*
X34228268Y27986540D01*
X34252078Y28010349D01*
X34275887Y28057968D01*
X34299697Y28153206D01*
X34299697Y28272254D01*
X34275887Y28367492D01*
X34252078Y28415111D01*
X34228268Y28438920D01*
X34180649Y28462730D01*
X33537792Y27962730D02*
X33823506Y27962730D01*
X33680649Y27962730D02*
X33680649Y28462730D01*
X33728268Y28391301D01*
X33775887Y28343682D01*
X33823506Y28319873D01*
G04 #@! TO.C,D302*
X26850470Y14220879D02*
X26350470Y14220879D01*
X26350470Y14101831D01*
X26374280Y14030402D01*
X26421899Y13982783D01*
X26469518Y13958974D01*
X26564756Y13935164D01*
X26636184Y13935164D01*
X26731422Y13958974D01*
X26779041Y13982783D01*
X26826660Y14030402D01*
X26850470Y14101831D01*
X26850470Y14220879D01*
X26350470Y13768498D02*
X26350470Y13458974D01*
X26540946Y13625640D01*
X26540946Y13554212D01*
X26564756Y13506593D01*
X26588565Y13482783D01*
X26636184Y13458974D01*
X26755232Y13458974D01*
X26802851Y13482783D01*
X26826660Y13506593D01*
X26850470Y13554212D01*
X26850470Y13697069D01*
X26826660Y13744688D01*
X26802851Y13768498D01*
X26350470Y13149450D02*
X26350470Y13101831D01*
X26374280Y13054212D01*
X26398089Y13030402D01*
X26445708Y13006593D01*
X26540946Y12982783D01*
X26659994Y12982783D01*
X26755232Y13006593D01*
X26802851Y13030402D01*
X26826660Y13054212D01*
X26850470Y13101831D01*
X26850470Y13149450D01*
X26826660Y13197069D01*
X26802851Y13220879D01*
X26755232Y13244688D01*
X26659994Y13268498D01*
X26540946Y13268498D01*
X26445708Y13244688D01*
X26398089Y13220879D01*
X26374280Y13197069D01*
X26350470Y13149450D01*
X26398089Y12792307D02*
X26374280Y12768498D01*
X26350470Y12720879D01*
X26350470Y12601831D01*
X26374280Y12554212D01*
X26398089Y12530402D01*
X26445708Y12506593D01*
X26493327Y12506593D01*
X26564756Y12530402D01*
X26850470Y12816117D01*
X26850470Y12506593D01*
G04 #@! TO.C,D303*
X38533758Y13997810D02*
X38533758Y14497810D01*
X38414710Y14497810D01*
X38343281Y14474000D01*
X38295662Y14426381D01*
X38271853Y14378762D01*
X38248043Y14283524D01*
X38248043Y14212096D01*
X38271853Y14116858D01*
X38295662Y14069239D01*
X38343281Y14021620D01*
X38414710Y13997810D01*
X38533758Y13997810D01*
X38081377Y14497810D02*
X37771853Y14497810D01*
X37938520Y14307334D01*
X37867091Y14307334D01*
X37819472Y14283524D01*
X37795662Y14259715D01*
X37771853Y14212096D01*
X37771853Y14093048D01*
X37795662Y14045429D01*
X37819472Y14021620D01*
X37867091Y13997810D01*
X38009948Y13997810D01*
X38057567Y14021620D01*
X38081377Y14045429D01*
X37462329Y14497810D02*
X37414710Y14497810D01*
X37367091Y14474000D01*
X37343281Y14450191D01*
X37319472Y14402572D01*
X37295662Y14307334D01*
X37295662Y14188286D01*
X37319472Y14093048D01*
X37343281Y14045429D01*
X37367091Y14021620D01*
X37414710Y13997810D01*
X37462329Y13997810D01*
X37509948Y14021620D01*
X37533758Y14045429D01*
X37557567Y14093048D01*
X37581377Y14188286D01*
X37581377Y14307334D01*
X37557567Y14402572D01*
X37533758Y14450191D01*
X37509948Y14474000D01*
X37462329Y14497810D01*
X37128996Y14497810D02*
X36819472Y14497810D01*
X36986139Y14307334D01*
X36914710Y14307334D01*
X36867091Y14283524D01*
X36843281Y14259715D01*
X36819472Y14212096D01*
X36819472Y14093048D01*
X36843281Y14045429D01*
X36867091Y14021620D01*
X36914710Y13997810D01*
X37057567Y13997810D01*
X37105186Y14021620D01*
X37128996Y14045429D01*
G04 #@! TO.C,D305*
X40713078Y5615810D02*
X40713078Y6115810D01*
X40594030Y6115810D01*
X40522601Y6092000D01*
X40474982Y6044381D01*
X40451173Y5996762D01*
X40427363Y5901524D01*
X40427363Y5830096D01*
X40451173Y5734858D01*
X40474982Y5687239D01*
X40522601Y5639620D01*
X40594030Y5615810D01*
X40713078Y5615810D01*
X40260697Y6115810D02*
X39951173Y6115810D01*
X40117840Y5925334D01*
X40046411Y5925334D01*
X39998792Y5901524D01*
X39974982Y5877715D01*
X39951173Y5830096D01*
X39951173Y5711048D01*
X39974982Y5663429D01*
X39998792Y5639620D01*
X40046411Y5615810D01*
X40189268Y5615810D01*
X40236887Y5639620D01*
X40260697Y5663429D01*
X39641649Y6115810D02*
X39594030Y6115810D01*
X39546411Y6092000D01*
X39522601Y6068191D01*
X39498792Y6020572D01*
X39474982Y5925334D01*
X39474982Y5806286D01*
X39498792Y5711048D01*
X39522601Y5663429D01*
X39546411Y5639620D01*
X39594030Y5615810D01*
X39641649Y5615810D01*
X39689268Y5639620D01*
X39713078Y5663429D01*
X39736887Y5711048D01*
X39760697Y5806286D01*
X39760697Y5925334D01*
X39736887Y6020572D01*
X39713078Y6068191D01*
X39689268Y6092000D01*
X39641649Y6115810D01*
X39022601Y6115810D02*
X39260697Y6115810D01*
X39284506Y5877715D01*
X39260697Y5901524D01*
X39213078Y5925334D01*
X39094030Y5925334D01*
X39046411Y5901524D01*
X39022601Y5877715D01*
X38998792Y5830096D01*
X38998792Y5711048D01*
X39022601Y5663429D01*
X39046411Y5639620D01*
X39094030Y5615810D01*
X39213078Y5615810D01*
X39260697Y5639620D01*
X39284506Y5663429D01*
G04 #@! TO.C,D502*
X37330510Y21297319D02*
X36830510Y21297319D01*
X36830510Y21178271D01*
X36854320Y21106842D01*
X36901939Y21059223D01*
X36949558Y21035414D01*
X37044796Y21011604D01*
X37116224Y21011604D01*
X37211462Y21035414D01*
X37259081Y21059223D01*
X37306700Y21106842D01*
X37330510Y21178271D01*
X37330510Y21297319D01*
X36830510Y20559223D02*
X36830510Y20797319D01*
X37068605Y20821128D01*
X37044796Y20797319D01*
X37020986Y20749700D01*
X37020986Y20630652D01*
X37044796Y20583033D01*
X37068605Y20559223D01*
X37116224Y20535414D01*
X37235272Y20535414D01*
X37282891Y20559223D01*
X37306700Y20583033D01*
X37330510Y20630652D01*
X37330510Y20749700D01*
X37306700Y20797319D01*
X37282891Y20821128D01*
X36830510Y20225890D02*
X36830510Y20178271D01*
X36854320Y20130652D01*
X36878129Y20106842D01*
X36925748Y20083033D01*
X37020986Y20059223D01*
X37140034Y20059223D01*
X37235272Y20083033D01*
X37282891Y20106842D01*
X37306700Y20130652D01*
X37330510Y20178271D01*
X37330510Y20225890D01*
X37306700Y20273509D01*
X37282891Y20297319D01*
X37235272Y20321128D01*
X37140034Y20344938D01*
X37020986Y20344938D01*
X36925748Y20321128D01*
X36878129Y20297319D01*
X36854320Y20273509D01*
X36830510Y20225890D01*
X36878129Y19868747D02*
X36854320Y19844938D01*
X36830510Y19797319D01*
X36830510Y19678271D01*
X36854320Y19630652D01*
X36878129Y19606842D01*
X36925748Y19583033D01*
X36973367Y19583033D01*
X37044796Y19606842D01*
X37330510Y19892557D01*
X37330510Y19583033D01*
G04 #@! TO.C,F301*
X27040685Y10736818D02*
X27040685Y10903484D01*
X27302590Y10903484D02*
X26802590Y10903484D01*
X26802590Y10665389D01*
X26802590Y10522532D02*
X26802590Y10213008D01*
X26993066Y10379675D01*
X26993066Y10308246D01*
X27016876Y10260627D01*
X27040685Y10236818D01*
X27088304Y10213008D01*
X27207352Y10213008D01*
X27254971Y10236818D01*
X27278780Y10260627D01*
X27302590Y10308246D01*
X27302590Y10451103D01*
X27278780Y10498722D01*
X27254971Y10522532D01*
X26802590Y9903484D02*
X26802590Y9855865D01*
X26826400Y9808246D01*
X26850209Y9784437D01*
X26897828Y9760627D01*
X26993066Y9736818D01*
X27112114Y9736818D01*
X27207352Y9760627D01*
X27254971Y9784437D01*
X27278780Y9808246D01*
X27302590Y9855865D01*
X27302590Y9903484D01*
X27278780Y9951103D01*
X27254971Y9974913D01*
X27207352Y9998722D01*
X27112114Y10022532D01*
X26993066Y10022532D01*
X26897828Y9998722D01*
X26850209Y9974913D01*
X26826400Y9951103D01*
X26802590Y9903484D01*
X27302590Y9260627D02*
X27302590Y9546341D01*
X27302590Y9403484D02*
X26802590Y9403484D01*
X26874019Y9451103D01*
X26921638Y9498722D01*
X26945447Y9546341D01*
G04 #@! TO.C,F302*
X33434257Y11338715D02*
X33600923Y11338715D01*
X33600923Y11076810D02*
X33600923Y11576810D01*
X33362828Y11576810D01*
X33219971Y11576810D02*
X32910447Y11576810D01*
X33077114Y11386334D01*
X33005685Y11386334D01*
X32958066Y11362524D01*
X32934257Y11338715D01*
X32910447Y11291096D01*
X32910447Y11172048D01*
X32934257Y11124429D01*
X32958066Y11100620D01*
X33005685Y11076810D01*
X33148542Y11076810D01*
X33196161Y11100620D01*
X33219971Y11124429D01*
X32600923Y11576810D02*
X32553304Y11576810D01*
X32505685Y11553000D01*
X32481876Y11529191D01*
X32458066Y11481572D01*
X32434257Y11386334D01*
X32434257Y11267286D01*
X32458066Y11172048D01*
X32481876Y11124429D01*
X32505685Y11100620D01*
X32553304Y11076810D01*
X32600923Y11076810D01*
X32648542Y11100620D01*
X32672352Y11124429D01*
X32696161Y11172048D01*
X32719971Y11267286D01*
X32719971Y11386334D01*
X32696161Y11481572D01*
X32672352Y11529191D01*
X32648542Y11553000D01*
X32600923Y11576810D01*
X32243780Y11529191D02*
X32219971Y11553000D01*
X32172352Y11576810D01*
X32053304Y11576810D01*
X32005685Y11553000D01*
X31981876Y11529191D01*
X31958066Y11481572D01*
X31958066Y11433953D01*
X31981876Y11362524D01*
X32267590Y11076810D01*
X31958066Y11076810D01*
G04 #@! TO.C,IC203*
X25554809Y39640155D02*
X26054809Y39640155D01*
X25602428Y40163964D02*
X25578619Y40140155D01*
X25554809Y40068726D01*
X25554809Y40021107D01*
X25578619Y39949679D01*
X25626238Y39902060D01*
X25673857Y39878250D01*
X25769095Y39854440D01*
X25840523Y39854440D01*
X25935761Y39878250D01*
X25983380Y39902060D01*
X26031000Y39949679D01*
X26054809Y40021107D01*
X26054809Y40068726D01*
X26031000Y40140155D01*
X26007190Y40163964D01*
X26007190Y40354440D02*
X26031000Y40378250D01*
X26054809Y40425869D01*
X26054809Y40544917D01*
X26031000Y40592536D01*
X26007190Y40616345D01*
X25959571Y40640155D01*
X25911952Y40640155D01*
X25840523Y40616345D01*
X25554809Y40330631D01*
X25554809Y40640155D01*
X26054809Y40949679D02*
X26054809Y40997298D01*
X26031000Y41044917D01*
X26007190Y41068726D01*
X25959571Y41092536D01*
X25864333Y41116345D01*
X25745285Y41116345D01*
X25650047Y41092536D01*
X25602428Y41068726D01*
X25578619Y41044917D01*
X25554809Y40997298D01*
X25554809Y40949679D01*
X25578619Y40902060D01*
X25602428Y40878250D01*
X25650047Y40854440D01*
X25745285Y40830631D01*
X25864333Y40830631D01*
X25959571Y40854440D01*
X26007190Y40878250D01*
X26031000Y40902060D01*
X26054809Y40949679D01*
X26054809Y41283012D02*
X26054809Y41592536D01*
X25864333Y41425869D01*
X25864333Y41497298D01*
X25840523Y41544917D01*
X25816714Y41568726D01*
X25769095Y41592536D01*
X25650047Y41592536D01*
X25602428Y41568726D01*
X25578619Y41544917D01*
X25554809Y41497298D01*
X25554809Y41354440D01*
X25578619Y41306821D01*
X25602428Y41283012D01*
G04 #@! TO.C,IC205*
X17283785Y35176710D02*
X17283785Y35676710D01*
X16759976Y35224329D02*
X16783785Y35200520D01*
X16855214Y35176710D01*
X16902833Y35176710D01*
X16974261Y35200520D01*
X17021880Y35248139D01*
X17045690Y35295758D01*
X17069500Y35390996D01*
X17069500Y35462424D01*
X17045690Y35557662D01*
X17021880Y35605281D01*
X16974261Y35652900D01*
X16902833Y35676710D01*
X16855214Y35676710D01*
X16783785Y35652900D01*
X16759976Y35629091D01*
X16569500Y35629091D02*
X16545690Y35652900D01*
X16498071Y35676710D01*
X16379023Y35676710D01*
X16331404Y35652900D01*
X16307595Y35629091D01*
X16283785Y35581472D01*
X16283785Y35533853D01*
X16307595Y35462424D01*
X16593309Y35176710D01*
X16283785Y35176710D01*
X15974261Y35676710D02*
X15926642Y35676710D01*
X15879023Y35652900D01*
X15855214Y35629091D01*
X15831404Y35581472D01*
X15807595Y35486234D01*
X15807595Y35367186D01*
X15831404Y35271948D01*
X15855214Y35224329D01*
X15879023Y35200520D01*
X15926642Y35176710D01*
X15974261Y35176710D01*
X16021880Y35200520D01*
X16045690Y35224329D01*
X16069500Y35271948D01*
X16093309Y35367186D01*
X16093309Y35486234D01*
X16069500Y35581472D01*
X16045690Y35629091D01*
X16021880Y35652900D01*
X15974261Y35676710D01*
X15355214Y35676710D02*
X15593309Y35676710D01*
X15617119Y35438615D01*
X15593309Y35462424D01*
X15545690Y35486234D01*
X15426642Y35486234D01*
X15379023Y35462424D01*
X15355214Y35438615D01*
X15331404Y35390996D01*
X15331404Y35271948D01*
X15355214Y35224329D01*
X15379023Y35200520D01*
X15426642Y35176710D01*
X15545690Y35176710D01*
X15593309Y35200520D01*
X15617119Y35224329D01*
G04 #@! TO.C,JP401*
X5810297Y10052810D02*
X5810297Y9695667D01*
X5834106Y9624239D01*
X5881725Y9576620D01*
X5953154Y9552810D01*
X6000773Y9552810D01*
X5572201Y9552810D02*
X5572201Y10052810D01*
X5381725Y10052810D01*
X5334106Y10029000D01*
X5310297Y10005191D01*
X5286487Y9957572D01*
X5286487Y9886143D01*
X5310297Y9838524D01*
X5334106Y9814715D01*
X5381725Y9790905D01*
X5572201Y9790905D01*
X4857916Y9886143D02*
X4857916Y9552810D01*
X4976963Y10076620D02*
X5096011Y9719477D01*
X4786487Y9719477D01*
X4500773Y10052810D02*
X4453154Y10052810D01*
X4405535Y10029000D01*
X4381725Y10005191D01*
X4357916Y9957572D01*
X4334106Y9862334D01*
X4334106Y9743286D01*
X4357916Y9648048D01*
X4381725Y9600429D01*
X4405535Y9576620D01*
X4453154Y9552810D01*
X4500773Y9552810D01*
X4548392Y9576620D01*
X4572201Y9600429D01*
X4596011Y9648048D01*
X4619820Y9743286D01*
X4619820Y9862334D01*
X4596011Y9957572D01*
X4572201Y10005191D01*
X4548392Y10029000D01*
X4500773Y10052810D01*
X3857916Y9552810D02*
X4143630Y9552810D01*
X4000773Y9552810D02*
X4000773Y10052810D01*
X4048392Y9981381D01*
X4096011Y9933762D01*
X4143630Y9909953D01*
G04 #@! TO.C,JP403*
X4433617Y41020490D02*
X4433617Y40663347D01*
X4457426Y40591919D01*
X4505045Y40544300D01*
X4576474Y40520490D01*
X4624093Y40520490D01*
X4195521Y40520490D02*
X4195521Y41020490D01*
X4005045Y41020490D01*
X3957426Y40996680D01*
X3933617Y40972871D01*
X3909807Y40925252D01*
X3909807Y40853823D01*
X3933617Y40806204D01*
X3957426Y40782395D01*
X4005045Y40758585D01*
X4195521Y40758585D01*
X3481236Y40853823D02*
X3481236Y40520490D01*
X3600283Y41044300D02*
X3719331Y40687157D01*
X3409807Y40687157D01*
X3124093Y41020490D02*
X3076474Y41020490D01*
X3028855Y40996680D01*
X3005045Y40972871D01*
X2981236Y40925252D01*
X2957426Y40830014D01*
X2957426Y40710966D01*
X2981236Y40615728D01*
X3005045Y40568109D01*
X3028855Y40544300D01*
X3076474Y40520490D01*
X3124093Y40520490D01*
X3171712Y40544300D01*
X3195521Y40568109D01*
X3219331Y40615728D01*
X3243140Y40710966D01*
X3243140Y40830014D01*
X3219331Y40925252D01*
X3195521Y40972871D01*
X3171712Y40996680D01*
X3124093Y41020490D01*
X2790760Y41020490D02*
X2481236Y41020490D01*
X2647902Y40830014D01*
X2576474Y40830014D01*
X2528855Y40806204D01*
X2505045Y40782395D01*
X2481236Y40734776D01*
X2481236Y40615728D01*
X2505045Y40568109D01*
X2528855Y40544300D01*
X2576474Y40520490D01*
X2719331Y40520490D01*
X2766950Y40544300D01*
X2790760Y40568109D01*
G04 #@! TO.C,L202*
X43314750Y39909204D02*
X43314750Y40147300D01*
X42814750Y40147300D01*
X42862369Y39766347D02*
X42838560Y39742538D01*
X42814750Y39694919D01*
X42814750Y39575871D01*
X42838560Y39528252D01*
X42862369Y39504442D01*
X42909988Y39480633D01*
X42957607Y39480633D01*
X43029036Y39504442D01*
X43314750Y39790157D01*
X43314750Y39480633D01*
X42814750Y39171109D02*
X42814750Y39123490D01*
X42838560Y39075871D01*
X42862369Y39052061D01*
X42909988Y39028252D01*
X43005226Y39004442D01*
X43124274Y39004442D01*
X43219512Y39028252D01*
X43267131Y39052061D01*
X43290940Y39075871D01*
X43314750Y39123490D01*
X43314750Y39171109D01*
X43290940Y39218728D01*
X43267131Y39242538D01*
X43219512Y39266347D01*
X43124274Y39290157D01*
X43005226Y39290157D01*
X42909988Y39266347D01*
X42862369Y39242538D01*
X42838560Y39218728D01*
X42814750Y39171109D01*
X42862369Y38813966D02*
X42838560Y38790157D01*
X42814750Y38742538D01*
X42814750Y38623490D01*
X42838560Y38575871D01*
X42862369Y38552061D01*
X42909988Y38528252D01*
X42957607Y38528252D01*
X43029036Y38552061D01*
X43314750Y38837776D01*
X43314750Y38528252D01*
G04 #@! TO.C,T502*
X15203062Y17398490D02*
X14917348Y17398490D01*
X15060205Y16898490D02*
X15060205Y17398490D01*
X14512586Y17398490D02*
X14750681Y17398490D01*
X14774491Y17160395D01*
X14750681Y17184204D01*
X14703062Y17208014D01*
X14584015Y17208014D01*
X14536396Y17184204D01*
X14512586Y17160395D01*
X14488777Y17112776D01*
X14488777Y16993728D01*
X14512586Y16946109D01*
X14536396Y16922300D01*
X14584015Y16898490D01*
X14703062Y16898490D01*
X14750681Y16922300D01*
X14774491Y16946109D01*
X14179253Y17398490D02*
X14131634Y17398490D01*
X14084015Y17374680D01*
X14060205Y17350871D01*
X14036396Y17303252D01*
X14012586Y17208014D01*
X14012586Y17088966D01*
X14036396Y16993728D01*
X14060205Y16946109D01*
X14084015Y16922300D01*
X14131634Y16898490D01*
X14179253Y16898490D01*
X14226872Y16922300D01*
X14250681Y16946109D01*
X14274491Y16993728D01*
X14298300Y17088966D01*
X14298300Y17208014D01*
X14274491Y17303252D01*
X14250681Y17350871D01*
X14226872Y17374680D01*
X14179253Y17398490D01*
X13822110Y17350871D02*
X13798300Y17374680D01*
X13750681Y17398490D01*
X13631634Y17398490D01*
X13584015Y17374680D01*
X13560205Y17350871D01*
X13536396Y17303252D01*
X13536396Y17255633D01*
X13560205Y17184204D01*
X13845920Y16898490D01*
X13536396Y16898490D01*
G04 #@! TO.C,R203*
X31105563Y26159330D02*
X31272230Y26397425D01*
X31391278Y26159330D02*
X31391278Y26659330D01*
X31200801Y26659330D01*
X31153182Y26635520D01*
X31129373Y26611711D01*
X31105563Y26564092D01*
X31105563Y26492663D01*
X31129373Y26445044D01*
X31153182Y26421235D01*
X31200801Y26397425D01*
X31391278Y26397425D01*
X30915087Y26611711D02*
X30891278Y26635520D01*
X30843659Y26659330D01*
X30724611Y26659330D01*
X30676992Y26635520D01*
X30653182Y26611711D01*
X30629373Y26564092D01*
X30629373Y26516473D01*
X30653182Y26445044D01*
X30938897Y26159330D01*
X30629373Y26159330D01*
X30319849Y26659330D02*
X30272230Y26659330D01*
X30224611Y26635520D01*
X30200801Y26611711D01*
X30176992Y26564092D01*
X30153182Y26468854D01*
X30153182Y26349806D01*
X30176992Y26254568D01*
X30200801Y26206949D01*
X30224611Y26183140D01*
X30272230Y26159330D01*
X30319849Y26159330D01*
X30367468Y26183140D01*
X30391278Y26206949D01*
X30415087Y26254568D01*
X30438897Y26349806D01*
X30438897Y26468854D01*
X30415087Y26564092D01*
X30391278Y26611711D01*
X30367468Y26635520D01*
X30319849Y26659330D01*
X29986516Y26659330D02*
X29676992Y26659330D01*
X29843659Y26468854D01*
X29772230Y26468854D01*
X29724611Y26445044D01*
X29700801Y26421235D01*
X29676992Y26373616D01*
X29676992Y26254568D01*
X29700801Y26206949D01*
X29724611Y26183140D01*
X29772230Y26159330D01*
X29915087Y26159330D01*
X29962706Y26183140D01*
X29986516Y26206949D01*
G04 #@! TO.C,R204*
X28123603Y26144090D02*
X28290270Y26382185D01*
X28409318Y26144090D02*
X28409318Y26644090D01*
X28218841Y26644090D01*
X28171222Y26620280D01*
X28147413Y26596471D01*
X28123603Y26548852D01*
X28123603Y26477423D01*
X28147413Y26429804D01*
X28171222Y26405995D01*
X28218841Y26382185D01*
X28409318Y26382185D01*
X27933127Y26596471D02*
X27909318Y26620280D01*
X27861699Y26644090D01*
X27742651Y26644090D01*
X27695032Y26620280D01*
X27671222Y26596471D01*
X27647413Y26548852D01*
X27647413Y26501233D01*
X27671222Y26429804D01*
X27956937Y26144090D01*
X27647413Y26144090D01*
X27337889Y26644090D02*
X27290270Y26644090D01*
X27242651Y26620280D01*
X27218841Y26596471D01*
X27195032Y26548852D01*
X27171222Y26453614D01*
X27171222Y26334566D01*
X27195032Y26239328D01*
X27218841Y26191709D01*
X27242651Y26167900D01*
X27290270Y26144090D01*
X27337889Y26144090D01*
X27385508Y26167900D01*
X27409318Y26191709D01*
X27433127Y26239328D01*
X27456937Y26334566D01*
X27456937Y26453614D01*
X27433127Y26548852D01*
X27409318Y26596471D01*
X27385508Y26620280D01*
X27337889Y26644090D01*
X26742651Y26477423D02*
X26742651Y26144090D01*
X26861699Y26667900D02*
X26980746Y26310757D01*
X26671222Y26310757D01*
G04 #@! TO.C,R210*
X24020910Y28530004D02*
X23782815Y28696671D01*
X24020910Y28815719D02*
X23520910Y28815719D01*
X23520910Y28625242D01*
X23544720Y28577623D01*
X23568529Y28553814D01*
X23616148Y28530004D01*
X23687577Y28530004D01*
X23735196Y28553814D01*
X23759005Y28577623D01*
X23782815Y28625242D01*
X23782815Y28815719D01*
X23568529Y28339528D02*
X23544720Y28315719D01*
X23520910Y28268100D01*
X23520910Y28149052D01*
X23544720Y28101433D01*
X23568529Y28077623D01*
X23616148Y28053814D01*
X23663767Y28053814D01*
X23735196Y28077623D01*
X24020910Y28363338D01*
X24020910Y28053814D01*
X24020910Y27577623D02*
X24020910Y27863338D01*
X24020910Y27720480D02*
X23520910Y27720480D01*
X23592339Y27768100D01*
X23639958Y27815719D01*
X23663767Y27863338D01*
X23520910Y27268100D02*
X23520910Y27220480D01*
X23544720Y27172861D01*
X23568529Y27149052D01*
X23616148Y27125242D01*
X23711386Y27101433D01*
X23830434Y27101433D01*
X23925672Y27125242D01*
X23973291Y27149052D01*
X23997100Y27172861D01*
X24020910Y27220480D01*
X24020910Y27268100D01*
X23997100Y27315719D01*
X23973291Y27339528D01*
X23925672Y27363338D01*
X23830434Y27387147D01*
X23711386Y27387147D01*
X23616148Y27363338D01*
X23568529Y27339528D01*
X23544720Y27315719D01*
X23520910Y27268100D01*
G04 #@! TO.C,R213*
X25890350Y37592724D02*
X25652255Y37759391D01*
X25890350Y37878439D02*
X25390350Y37878439D01*
X25390350Y37687962D01*
X25414160Y37640343D01*
X25437969Y37616534D01*
X25485588Y37592724D01*
X25557017Y37592724D01*
X25604636Y37616534D01*
X25628445Y37640343D01*
X25652255Y37687962D01*
X25652255Y37878439D01*
X25437969Y37402248D02*
X25414160Y37378439D01*
X25390350Y37330820D01*
X25390350Y37211772D01*
X25414160Y37164153D01*
X25437969Y37140343D01*
X25485588Y37116534D01*
X25533207Y37116534D01*
X25604636Y37140343D01*
X25890350Y37426058D01*
X25890350Y37116534D01*
X25890350Y36640343D02*
X25890350Y36926058D01*
X25890350Y36783200D02*
X25390350Y36783200D01*
X25461779Y36830820D01*
X25509398Y36878439D01*
X25533207Y36926058D01*
X25390350Y36473677D02*
X25390350Y36164153D01*
X25580826Y36330820D01*
X25580826Y36259391D01*
X25604636Y36211772D01*
X25628445Y36187962D01*
X25676064Y36164153D01*
X25795112Y36164153D01*
X25842731Y36187962D01*
X25866540Y36211772D01*
X25890350Y36259391D01*
X25890350Y36402248D01*
X25866540Y36449867D01*
X25842731Y36473677D01*
G04 #@! TO.C,R214*
X21826350Y37592724D02*
X21588255Y37759391D01*
X21826350Y37878439D02*
X21326350Y37878439D01*
X21326350Y37687962D01*
X21350160Y37640343D01*
X21373969Y37616534D01*
X21421588Y37592724D01*
X21493017Y37592724D01*
X21540636Y37616534D01*
X21564445Y37640343D01*
X21588255Y37687962D01*
X21588255Y37878439D01*
X21373969Y37402248D02*
X21350160Y37378439D01*
X21326350Y37330820D01*
X21326350Y37211772D01*
X21350160Y37164153D01*
X21373969Y37140343D01*
X21421588Y37116534D01*
X21469207Y37116534D01*
X21540636Y37140343D01*
X21826350Y37426058D01*
X21826350Y37116534D01*
X21826350Y36640343D02*
X21826350Y36926058D01*
X21826350Y36783200D02*
X21326350Y36783200D01*
X21397779Y36830820D01*
X21445398Y36878439D01*
X21469207Y36926058D01*
X21493017Y36211772D02*
X21826350Y36211772D01*
X21302540Y36330820D02*
X21659683Y36449867D01*
X21659683Y36140343D01*
G04 #@! TO.C,R303*
X16241483Y10182730D02*
X16408150Y10420825D01*
X16527198Y10182730D02*
X16527198Y10682730D01*
X16336721Y10682730D01*
X16289102Y10658920D01*
X16265293Y10635111D01*
X16241483Y10587492D01*
X16241483Y10516063D01*
X16265293Y10468444D01*
X16289102Y10444635D01*
X16336721Y10420825D01*
X16527198Y10420825D01*
X16074817Y10682730D02*
X15765293Y10682730D01*
X15931960Y10492254D01*
X15860531Y10492254D01*
X15812912Y10468444D01*
X15789102Y10444635D01*
X15765293Y10397016D01*
X15765293Y10277968D01*
X15789102Y10230349D01*
X15812912Y10206540D01*
X15860531Y10182730D01*
X16003388Y10182730D01*
X16051007Y10206540D01*
X16074817Y10230349D01*
X15455769Y10682730D02*
X15408150Y10682730D01*
X15360531Y10658920D01*
X15336721Y10635111D01*
X15312912Y10587492D01*
X15289102Y10492254D01*
X15289102Y10373206D01*
X15312912Y10277968D01*
X15336721Y10230349D01*
X15360531Y10206540D01*
X15408150Y10182730D01*
X15455769Y10182730D01*
X15503388Y10206540D01*
X15527198Y10230349D01*
X15551007Y10277968D01*
X15574817Y10373206D01*
X15574817Y10492254D01*
X15551007Y10587492D01*
X15527198Y10635111D01*
X15503388Y10658920D01*
X15455769Y10682730D01*
X15122436Y10682730D02*
X14812912Y10682730D01*
X14979579Y10492254D01*
X14908150Y10492254D01*
X14860531Y10468444D01*
X14836721Y10444635D01*
X14812912Y10397016D01*
X14812912Y10277968D01*
X14836721Y10230349D01*
X14860531Y10206540D01*
X14908150Y10182730D01*
X15051007Y10182730D01*
X15098626Y10206540D01*
X15122436Y10230349D01*
G04 #@! TO.C,R304*
X21856830Y14575244D02*
X21618735Y14741911D01*
X21856830Y14860959D02*
X21356830Y14860959D01*
X21356830Y14670482D01*
X21380640Y14622863D01*
X21404449Y14599054D01*
X21452068Y14575244D01*
X21523497Y14575244D01*
X21571116Y14599054D01*
X21594925Y14622863D01*
X21618735Y14670482D01*
X21618735Y14860959D01*
X21356830Y14408578D02*
X21356830Y14099054D01*
X21547306Y14265720D01*
X21547306Y14194292D01*
X21571116Y14146673D01*
X21594925Y14122863D01*
X21642544Y14099054D01*
X21761592Y14099054D01*
X21809211Y14122863D01*
X21833020Y14146673D01*
X21856830Y14194292D01*
X21856830Y14337149D01*
X21833020Y14384768D01*
X21809211Y14408578D01*
X21356830Y13789530D02*
X21356830Y13741911D01*
X21380640Y13694292D01*
X21404449Y13670482D01*
X21452068Y13646673D01*
X21547306Y13622863D01*
X21666354Y13622863D01*
X21761592Y13646673D01*
X21809211Y13670482D01*
X21833020Y13694292D01*
X21856830Y13741911D01*
X21856830Y13789530D01*
X21833020Y13837149D01*
X21809211Y13860959D01*
X21761592Y13884768D01*
X21666354Y13908578D01*
X21547306Y13908578D01*
X21452068Y13884768D01*
X21404449Y13860959D01*
X21380640Y13837149D01*
X21356830Y13789530D01*
X21523497Y13194292D02*
X21856830Y13194292D01*
X21333020Y13313340D02*
X21690163Y13432387D01*
X21690163Y13122863D01*
G04 #@! TO.C,R306*
X21841590Y12126684D02*
X21603495Y12293351D01*
X21841590Y12412399D02*
X21341590Y12412399D01*
X21341590Y12221922D01*
X21365400Y12174303D01*
X21389209Y12150494D01*
X21436828Y12126684D01*
X21508257Y12126684D01*
X21555876Y12150494D01*
X21579685Y12174303D01*
X21603495Y12221922D01*
X21603495Y12412399D01*
X21341590Y11960018D02*
X21341590Y11650494D01*
X21532066Y11817160D01*
X21532066Y11745732D01*
X21555876Y11698113D01*
X21579685Y11674303D01*
X21627304Y11650494D01*
X21746352Y11650494D01*
X21793971Y11674303D01*
X21817780Y11698113D01*
X21841590Y11745732D01*
X21841590Y11888589D01*
X21817780Y11936208D01*
X21793971Y11960018D01*
X21341590Y11340970D02*
X21341590Y11293351D01*
X21365400Y11245732D01*
X21389209Y11221922D01*
X21436828Y11198113D01*
X21532066Y11174303D01*
X21651114Y11174303D01*
X21746352Y11198113D01*
X21793971Y11221922D01*
X21817780Y11245732D01*
X21841590Y11293351D01*
X21841590Y11340970D01*
X21817780Y11388589D01*
X21793971Y11412399D01*
X21746352Y11436208D01*
X21651114Y11460018D01*
X21532066Y11460018D01*
X21436828Y11436208D01*
X21389209Y11412399D01*
X21365400Y11388589D01*
X21341590Y11340970D01*
X21341590Y10745732D02*
X21341590Y10840970D01*
X21365400Y10888589D01*
X21389209Y10912399D01*
X21460638Y10960018D01*
X21555876Y10983827D01*
X21746352Y10983827D01*
X21793971Y10960018D01*
X21817780Y10936208D01*
X21841590Y10888589D01*
X21841590Y10793351D01*
X21817780Y10745732D01*
X21793971Y10721922D01*
X21746352Y10698113D01*
X21627304Y10698113D01*
X21579685Y10721922D01*
X21555876Y10745732D01*
X21532066Y10793351D01*
X21532066Y10888589D01*
X21555876Y10936208D01*
X21579685Y10960018D01*
X21627304Y10983827D01*
G04 #@! TO.C,R307*
X24181523Y7825610D02*
X24348190Y8063705D01*
X24467238Y7825610D02*
X24467238Y8325610D01*
X24276761Y8325610D01*
X24229142Y8301800D01*
X24205333Y8277991D01*
X24181523Y8230372D01*
X24181523Y8158943D01*
X24205333Y8111324D01*
X24229142Y8087515D01*
X24276761Y8063705D01*
X24467238Y8063705D01*
X24014857Y8325610D02*
X23705333Y8325610D01*
X23872000Y8135134D01*
X23800571Y8135134D01*
X23752952Y8111324D01*
X23729142Y8087515D01*
X23705333Y8039896D01*
X23705333Y7920848D01*
X23729142Y7873229D01*
X23752952Y7849420D01*
X23800571Y7825610D01*
X23943428Y7825610D01*
X23991047Y7849420D01*
X24014857Y7873229D01*
X23395809Y8325610D02*
X23348190Y8325610D01*
X23300571Y8301800D01*
X23276761Y8277991D01*
X23252952Y8230372D01*
X23229142Y8135134D01*
X23229142Y8016086D01*
X23252952Y7920848D01*
X23276761Y7873229D01*
X23300571Y7849420D01*
X23348190Y7825610D01*
X23395809Y7825610D01*
X23443428Y7849420D01*
X23467238Y7873229D01*
X23491047Y7920848D01*
X23514857Y8016086D01*
X23514857Y8135134D01*
X23491047Y8230372D01*
X23467238Y8277991D01*
X23443428Y8301800D01*
X23395809Y8325610D01*
X23062476Y8325610D02*
X22729142Y8325610D01*
X22943428Y7825610D01*
G04 #@! TO.C,R308*
X11801563Y7292210D02*
X11968230Y7530305D01*
X12087278Y7292210D02*
X12087278Y7792210D01*
X11896801Y7792210D01*
X11849182Y7768400D01*
X11825373Y7744591D01*
X11801563Y7696972D01*
X11801563Y7625543D01*
X11825373Y7577924D01*
X11849182Y7554115D01*
X11896801Y7530305D01*
X12087278Y7530305D01*
X11634897Y7792210D02*
X11325373Y7792210D01*
X11492040Y7601734D01*
X11420611Y7601734D01*
X11372992Y7577924D01*
X11349182Y7554115D01*
X11325373Y7506496D01*
X11325373Y7387448D01*
X11349182Y7339829D01*
X11372992Y7316020D01*
X11420611Y7292210D01*
X11563468Y7292210D01*
X11611087Y7316020D01*
X11634897Y7339829D01*
X11015849Y7792210D02*
X10968230Y7792210D01*
X10920611Y7768400D01*
X10896801Y7744591D01*
X10872992Y7696972D01*
X10849182Y7601734D01*
X10849182Y7482686D01*
X10872992Y7387448D01*
X10896801Y7339829D01*
X10920611Y7316020D01*
X10968230Y7292210D01*
X11015849Y7292210D01*
X11063468Y7316020D01*
X11087278Y7339829D01*
X11111087Y7387448D01*
X11134897Y7482686D01*
X11134897Y7601734D01*
X11111087Y7696972D01*
X11087278Y7744591D01*
X11063468Y7768400D01*
X11015849Y7792210D01*
X10563468Y7577924D02*
X10611087Y7601734D01*
X10634897Y7625543D01*
X10658706Y7673162D01*
X10658706Y7696972D01*
X10634897Y7744591D01*
X10611087Y7768400D01*
X10563468Y7792210D01*
X10468230Y7792210D01*
X10420611Y7768400D01*
X10396801Y7744591D01*
X10372992Y7696972D01*
X10372992Y7673162D01*
X10396801Y7625543D01*
X10420611Y7601734D01*
X10468230Y7577924D01*
X10563468Y7577924D01*
X10611087Y7554115D01*
X10634897Y7530305D01*
X10658706Y7482686D01*
X10658706Y7387448D01*
X10634897Y7339829D01*
X10611087Y7316020D01*
X10563468Y7292210D01*
X10468230Y7292210D01*
X10420611Y7316020D01*
X10396801Y7339829D01*
X10372992Y7387448D01*
X10372992Y7482686D01*
X10396801Y7530305D01*
X10420611Y7554115D01*
X10468230Y7577924D01*
G04 #@! TO.C,R401*
X8658990Y42154564D02*
X8420895Y42321231D01*
X8658990Y42440279D02*
X8158990Y42440279D01*
X8158990Y42249802D01*
X8182800Y42202183D01*
X8206609Y42178374D01*
X8254228Y42154564D01*
X8325657Y42154564D01*
X8373276Y42178374D01*
X8397085Y42202183D01*
X8420895Y42249802D01*
X8420895Y42440279D01*
X8325657Y41725993D02*
X8658990Y41725993D01*
X8135180Y41845040D02*
X8492323Y41964088D01*
X8492323Y41654564D01*
X8158990Y41368850D02*
X8158990Y41321231D01*
X8182800Y41273612D01*
X8206609Y41249802D01*
X8254228Y41225993D01*
X8349466Y41202183D01*
X8468514Y41202183D01*
X8563752Y41225993D01*
X8611371Y41249802D01*
X8635180Y41273612D01*
X8658990Y41321231D01*
X8658990Y41368850D01*
X8635180Y41416469D01*
X8611371Y41440279D01*
X8563752Y41464088D01*
X8468514Y41487898D01*
X8349466Y41487898D01*
X8254228Y41464088D01*
X8206609Y41440279D01*
X8182800Y41416469D01*
X8158990Y41368850D01*
X8658990Y40725993D02*
X8658990Y41011707D01*
X8658990Y40868850D02*
X8158990Y40868850D01*
X8230419Y40916469D01*
X8278038Y40964088D01*
X8301847Y41011707D01*
G04 #@! TO.C,R402*
X7107643Y43908850D02*
X7274310Y44146945D01*
X7393358Y43908850D02*
X7393358Y44408850D01*
X7202881Y44408850D01*
X7155262Y44385040D01*
X7131453Y44361231D01*
X7107643Y44313612D01*
X7107643Y44242183D01*
X7131453Y44194564D01*
X7155262Y44170755D01*
X7202881Y44146945D01*
X7393358Y44146945D01*
X6679072Y44242183D02*
X6679072Y43908850D01*
X6798120Y44432660D02*
X6917167Y44075517D01*
X6607643Y44075517D01*
X6321929Y44408850D02*
X6274310Y44408850D01*
X6226691Y44385040D01*
X6202881Y44361231D01*
X6179072Y44313612D01*
X6155262Y44218374D01*
X6155262Y44099326D01*
X6179072Y44004088D01*
X6202881Y43956469D01*
X6226691Y43932660D01*
X6274310Y43908850D01*
X6321929Y43908850D01*
X6369548Y43932660D01*
X6393358Y43956469D01*
X6417167Y44004088D01*
X6440977Y44099326D01*
X6440977Y44218374D01*
X6417167Y44313612D01*
X6393358Y44361231D01*
X6369548Y44385040D01*
X6321929Y44408850D01*
X5964786Y44361231D02*
X5940977Y44385040D01*
X5893358Y44408850D01*
X5774310Y44408850D01*
X5726691Y44385040D01*
X5702881Y44361231D01*
X5679072Y44313612D01*
X5679072Y44265993D01*
X5702881Y44194564D01*
X5988596Y43908850D01*
X5679072Y43908850D01*
G04 #@! TO.C,R403*
X12624523Y38468170D02*
X12791190Y38706265D01*
X12910238Y38468170D02*
X12910238Y38968170D01*
X12719761Y38968170D01*
X12672142Y38944360D01*
X12648333Y38920551D01*
X12624523Y38872932D01*
X12624523Y38801503D01*
X12648333Y38753884D01*
X12672142Y38730075D01*
X12719761Y38706265D01*
X12910238Y38706265D01*
X12195952Y38801503D02*
X12195952Y38468170D01*
X12315000Y38991980D02*
X12434047Y38634837D01*
X12124523Y38634837D01*
X11838809Y38968170D02*
X11791190Y38968170D01*
X11743571Y38944360D01*
X11719761Y38920551D01*
X11695952Y38872932D01*
X11672142Y38777694D01*
X11672142Y38658646D01*
X11695952Y38563408D01*
X11719761Y38515789D01*
X11743571Y38491980D01*
X11791190Y38468170D01*
X11838809Y38468170D01*
X11886428Y38491980D01*
X11910238Y38515789D01*
X11934047Y38563408D01*
X11957857Y38658646D01*
X11957857Y38777694D01*
X11934047Y38872932D01*
X11910238Y38920551D01*
X11886428Y38944360D01*
X11838809Y38968170D01*
X11505476Y38968170D02*
X11195952Y38968170D01*
X11362619Y38777694D01*
X11291190Y38777694D01*
X11243571Y38753884D01*
X11219761Y38730075D01*
X11195952Y38682456D01*
X11195952Y38563408D01*
X11219761Y38515789D01*
X11243571Y38491980D01*
X11291190Y38468170D01*
X11434047Y38468170D01*
X11481666Y38491980D01*
X11505476Y38515789D01*
G04 #@! TO.C,R404*
X13437323Y42613450D02*
X13603990Y42851545D01*
X13723038Y42613450D02*
X13723038Y43113450D01*
X13532561Y43113450D01*
X13484942Y43089640D01*
X13461133Y43065831D01*
X13437323Y43018212D01*
X13437323Y42946783D01*
X13461133Y42899164D01*
X13484942Y42875355D01*
X13532561Y42851545D01*
X13723038Y42851545D01*
X13008752Y42946783D02*
X13008752Y42613450D01*
X13127800Y43137260D02*
X13246847Y42780117D01*
X12937323Y42780117D01*
X12651609Y43113450D02*
X12603990Y43113450D01*
X12556371Y43089640D01*
X12532561Y43065831D01*
X12508752Y43018212D01*
X12484942Y42922974D01*
X12484942Y42803926D01*
X12508752Y42708688D01*
X12532561Y42661069D01*
X12556371Y42637260D01*
X12603990Y42613450D01*
X12651609Y42613450D01*
X12699228Y42637260D01*
X12723038Y42661069D01*
X12746847Y42708688D01*
X12770657Y42803926D01*
X12770657Y42922974D01*
X12746847Y43018212D01*
X12723038Y43065831D01*
X12699228Y43089640D01*
X12651609Y43113450D01*
X12056371Y42946783D02*
X12056371Y42613450D01*
X12175419Y43137260D02*
X12294466Y42780117D01*
X11984942Y42780117D01*
G04 #@! TO.C,R405*
X8128723Y11706730D02*
X8295390Y11944825D01*
X8414438Y11706730D02*
X8414438Y12206730D01*
X8223961Y12206730D01*
X8176342Y12182920D01*
X8152533Y12159111D01*
X8128723Y12111492D01*
X8128723Y12040063D01*
X8152533Y11992444D01*
X8176342Y11968635D01*
X8223961Y11944825D01*
X8414438Y11944825D01*
X7700152Y12040063D02*
X7700152Y11706730D01*
X7819200Y12230540D02*
X7938247Y11873397D01*
X7628723Y11873397D01*
X7343009Y12206730D02*
X7295390Y12206730D01*
X7247771Y12182920D01*
X7223961Y12159111D01*
X7200152Y12111492D01*
X7176342Y12016254D01*
X7176342Y11897206D01*
X7200152Y11801968D01*
X7223961Y11754349D01*
X7247771Y11730540D01*
X7295390Y11706730D01*
X7343009Y11706730D01*
X7390628Y11730540D01*
X7414438Y11754349D01*
X7438247Y11801968D01*
X7462057Y11897206D01*
X7462057Y12016254D01*
X7438247Y12111492D01*
X7414438Y12159111D01*
X7390628Y12182920D01*
X7343009Y12206730D01*
X6723961Y12206730D02*
X6962057Y12206730D01*
X6985866Y11968635D01*
X6962057Y11992444D01*
X6914438Y12016254D01*
X6795390Y12016254D01*
X6747771Y11992444D01*
X6723961Y11968635D01*
X6700152Y11921016D01*
X6700152Y11801968D01*
X6723961Y11754349D01*
X6747771Y11730540D01*
X6795390Y11706730D01*
X6914438Y11706730D01*
X6962057Y11730540D01*
X6985866Y11754349D01*
G04 #@! TO.C,R406*
X7735023Y21892130D02*
X7901690Y22130225D01*
X8020738Y21892130D02*
X8020738Y22392130D01*
X7830261Y22392130D01*
X7782642Y22368320D01*
X7758833Y22344511D01*
X7735023Y22296892D01*
X7735023Y22225463D01*
X7758833Y22177844D01*
X7782642Y22154035D01*
X7830261Y22130225D01*
X8020738Y22130225D01*
X7306452Y22225463D02*
X7306452Y21892130D01*
X7425500Y22415940D02*
X7544547Y22058797D01*
X7235023Y22058797D01*
X6949309Y22392130D02*
X6901690Y22392130D01*
X6854071Y22368320D01*
X6830261Y22344511D01*
X6806452Y22296892D01*
X6782642Y22201654D01*
X6782642Y22082606D01*
X6806452Y21987368D01*
X6830261Y21939749D01*
X6854071Y21915940D01*
X6901690Y21892130D01*
X6949309Y21892130D01*
X6996928Y21915940D01*
X7020738Y21939749D01*
X7044547Y21987368D01*
X7068357Y22082606D01*
X7068357Y22201654D01*
X7044547Y22296892D01*
X7020738Y22344511D01*
X6996928Y22368320D01*
X6949309Y22392130D01*
X6354071Y22392130D02*
X6449309Y22392130D01*
X6496928Y22368320D01*
X6520738Y22344511D01*
X6568357Y22273082D01*
X6592166Y22177844D01*
X6592166Y21987368D01*
X6568357Y21939749D01*
X6544547Y21915940D01*
X6496928Y21892130D01*
X6401690Y21892130D01*
X6354071Y21915940D01*
X6330261Y21939749D01*
X6306452Y21987368D01*
X6306452Y22106416D01*
X6330261Y22154035D01*
X6354071Y22177844D01*
X6401690Y22201654D01*
X6496928Y22201654D01*
X6544547Y22177844D01*
X6568357Y22154035D01*
X6592166Y22106416D01*
G04 #@! TO.C,R407*
X7798523Y18153250D02*
X7965190Y18391345D01*
X8084238Y18153250D02*
X8084238Y18653250D01*
X7893761Y18653250D01*
X7846142Y18629440D01*
X7822333Y18605631D01*
X7798523Y18558012D01*
X7798523Y18486583D01*
X7822333Y18438964D01*
X7846142Y18415155D01*
X7893761Y18391345D01*
X8084238Y18391345D01*
X7369952Y18486583D02*
X7369952Y18153250D01*
X7489000Y18677060D02*
X7608047Y18319917D01*
X7298523Y18319917D01*
X7012809Y18653250D02*
X6965190Y18653250D01*
X6917571Y18629440D01*
X6893761Y18605631D01*
X6869952Y18558012D01*
X6846142Y18462774D01*
X6846142Y18343726D01*
X6869952Y18248488D01*
X6893761Y18200869D01*
X6917571Y18177060D01*
X6965190Y18153250D01*
X7012809Y18153250D01*
X7060428Y18177060D01*
X7084238Y18200869D01*
X7108047Y18248488D01*
X7131857Y18343726D01*
X7131857Y18462774D01*
X7108047Y18558012D01*
X7084238Y18605631D01*
X7060428Y18629440D01*
X7012809Y18653250D01*
X6679476Y18653250D02*
X6346142Y18653250D01*
X6560428Y18153250D01*
G04 #@! TO.C,R408*
X11659323Y15394810D02*
X11825990Y15632905D01*
X11945038Y15394810D02*
X11945038Y15894810D01*
X11754561Y15894810D01*
X11706942Y15871000D01*
X11683133Y15847191D01*
X11659323Y15799572D01*
X11659323Y15728143D01*
X11683133Y15680524D01*
X11706942Y15656715D01*
X11754561Y15632905D01*
X11945038Y15632905D01*
X11230752Y15728143D02*
X11230752Y15394810D01*
X11349800Y15918620D02*
X11468847Y15561477D01*
X11159323Y15561477D01*
X10873609Y15894810D02*
X10825990Y15894810D01*
X10778371Y15871000D01*
X10754561Y15847191D01*
X10730752Y15799572D01*
X10706942Y15704334D01*
X10706942Y15585286D01*
X10730752Y15490048D01*
X10754561Y15442429D01*
X10778371Y15418620D01*
X10825990Y15394810D01*
X10873609Y15394810D01*
X10921228Y15418620D01*
X10945038Y15442429D01*
X10968847Y15490048D01*
X10992657Y15585286D01*
X10992657Y15704334D01*
X10968847Y15799572D01*
X10945038Y15847191D01*
X10921228Y15871000D01*
X10873609Y15894810D01*
X10421228Y15680524D02*
X10468847Y15704334D01*
X10492657Y15728143D01*
X10516466Y15775762D01*
X10516466Y15799572D01*
X10492657Y15847191D01*
X10468847Y15871000D01*
X10421228Y15894810D01*
X10325990Y15894810D01*
X10278371Y15871000D01*
X10254561Y15847191D01*
X10230752Y15799572D01*
X10230752Y15775762D01*
X10254561Y15728143D01*
X10278371Y15704334D01*
X10325990Y15680524D01*
X10421228Y15680524D01*
X10468847Y15656715D01*
X10492657Y15632905D01*
X10516466Y15585286D01*
X10516466Y15490048D01*
X10492657Y15442429D01*
X10468847Y15418620D01*
X10421228Y15394810D01*
X10325990Y15394810D01*
X10278371Y15418620D01*
X10254561Y15442429D01*
X10230752Y15490048D01*
X10230752Y15585286D01*
X10254561Y15632905D01*
X10278371Y15656715D01*
X10325990Y15680524D01*
G04 #@! TO.C,R409*
X25763350Y32263804D02*
X25525255Y32430471D01*
X25763350Y32549519D02*
X25263350Y32549519D01*
X25263350Y32359042D01*
X25287160Y32311423D01*
X25310969Y32287614D01*
X25358588Y32263804D01*
X25430017Y32263804D01*
X25477636Y32287614D01*
X25501445Y32311423D01*
X25525255Y32359042D01*
X25525255Y32549519D01*
X25430017Y31835233D02*
X25763350Y31835233D01*
X25239540Y31954280D02*
X25596683Y32073328D01*
X25596683Y31763804D01*
X25263350Y31478090D02*
X25263350Y31430471D01*
X25287160Y31382852D01*
X25310969Y31359042D01*
X25358588Y31335233D01*
X25453826Y31311423D01*
X25572874Y31311423D01*
X25668112Y31335233D01*
X25715731Y31359042D01*
X25739540Y31382852D01*
X25763350Y31430471D01*
X25763350Y31478090D01*
X25739540Y31525709D01*
X25715731Y31549519D01*
X25668112Y31573328D01*
X25572874Y31597138D01*
X25453826Y31597138D01*
X25358588Y31573328D01*
X25310969Y31549519D01*
X25287160Y31525709D01*
X25263350Y31478090D01*
X25763350Y31073328D02*
X25763350Y30978090D01*
X25739540Y30930471D01*
X25715731Y30906661D01*
X25644302Y30859042D01*
X25549064Y30835233D01*
X25358588Y30835233D01*
X25310969Y30859042D01*
X25287160Y30882852D01*
X25263350Y30930471D01*
X25263350Y31025709D01*
X25287160Y31073328D01*
X25310969Y31097138D01*
X25358588Y31120947D01*
X25477636Y31120947D01*
X25525255Y31097138D01*
X25549064Y31073328D01*
X25572874Y31025709D01*
X25572874Y30930471D01*
X25549064Y30882852D01*
X25525255Y30859042D01*
X25477636Y30835233D01*
G04 #@! TO.C,R410*
X24044363Y34790250D02*
X24211030Y35028345D01*
X24330078Y34790250D02*
X24330078Y35290250D01*
X24139601Y35290250D01*
X24091982Y35266440D01*
X24068173Y35242631D01*
X24044363Y35195012D01*
X24044363Y35123583D01*
X24068173Y35075964D01*
X24091982Y35052155D01*
X24139601Y35028345D01*
X24330078Y35028345D01*
X23615792Y35123583D02*
X23615792Y34790250D01*
X23734840Y35314060D02*
X23853887Y34956917D01*
X23544363Y34956917D01*
X23091982Y34790250D02*
X23377697Y34790250D01*
X23234840Y34790250D02*
X23234840Y35290250D01*
X23282459Y35218821D01*
X23330078Y35171202D01*
X23377697Y35147393D01*
X22782459Y35290250D02*
X22734840Y35290250D01*
X22687220Y35266440D01*
X22663411Y35242631D01*
X22639601Y35195012D01*
X22615792Y35099774D01*
X22615792Y34980726D01*
X22639601Y34885488D01*
X22663411Y34837869D01*
X22687220Y34814060D01*
X22734840Y34790250D01*
X22782459Y34790250D01*
X22830078Y34814060D01*
X22853887Y34837869D01*
X22877697Y34885488D01*
X22901506Y34980726D01*
X22901506Y35099774D01*
X22877697Y35195012D01*
X22853887Y35242631D01*
X22830078Y35266440D01*
X22782459Y35290250D01*
G04 #@! TO.C,R501*
X32924203Y19504530D02*
X33090870Y19742625D01*
X33209918Y19504530D02*
X33209918Y20004530D01*
X33019441Y20004530D01*
X32971822Y19980720D01*
X32948013Y19956911D01*
X32924203Y19909292D01*
X32924203Y19837863D01*
X32948013Y19790244D01*
X32971822Y19766435D01*
X33019441Y19742625D01*
X33209918Y19742625D01*
X32471822Y20004530D02*
X32709918Y20004530D01*
X32733727Y19766435D01*
X32709918Y19790244D01*
X32662299Y19814054D01*
X32543251Y19814054D01*
X32495632Y19790244D01*
X32471822Y19766435D01*
X32448013Y19718816D01*
X32448013Y19599768D01*
X32471822Y19552149D01*
X32495632Y19528340D01*
X32543251Y19504530D01*
X32662299Y19504530D01*
X32709918Y19528340D01*
X32733727Y19552149D01*
X32138489Y20004530D02*
X32090870Y20004530D01*
X32043251Y19980720D01*
X32019441Y19956911D01*
X31995632Y19909292D01*
X31971822Y19814054D01*
X31971822Y19695006D01*
X31995632Y19599768D01*
X32019441Y19552149D01*
X32043251Y19528340D01*
X32090870Y19504530D01*
X32138489Y19504530D01*
X32186108Y19528340D01*
X32209918Y19552149D01*
X32233727Y19599768D01*
X32257537Y19695006D01*
X32257537Y19814054D01*
X32233727Y19909292D01*
X32209918Y19956911D01*
X32186108Y19980720D01*
X32138489Y20004530D01*
X31495632Y19504530D02*
X31781346Y19504530D01*
X31638489Y19504530D02*
X31638489Y20004530D01*
X31686108Y19933101D01*
X31733727Y19885482D01*
X31781346Y19861673D01*
G04 #@! TO.C,R503*
X27886790Y17216844D02*
X27648695Y17383511D01*
X27886790Y17502559D02*
X27386790Y17502559D01*
X27386790Y17312082D01*
X27410600Y17264463D01*
X27434409Y17240654D01*
X27482028Y17216844D01*
X27553457Y17216844D01*
X27601076Y17240654D01*
X27624885Y17264463D01*
X27648695Y17312082D01*
X27648695Y17502559D01*
X27386790Y16764463D02*
X27386790Y17002559D01*
X27624885Y17026368D01*
X27601076Y17002559D01*
X27577266Y16954940D01*
X27577266Y16835892D01*
X27601076Y16788273D01*
X27624885Y16764463D01*
X27672504Y16740654D01*
X27791552Y16740654D01*
X27839171Y16764463D01*
X27862980Y16788273D01*
X27886790Y16835892D01*
X27886790Y16954940D01*
X27862980Y17002559D01*
X27839171Y17026368D01*
X27386790Y16431130D02*
X27386790Y16383511D01*
X27410600Y16335892D01*
X27434409Y16312082D01*
X27482028Y16288273D01*
X27577266Y16264463D01*
X27696314Y16264463D01*
X27791552Y16288273D01*
X27839171Y16312082D01*
X27862980Y16335892D01*
X27886790Y16383511D01*
X27886790Y16431130D01*
X27862980Y16478749D01*
X27839171Y16502559D01*
X27791552Y16526368D01*
X27696314Y16550178D01*
X27577266Y16550178D01*
X27482028Y16526368D01*
X27434409Y16502559D01*
X27410600Y16478749D01*
X27386790Y16431130D01*
X27386790Y16097797D02*
X27386790Y15788273D01*
X27577266Y15954940D01*
X27577266Y15883511D01*
X27601076Y15835892D01*
X27624885Y15812082D01*
X27672504Y15788273D01*
X27791552Y15788273D01*
X27839171Y15812082D01*
X27862980Y15835892D01*
X27886790Y15883511D01*
X27886790Y16026368D01*
X27862980Y16073987D01*
X27839171Y16097797D01*
G04 #@! TO.C,R504*
X24354243Y17274410D02*
X24520910Y17512505D01*
X24639958Y17274410D02*
X24639958Y17774410D01*
X24449481Y17774410D01*
X24401862Y17750600D01*
X24378053Y17726791D01*
X24354243Y17679172D01*
X24354243Y17607743D01*
X24378053Y17560124D01*
X24401862Y17536315D01*
X24449481Y17512505D01*
X24639958Y17512505D01*
X23901862Y17774410D02*
X24139958Y17774410D01*
X24163767Y17536315D01*
X24139958Y17560124D01*
X24092339Y17583934D01*
X23973291Y17583934D01*
X23925672Y17560124D01*
X23901862Y17536315D01*
X23878053Y17488696D01*
X23878053Y17369648D01*
X23901862Y17322029D01*
X23925672Y17298220D01*
X23973291Y17274410D01*
X24092339Y17274410D01*
X24139958Y17298220D01*
X24163767Y17322029D01*
X23568529Y17774410D02*
X23520910Y17774410D01*
X23473291Y17750600D01*
X23449481Y17726791D01*
X23425672Y17679172D01*
X23401862Y17583934D01*
X23401862Y17464886D01*
X23425672Y17369648D01*
X23449481Y17322029D01*
X23473291Y17298220D01*
X23520910Y17274410D01*
X23568529Y17274410D01*
X23616148Y17298220D01*
X23639958Y17322029D01*
X23663767Y17369648D01*
X23687577Y17464886D01*
X23687577Y17583934D01*
X23663767Y17679172D01*
X23639958Y17726791D01*
X23616148Y17750600D01*
X23568529Y17774410D01*
X22973291Y17607743D02*
X22973291Y17274410D01*
X23092339Y17798220D02*
X23211386Y17441077D01*
X22901862Y17441077D01*
G04 #@! TO.C,R505*
X24547283Y21043770D02*
X24713950Y21281865D01*
X24832998Y21043770D02*
X24832998Y21543770D01*
X24642521Y21543770D01*
X24594902Y21519960D01*
X24571093Y21496151D01*
X24547283Y21448532D01*
X24547283Y21377103D01*
X24571093Y21329484D01*
X24594902Y21305675D01*
X24642521Y21281865D01*
X24832998Y21281865D01*
X24094902Y21543770D02*
X24332998Y21543770D01*
X24356807Y21305675D01*
X24332998Y21329484D01*
X24285379Y21353294D01*
X24166331Y21353294D01*
X24118712Y21329484D01*
X24094902Y21305675D01*
X24071093Y21258056D01*
X24071093Y21139008D01*
X24094902Y21091389D01*
X24118712Y21067580D01*
X24166331Y21043770D01*
X24285379Y21043770D01*
X24332998Y21067580D01*
X24356807Y21091389D01*
X23761569Y21543770D02*
X23713950Y21543770D01*
X23666331Y21519960D01*
X23642521Y21496151D01*
X23618712Y21448532D01*
X23594902Y21353294D01*
X23594902Y21234246D01*
X23618712Y21139008D01*
X23642521Y21091389D01*
X23666331Y21067580D01*
X23713950Y21043770D01*
X23761569Y21043770D01*
X23809188Y21067580D01*
X23832998Y21091389D01*
X23856807Y21139008D01*
X23880617Y21234246D01*
X23880617Y21353294D01*
X23856807Y21448532D01*
X23832998Y21496151D01*
X23809188Y21519960D01*
X23761569Y21543770D01*
X23142521Y21543770D02*
X23380617Y21543770D01*
X23404426Y21305675D01*
X23380617Y21329484D01*
X23332998Y21353294D01*
X23213950Y21353294D01*
X23166331Y21329484D01*
X23142521Y21305675D01*
X23118712Y21258056D01*
X23118712Y21139008D01*
X23142521Y21091389D01*
X23166331Y21067580D01*
X23213950Y21043770D01*
X23332998Y21043770D01*
X23380617Y21067580D01*
X23404426Y21091389D01*
G04 #@! TO.C,R506*
X19189830Y15347404D02*
X18951735Y15514071D01*
X19189830Y15633119D02*
X18689830Y15633119D01*
X18689830Y15442642D01*
X18713640Y15395023D01*
X18737449Y15371214D01*
X18785068Y15347404D01*
X18856497Y15347404D01*
X18904116Y15371214D01*
X18927925Y15395023D01*
X18951735Y15442642D01*
X18951735Y15633119D01*
X18689830Y14895023D02*
X18689830Y15133119D01*
X18927925Y15156928D01*
X18904116Y15133119D01*
X18880306Y15085500D01*
X18880306Y14966452D01*
X18904116Y14918833D01*
X18927925Y14895023D01*
X18975544Y14871214D01*
X19094592Y14871214D01*
X19142211Y14895023D01*
X19166020Y14918833D01*
X19189830Y14966452D01*
X19189830Y15085500D01*
X19166020Y15133119D01*
X19142211Y15156928D01*
X18689830Y14561690D02*
X18689830Y14514071D01*
X18713640Y14466452D01*
X18737449Y14442642D01*
X18785068Y14418833D01*
X18880306Y14395023D01*
X18999354Y14395023D01*
X19094592Y14418833D01*
X19142211Y14442642D01*
X19166020Y14466452D01*
X19189830Y14514071D01*
X19189830Y14561690D01*
X19166020Y14609309D01*
X19142211Y14633119D01*
X19094592Y14656928D01*
X18999354Y14680738D01*
X18880306Y14680738D01*
X18785068Y14656928D01*
X18737449Y14633119D01*
X18713640Y14609309D01*
X18689830Y14561690D01*
X18689830Y13966452D02*
X18689830Y14061690D01*
X18713640Y14109309D01*
X18737449Y14133119D01*
X18808878Y14180738D01*
X18904116Y14204547D01*
X19094592Y14204547D01*
X19142211Y14180738D01*
X19166020Y14156928D01*
X19189830Y14109309D01*
X19189830Y14014071D01*
X19166020Y13966452D01*
X19142211Y13942642D01*
X19094592Y13918833D01*
X18975544Y13918833D01*
X18927925Y13942642D01*
X18904116Y13966452D01*
X18880306Y14014071D01*
X18880306Y14109309D01*
X18904116Y14156928D01*
X18927925Y14180738D01*
X18975544Y14204547D01*
G04 #@! TO.C,T501*
X29960462Y21228810D02*
X29674748Y21228810D01*
X29817605Y20728810D02*
X29817605Y21228810D01*
X29269986Y21228810D02*
X29508081Y21228810D01*
X29531891Y20990715D01*
X29508081Y21014524D01*
X29460462Y21038334D01*
X29341415Y21038334D01*
X29293796Y21014524D01*
X29269986Y20990715D01*
X29246177Y20943096D01*
X29246177Y20824048D01*
X29269986Y20776429D01*
X29293796Y20752620D01*
X29341415Y20728810D01*
X29460462Y20728810D01*
X29508081Y20752620D01*
X29531891Y20776429D01*
X28936653Y21228810D02*
X28889034Y21228810D01*
X28841415Y21205000D01*
X28817605Y21181191D01*
X28793796Y21133572D01*
X28769986Y21038334D01*
X28769986Y20919286D01*
X28793796Y20824048D01*
X28817605Y20776429D01*
X28841415Y20752620D01*
X28889034Y20728810D01*
X28936653Y20728810D01*
X28984272Y20752620D01*
X29008081Y20776429D01*
X29031891Y20824048D01*
X29055700Y20919286D01*
X29055700Y21038334D01*
X29031891Y21133572D01*
X29008081Y21181191D01*
X28984272Y21205000D01*
X28936653Y21228810D01*
X28293796Y20728810D02*
X28579510Y20728810D01*
X28436653Y20728810D02*
X28436653Y21228810D01*
X28484272Y21157381D01*
X28531891Y21109762D01*
X28579510Y21085953D01*
G04 #@! TO.C,TP401*
X8112462Y37301930D02*
X7826748Y37301930D01*
X7969605Y36801930D02*
X7969605Y37301930D01*
X7660081Y36801930D02*
X7660081Y37301930D01*
X7469605Y37301930D01*
X7421986Y37278120D01*
X7398177Y37254311D01*
X7374367Y37206692D01*
X7374367Y37135263D01*
X7398177Y37087644D01*
X7421986Y37063835D01*
X7469605Y37040025D01*
X7660081Y37040025D01*
X6945796Y37135263D02*
X6945796Y36801930D01*
X7064843Y37325740D02*
X7183891Y36968597D01*
X6874367Y36968597D01*
X6588653Y37301930D02*
X6541034Y37301930D01*
X6493415Y37278120D01*
X6469605Y37254311D01*
X6445796Y37206692D01*
X6421986Y37111454D01*
X6421986Y36992406D01*
X6445796Y36897168D01*
X6469605Y36849549D01*
X6493415Y36825740D01*
X6541034Y36801930D01*
X6588653Y36801930D01*
X6636272Y36825740D01*
X6660081Y36849549D01*
X6683891Y36897168D01*
X6707700Y36992406D01*
X6707700Y37111454D01*
X6683891Y37206692D01*
X6660081Y37254311D01*
X6636272Y37278120D01*
X6588653Y37301930D01*
X5945796Y36801930D02*
X6231510Y36801930D01*
X6088653Y36801930D02*
X6088653Y37301930D01*
X6136272Y37230501D01*
X6183891Y37182882D01*
X6231510Y37159073D01*
G04 #@! TO.C,TP402*
X8092142Y35153090D02*
X7806428Y35153090D01*
X7949285Y34653090D02*
X7949285Y35153090D01*
X7639761Y34653090D02*
X7639761Y35153090D01*
X7449285Y35153090D01*
X7401666Y35129280D01*
X7377857Y35105471D01*
X7354047Y35057852D01*
X7354047Y34986423D01*
X7377857Y34938804D01*
X7401666Y34914995D01*
X7449285Y34891185D01*
X7639761Y34891185D01*
X6925476Y34986423D02*
X6925476Y34653090D01*
X7044523Y35176900D02*
X7163571Y34819757D01*
X6854047Y34819757D01*
X6568333Y35153090D02*
X6520714Y35153090D01*
X6473095Y35129280D01*
X6449285Y35105471D01*
X6425476Y35057852D01*
X6401666Y34962614D01*
X6401666Y34843566D01*
X6425476Y34748328D01*
X6449285Y34700709D01*
X6473095Y34676900D01*
X6520714Y34653090D01*
X6568333Y34653090D01*
X6615952Y34676900D01*
X6639761Y34700709D01*
X6663571Y34748328D01*
X6687380Y34843566D01*
X6687380Y34962614D01*
X6663571Y35057852D01*
X6639761Y35105471D01*
X6615952Y35129280D01*
X6568333Y35153090D01*
X6211190Y35105471D02*
X6187380Y35129280D01*
X6139761Y35153090D01*
X6020714Y35153090D01*
X5973095Y35129280D01*
X5949285Y35105471D01*
X5925476Y35057852D01*
X5925476Y35010233D01*
X5949285Y34938804D01*
X6235000Y34653090D01*
X5925476Y34653090D01*
G04 #@! TO.C,TP403*
X10073342Y36189410D02*
X9787628Y36189410D01*
X9930485Y35689410D02*
X9930485Y36189410D01*
X9620961Y35689410D02*
X9620961Y36189410D01*
X9430485Y36189410D01*
X9382866Y36165600D01*
X9359057Y36141791D01*
X9335247Y36094172D01*
X9335247Y36022743D01*
X9359057Y35975124D01*
X9382866Y35951315D01*
X9430485Y35927505D01*
X9620961Y35927505D01*
X8906676Y36022743D02*
X8906676Y35689410D01*
X9025723Y36213220D02*
X9144771Y35856077D01*
X8835247Y35856077D01*
X8549533Y36189410D02*
X8501914Y36189410D01*
X8454295Y36165600D01*
X8430485Y36141791D01*
X8406676Y36094172D01*
X8382866Y35998934D01*
X8382866Y35879886D01*
X8406676Y35784648D01*
X8430485Y35737029D01*
X8454295Y35713220D01*
X8501914Y35689410D01*
X8549533Y35689410D01*
X8597152Y35713220D01*
X8620961Y35737029D01*
X8644771Y35784648D01*
X8668580Y35879886D01*
X8668580Y35998934D01*
X8644771Y36094172D01*
X8620961Y36141791D01*
X8597152Y36165600D01*
X8549533Y36189410D01*
X8216200Y36189410D02*
X7906676Y36189410D01*
X8073342Y35998934D01*
X8001914Y35998934D01*
X7954295Y35975124D01*
X7930485Y35951315D01*
X7906676Y35903696D01*
X7906676Y35784648D01*
X7930485Y35737029D01*
X7954295Y35713220D01*
X8001914Y35689410D01*
X8144771Y35689410D01*
X8192390Y35713220D01*
X8216200Y35737029D01*
G04 #@! TO.C,TP404*
X8219142Y32877250D02*
X7933428Y32877250D01*
X8076285Y32377250D02*
X8076285Y32877250D01*
X7766761Y32377250D02*
X7766761Y32877250D01*
X7576285Y32877250D01*
X7528666Y32853440D01*
X7504857Y32829631D01*
X7481047Y32782012D01*
X7481047Y32710583D01*
X7504857Y32662964D01*
X7528666Y32639155D01*
X7576285Y32615345D01*
X7766761Y32615345D01*
X7052476Y32710583D02*
X7052476Y32377250D01*
X7171523Y32901060D02*
X7290571Y32543917D01*
X6981047Y32543917D01*
X6695333Y32877250D02*
X6647714Y32877250D01*
X6600095Y32853440D01*
X6576285Y32829631D01*
X6552476Y32782012D01*
X6528666Y32686774D01*
X6528666Y32567726D01*
X6552476Y32472488D01*
X6576285Y32424869D01*
X6600095Y32401060D01*
X6647714Y32377250D01*
X6695333Y32377250D01*
X6742952Y32401060D01*
X6766761Y32424869D01*
X6790571Y32472488D01*
X6814380Y32567726D01*
X6814380Y32686774D01*
X6790571Y32782012D01*
X6766761Y32829631D01*
X6742952Y32853440D01*
X6695333Y32877250D01*
X6100095Y32710583D02*
X6100095Y32377250D01*
X6219142Y32901060D02*
X6338190Y32543917D01*
X6028666Y32543917D01*
G04 #@! TO.C,TP405*
X10042862Y34177730D02*
X9757148Y34177730D01*
X9900005Y33677730D02*
X9900005Y34177730D01*
X9590481Y33677730D02*
X9590481Y34177730D01*
X9400005Y34177730D01*
X9352386Y34153920D01*
X9328577Y34130111D01*
X9304767Y34082492D01*
X9304767Y34011063D01*
X9328577Y33963444D01*
X9352386Y33939635D01*
X9400005Y33915825D01*
X9590481Y33915825D01*
X8876196Y34011063D02*
X8876196Y33677730D01*
X8995243Y34201540D02*
X9114291Y33844397D01*
X8804767Y33844397D01*
X8519053Y34177730D02*
X8471434Y34177730D01*
X8423815Y34153920D01*
X8400005Y34130111D01*
X8376196Y34082492D01*
X8352386Y33987254D01*
X8352386Y33868206D01*
X8376196Y33772968D01*
X8400005Y33725349D01*
X8423815Y33701540D01*
X8471434Y33677730D01*
X8519053Y33677730D01*
X8566672Y33701540D01*
X8590481Y33725349D01*
X8614291Y33772968D01*
X8638100Y33868206D01*
X8638100Y33987254D01*
X8614291Y34082492D01*
X8590481Y34130111D01*
X8566672Y34153920D01*
X8519053Y34177730D01*
X7900005Y34177730D02*
X8138100Y34177730D01*
X8161910Y33939635D01*
X8138100Y33963444D01*
X8090481Y33987254D01*
X7971434Y33987254D01*
X7923815Y33963444D01*
X7900005Y33939635D01*
X7876196Y33892016D01*
X7876196Y33772968D01*
X7900005Y33725349D01*
X7923815Y33701540D01*
X7971434Y33677730D01*
X8090481Y33677730D01*
X8138100Y33701540D01*
X8161910Y33725349D01*
G04 #@! TO.C,TP406*
X8142942Y31353250D02*
X7857228Y31353250D01*
X8000085Y30853250D02*
X8000085Y31353250D01*
X7690561Y30853250D02*
X7690561Y31353250D01*
X7500085Y31353250D01*
X7452466Y31329440D01*
X7428657Y31305631D01*
X7404847Y31258012D01*
X7404847Y31186583D01*
X7428657Y31138964D01*
X7452466Y31115155D01*
X7500085Y31091345D01*
X7690561Y31091345D01*
X6976276Y31186583D02*
X6976276Y30853250D01*
X7095323Y31377060D02*
X7214371Y31019917D01*
X6904847Y31019917D01*
X6619133Y31353250D02*
X6571514Y31353250D01*
X6523895Y31329440D01*
X6500085Y31305631D01*
X6476276Y31258012D01*
X6452466Y31162774D01*
X6452466Y31043726D01*
X6476276Y30948488D01*
X6500085Y30900869D01*
X6523895Y30877060D01*
X6571514Y30853250D01*
X6619133Y30853250D01*
X6666752Y30877060D01*
X6690561Y30900869D01*
X6714371Y30948488D01*
X6738180Y31043726D01*
X6738180Y31162774D01*
X6714371Y31258012D01*
X6690561Y31305631D01*
X6666752Y31329440D01*
X6619133Y31353250D01*
X6023895Y31353250D02*
X6119133Y31353250D01*
X6166752Y31329440D01*
X6190561Y31305631D01*
X6238180Y31234202D01*
X6261990Y31138964D01*
X6261990Y30948488D01*
X6238180Y30900869D01*
X6214371Y30877060D01*
X6166752Y30853250D01*
X6071514Y30853250D01*
X6023895Y30877060D01*
X6000085Y30900869D01*
X5976276Y30948488D01*
X5976276Y31067536D01*
X6000085Y31115155D01*
X6023895Y31138964D01*
X6071514Y31162774D01*
X6166752Y31162774D01*
X6214371Y31138964D01*
X6238180Y31115155D01*
X6261990Y31067536D01*
G04 #@! TO.C,JP404*
X8050577Y25765250D02*
X8050577Y25408107D01*
X8074386Y25336679D01*
X8122005Y25289060D01*
X8193434Y25265250D01*
X8241053Y25265250D01*
X7812481Y25265250D02*
X7812481Y25765250D01*
X7622005Y25765250D01*
X7574386Y25741440D01*
X7550577Y25717631D01*
X7526767Y25670012D01*
X7526767Y25598583D01*
X7550577Y25550964D01*
X7574386Y25527155D01*
X7622005Y25503345D01*
X7812481Y25503345D01*
X7098196Y25598583D02*
X7098196Y25265250D01*
X7217243Y25789060D02*
X7336291Y25431917D01*
X7026767Y25431917D01*
X6741053Y25765250D02*
X6693434Y25765250D01*
X6645815Y25741440D01*
X6622005Y25717631D01*
X6598196Y25670012D01*
X6574386Y25574774D01*
X6574386Y25455726D01*
X6598196Y25360488D01*
X6622005Y25312869D01*
X6645815Y25289060D01*
X6693434Y25265250D01*
X6741053Y25265250D01*
X6788672Y25289060D01*
X6812481Y25312869D01*
X6836291Y25360488D01*
X6860100Y25455726D01*
X6860100Y25574774D01*
X6836291Y25670012D01*
X6812481Y25717631D01*
X6788672Y25741440D01*
X6741053Y25765250D01*
X6145815Y25598583D02*
X6145815Y25265250D01*
X6264862Y25789060D02*
X6383910Y25431917D01*
X6074386Y25431917D01*
D12*
X2853725Y27299660D02*
X3425154Y27299660D01*
X3139440Y27299660D02*
X3139440Y28299660D01*
X3234678Y28156802D01*
X3329916Y28061564D01*
X3425154Y28013945D01*
X8622933Y27573220D02*
X8003885Y27573220D01*
X8337219Y27192267D01*
X8194361Y27192267D01*
X8099123Y27144648D01*
X8051504Y27097029D01*
X8003885Y27001791D01*
X8003885Y26763696D01*
X8051504Y26668458D01*
X8099123Y26620839D01*
X8194361Y26573220D01*
X8480076Y26573220D01*
X8575314Y26620839D01*
X8622933Y26668458D01*
G04 #@! TD*
%LPC*%
D14*
G04 #@! TO.C,E301*
G36*
X23749000Y4475480D02*
G01*
X24104600Y4475480D01*
X24104600Y4945380D01*
X23749000Y4945380D01*
X23749000Y4475480D01*
G37*
X23749000Y4475480D02*
X24104600Y4475480D01*
X24104600Y4945380D01*
X23749000Y4945380D01*
X23749000Y4475480D01*
G04 #@! TO.C,E302*
G36*
X28972214Y6360160D02*
G01*
X28972214Y6004560D01*
X29442114Y6004560D01*
X29442114Y6360160D01*
X28972214Y6360160D01*
G37*
X28972214Y6360160D02*
X28972214Y6004560D01*
X29442114Y6004560D01*
X29442114Y6360160D01*
X28972214Y6360160D01*
G04 #@! TO.C,E303*
G36*
X13182600Y4488180D02*
G01*
X13538200Y4488180D01*
X13538200Y4958080D01*
X13182600Y4958080D01*
X13182600Y4488180D01*
G37*
X13182600Y4488180D02*
X13538200Y4488180D01*
X13538200Y4958080D01*
X13182600Y4958080D01*
X13182600Y4488180D01*
G04 #@! TO.C,E304*
G36*
X20548600Y4960620D02*
G01*
X20193000Y4960620D01*
X20193000Y4490720D01*
X20548600Y4490720D01*
X20548600Y4960620D01*
G37*
X20548600Y4960620D02*
X20193000Y4960620D01*
X20193000Y4490720D01*
X20548600Y4490720D01*
X20548600Y4960620D01*
G04 #@! TO.C,E305*
G36*
X34721800Y4909820D02*
G01*
X34366200Y4909820D01*
X34366200Y4439920D01*
X34721800Y4439920D01*
X34721800Y4909820D01*
G37*
X34721800Y4909820D02*
X34366200Y4909820D01*
X34366200Y4439920D01*
X34721800Y4439920D01*
X34721800Y4909820D01*
G04 #@! TD*
D15*
G04 #@! TO.C,JP405*
X2743200Y33528000D03*
D13*
G36*
X3492598Y32228000D02*
G01*
X3492598Y32203466D01*
X3487788Y32154635D01*
X3478216Y32106510D01*
X3463972Y32059555D01*
X3445195Y32014222D01*
X3422064Y31970949D01*
X3394804Y31930150D01*
X3363676Y31892221D01*
X3328979Y31857524D01*
X3291050Y31826396D01*
X3250251Y31799136D01*
X3206978Y31776005D01*
X3161645Y31757228D01*
X3114690Y31742984D01*
X3066565Y31733412D01*
X3017734Y31728602D01*
X2993200Y31728602D01*
X2993200Y31728000D01*
X2493200Y31728000D01*
X2493200Y31728602D01*
X2468666Y31728602D01*
X2419835Y31733412D01*
X2371710Y31742984D01*
X2324755Y31757228D01*
X2279422Y31776005D01*
X2236149Y31799136D01*
X2195350Y31826396D01*
X2157421Y31857524D01*
X2122724Y31892221D01*
X2091596Y31930150D01*
X2064336Y31970949D01*
X2041205Y32014222D01*
X2022428Y32059555D01*
X2008184Y32106510D01*
X1998612Y32154635D01*
X1993802Y32203466D01*
X1993802Y32228000D01*
X1993200Y32228000D01*
X1993200Y32778000D01*
X3493200Y32778000D01*
X3493200Y32228000D01*
X3492598Y32228000D01*
G37*
G36*
X1993200Y34278000D02*
G01*
X1993200Y34828000D01*
X1993802Y34828000D01*
X1993802Y34852534D01*
X1998612Y34901365D01*
X2008184Y34949490D01*
X2022428Y34996445D01*
X2041205Y35041778D01*
X2064336Y35085051D01*
X2091596Y35125850D01*
X2122724Y35163779D01*
X2157421Y35198476D01*
X2195350Y35229604D01*
X2236149Y35256864D01*
X2279422Y35279995D01*
X2324755Y35298772D01*
X2371710Y35313016D01*
X2419835Y35322588D01*
X2468666Y35327398D01*
X2493200Y35327398D01*
X2493200Y35328000D01*
X2993200Y35328000D01*
X2993200Y35327398D01*
X3017734Y35327398D01*
X3066565Y35322588D01*
X3114690Y35313016D01*
X3161645Y35298772D01*
X3206978Y35279995D01*
X3250251Y35256864D01*
X3291050Y35229604D01*
X3328979Y35198476D01*
X3363676Y35163779D01*
X3394804Y35125850D01*
X3422064Y35085051D01*
X3445195Y35041778D01*
X3463972Y34996445D01*
X3478216Y34949490D01*
X3487788Y34901365D01*
X3492598Y34852534D01*
X3492598Y34828000D01*
X3493200Y34828000D01*
X3493200Y34278000D01*
X1993200Y34278000D01*
G37*
G04 #@! TD*
D16*
G04 #@! TO.C,J103*
X11023600Y43599100D03*
G04 #@! TD*
D17*
G04 #@! TO.C,FL203*
X34762440Y45091480D03*
X34762440Y42091480D03*
G36*
G01*
X35762440Y44391480D02*
X35762440Y42791480D01*
G75*
G02*
X35262440Y42291480I-500000J0D01*
G01*
X34262440Y42291480D01*
G75*
G02*
X33762440Y42791480I0J500000D01*
G01*
X33762440Y44391480D01*
G75*
G02*
X34262440Y44891480I500000J0D01*
G01*
X35262440Y44891480D01*
G75*
G02*
X35762440Y44391480I0J-500000D01*
G01*
G37*
G36*
G01*
X32362440Y44007480D02*
X32362440Y43175480D01*
G75*
G02*
X31978440Y42791480I-384000J0D01*
G01*
X30746440Y42791480D01*
G75*
G02*
X30362440Y43175480I0J384000D01*
G01*
X30362440Y44007480D01*
G75*
G02*
X30746440Y44391480I384000J0D01*
G01*
X31978440Y44391480D01*
G75*
G02*
X32362440Y44007480I0J-384000D01*
G01*
G37*
G36*
G01*
X39162440Y44007480D02*
X39162440Y43175480D01*
G75*
G02*
X38778440Y42791480I-384000J0D01*
G01*
X37546440Y42791480D01*
G75*
G02*
X37162440Y43175480I0J384000D01*
G01*
X37162440Y44007480D01*
G75*
G02*
X37546440Y44391480I384000J0D01*
G01*
X38778440Y44391480D01*
G75*
G02*
X39162440Y44007480I0J-384000D01*
G01*
G37*
G04 #@! TD*
G04 #@! TO.C,FL502*
X32562800Y14349600D03*
X32562800Y17349600D03*
G36*
G01*
X31562800Y15049600D02*
X31562800Y16649600D01*
G75*
G02*
X32062800Y17149600I500000J0D01*
G01*
X33062800Y17149600D01*
G75*
G02*
X33562800Y16649600I0J-500000D01*
G01*
X33562800Y15049600D01*
G75*
G02*
X33062800Y14549600I-500000J0D01*
G01*
X32062800Y14549600D01*
G75*
G02*
X31562800Y15049600I0J500000D01*
G01*
G37*
G36*
G01*
X34962800Y15433600D02*
X34962800Y16265600D01*
G75*
G02*
X35346800Y16649600I384000J0D01*
G01*
X36578800Y16649600D01*
G75*
G02*
X36962800Y16265600I0J-384000D01*
G01*
X36962800Y15433600D01*
G75*
G02*
X36578800Y15049600I-384000J0D01*
G01*
X35346800Y15049600D01*
G75*
G02*
X34962800Y15433600I0J384000D01*
G01*
G37*
G36*
G01*
X28162800Y15433600D02*
X28162800Y16265600D01*
G75*
G02*
X28546800Y16649600I384000J0D01*
G01*
X29778800Y16649600D01*
G75*
G02*
X30162800Y16265600I0J-384000D01*
G01*
X30162800Y15433600D01*
G75*
G02*
X29778800Y15049600I-384000J0D01*
G01*
X28546800Y15049600D01*
G75*
G02*
X28162800Y15433600I0J384000D01*
G01*
G37*
G04 #@! TD*
G04 #@! TO.C,FL202*
X40132000Y35942400D03*
X40132000Y32942400D03*
G04 #@! TD*
G04 #@! TO.C,FL201*
X30149800Y24906100D03*
X30149800Y21906100D03*
G04 #@! TD*
G04 #@! TO.C,FL501*
X32550100Y20346800D03*
X32550100Y17346800D03*
G04 #@! TD*
D18*
G04 #@! TO.C,J102*
X43460000Y23530000D03*
X46000000Y22260000D03*
X43460000Y20990000D03*
X46000000Y19720000D03*
X43460000Y18450000D03*
X46000000Y17180000D03*
X43460000Y15910000D03*
X46000000Y14640000D03*
X43460000Y13370000D03*
X46000000Y12100000D03*
G04 #@! TD*
D19*
G04 #@! TO.C,FID105*
X44323000Y28994100D03*
G04 #@! TD*
G04 #@! TO.C,FID103*
X41617900Y4584700D03*
G04 #@! TD*
G04 #@! TO.C,FID101*
X8178800Y6057900D03*
G04 #@! TD*
G04 #@! TO.C,R215*
G36*
G01*
X17596300Y41245200D02*
X17596300Y40695200D01*
G75*
G02*
X17396300Y40495200I-200000J0D01*
G01*
X16996300Y40495200D01*
G75*
G02*
X16796300Y40695200I0J200000D01*
G01*
X16796300Y41245200D01*
G75*
G02*
X16996300Y41445200I200000J0D01*
G01*
X17396300Y41445200D01*
G75*
G02*
X17596300Y41245200I0J-200000D01*
G01*
G37*
G36*
G01*
X19246300Y41245200D02*
X19246300Y40695200D01*
G75*
G02*
X19046300Y40495200I-200000J0D01*
G01*
X18646300Y40495200D01*
G75*
G02*
X18446300Y40695200I0J200000D01*
G01*
X18446300Y41245200D01*
G75*
G02*
X18646300Y41445200I200000J0D01*
G01*
X19046300Y41445200D01*
G75*
G02*
X19246300Y41245200I0J-200000D01*
G01*
G37*
G04 #@! TD*
G04 #@! TO.C,C201*
G36*
G01*
X27782100Y31577300D02*
X27782100Y30627300D01*
G75*
G02*
X27532100Y30377300I-250000J0D01*
G01*
X27032100Y30377300D01*
G75*
G02*
X26782100Y30627300I0J250000D01*
G01*
X26782100Y31577300D01*
G75*
G02*
X27032100Y31827300I250000J0D01*
G01*
X27532100Y31827300D01*
G75*
G02*
X27782100Y31577300I0J-250000D01*
G01*
G37*
G36*
G01*
X29682100Y31577300D02*
X29682100Y30627300D01*
G75*
G02*
X29432100Y30377300I-250000J0D01*
G01*
X28932100Y30377300D01*
G75*
G02*
X28682100Y30627300I0J250000D01*
G01*
X28682100Y31577300D01*
G75*
G02*
X28932100Y31827300I250000J0D01*
G01*
X29432100Y31827300D01*
G75*
G02*
X29682100Y31577300I0J-250000D01*
G01*
G37*
G04 #@! TD*
G04 #@! TO.C,C208*
G36*
G01*
X36978400Y40342700D02*
X36478400Y40342700D01*
G75*
G02*
X36253400Y40567700I0J225000D01*
G01*
X36253400Y41017700D01*
G75*
G02*
X36478400Y41242700I225000J0D01*
G01*
X36978400Y41242700D01*
G75*
G02*
X37203400Y41017700I0J-225000D01*
G01*
X37203400Y40567700D01*
G75*
G02*
X36978400Y40342700I-225000J0D01*
G01*
G37*
G36*
G01*
X36978400Y38792700D02*
X36478400Y38792700D01*
G75*
G02*
X36253400Y39017700I0J225000D01*
G01*
X36253400Y39467700D01*
G75*
G02*
X36478400Y39692700I225000J0D01*
G01*
X36978400Y39692700D01*
G75*
G02*
X37203400Y39467700I0J-225000D01*
G01*
X37203400Y39017700D01*
G75*
G02*
X36978400Y38792700I-225000J0D01*
G01*
G37*
G04 #@! TD*
G04 #@! TO.C,C209*
G36*
G01*
X35387300Y40277200D02*
X34437300Y40277200D01*
G75*
G02*
X34187300Y40527200I0J250000D01*
G01*
X34187300Y41027200D01*
G75*
G02*
X34437300Y41277200I250000J0D01*
G01*
X35387300Y41277200D01*
G75*
G02*
X35637300Y41027200I0J-250000D01*
G01*
X35637300Y40527200D01*
G75*
G02*
X35387300Y40277200I-250000J0D01*
G01*
G37*
G36*
G01*
X35387300Y38377200D02*
X34437300Y38377200D01*
G75*
G02*
X34187300Y38627200I0J250000D01*
G01*
X34187300Y39127200D01*
G75*
G02*
X34437300Y39377200I250000J0D01*
G01*
X35387300Y39377200D01*
G75*
G02*
X35637300Y39127200I0J-250000D01*
G01*
X35637300Y38627200D01*
G75*
G02*
X35387300Y38377200I-250000J0D01*
G01*
G37*
G04 #@! TD*
G04 #@! TO.C,C210*
G36*
G01*
X33355300Y40277200D02*
X32405300Y40277200D01*
G75*
G02*
X32155300Y40527200I0J250000D01*
G01*
X32155300Y41027200D01*
G75*
G02*
X32405300Y41277200I250000J0D01*
G01*
X33355300Y41277200D01*
G75*
G02*
X33605300Y41027200I0J-250000D01*
G01*
X33605300Y40527200D01*
G75*
G02*
X33355300Y40277200I-250000J0D01*
G01*
G37*
G36*
G01*
X33355300Y38377200D02*
X32405300Y38377200D01*
G75*
G02*
X32155300Y38627200I0J250000D01*
G01*
X32155300Y39127200D01*
G75*
G02*
X32405300Y39377200I250000J0D01*
G01*
X33355300Y39377200D01*
G75*
G02*
X33605300Y39127200I0J-250000D01*
G01*
X33605300Y38627200D01*
G75*
G02*
X33355300Y38377200I-250000J0D01*
G01*
G37*
G04 #@! TD*
G04 #@! TO.C,C211*
G36*
G01*
X40581700Y42795000D02*
X40581700Y42295000D01*
G75*
G02*
X40356700Y42070000I-225000J0D01*
G01*
X39906700Y42070000D01*
G75*
G02*
X39681700Y42295000I0J225000D01*
G01*
X39681700Y42795000D01*
G75*
G02*
X39906700Y43020000I225000J0D01*
G01*
X40356700Y43020000D01*
G75*
G02*
X40581700Y42795000I0J-225000D01*
G01*
G37*
G36*
G01*
X42131700Y42795000D02*
X42131700Y42295000D01*
G75*
G02*
X41906700Y42070000I-225000J0D01*
G01*
X41456700Y42070000D01*
G75*
G02*
X41231700Y42295000I0J225000D01*
G01*
X41231700Y42795000D01*
G75*
G02*
X41456700Y43020000I225000J0D01*
G01*
X41906700Y43020000D01*
G75*
G02*
X42131700Y42795000I0J-225000D01*
G01*
G37*
G04 #@! TD*
G04 #@! TO.C,C212*
G36*
G01*
X28341200Y45584300D02*
X28341200Y46084300D01*
G75*
G02*
X28566200Y46309300I225000J0D01*
G01*
X29016200Y46309300D01*
G75*
G02*
X29241200Y46084300I0J-225000D01*
G01*
X29241200Y45584300D01*
G75*
G02*
X29016200Y45359300I-225000J0D01*
G01*
X28566200Y45359300D01*
G75*
G02*
X28341200Y45584300I0J225000D01*
G01*
G37*
G36*
G01*
X26791200Y45584300D02*
X26791200Y46084300D01*
G75*
G02*
X27016200Y46309300I225000J0D01*
G01*
X27466200Y46309300D01*
G75*
G02*
X27691200Y46084300I0J-225000D01*
G01*
X27691200Y45584300D01*
G75*
G02*
X27466200Y45359300I-225000J0D01*
G01*
X27016200Y45359300D01*
G75*
G02*
X26791200Y45584300I0J225000D01*
G01*
G37*
G04 #@! TD*
G04 #@! TO.C,C213*
G36*
G01*
X29942600Y40393500D02*
X29442600Y40393500D01*
G75*
G02*
X29217600Y40618500I0J225000D01*
G01*
X29217600Y41068500D01*
G75*
G02*
X29442600Y41293500I225000J0D01*
G01*
X29942600Y41293500D01*
G75*
G02*
X30167600Y41068500I0J-225000D01*
G01*
X30167600Y40618500D01*
G75*
G02*
X29942600Y40393500I-225000J0D01*
G01*
G37*
G36*
G01*
X29942600Y38843500D02*
X29442600Y38843500D01*
G75*
G02*
X29217600Y39068500I0J225000D01*
G01*
X29217600Y39518500D01*
G75*
G02*
X29442600Y39743500I225000J0D01*
G01*
X29942600Y39743500D01*
G75*
G02*
X30167600Y39518500I0J-225000D01*
G01*
X30167600Y39068500D01*
G75*
G02*
X29942600Y38843500I-225000J0D01*
G01*
G37*
G04 #@! TD*
G04 #@! TO.C,C302*
G36*
G01*
X31060200Y9596000D02*
X30560200Y9596000D01*
G75*
G02*
X30335200Y9821000I0J225000D01*
G01*
X30335200Y10271000D01*
G75*
G02*
X30560200Y10496000I225000J0D01*
G01*
X31060200Y10496000D01*
G75*
G02*
X31285200Y10271000I0J-225000D01*
G01*
X31285200Y9821000D01*
G75*
G02*
X31060200Y9596000I-225000J0D01*
G01*
G37*
G36*
G01*
X31060200Y8046000D02*
X30560200Y8046000D01*
G75*
G02*
X30335200Y8271000I0J225000D01*
G01*
X30335200Y8721000D01*
G75*
G02*
X30560200Y8946000I225000J0D01*
G01*
X31060200Y8946000D01*
G75*
G02*
X31285200Y8721000I0J-225000D01*
G01*
X31285200Y8271000D01*
G75*
G02*
X31060200Y8046000I-225000J0D01*
G01*
G37*
G04 #@! TD*
G04 #@! TO.C,C303*
G36*
G01*
X11450200Y12704000D02*
X11450200Y13204000D01*
G75*
G02*
X11675200Y13429000I225000J0D01*
G01*
X12125200Y13429000D01*
G75*
G02*
X12350200Y13204000I0J-225000D01*
G01*
X12350200Y12704000D01*
G75*
G02*
X12125200Y12479000I-225000J0D01*
G01*
X11675200Y12479000D01*
G75*
G02*
X11450200Y12704000I0J225000D01*
G01*
G37*
G36*
G01*
X9900200Y12704000D02*
X9900200Y13204000D01*
G75*
G02*
X10125200Y13429000I225000J0D01*
G01*
X10575200Y13429000D01*
G75*
G02*
X10800200Y13204000I0J-225000D01*
G01*
X10800200Y12704000D01*
G75*
G02*
X10575200Y12479000I-225000J0D01*
G01*
X10125200Y12479000D01*
G75*
G02*
X9900200Y12704000I0J225000D01*
G01*
G37*
G04 #@! TD*
G04 #@! TO.C,C304*
G36*
G01*
X19503200Y11907400D02*
X19003200Y11907400D01*
G75*
G02*
X18778200Y12132400I0J225000D01*
G01*
X18778200Y12582400D01*
G75*
G02*
X19003200Y12807400I225000J0D01*
G01*
X19503200Y12807400D01*
G75*
G02*
X19728200Y12582400I0J-225000D01*
G01*
X19728200Y12132400D01*
G75*
G02*
X19503200Y11907400I-225000J0D01*
G01*
G37*
G36*
G01*
X19503200Y10357400D02*
X19003200Y10357400D01*
G75*
G02*
X18778200Y10582400I0J225000D01*
G01*
X18778200Y11032400D01*
G75*
G02*
X19003200Y11257400I225000J0D01*
G01*
X19503200Y11257400D01*
G75*
G02*
X19728200Y11032400I0J-225000D01*
G01*
X19728200Y10582400D01*
G75*
G02*
X19503200Y10357400I-225000J0D01*
G01*
G37*
G04 #@! TD*
G04 #@! TO.C,C305*
G36*
G01*
X30653800Y12986900D02*
X30153800Y12986900D01*
G75*
G02*
X29928800Y13211900I0J225000D01*
G01*
X29928800Y13661900D01*
G75*
G02*
X30153800Y13886900I225000J0D01*
G01*
X30653800Y13886900D01*
G75*
G02*
X30878800Y13661900I0J-225000D01*
G01*
X30878800Y13211900D01*
G75*
G02*
X30653800Y12986900I-225000J0D01*
G01*
G37*
G36*
G01*
X30653800Y11436900D02*
X30153800Y11436900D01*
G75*
G02*
X29928800Y11661900I0J225000D01*
G01*
X29928800Y12111900D01*
G75*
G02*
X30153800Y12336900I225000J0D01*
G01*
X30653800Y12336900D01*
G75*
G02*
X30878800Y12111900I0J-225000D01*
G01*
X30878800Y11661900D01*
G75*
G02*
X30653800Y11436900I-225000J0D01*
G01*
G37*
G04 #@! TD*
G04 #@! TO.C,C402*
G36*
G01*
X22635400Y25189300D02*
X23135400Y25189300D01*
G75*
G02*
X23360400Y24964300I0J-225000D01*
G01*
X23360400Y24514300D01*
G75*
G02*
X23135400Y24289300I-225000J0D01*
G01*
X22635400Y24289300D01*
G75*
G02*
X22410400Y24514300I0J225000D01*
G01*
X22410400Y24964300D01*
G75*
G02*
X22635400Y25189300I225000J0D01*
G01*
G37*
G36*
G01*
X22635400Y26739300D02*
X23135400Y26739300D01*
G75*
G02*
X23360400Y26514300I0J-225000D01*
G01*
X23360400Y26064300D01*
G75*
G02*
X23135400Y25839300I-225000J0D01*
G01*
X22635400Y25839300D01*
G75*
G02*
X22410400Y26064300I0J225000D01*
G01*
X22410400Y26514300D01*
G75*
G02*
X22635400Y26739300I225000J0D01*
G01*
G37*
G04 #@! TD*
G04 #@! TO.C,C403*
G36*
G01*
X23084600Y31986100D02*
X22584600Y31986100D01*
G75*
G02*
X22359600Y32211100I0J225000D01*
G01*
X22359600Y32661100D01*
G75*
G02*
X22584600Y32886100I225000J0D01*
G01*
X23084600Y32886100D01*
G75*
G02*
X23309600Y32661100I0J-225000D01*
G01*
X23309600Y32211100D01*
G75*
G02*
X23084600Y31986100I-225000J0D01*
G01*
G37*
G36*
G01*
X23084600Y30436100D02*
X22584600Y30436100D01*
G75*
G02*
X22359600Y30661100I0J225000D01*
G01*
X22359600Y31111100D01*
G75*
G02*
X22584600Y31336100I225000J0D01*
G01*
X23084600Y31336100D01*
G75*
G02*
X23309600Y31111100I0J-225000D01*
G01*
X23309600Y30661100D01*
G75*
G02*
X23084600Y30436100I-225000J0D01*
G01*
G37*
G04 #@! TD*
G04 #@! TO.C,C501*
G36*
G01*
X24226400Y15713900D02*
X24226400Y16213900D01*
G75*
G02*
X24451400Y16438900I225000J0D01*
G01*
X24901400Y16438900D01*
G75*
G02*
X25126400Y16213900I0J-225000D01*
G01*
X25126400Y15713900D01*
G75*
G02*
X24901400Y15488900I-225000J0D01*
G01*
X24451400Y15488900D01*
G75*
G02*
X24226400Y15713900I0J225000D01*
G01*
G37*
G36*
G01*
X22676400Y15713900D02*
X22676400Y16213900D01*
G75*
G02*
X22901400Y16438900I225000J0D01*
G01*
X23351400Y16438900D01*
G75*
G02*
X23576400Y16213900I0J-225000D01*
G01*
X23576400Y15713900D01*
G75*
G02*
X23351400Y15488900I-225000J0D01*
G01*
X22901400Y15488900D01*
G75*
G02*
X22676400Y15713900I0J225000D01*
G01*
G37*
G04 #@! TD*
G04 #@! TO.C,C504*
G36*
G01*
X17466500Y18128100D02*
X17966500Y18128100D01*
G75*
G02*
X18191500Y17903100I0J-225000D01*
G01*
X18191500Y17453100D01*
G75*
G02*
X17966500Y17228100I-225000J0D01*
G01*
X17466500Y17228100D01*
G75*
G02*
X17241500Y17453100I0J225000D01*
G01*
X17241500Y17903100D01*
G75*
G02*
X17466500Y18128100I225000J0D01*
G01*
G37*
G36*
G01*
X17466500Y19678100D02*
X17966500Y19678100D01*
G75*
G02*
X18191500Y19453100I0J-225000D01*
G01*
X18191500Y19003100D01*
G75*
G02*
X17966500Y18778100I-225000J0D01*
G01*
X17466500Y18778100D01*
G75*
G02*
X17241500Y19003100I0J225000D01*
G01*
X17241500Y19453100D01*
G75*
G02*
X17466500Y19678100I225000J0D01*
G01*
G37*
G04 #@! TD*
D20*
G04 #@! TO.C,D201*
X36490800Y30822900D03*
X32190800Y30822900D03*
G04 #@! TD*
D21*
G04 #@! TO.C,D302*
X26349200Y11684000D03*
X24349200Y12634000D03*
X24349200Y10734000D03*
G04 #@! TD*
D22*
G04 #@! TO.C,D303*
X40855900Y7870300D03*
X40855900Y12170300D03*
G04 #@! TD*
G04 #@! TO.C,D305*
X36271200Y12157600D03*
X36271200Y7857600D03*
G04 #@! TD*
G04 #@! TO.C,D502*
X39725600Y16747600D03*
X39725600Y21047600D03*
G04 #@! TD*
D13*
G04 #@! TO.C,E301*
G36*
X23846660Y4548182D02*
G01*
X23846660Y4548150D01*
X23671660Y4464850D01*
X23671660Y4631482D01*
X23846660Y4548182D01*
G37*
G36*
X23846660Y4878382D02*
G01*
X23846660Y4878350D01*
X23671660Y4795050D01*
X23671660Y4961682D01*
X23846660Y4878382D01*
G37*
G36*
X23846660Y4713282D02*
G01*
X23846660Y4713250D01*
X23671660Y4629950D01*
X23671660Y4796582D01*
X23846660Y4713282D01*
G37*
G36*
X24181940Y4631482D02*
G01*
X24181940Y4464850D01*
X24006940Y4548150D01*
X24006940Y4548182D01*
X24181940Y4631482D01*
G37*
G36*
X24181940Y4796582D02*
G01*
X24181940Y4629950D01*
X24006940Y4713250D01*
X24006940Y4713282D01*
X24181940Y4796582D01*
G37*
G36*
X24181940Y4961682D02*
G01*
X24181940Y4795050D01*
X24006940Y4878350D01*
X24006940Y4878382D01*
X24181940Y4961682D01*
G37*
G04 #@! TD*
G04 #@! TO.C,E302*
G36*
X29044916Y6262500D02*
G01*
X29044884Y6262500D01*
X28961584Y6437500D01*
X29128216Y6437500D01*
X29044916Y6262500D01*
G37*
G36*
X29375116Y6262500D02*
G01*
X29375084Y6262500D01*
X29291784Y6437500D01*
X29458416Y6437500D01*
X29375116Y6262500D01*
G37*
G36*
X29210016Y6262500D02*
G01*
X29209984Y6262500D01*
X29126684Y6437500D01*
X29293316Y6437500D01*
X29210016Y6262500D01*
G37*
G36*
X29128216Y5927220D02*
G01*
X28961584Y5927220D01*
X29044884Y6102220D01*
X29044916Y6102220D01*
X29128216Y5927220D01*
G37*
G36*
X29293316Y5927220D02*
G01*
X29126684Y5927220D01*
X29209984Y6102220D01*
X29210016Y6102220D01*
X29293316Y5927220D01*
G37*
G36*
X29458416Y5927220D02*
G01*
X29291784Y5927220D01*
X29375084Y6102220D01*
X29375116Y6102220D01*
X29458416Y5927220D01*
G37*
G04 #@! TD*
G04 #@! TO.C,E303*
G36*
X13280260Y4560882D02*
G01*
X13280260Y4560850D01*
X13105260Y4477550D01*
X13105260Y4644182D01*
X13280260Y4560882D01*
G37*
G36*
X13280260Y4891082D02*
G01*
X13280260Y4891050D01*
X13105260Y4807750D01*
X13105260Y4974382D01*
X13280260Y4891082D01*
G37*
G36*
X13280260Y4725982D02*
G01*
X13280260Y4725950D01*
X13105260Y4642650D01*
X13105260Y4809282D01*
X13280260Y4725982D01*
G37*
G36*
X13615540Y4644182D02*
G01*
X13615540Y4477550D01*
X13440540Y4560850D01*
X13440540Y4560882D01*
X13615540Y4644182D01*
G37*
G36*
X13615540Y4809282D02*
G01*
X13615540Y4642650D01*
X13440540Y4725950D01*
X13440540Y4725982D01*
X13615540Y4809282D01*
G37*
G36*
X13615540Y4974382D02*
G01*
X13615540Y4807750D01*
X13440540Y4891050D01*
X13440540Y4891082D01*
X13615540Y4974382D01*
G37*
G04 #@! TD*
G04 #@! TO.C,E304*
G36*
X20450940Y4887918D02*
G01*
X20450940Y4887950D01*
X20625940Y4971250D01*
X20625940Y4804618D01*
X20450940Y4887918D01*
G37*
G36*
X20450940Y4557718D02*
G01*
X20450940Y4557750D01*
X20625940Y4641050D01*
X20625940Y4474418D01*
X20450940Y4557718D01*
G37*
G36*
X20450940Y4722818D02*
G01*
X20450940Y4722850D01*
X20625940Y4806150D01*
X20625940Y4639518D01*
X20450940Y4722818D01*
G37*
G36*
X20115660Y4804618D02*
G01*
X20115660Y4971250D01*
X20290660Y4887950D01*
X20290660Y4887918D01*
X20115660Y4804618D01*
G37*
G36*
X20115660Y4639518D02*
G01*
X20115660Y4806150D01*
X20290660Y4722850D01*
X20290660Y4722818D01*
X20115660Y4639518D01*
G37*
G36*
X20115660Y4474418D02*
G01*
X20115660Y4641050D01*
X20290660Y4557750D01*
X20290660Y4557718D01*
X20115660Y4474418D01*
G37*
G04 #@! TD*
G04 #@! TO.C,E305*
G36*
X34624140Y4837118D02*
G01*
X34624140Y4837150D01*
X34799140Y4920450D01*
X34799140Y4753818D01*
X34624140Y4837118D01*
G37*
G36*
X34624140Y4506918D02*
G01*
X34624140Y4506950D01*
X34799140Y4590250D01*
X34799140Y4423618D01*
X34624140Y4506918D01*
G37*
G36*
X34624140Y4672018D02*
G01*
X34624140Y4672050D01*
X34799140Y4755350D01*
X34799140Y4588718D01*
X34624140Y4672018D01*
G37*
G36*
X34288860Y4753818D02*
G01*
X34288860Y4920450D01*
X34463860Y4837150D01*
X34463860Y4837118D01*
X34288860Y4753818D01*
G37*
G36*
X34288860Y4588718D02*
G01*
X34288860Y4755350D01*
X34463860Y4672050D01*
X34463860Y4672018D01*
X34288860Y4588718D01*
G37*
G36*
X34288860Y4423618D02*
G01*
X34288860Y4590250D01*
X34463860Y4506950D01*
X34463860Y4506918D01*
X34288860Y4423618D01*
G37*
G04 #@! TD*
G04 #@! TO.C,F301*
G36*
G01*
X27822999Y9310800D02*
X29073001Y9310800D01*
G75*
G02*
X29323000Y9060801I0J-249999D01*
G01*
X29323000Y8435799D01*
G75*
G02*
X29073001Y8185800I-249999J0D01*
G01*
X27822999Y8185800D01*
G75*
G02*
X27573000Y8435799I0J249999D01*
G01*
X27573000Y9060801D01*
G75*
G02*
X27822999Y9310800I249999J0D01*
G01*
G37*
G36*
G01*
X27822999Y12235800D02*
X29073001Y12235800D01*
G75*
G02*
X29323000Y11985801I0J-249999D01*
G01*
X29323000Y11360799D01*
G75*
G02*
X29073001Y11110800I-249999J0D01*
G01*
X27822999Y11110800D01*
G75*
G02*
X27573000Y11360799I0J249999D01*
G01*
X27573000Y11985801D01*
G75*
G02*
X27822999Y12235800I249999J0D01*
G01*
G37*
G04 #@! TD*
G04 #@! TO.C,F302*
G36*
G01*
X32191799Y7736000D02*
X33441801Y7736000D01*
G75*
G02*
X33691800Y7486001I0J-249999D01*
G01*
X33691800Y6860999D01*
G75*
G02*
X33441801Y6611000I-249999J0D01*
G01*
X32191799Y6611000D01*
G75*
G02*
X31941800Y6860999I0J249999D01*
G01*
X31941800Y7486001D01*
G75*
G02*
X32191799Y7736000I249999J0D01*
G01*
G37*
G36*
G01*
X32191799Y10661000D02*
X33441801Y10661000D01*
G75*
G02*
X33691800Y10411001I0J-249999D01*
G01*
X33691800Y9785999D01*
G75*
G02*
X33441801Y9536000I-249999J0D01*
G01*
X32191799Y9536000D01*
G75*
G02*
X31941800Y9785999I0J249999D01*
G01*
X31941800Y10411001D01*
G75*
G02*
X32191799Y10661000I249999J0D01*
G01*
G37*
G04 #@! TD*
D23*
G04 #@! TO.C,IC203*
X28107400Y40967700D03*
X26807400Y40967700D03*
X27457400Y39067700D03*
X27457400Y40967700D03*
X26807400Y39067700D03*
X28107400Y39067700D03*
G04 #@! TD*
G04 #@! TO.C,IC205*
G36*
G01*
X19219500Y34377900D02*
X19219500Y33052900D01*
G75*
G02*
X19144500Y32977900I-75000J0D01*
G01*
X18994500Y32977900D01*
G75*
G02*
X18919500Y33052900I0J75000D01*
G01*
X18919500Y34377900D01*
G75*
G02*
X18994500Y34452900I75000J0D01*
G01*
X19144500Y34452900D01*
G75*
G02*
X19219500Y34377900I0J-75000D01*
G01*
G37*
G36*
G01*
X18719500Y34377900D02*
X18719500Y33052900D01*
G75*
G02*
X18644500Y32977900I-75000J0D01*
G01*
X18494500Y32977900D01*
G75*
G02*
X18419500Y33052900I0J75000D01*
G01*
X18419500Y34377900D01*
G75*
G02*
X18494500Y34452900I75000J0D01*
G01*
X18644500Y34452900D01*
G75*
G02*
X18719500Y34377900I0J-75000D01*
G01*
G37*
G36*
G01*
X18219500Y34377900D02*
X18219500Y33052900D01*
G75*
G02*
X18144500Y32977900I-75000J0D01*
G01*
X17994500Y32977900D01*
G75*
G02*
X17919500Y33052900I0J75000D01*
G01*
X17919500Y34377900D01*
G75*
G02*
X17994500Y34452900I75000J0D01*
G01*
X18144500Y34452900D01*
G75*
G02*
X18219500Y34377900I0J-75000D01*
G01*
G37*
G36*
G01*
X17719500Y34377900D02*
X17719500Y33052900D01*
G75*
G02*
X17644500Y32977900I-75000J0D01*
G01*
X17494500Y32977900D01*
G75*
G02*
X17419500Y33052900I0J75000D01*
G01*
X17419500Y34377900D01*
G75*
G02*
X17494500Y34452900I75000J0D01*
G01*
X17644500Y34452900D01*
G75*
G02*
X17719500Y34377900I0J-75000D01*
G01*
G37*
G36*
G01*
X17219500Y34377900D02*
X17219500Y33052900D01*
G75*
G02*
X17144500Y32977900I-75000J0D01*
G01*
X16994500Y32977900D01*
G75*
G02*
X16919500Y33052900I0J75000D01*
G01*
X16919500Y34377900D01*
G75*
G02*
X16994500Y34452900I75000J0D01*
G01*
X17144500Y34452900D01*
G75*
G02*
X17219500Y34377900I0J-75000D01*
G01*
G37*
G36*
G01*
X16719500Y34377900D02*
X16719500Y33052900D01*
G75*
G02*
X16644500Y32977900I-75000J0D01*
G01*
X16494500Y32977900D01*
G75*
G02*
X16419500Y33052900I0J75000D01*
G01*
X16419500Y34377900D01*
G75*
G02*
X16494500Y34452900I75000J0D01*
G01*
X16644500Y34452900D01*
G75*
G02*
X16719500Y34377900I0J-75000D01*
G01*
G37*
G36*
G01*
X16219500Y34377900D02*
X16219500Y33052900D01*
G75*
G02*
X16144500Y32977900I-75000J0D01*
G01*
X15994500Y32977900D01*
G75*
G02*
X15919500Y33052900I0J75000D01*
G01*
X15919500Y34377900D01*
G75*
G02*
X15994500Y34452900I75000J0D01*
G01*
X16144500Y34452900D01*
G75*
G02*
X16219500Y34377900I0J-75000D01*
G01*
G37*
G36*
G01*
X15719500Y34377900D02*
X15719500Y33052900D01*
G75*
G02*
X15644500Y32977900I-75000J0D01*
G01*
X15494500Y32977900D01*
G75*
G02*
X15419500Y33052900I0J75000D01*
G01*
X15419500Y34377900D01*
G75*
G02*
X15494500Y34452900I75000J0D01*
G01*
X15644500Y34452900D01*
G75*
G02*
X15719500Y34377900I0J-75000D01*
G01*
G37*
G36*
G01*
X15219500Y34377900D02*
X15219500Y33052900D01*
G75*
G02*
X15144500Y32977900I-75000J0D01*
G01*
X14994500Y32977900D01*
G75*
G02*
X14919500Y33052900I0J75000D01*
G01*
X14919500Y34377900D01*
G75*
G02*
X14994500Y34452900I75000J0D01*
G01*
X15144500Y34452900D01*
G75*
G02*
X15219500Y34377900I0J-75000D01*
G01*
G37*
G36*
G01*
X14719500Y34377900D02*
X14719500Y33052900D01*
G75*
G02*
X14644500Y32977900I-75000J0D01*
G01*
X14494500Y32977900D01*
G75*
G02*
X14419500Y33052900I0J75000D01*
G01*
X14419500Y34377900D01*
G75*
G02*
X14494500Y34452900I75000J0D01*
G01*
X14644500Y34452900D01*
G75*
G02*
X14719500Y34377900I0J-75000D01*
G01*
G37*
G36*
G01*
X14219500Y34377900D02*
X14219500Y33052900D01*
G75*
G02*
X14144500Y32977900I-75000J0D01*
G01*
X13994500Y32977900D01*
G75*
G02*
X13919500Y33052900I0J75000D01*
G01*
X13919500Y34377900D01*
G75*
G02*
X13994500Y34452900I75000J0D01*
G01*
X14144500Y34452900D01*
G75*
G02*
X14219500Y34377900I0J-75000D01*
G01*
G37*
G36*
G01*
X13719500Y34377900D02*
X13719500Y33052900D01*
G75*
G02*
X13644500Y32977900I-75000J0D01*
G01*
X13494500Y32977900D01*
G75*
G02*
X13419500Y33052900I0J75000D01*
G01*
X13419500Y34377900D01*
G75*
G02*
X13494500Y34452900I75000J0D01*
G01*
X13644500Y34452900D01*
G75*
G02*
X13719500Y34377900I0J-75000D01*
G01*
G37*
G36*
G01*
X12894500Y32377900D02*
X12894500Y32227900D01*
G75*
G02*
X12819500Y32152900I-75000J0D01*
G01*
X11494500Y32152900D01*
G75*
G02*
X11419500Y32227900I0J75000D01*
G01*
X11419500Y32377900D01*
G75*
G02*
X11494500Y32452900I75000J0D01*
G01*
X12819500Y32452900D01*
G75*
G02*
X12894500Y32377900I0J-75000D01*
G01*
G37*
G36*
G01*
X12894500Y31877900D02*
X12894500Y31727900D01*
G75*
G02*
X12819500Y31652900I-75000J0D01*
G01*
X11494500Y31652900D01*
G75*
G02*
X11419500Y31727900I0J75000D01*
G01*
X11419500Y31877900D01*
G75*
G02*
X11494500Y31952900I75000J0D01*
G01*
X12819500Y31952900D01*
G75*
G02*
X12894500Y31877900I0J-75000D01*
G01*
G37*
G36*
G01*
X12894500Y31377900D02*
X12894500Y31227900D01*
G75*
G02*
X12819500Y31152900I-75000J0D01*
G01*
X11494500Y31152900D01*
G75*
G02*
X11419500Y31227900I0J75000D01*
G01*
X11419500Y31377900D01*
G75*
G02*
X11494500Y31452900I75000J0D01*
G01*
X12819500Y31452900D01*
G75*
G02*
X12894500Y31377900I0J-75000D01*
G01*
G37*
G36*
G01*
X12894500Y30877900D02*
X12894500Y30727900D01*
G75*
G02*
X12819500Y30652900I-75000J0D01*
G01*
X11494500Y30652900D01*
G75*
G02*
X11419500Y30727900I0J75000D01*
G01*
X11419500Y30877900D01*
G75*
G02*
X11494500Y30952900I75000J0D01*
G01*
X12819500Y30952900D01*
G75*
G02*
X12894500Y30877900I0J-75000D01*
G01*
G37*
G36*
G01*
X12894500Y30377900D02*
X12894500Y30227900D01*
G75*
G02*
X12819500Y30152900I-75000J0D01*
G01*
X11494500Y30152900D01*
G75*
G02*
X11419500Y30227900I0J75000D01*
G01*
X11419500Y30377900D01*
G75*
G02*
X11494500Y30452900I75000J0D01*
G01*
X12819500Y30452900D01*
G75*
G02*
X12894500Y30377900I0J-75000D01*
G01*
G37*
G36*
G01*
X12894500Y29877900D02*
X12894500Y29727900D01*
G75*
G02*
X12819500Y29652900I-75000J0D01*
G01*
X11494500Y29652900D01*
G75*
G02*
X11419500Y29727900I0J75000D01*
G01*
X11419500Y29877900D01*
G75*
G02*
X11494500Y29952900I75000J0D01*
G01*
X12819500Y29952900D01*
G75*
G02*
X12894500Y29877900I0J-75000D01*
G01*
G37*
G36*
G01*
X12894500Y29377900D02*
X12894500Y29227900D01*
G75*
G02*
X12819500Y29152900I-75000J0D01*
G01*
X11494500Y29152900D01*
G75*
G02*
X11419500Y29227900I0J75000D01*
G01*
X11419500Y29377900D01*
G75*
G02*
X11494500Y29452900I75000J0D01*
G01*
X12819500Y29452900D01*
G75*
G02*
X12894500Y29377900I0J-75000D01*
G01*
G37*
G36*
G01*
X12894500Y28877900D02*
X12894500Y28727900D01*
G75*
G02*
X12819500Y28652900I-75000J0D01*
G01*
X11494500Y28652900D01*
G75*
G02*
X11419500Y28727900I0J75000D01*
G01*
X11419500Y28877900D01*
G75*
G02*
X11494500Y28952900I75000J0D01*
G01*
X12819500Y28952900D01*
G75*
G02*
X12894500Y28877900I0J-75000D01*
G01*
G37*
G36*
G01*
X12894500Y28377900D02*
X12894500Y28227900D01*
G75*
G02*
X12819500Y28152900I-75000J0D01*
G01*
X11494500Y28152900D01*
G75*
G02*
X11419500Y28227900I0J75000D01*
G01*
X11419500Y28377900D01*
G75*
G02*
X11494500Y28452900I75000J0D01*
G01*
X12819500Y28452900D01*
G75*
G02*
X12894500Y28377900I0J-75000D01*
G01*
G37*
G36*
G01*
X12894500Y27877900D02*
X12894500Y27727900D01*
G75*
G02*
X12819500Y27652900I-75000J0D01*
G01*
X11494500Y27652900D01*
G75*
G02*
X11419500Y27727900I0J75000D01*
G01*
X11419500Y27877900D01*
G75*
G02*
X11494500Y27952900I75000J0D01*
G01*
X12819500Y27952900D01*
G75*
G02*
X12894500Y27877900I0J-75000D01*
G01*
G37*
G36*
G01*
X12894500Y27377900D02*
X12894500Y27227900D01*
G75*
G02*
X12819500Y27152900I-75000J0D01*
G01*
X11494500Y27152900D01*
G75*
G02*
X11419500Y27227900I0J75000D01*
G01*
X11419500Y27377900D01*
G75*
G02*
X11494500Y27452900I75000J0D01*
G01*
X12819500Y27452900D01*
G75*
G02*
X12894500Y27377900I0J-75000D01*
G01*
G37*
G36*
G01*
X12894500Y26877900D02*
X12894500Y26727900D01*
G75*
G02*
X12819500Y26652900I-75000J0D01*
G01*
X11494500Y26652900D01*
G75*
G02*
X11419500Y26727900I0J75000D01*
G01*
X11419500Y26877900D01*
G75*
G02*
X11494500Y26952900I75000J0D01*
G01*
X12819500Y26952900D01*
G75*
G02*
X12894500Y26877900I0J-75000D01*
G01*
G37*
G36*
G01*
X13719500Y26052900D02*
X13719500Y24727900D01*
G75*
G02*
X13644500Y24652900I-75000J0D01*
G01*
X13494500Y24652900D01*
G75*
G02*
X13419500Y24727900I0J75000D01*
G01*
X13419500Y26052900D01*
G75*
G02*
X13494500Y26127900I75000J0D01*
G01*
X13644500Y26127900D01*
G75*
G02*
X13719500Y26052900I0J-75000D01*
G01*
G37*
G36*
G01*
X14219500Y26052900D02*
X14219500Y24727900D01*
G75*
G02*
X14144500Y24652900I-75000J0D01*
G01*
X13994500Y24652900D01*
G75*
G02*
X13919500Y24727900I0J75000D01*
G01*
X13919500Y26052900D01*
G75*
G02*
X13994500Y26127900I75000J0D01*
G01*
X14144500Y26127900D01*
G75*
G02*
X14219500Y26052900I0J-75000D01*
G01*
G37*
G36*
G01*
X14719500Y26052900D02*
X14719500Y24727900D01*
G75*
G02*
X14644500Y24652900I-75000J0D01*
G01*
X14494500Y24652900D01*
G75*
G02*
X14419500Y24727900I0J75000D01*
G01*
X14419500Y26052900D01*
G75*
G02*
X14494500Y26127900I75000J0D01*
G01*
X14644500Y26127900D01*
G75*
G02*
X14719500Y26052900I0J-75000D01*
G01*
G37*
G36*
G01*
X15219500Y26052900D02*
X15219500Y24727900D01*
G75*
G02*
X15144500Y24652900I-75000J0D01*
G01*
X14994500Y24652900D01*
G75*
G02*
X14919500Y24727900I0J75000D01*
G01*
X14919500Y26052900D01*
G75*
G02*
X14994500Y26127900I75000J0D01*
G01*
X15144500Y26127900D01*
G75*
G02*
X15219500Y26052900I0J-75000D01*
G01*
G37*
G36*
G01*
X15719500Y26052900D02*
X15719500Y24727900D01*
G75*
G02*
X15644500Y24652900I-75000J0D01*
G01*
X15494500Y24652900D01*
G75*
G02*
X15419500Y24727900I0J75000D01*
G01*
X15419500Y26052900D01*
G75*
G02*
X15494500Y26127900I75000J0D01*
G01*
X15644500Y26127900D01*
G75*
G02*
X15719500Y26052900I0J-75000D01*
G01*
G37*
G36*
G01*
X16219500Y26052900D02*
X16219500Y24727900D01*
G75*
G02*
X16144500Y24652900I-75000J0D01*
G01*
X15994500Y24652900D01*
G75*
G02*
X15919500Y24727900I0J75000D01*
G01*
X15919500Y26052900D01*
G75*
G02*
X15994500Y26127900I75000J0D01*
G01*
X16144500Y26127900D01*
G75*
G02*
X16219500Y26052900I0J-75000D01*
G01*
G37*
G36*
G01*
X16719500Y26052900D02*
X16719500Y24727900D01*
G75*
G02*
X16644500Y24652900I-75000J0D01*
G01*
X16494500Y24652900D01*
G75*
G02*
X16419500Y24727900I0J75000D01*
G01*
X16419500Y26052900D01*
G75*
G02*
X16494500Y26127900I75000J0D01*
G01*
X16644500Y26127900D01*
G75*
G02*
X16719500Y26052900I0J-75000D01*
G01*
G37*
G36*
G01*
X17219500Y26052900D02*
X17219500Y24727900D01*
G75*
G02*
X17144500Y24652900I-75000J0D01*
G01*
X16994500Y24652900D01*
G75*
G02*
X16919500Y24727900I0J75000D01*
G01*
X16919500Y26052900D01*
G75*
G02*
X16994500Y26127900I75000J0D01*
G01*
X17144500Y26127900D01*
G75*
G02*
X17219500Y26052900I0J-75000D01*
G01*
G37*
G36*
G01*
X17719500Y26052900D02*
X17719500Y24727900D01*
G75*
G02*
X17644500Y24652900I-75000J0D01*
G01*
X17494500Y24652900D01*
G75*
G02*
X17419500Y24727900I0J75000D01*
G01*
X17419500Y26052900D01*
G75*
G02*
X17494500Y26127900I75000J0D01*
G01*
X17644500Y26127900D01*
G75*
G02*
X17719500Y26052900I0J-75000D01*
G01*
G37*
G36*
G01*
X18219500Y26052900D02*
X18219500Y24727900D01*
G75*
G02*
X18144500Y24652900I-75000J0D01*
G01*
X17994500Y24652900D01*
G75*
G02*
X17919500Y24727900I0J75000D01*
G01*
X17919500Y26052900D01*
G75*
G02*
X17994500Y26127900I75000J0D01*
G01*
X18144500Y26127900D01*
G75*
G02*
X18219500Y26052900I0J-75000D01*
G01*
G37*
G36*
G01*
X18719500Y26052900D02*
X18719500Y24727900D01*
G75*
G02*
X18644500Y24652900I-75000J0D01*
G01*
X18494500Y24652900D01*
G75*
G02*
X18419500Y24727900I0J75000D01*
G01*
X18419500Y26052900D01*
G75*
G02*
X18494500Y26127900I75000J0D01*
G01*
X18644500Y26127900D01*
G75*
G02*
X18719500Y26052900I0J-75000D01*
G01*
G37*
G36*
G01*
X19219500Y26052900D02*
X19219500Y24727900D01*
G75*
G02*
X19144500Y24652900I-75000J0D01*
G01*
X18994500Y24652900D01*
G75*
G02*
X18919500Y24727900I0J75000D01*
G01*
X18919500Y26052900D01*
G75*
G02*
X18994500Y26127900I75000J0D01*
G01*
X19144500Y26127900D01*
G75*
G02*
X19219500Y26052900I0J-75000D01*
G01*
G37*
G36*
G01*
X21219500Y26877900D02*
X21219500Y26727900D01*
G75*
G02*
X21144500Y26652900I-75000J0D01*
G01*
X19819500Y26652900D01*
G75*
G02*
X19744500Y26727900I0J75000D01*
G01*
X19744500Y26877900D01*
G75*
G02*
X19819500Y26952900I75000J0D01*
G01*
X21144500Y26952900D01*
G75*
G02*
X21219500Y26877900I0J-75000D01*
G01*
G37*
G36*
G01*
X21219500Y27377900D02*
X21219500Y27227900D01*
G75*
G02*
X21144500Y27152900I-75000J0D01*
G01*
X19819500Y27152900D01*
G75*
G02*
X19744500Y27227900I0J75000D01*
G01*
X19744500Y27377900D01*
G75*
G02*
X19819500Y27452900I75000J0D01*
G01*
X21144500Y27452900D01*
G75*
G02*
X21219500Y27377900I0J-75000D01*
G01*
G37*
G36*
G01*
X21219500Y27877900D02*
X21219500Y27727900D01*
G75*
G02*
X21144500Y27652900I-75000J0D01*
G01*
X19819500Y27652900D01*
G75*
G02*
X19744500Y27727900I0J75000D01*
G01*
X19744500Y27877900D01*
G75*
G02*
X19819500Y27952900I75000J0D01*
G01*
X21144500Y27952900D01*
G75*
G02*
X21219500Y27877900I0J-75000D01*
G01*
G37*
G36*
G01*
X21219500Y28377900D02*
X21219500Y28227900D01*
G75*
G02*
X21144500Y28152900I-75000J0D01*
G01*
X19819500Y28152900D01*
G75*
G02*
X19744500Y28227900I0J75000D01*
G01*
X19744500Y28377900D01*
G75*
G02*
X19819500Y28452900I75000J0D01*
G01*
X21144500Y28452900D01*
G75*
G02*
X21219500Y28377900I0J-75000D01*
G01*
G37*
G36*
G01*
X21219500Y28877900D02*
X21219500Y28727900D01*
G75*
G02*
X21144500Y28652900I-75000J0D01*
G01*
X19819500Y28652900D01*
G75*
G02*
X19744500Y28727900I0J75000D01*
G01*
X19744500Y28877900D01*
G75*
G02*
X19819500Y28952900I75000J0D01*
G01*
X21144500Y28952900D01*
G75*
G02*
X21219500Y28877900I0J-75000D01*
G01*
G37*
G36*
G01*
X21219500Y29377900D02*
X21219500Y29227900D01*
G75*
G02*
X21144500Y29152900I-75000J0D01*
G01*
X19819500Y29152900D01*
G75*
G02*
X19744500Y29227900I0J75000D01*
G01*
X19744500Y29377900D01*
G75*
G02*
X19819500Y29452900I75000J0D01*
G01*
X21144500Y29452900D01*
G75*
G02*
X21219500Y29377900I0J-75000D01*
G01*
G37*
G36*
G01*
X21219500Y29877900D02*
X21219500Y29727900D01*
G75*
G02*
X21144500Y29652900I-75000J0D01*
G01*
X19819500Y29652900D01*
G75*
G02*
X19744500Y29727900I0J75000D01*
G01*
X19744500Y29877900D01*
G75*
G02*
X19819500Y29952900I75000J0D01*
G01*
X21144500Y29952900D01*
G75*
G02*
X21219500Y29877900I0J-75000D01*
G01*
G37*
G36*
G01*
X21219500Y30377900D02*
X21219500Y30227900D01*
G75*
G02*
X21144500Y30152900I-75000J0D01*
G01*
X19819500Y30152900D01*
G75*
G02*
X19744500Y30227900I0J75000D01*
G01*
X19744500Y30377900D01*
G75*
G02*
X19819500Y30452900I75000J0D01*
G01*
X21144500Y30452900D01*
G75*
G02*
X21219500Y30377900I0J-75000D01*
G01*
G37*
G36*
G01*
X21219500Y30877900D02*
X21219500Y30727900D01*
G75*
G02*
X21144500Y30652900I-75000J0D01*
G01*
X19819500Y30652900D01*
G75*
G02*
X19744500Y30727900I0J75000D01*
G01*
X19744500Y30877900D01*
G75*
G02*
X19819500Y30952900I75000J0D01*
G01*
X21144500Y30952900D01*
G75*
G02*
X21219500Y30877900I0J-75000D01*
G01*
G37*
G36*
G01*
X21219500Y31377900D02*
X21219500Y31227900D01*
G75*
G02*
X21144500Y31152900I-75000J0D01*
G01*
X19819500Y31152900D01*
G75*
G02*
X19744500Y31227900I0J75000D01*
G01*
X19744500Y31377900D01*
G75*
G02*
X19819500Y31452900I75000J0D01*
G01*
X21144500Y31452900D01*
G75*
G02*
X21219500Y31377900I0J-75000D01*
G01*
G37*
G36*
G01*
X21219500Y31877900D02*
X21219500Y31727900D01*
G75*
G02*
X21144500Y31652900I-75000J0D01*
G01*
X19819500Y31652900D01*
G75*
G02*
X19744500Y31727900I0J75000D01*
G01*
X19744500Y31877900D01*
G75*
G02*
X19819500Y31952900I75000J0D01*
G01*
X21144500Y31952900D01*
G75*
G02*
X21219500Y31877900I0J-75000D01*
G01*
G37*
G36*
G01*
X21219500Y32377900D02*
X21219500Y32227900D01*
G75*
G02*
X21144500Y32152900I-75000J0D01*
G01*
X19819500Y32152900D01*
G75*
G02*
X19744500Y32227900I0J75000D01*
G01*
X19744500Y32377900D01*
G75*
G02*
X19819500Y32452900I75000J0D01*
G01*
X21144500Y32452900D01*
G75*
G02*
X21219500Y32377900I0J-75000D01*
G01*
G37*
G04 #@! TD*
D24*
G04 #@! TO.C,IC502*
X20027900Y16560800D03*
D25*
X20027900Y19100800D03*
X20027900Y17830800D03*
G04 #@! TD*
D26*
G04 #@! TO.C,IC503*
X15036800Y18453100D03*
D27*
X12496800Y18453100D03*
G04 #@! TD*
D18*
G04 #@! TO.C,J101*
X4400000Y12100000D03*
X1860000Y13370000D03*
X4400000Y14640000D03*
X1860000Y15910000D03*
X4400000Y17180000D03*
X1860000Y18450000D03*
X4400000Y19720000D03*
X1860000Y20990000D03*
X4400000Y22260000D03*
X1860000Y23530000D03*
X4400000Y24800000D03*
X1860000Y26070000D03*
G04 #@! TD*
D28*
G04 #@! TO.C,J301*
X29184452Y4714558D03*
X25684452Y4714558D03*
D29*
X22184452Y4714558D03*
G04 #@! TD*
D28*
G04 #@! TO.C,J303*
X18600000Y4718000D03*
X15100000Y4718000D03*
D29*
X11600000Y4718000D03*
G04 #@! TD*
D28*
G04 #@! TO.C,J304*
X36300000Y4700000D03*
D29*
X32800000Y4700000D03*
G04 #@! TD*
D13*
G04 #@! TO.C,JP401*
G36*
X4779600Y8356600D02*
G01*
X5279600Y9106600D01*
X6279600Y9106600D01*
X6279600Y7606600D01*
X5279600Y7606600D01*
X4779600Y8356600D01*
G37*
G36*
X3829600Y9106600D02*
G01*
X4979600Y9106600D01*
X4479600Y8356600D01*
X4979600Y7606600D01*
X3829600Y7606600D01*
X3829600Y9106600D01*
G37*
G04 #@! TD*
G04 #@! TO.C,JP403*
G36*
X3699000Y39293800D02*
G01*
X4199000Y40043800D01*
X5199000Y40043800D01*
X5199000Y38543800D01*
X4199000Y38543800D01*
X3699000Y39293800D01*
G37*
G36*
X2749000Y40043800D02*
G01*
X3899000Y40043800D01*
X3399000Y39293800D01*
X3899000Y38543800D01*
X2749000Y38543800D01*
X2749000Y40043800D01*
G37*
G04 #@! TD*
G04 #@! TO.C,L202*
G36*
X42142300Y39871800D02*
G01*
X41170222Y39871800D01*
X41056878Y40067905D01*
X40911217Y40241361D01*
X40737659Y40386901D01*
X40541474Y40500107D01*
X40328618Y40577543D01*
X40105552Y40616858D01*
X39879048Y40616858D01*
X39655982Y40577543D01*
X39443126Y40500107D01*
X39246941Y40386901D01*
X39073383Y40241361D01*
X38927722Y40067905D01*
X38814378Y39871800D01*
X37842300Y39871800D01*
X37842300Y41471800D01*
X42142300Y41471800D01*
X42142300Y39871800D01*
G37*
G36*
X38927722Y38575695D02*
G01*
X39073383Y38402239D01*
X39246941Y38256699D01*
X39443126Y38143493D01*
X39655982Y38066057D01*
X39879048Y38026742D01*
X40105552Y38026742D01*
X40328618Y38066057D01*
X40541474Y38143493D01*
X40737659Y38256699D01*
X40911217Y38402239D01*
X41056878Y38575695D01*
X41170222Y38771800D01*
X42142300Y38771800D01*
X42142300Y37171800D01*
X37842300Y37171800D01*
X37842300Y38771800D01*
X38814378Y38771800D01*
X38927722Y38575695D01*
G37*
G04 #@! TD*
D21*
G04 #@! TO.C,T502*
X14198600Y15151100D03*
X16198600Y14201100D03*
X16198600Y16101100D03*
G04 #@! TD*
G04 #@! TO.C,R203*
G36*
G01*
X30245500Y27770500D02*
X30245500Y27220500D01*
G75*
G02*
X30045500Y27020500I-200000J0D01*
G01*
X29645500Y27020500D01*
G75*
G02*
X29445500Y27220500I0J200000D01*
G01*
X29445500Y27770500D01*
G75*
G02*
X29645500Y27970500I200000J0D01*
G01*
X30045500Y27970500D01*
G75*
G02*
X30245500Y27770500I0J-200000D01*
G01*
G37*
G36*
G01*
X31895500Y27770500D02*
X31895500Y27220500D01*
G75*
G02*
X31695500Y27020500I-200000J0D01*
G01*
X31295500Y27020500D01*
G75*
G02*
X31095500Y27220500I0J200000D01*
G01*
X31095500Y27770500D01*
G75*
G02*
X31295500Y27970500I200000J0D01*
G01*
X31695500Y27970500D01*
G75*
G02*
X31895500Y27770500I0J-200000D01*
G01*
G37*
G04 #@! TD*
G04 #@! TO.C,R204*
G36*
G01*
X27984000Y27245900D02*
X27984000Y27795900D01*
G75*
G02*
X28184000Y27995900I200000J0D01*
G01*
X28584000Y27995900D01*
G75*
G02*
X28784000Y27795900I0J-200000D01*
G01*
X28784000Y27245900D01*
G75*
G02*
X28584000Y27045900I-200000J0D01*
G01*
X28184000Y27045900D01*
G75*
G02*
X27984000Y27245900I0J200000D01*
G01*
G37*
G36*
G01*
X26334000Y27245900D02*
X26334000Y27795900D01*
G75*
G02*
X26534000Y27995900I200000J0D01*
G01*
X26934000Y27995900D01*
G75*
G02*
X27134000Y27795900I0J-200000D01*
G01*
X27134000Y27245900D01*
G75*
G02*
X26934000Y27045900I-200000J0D01*
G01*
X26534000Y27045900D01*
G75*
G02*
X26334000Y27245900I0J200000D01*
G01*
G37*
G04 #@! TD*
G04 #@! TO.C,R210*
G36*
G01*
X24540800Y27357520D02*
X25090800Y27357520D01*
G75*
G02*
X25290800Y27157520I0J-200000D01*
G01*
X25290800Y26757520D01*
G75*
G02*
X25090800Y26557520I-200000J0D01*
G01*
X24540800Y26557520D01*
G75*
G02*
X24340800Y26757520I0J200000D01*
G01*
X24340800Y27157520D01*
G75*
G02*
X24540800Y27357520I200000J0D01*
G01*
G37*
G36*
G01*
X24540800Y29007520D02*
X25090800Y29007520D01*
G75*
G02*
X25290800Y28807520I0J-200000D01*
G01*
X25290800Y28407520D01*
G75*
G02*
X25090800Y28207520I-200000J0D01*
G01*
X24540800Y28207520D01*
G75*
G02*
X24340800Y28407520I0J200000D01*
G01*
X24340800Y28807520D01*
G75*
G02*
X24540800Y29007520I200000J0D01*
G01*
G37*
G04 #@! TD*
G04 #@! TO.C,R213*
G36*
G01*
X24083600Y36620900D02*
X24633600Y36620900D01*
G75*
G02*
X24833600Y36420900I0J-200000D01*
G01*
X24833600Y36020900D01*
G75*
G02*
X24633600Y35820900I-200000J0D01*
G01*
X24083600Y35820900D01*
G75*
G02*
X23883600Y36020900I0J200000D01*
G01*
X23883600Y36420900D01*
G75*
G02*
X24083600Y36620900I200000J0D01*
G01*
G37*
G36*
G01*
X24083600Y38270900D02*
X24633600Y38270900D01*
G75*
G02*
X24833600Y38070900I0J-200000D01*
G01*
X24833600Y37670900D01*
G75*
G02*
X24633600Y37470900I-200000J0D01*
G01*
X24083600Y37470900D01*
G75*
G02*
X23883600Y37670900I0J200000D01*
G01*
X23883600Y38070900D01*
G75*
G02*
X24083600Y38270900I200000J0D01*
G01*
G37*
G04 #@! TD*
G04 #@! TO.C,R214*
G36*
G01*
X22944500Y37470900D02*
X22394500Y37470900D01*
G75*
G02*
X22194500Y37670900I0J200000D01*
G01*
X22194500Y38070900D01*
G75*
G02*
X22394500Y38270900I200000J0D01*
G01*
X22944500Y38270900D01*
G75*
G02*
X23144500Y38070900I0J-200000D01*
G01*
X23144500Y37670900D01*
G75*
G02*
X22944500Y37470900I-200000J0D01*
G01*
G37*
G36*
G01*
X22944500Y35820900D02*
X22394500Y35820900D01*
G75*
G02*
X22194500Y36020900I0J200000D01*
G01*
X22194500Y36420900D01*
G75*
G02*
X22394500Y36620900I200000J0D01*
G01*
X22944500Y36620900D01*
G75*
G02*
X23144500Y36420900I0J-200000D01*
G01*
X23144500Y36020900D01*
G75*
G02*
X22944500Y35820900I-200000J0D01*
G01*
G37*
G04 #@! TD*
G04 #@! TO.C,R303*
G36*
G01*
X16134400Y11256600D02*
X16134400Y11806600D01*
G75*
G02*
X16334400Y12006600I200000J0D01*
G01*
X16734400Y12006600D01*
G75*
G02*
X16934400Y11806600I0J-200000D01*
G01*
X16934400Y11256600D01*
G75*
G02*
X16734400Y11056600I-200000J0D01*
G01*
X16334400Y11056600D01*
G75*
G02*
X16134400Y11256600I0J200000D01*
G01*
G37*
G36*
G01*
X14484400Y11256600D02*
X14484400Y11806600D01*
G75*
G02*
X14684400Y12006600I200000J0D01*
G01*
X15084400Y12006600D01*
G75*
G02*
X15284400Y11806600I0J-200000D01*
G01*
X15284400Y11256600D01*
G75*
G02*
X15084400Y11056600I-200000J0D01*
G01*
X14684400Y11056600D01*
G75*
G02*
X14484400Y11256600I0J200000D01*
G01*
G37*
G04 #@! TD*
G04 #@! TO.C,R304*
G36*
G01*
X23945400Y13949000D02*
X23945400Y14499000D01*
G75*
G02*
X24145400Y14699000I200000J0D01*
G01*
X24545400Y14699000D01*
G75*
G02*
X24745400Y14499000I0J-200000D01*
G01*
X24745400Y13949000D01*
G75*
G02*
X24545400Y13749000I-200000J0D01*
G01*
X24145400Y13749000D01*
G75*
G02*
X23945400Y13949000I0J200000D01*
G01*
G37*
G36*
G01*
X22295400Y13949000D02*
X22295400Y14499000D01*
G75*
G02*
X22495400Y14699000I200000J0D01*
G01*
X22895400Y14699000D01*
G75*
G02*
X23095400Y14499000I0J-200000D01*
G01*
X23095400Y13949000D01*
G75*
G02*
X22895400Y13749000I-200000J0D01*
G01*
X22495400Y13749000D01*
G75*
G02*
X22295400Y13949000I0J200000D01*
G01*
G37*
G04 #@! TD*
G04 #@! TO.C,R306*
G36*
G01*
X22982600Y12058200D02*
X22432600Y12058200D01*
G75*
G02*
X22232600Y12258200I0J200000D01*
G01*
X22232600Y12658200D01*
G75*
G02*
X22432600Y12858200I200000J0D01*
G01*
X22982600Y12858200D01*
G75*
G02*
X23182600Y12658200I0J-200000D01*
G01*
X23182600Y12258200D01*
G75*
G02*
X22982600Y12058200I-200000J0D01*
G01*
G37*
G36*
G01*
X22982600Y10408200D02*
X22432600Y10408200D01*
G75*
G02*
X22232600Y10608200I0J200000D01*
G01*
X22232600Y11008200D01*
G75*
G02*
X22432600Y11208200I200000J0D01*
G01*
X22982600Y11208200D01*
G75*
G02*
X23182600Y11008200I0J-200000D01*
G01*
X23182600Y10608200D01*
G75*
G02*
X22982600Y10408200I-200000J0D01*
G01*
G37*
G04 #@! TD*
G04 #@! TO.C,R307*
G36*
G01*
X23932700Y8843600D02*
X23932700Y9393600D01*
G75*
G02*
X24132700Y9593600I200000J0D01*
G01*
X24532700Y9593600D01*
G75*
G02*
X24732700Y9393600I0J-200000D01*
G01*
X24732700Y8843600D01*
G75*
G02*
X24532700Y8643600I-200000J0D01*
G01*
X24132700Y8643600D01*
G75*
G02*
X23932700Y8843600I0J200000D01*
G01*
G37*
G36*
G01*
X22282700Y8843600D02*
X22282700Y9393600D01*
G75*
G02*
X22482700Y9593600I200000J0D01*
G01*
X22882700Y9593600D01*
G75*
G02*
X23082700Y9393600I0J-200000D01*
G01*
X23082700Y8843600D01*
G75*
G02*
X22882700Y8643600I-200000J0D01*
G01*
X22482700Y8643600D01*
G75*
G02*
X22282700Y8843600I0J200000D01*
G01*
G37*
G04 #@! TD*
G04 #@! TO.C,R308*
G36*
G01*
X11651800Y8665800D02*
X11651800Y9215800D01*
G75*
G02*
X11851800Y9415800I200000J0D01*
G01*
X12251800Y9415800D01*
G75*
G02*
X12451800Y9215800I0J-200000D01*
G01*
X12451800Y8665800D01*
G75*
G02*
X12251800Y8465800I-200000J0D01*
G01*
X11851800Y8465800D01*
G75*
G02*
X11651800Y8665800I0J200000D01*
G01*
G37*
G36*
G01*
X10001800Y8665800D02*
X10001800Y9215800D01*
G75*
G02*
X10201800Y9415800I200000J0D01*
G01*
X10601800Y9415800D01*
G75*
G02*
X10801800Y9215800I0J-200000D01*
G01*
X10801800Y8665800D01*
G75*
G02*
X10601800Y8465800I-200000J0D01*
G01*
X10201800Y8465800D01*
G75*
G02*
X10001800Y8665800I0J200000D01*
G01*
G37*
G04 #@! TD*
G04 #@! TO.C,R401*
G36*
G01*
X6927400Y41152400D02*
X6927400Y41702400D01*
G75*
G02*
X7127400Y41902400I200000J0D01*
G01*
X7527400Y41902400D01*
G75*
G02*
X7727400Y41702400I0J-200000D01*
G01*
X7727400Y41152400D01*
G75*
G02*
X7527400Y40952400I-200000J0D01*
G01*
X7127400Y40952400D01*
G75*
G02*
X6927400Y41152400I0J200000D01*
G01*
G37*
G36*
G01*
X5277400Y41152400D02*
X5277400Y41702400D01*
G75*
G02*
X5477400Y41902400I200000J0D01*
G01*
X5877400Y41902400D01*
G75*
G02*
X6077400Y41702400I0J-200000D01*
G01*
X6077400Y41152400D01*
G75*
G02*
X5877400Y40952400I-200000J0D01*
G01*
X5477400Y40952400D01*
G75*
G02*
X5277400Y41152400I0J200000D01*
G01*
G37*
G04 #@! TD*
G04 #@! TO.C,R402*
G36*
G01*
X6838500Y42701800D02*
X6838500Y43251800D01*
G75*
G02*
X7038500Y43451800I200000J0D01*
G01*
X7438500Y43451800D01*
G75*
G02*
X7638500Y43251800I0J-200000D01*
G01*
X7638500Y42701800D01*
G75*
G02*
X7438500Y42501800I-200000J0D01*
G01*
X7038500Y42501800D01*
G75*
G02*
X6838500Y42701800I0J200000D01*
G01*
G37*
G36*
G01*
X5188500Y42701800D02*
X5188500Y43251800D01*
G75*
G02*
X5388500Y43451800I200000J0D01*
G01*
X5788500Y43451800D01*
G75*
G02*
X5988500Y43251800I0J-200000D01*
G01*
X5988500Y42701800D01*
G75*
G02*
X5788500Y42501800I-200000J0D01*
G01*
X5388500Y42501800D01*
G75*
G02*
X5188500Y42701800I0J200000D01*
G01*
G37*
G04 #@! TD*
G04 #@! TO.C,R403*
G36*
G01*
X11957500Y40153000D02*
X11957500Y39603000D01*
G75*
G02*
X11757500Y39403000I-200000J0D01*
G01*
X11357500Y39403000D01*
G75*
G02*
X11157500Y39603000I0J200000D01*
G01*
X11157500Y40153000D01*
G75*
G02*
X11357500Y40353000I200000J0D01*
G01*
X11757500Y40353000D01*
G75*
G02*
X11957500Y40153000I0J-200000D01*
G01*
G37*
G36*
G01*
X13607500Y40153000D02*
X13607500Y39603000D01*
G75*
G02*
X13407500Y39403000I-200000J0D01*
G01*
X13007500Y39403000D01*
G75*
G02*
X12807500Y39603000I0J200000D01*
G01*
X12807500Y40153000D01*
G75*
G02*
X13007500Y40353000I200000J0D01*
G01*
X13407500Y40353000D01*
G75*
G02*
X13607500Y40153000I0J-200000D01*
G01*
G37*
G04 #@! TD*
G04 #@! TO.C,R404*
G36*
G01*
X11957500Y41727800D02*
X11957500Y41177800D01*
G75*
G02*
X11757500Y40977800I-200000J0D01*
G01*
X11357500Y40977800D01*
G75*
G02*
X11157500Y41177800I0J200000D01*
G01*
X11157500Y41727800D01*
G75*
G02*
X11357500Y41927800I200000J0D01*
G01*
X11757500Y41927800D01*
G75*
G02*
X11957500Y41727800I0J-200000D01*
G01*
G37*
G36*
G01*
X13607500Y41727800D02*
X13607500Y41177800D01*
G75*
G02*
X13407500Y40977800I-200000J0D01*
G01*
X13007500Y40977800D01*
G75*
G02*
X12807500Y41177800I0J200000D01*
G01*
X12807500Y41727800D01*
G75*
G02*
X13007500Y41927800I200000J0D01*
G01*
X13407500Y41927800D01*
G75*
G02*
X13607500Y41727800I0J-200000D01*
G01*
G37*
G04 #@! TD*
G04 #@! TO.C,R405*
G36*
G01*
X7093400Y11171600D02*
X7093400Y10621600D01*
G75*
G02*
X6893400Y10421600I-200000J0D01*
G01*
X6493400Y10421600D01*
G75*
G02*
X6293400Y10621600I0J200000D01*
G01*
X6293400Y11171600D01*
G75*
G02*
X6493400Y11371600I200000J0D01*
G01*
X6893400Y11371600D01*
G75*
G02*
X7093400Y11171600I0J-200000D01*
G01*
G37*
G36*
G01*
X8743400Y11171600D02*
X8743400Y10621600D01*
G75*
G02*
X8543400Y10421600I-200000J0D01*
G01*
X8143400Y10421600D01*
G75*
G02*
X7943400Y10621600I0J200000D01*
G01*
X7943400Y11171600D01*
G75*
G02*
X8143400Y11371600I200000J0D01*
G01*
X8543400Y11371600D01*
G75*
G02*
X8743400Y11171600I0J-200000D01*
G01*
G37*
G04 #@! TD*
G04 #@! TO.C,R406*
G36*
G01*
X6750500Y21293500D02*
X6750500Y20743500D01*
G75*
G02*
X6550500Y20543500I-200000J0D01*
G01*
X6150500Y20543500D01*
G75*
G02*
X5950500Y20743500I0J200000D01*
G01*
X5950500Y21293500D01*
G75*
G02*
X6150500Y21493500I200000J0D01*
G01*
X6550500Y21493500D01*
G75*
G02*
X6750500Y21293500I0J-200000D01*
G01*
G37*
G36*
G01*
X8400500Y21293500D02*
X8400500Y20743500D01*
G75*
G02*
X8200500Y20543500I-200000J0D01*
G01*
X7800500Y20543500D01*
G75*
G02*
X7600500Y20743500I0J200000D01*
G01*
X7600500Y21293500D01*
G75*
G02*
X7800500Y21493500I200000J0D01*
G01*
X8200500Y21493500D01*
G75*
G02*
X8400500Y21293500I0J-200000D01*
G01*
G37*
G04 #@! TD*
G04 #@! TO.C,R407*
G36*
G01*
X6750500Y19807600D02*
X6750500Y19257600D01*
G75*
G02*
X6550500Y19057600I-200000J0D01*
G01*
X6150500Y19057600D01*
G75*
G02*
X5950500Y19257600I0J200000D01*
G01*
X5950500Y19807600D01*
G75*
G02*
X6150500Y20007600I200000J0D01*
G01*
X6550500Y20007600D01*
G75*
G02*
X6750500Y19807600I0J-200000D01*
G01*
G37*
G36*
G01*
X8400500Y19807600D02*
X8400500Y19257600D01*
G75*
G02*
X8200500Y19057600I-200000J0D01*
G01*
X7800500Y19057600D01*
G75*
G02*
X7600500Y19257600I0J200000D01*
G01*
X7600500Y19807600D01*
G75*
G02*
X7800500Y20007600I200000J0D01*
G01*
X8200500Y20007600D01*
G75*
G02*
X8400500Y19807600I0J-200000D01*
G01*
G37*
G04 #@! TD*
G04 #@! TO.C,R408*
G36*
G01*
X10712900Y14841900D02*
X10712900Y14291900D01*
G75*
G02*
X10512900Y14091900I-200000J0D01*
G01*
X10112900Y14091900D01*
G75*
G02*
X9912900Y14291900I0J200000D01*
G01*
X9912900Y14841900D01*
G75*
G02*
X10112900Y15041900I200000J0D01*
G01*
X10512900Y15041900D01*
G75*
G02*
X10712900Y14841900I0J-200000D01*
G01*
G37*
G36*
G01*
X12362900Y14841900D02*
X12362900Y14291900D01*
G75*
G02*
X12162900Y14091900I-200000J0D01*
G01*
X11762900Y14091900D01*
G75*
G02*
X11562900Y14291900I0J200000D01*
G01*
X11562900Y14841900D01*
G75*
G02*
X11762900Y15041900I200000J0D01*
G01*
X12162900Y15041900D01*
G75*
G02*
X12362900Y14841900I0J-200000D01*
G01*
G37*
G04 #@! TD*
G04 #@! TO.C,R409*
G36*
G01*
X24684400Y32073400D02*
X24134400Y32073400D01*
G75*
G02*
X23934400Y32273400I0J200000D01*
G01*
X23934400Y32673400D01*
G75*
G02*
X24134400Y32873400I200000J0D01*
G01*
X24684400Y32873400D01*
G75*
G02*
X24884400Y32673400I0J-200000D01*
G01*
X24884400Y32273400D01*
G75*
G02*
X24684400Y32073400I-200000J0D01*
G01*
G37*
G36*
G01*
X24684400Y30423400D02*
X24134400Y30423400D01*
G75*
G02*
X23934400Y30623400I0J200000D01*
G01*
X23934400Y31023400D01*
G75*
G02*
X24134400Y31223400I200000J0D01*
G01*
X24684400Y31223400D01*
G75*
G02*
X24884400Y31023400I0J-200000D01*
G01*
X24884400Y30623400D01*
G75*
G02*
X24684400Y30423400I-200000J0D01*
G01*
G37*
G04 #@! TD*
G04 #@! TO.C,R410*
G36*
G01*
X24034300Y33710200D02*
X24034300Y34260200D01*
G75*
G02*
X24234300Y34460200I200000J0D01*
G01*
X24634300Y34460200D01*
G75*
G02*
X24834300Y34260200I0J-200000D01*
G01*
X24834300Y33710200D01*
G75*
G02*
X24634300Y33510200I-200000J0D01*
G01*
X24234300Y33510200D01*
G75*
G02*
X24034300Y33710200I0J200000D01*
G01*
G37*
G36*
G01*
X22384300Y33710200D02*
X22384300Y34260200D01*
G75*
G02*
X22584300Y34460200I200000J0D01*
G01*
X22984300Y34460200D01*
G75*
G02*
X23184300Y34260200I0J-200000D01*
G01*
X23184300Y33710200D01*
G75*
G02*
X22984300Y33510200I-200000J0D01*
G01*
X22584300Y33510200D01*
G75*
G02*
X22384300Y33710200I0J200000D01*
G01*
G37*
G04 #@! TD*
G04 #@! TO.C,R501*
G36*
G01*
X32921760Y18419400D02*
X32921760Y18969400D01*
G75*
G02*
X33121760Y19169400I200000J0D01*
G01*
X33521760Y19169400D01*
G75*
G02*
X33721760Y18969400I0J-200000D01*
G01*
X33721760Y18419400D01*
G75*
G02*
X33521760Y18219400I-200000J0D01*
G01*
X33121760Y18219400D01*
G75*
G02*
X32921760Y18419400I0J200000D01*
G01*
G37*
G36*
G01*
X31271760Y18419400D02*
X31271760Y18969400D01*
G75*
G02*
X31471760Y19169400I200000J0D01*
G01*
X31871760Y19169400D01*
G75*
G02*
X32071760Y18969400I0J-200000D01*
G01*
X32071760Y18419400D01*
G75*
G02*
X31871760Y18219400I-200000J0D01*
G01*
X31471760Y18219400D01*
G75*
G02*
X31271760Y18419400I0J200000D01*
G01*
G37*
G04 #@! TD*
G04 #@! TO.C,R503*
G36*
G01*
X26830700Y17074700D02*
X26280700Y17074700D01*
G75*
G02*
X26080700Y17274700I0J200000D01*
G01*
X26080700Y17674700D01*
G75*
G02*
X26280700Y17874700I200000J0D01*
G01*
X26830700Y17874700D01*
G75*
G02*
X27030700Y17674700I0J-200000D01*
G01*
X27030700Y17274700D01*
G75*
G02*
X26830700Y17074700I-200000J0D01*
G01*
G37*
G36*
G01*
X26830700Y15424700D02*
X26280700Y15424700D01*
G75*
G02*
X26080700Y15624700I0J200000D01*
G01*
X26080700Y16024700D01*
G75*
G02*
X26280700Y16224700I200000J0D01*
G01*
X26830700Y16224700D01*
G75*
G02*
X27030700Y16024700I0J-200000D01*
G01*
X27030700Y15624700D01*
G75*
G02*
X26830700Y15424700I-200000J0D01*
G01*
G37*
G04 #@! TD*
G04 #@! TO.C,R504*
G36*
G01*
X24346720Y18353360D02*
X24346720Y18903360D01*
G75*
G02*
X24546720Y19103360I200000J0D01*
G01*
X24946720Y19103360D01*
G75*
G02*
X25146720Y18903360I0J-200000D01*
G01*
X25146720Y18353360D01*
G75*
G02*
X24946720Y18153360I-200000J0D01*
G01*
X24546720Y18153360D01*
G75*
G02*
X24346720Y18353360I0J200000D01*
G01*
G37*
G36*
G01*
X22696720Y18353360D02*
X22696720Y18903360D01*
G75*
G02*
X22896720Y19103360I200000J0D01*
G01*
X23296720Y19103360D01*
G75*
G02*
X23496720Y18903360I0J-200000D01*
G01*
X23496720Y18353360D01*
G75*
G02*
X23296720Y18153360I-200000J0D01*
G01*
X22896720Y18153360D01*
G75*
G02*
X22696720Y18353360I0J200000D01*
G01*
G37*
G04 #@! TD*
G04 #@! TO.C,R505*
G36*
G01*
X24372120Y19923080D02*
X24372120Y20473080D01*
G75*
G02*
X24572120Y20673080I200000J0D01*
G01*
X24972120Y20673080D01*
G75*
G02*
X25172120Y20473080I0J-200000D01*
G01*
X25172120Y19923080D01*
G75*
G02*
X24972120Y19723080I-200000J0D01*
G01*
X24572120Y19723080D01*
G75*
G02*
X24372120Y19923080I0J200000D01*
G01*
G37*
G36*
G01*
X22722120Y19923080D02*
X22722120Y20473080D01*
G75*
G02*
X22922120Y20673080I200000J0D01*
G01*
X23322120Y20673080D01*
G75*
G02*
X23522120Y20473080I0J-200000D01*
G01*
X23522120Y19923080D01*
G75*
G02*
X23322120Y19723080I-200000J0D01*
G01*
X22922120Y19723080D01*
G75*
G02*
X22722120Y19923080I0J200000D01*
G01*
G37*
G04 #@! TD*
G04 #@! TO.C,R506*
G36*
G01*
X17530400Y14776900D02*
X18080400Y14776900D01*
G75*
G02*
X18280400Y14576900I0J-200000D01*
G01*
X18280400Y14176900D01*
G75*
G02*
X18080400Y13976900I-200000J0D01*
G01*
X17530400Y13976900D01*
G75*
G02*
X17330400Y14176900I0J200000D01*
G01*
X17330400Y14576900D01*
G75*
G02*
X17530400Y14776900I200000J0D01*
G01*
G37*
G36*
G01*
X17530400Y16426900D02*
X18080400Y16426900D01*
G75*
G02*
X18280400Y16226900I0J-200000D01*
G01*
X18280400Y15826900D01*
G75*
G02*
X18080400Y15626900I-200000J0D01*
G01*
X17530400Y15626900D01*
G75*
G02*
X17330400Y15826900I0J200000D01*
G01*
X17330400Y16226900D01*
G75*
G02*
X17530400Y16426900I200000J0D01*
G01*
G37*
G04 #@! TD*
D30*
G04 #@! TO.C,T501*
X29210000Y17846800D03*
X30160000Y19846800D03*
X28260000Y19846800D03*
G04 #@! TD*
D19*
G04 #@! TO.C,TP401*
X5067300Y36969700D03*
G04 #@! TD*
G04 #@! TO.C,TP402*
X5054600Y34912300D03*
G04 #@! TD*
G04 #@! TO.C,TP403*
X6896100Y35890200D03*
G04 #@! TD*
G04 #@! TO.C,TP404*
X5118100Y32842200D03*
G04 #@! TD*
G04 #@! TO.C,TP405*
X6896100Y33845500D03*
G04 #@! TD*
G04 #@! TO.C,TP406*
X5092700Y30797500D03*
G04 #@! TD*
D31*
G04 #@! TO.C,JP404*
X5689600Y27025600D03*
D13*
G36*
X6989600Y27774998D02*
G01*
X7014134Y27774998D01*
X7062965Y27770188D01*
X7111090Y27760616D01*
X7158045Y27746372D01*
X7203378Y27727595D01*
X7246651Y27704464D01*
X7287450Y27677204D01*
X7325379Y27646076D01*
X7360076Y27611379D01*
X7391204Y27573450D01*
X7418464Y27532651D01*
X7441595Y27489378D01*
X7460372Y27444045D01*
X7474616Y27397090D01*
X7484188Y27348965D01*
X7488998Y27300134D01*
X7488998Y27275600D01*
X7489600Y27275600D01*
X7489600Y26775600D01*
X7488998Y26775600D01*
X7488998Y26751066D01*
X7484188Y26702235D01*
X7474616Y26654110D01*
X7460372Y26607155D01*
X7441595Y26561822D01*
X7418464Y26518549D01*
X7391204Y26477750D01*
X7360076Y26439821D01*
X7325379Y26405124D01*
X7287450Y26373996D01*
X7246651Y26346736D01*
X7203378Y26323605D01*
X7158045Y26304828D01*
X7111090Y26290584D01*
X7062965Y26281012D01*
X7014134Y26276202D01*
X6989600Y26276202D01*
X6989600Y26275600D01*
X6439600Y26275600D01*
X6439600Y27775600D01*
X6989600Y27775600D01*
X6989600Y27774998D01*
G37*
G36*
X4939600Y26275600D02*
G01*
X4389600Y26275600D01*
X4389600Y26276202D01*
X4365066Y26276202D01*
X4316235Y26281012D01*
X4268110Y26290584D01*
X4221155Y26304828D01*
X4175822Y26323605D01*
X4132549Y26346736D01*
X4091750Y26373996D01*
X4053821Y26405124D01*
X4019124Y26439821D01*
X3987996Y26477750D01*
X3960736Y26518549D01*
X3937605Y26561822D01*
X3918828Y26607155D01*
X3904584Y26654110D01*
X3895012Y26702235D01*
X3890202Y26751066D01*
X3890202Y26775600D01*
X3889600Y26775600D01*
X3889600Y27275600D01*
X3890202Y27275600D01*
X3890202Y27300134D01*
X3895012Y27348965D01*
X3904584Y27397090D01*
X3918828Y27444045D01*
X3937605Y27489378D01*
X3960736Y27532651D01*
X3987996Y27573450D01*
X4019124Y27611379D01*
X4053821Y27646076D01*
X4091750Y27677204D01*
X4132549Y27704464D01*
X4175822Y27727595D01*
X4221155Y27746372D01*
X4268110Y27760616D01*
X4316235Y27770188D01*
X4365066Y27774998D01*
X4389600Y27774998D01*
X4389600Y27775600D01*
X4939600Y27775600D01*
X4939600Y26275600D01*
G37*
G04 #@! TD*
D32*
G04 #@! TO.C,J401*
X7937500Y45034200D03*
X6921500Y39954200D03*
X8953500Y39954200D03*
G04 #@! TD*
G04 #@! TO.C,J402*
X2816000Y36920000D03*
X1800000Y29300000D03*
X3832000Y29300000D03*
G04 #@! TD*
D33*
X28199080Y31917640D03*
D34*
X32222440Y33116520D03*
D33*
X29311600Y32379920D03*
X38455600Y33147000D03*
X31866840Y45628560D03*
X12816840Y25369520D03*
X8128000Y27051000D03*
X9271000Y44450000D03*
X12271629Y32914090D03*
X12776200Y42468800D03*
X19707959Y33859768D03*
X3898900Y41973500D03*
X20980400Y33235900D03*
X26797000Y42773600D03*
X21666045Y28644223D03*
X23609300Y36969700D03*
X15752440Y17081289D03*
X38315900Y42291000D03*
X39814500Y43675300D03*
X41351200Y43649900D03*
X24582120Y24003000D03*
X18741449Y23994051D03*
X25603200Y39306500D03*
X17544490Y24402498D03*
X18059400Y23469604D03*
X25082500Y37084000D03*
X42367198Y10464800D03*
X43827700Y10464800D03*
X32346900Y11861800D03*
X22834600Y27432002D03*
X21932900Y30734000D03*
X27391360Y16596360D03*
X25700396Y13926904D03*
X14465300Y16014700D03*
X13400332Y11072622D03*
X23439120Y10099040D03*
X23500080Y13172440D03*
X42351960Y11699240D03*
X43840400Y11722100D03*
X11252200Y8006080D03*
X25019000Y33185100D03*
X24892000Y34798000D03*
X28194000Y28737560D03*
X40294829Y38383100D03*
X4267200Y35941000D03*
X18948400Y30543500D03*
X11203963Y36173910D03*
X28727400Y40195500D03*
X28702000Y43789600D03*
X30137100Y46583600D03*
X15608300Y37084000D03*
X17348200Y36258500D03*
X17375831Y29288046D03*
X16103600Y36360100D03*
X16450810Y28598610D03*
X14795500Y38493700D03*
X15108690Y26997665D03*
X12357100Y38608000D03*
X19697700Y24053800D03*
X19994110Y35699700D03*
X16709227Y26472451D03*
X10693400Y17653000D03*
X10168390Y18259460D03*
X9702800Y19151600D03*
X9283700Y19862802D03*
X7150100Y25057100D03*
X6134100Y23685020D03*
X9779000Y41910000D03*
X9842500Y29159200D03*
X9118600Y29743400D03*
X9258300Y38900100D03*
X6477000Y43053000D03*
X6362700Y30632400D03*
X10278610Y40421349D03*
X10672789Y30591084D03*
X9271000Y41160700D03*
X3797300Y37782500D03*
X10913433Y36930638D03*
X10680698Y31508700D03*
X1270000Y31496000D03*
X5689600Y33896300D03*
X4394200Y31826200D03*
X10972800Y35483800D03*
X15925800Y35433000D03*
X12763500Y21031200D03*
X5969000Y18567400D03*
X15951200Y23418800D03*
X21141683Y20627805D03*
X17219121Y35160592D03*
X13381490Y21698505D03*
X16918553Y23974342D03*
X24447500Y22339300D03*
X15673879Y32432149D03*
X26217880Y18826480D03*
X23901400Y19090640D03*
X22270720Y18796000D03*
X1689100Y36398200D03*
X1142996Y30607000D03*
X4064000Y33782000D03*
X17653000Y10622280D03*
X11277600Y11333480D03*
X22199600Y16413480D03*
X30540960Y18669000D03*
X30734000Y36195000D03*
X45593000Y33782000D03*
X45212000Y32766000D03*
X42164000Y32893000D03*
X12954000Y14605000D03*
X28930600Y44602400D03*
X35041840Y29230320D03*
X37930590Y30088840D03*
X38153340Y39311580D03*
X16997680Y12913360D03*
X13065760Y8046720D03*
X14381480Y13116560D03*
X12938760Y12369800D03*
X12938760Y13512800D03*
X41686480Y23017480D03*
X41422320Y18846800D03*
X24683720Y16774160D03*
X30275174Y14446550D03*
X25303480Y11668760D03*
X13345160Y27594560D03*
X25908000Y28702000D03*
X13462000Y42926000D03*
X18669000Y38227000D03*
X1270000Y32258000D03*
X24919505Y31622516D03*
X14623868Y32255982D03*
X18269132Y35107880D03*
X28609590Y34877298D03*
X7747000Y37871400D03*
X11264900Y38290500D03*
X7048500Y29324300D03*
X11976100Y23558500D03*
X8547100Y23761700D03*
X8648700Y14389100D03*
X6896100Y9893300D03*
X6921500Y4800600D03*
X18999200Y8915400D03*
X23368000Y8013700D03*
X20726400Y14757400D03*
X39916100Y3886200D03*
X44869100Y9093200D03*
X30861000Y2362200D03*
X13957300Y2298700D03*
X35115500Y25565100D03*
X41795700Y28321000D03*
X46570900Y32626300D03*
X28473400Y23304500D03*
X36728400Y37833300D03*
X33007300Y41986200D03*
X33134300Y33451800D03*
X39331900Y45466000D03*
X21907500Y46189900D03*
X21666200Y43014900D03*
X16065500Y42875200D03*
X18669000Y42659300D03*
X9982200Y46151800D03*
X16332200Y27724100D03*
X14541500Y28321000D03*
X22085300Y29718000D03*
X8293100Y33413700D03*
X8331200Y35674300D03*
X7937500Y31254700D03*
X901700Y38290500D03*
X3467100Y18402300D03*
X1460500Y11645900D03*
X4867039Y42199161D03*
X46367700Y38773100D03*
X43180000Y42011600D03*
X36398200Y42151300D03*
X40589200Y39408100D03*
X32842200Y36779200D03*
X18872200Y29133800D03*
X15570200Y21285200D03*
X20398279Y23533100D03*
X21907500Y36957000D03*
X29781500Y10883900D03*
X13309600Y16713200D03*
X13906500Y23685500D03*
X16256000Y18732500D03*
X18834100Y14528800D03*
X11079480Y14755602D03*
X11366500Y19126200D03*
M02*
