G04 #@! TF.GenerationSoftware,KiCad,Pcbnew,5.1.12*
G04 #@! TF.CreationDate,2022-08-14T20:08:33+02:00*
G04 #@! TF.ProjectId,hec-base,6865632d-6261-4736-952e-6b696361645f,0001*
G04 #@! TF.SameCoordinates,PX4cec620PY8f8c0c0*
G04 #@! TF.FileFunction,Legend,Top*
G04 #@! TF.FilePolarity,Positive*
%FSLAX46Y46*%
G04 Gerber Fmt 4.6, Leading zero omitted, Abs format (unit mm)*
G04 Created by KiCad (PCBNEW 5.1.12) date 2022-08-14 20:08:33*
%MOMM*%
%LPD*%
G01*
G04 APERTURE LIST*
G04 #@! TA.AperFunction,Profile*
%ADD10C,0.200000*%
G04 #@! TD*
%ADD11C,0.120000*%
%ADD12C,0.150000*%
%ADD13C,0.100000*%
%ADD14C,0.060000*%
%ADD15C,1.500000*%
%ADD16R,1.500000X3.000000*%
%ADD17C,0.800000*%
%ADD18O,2.000000X1.200000*%
%ADD19C,1.000000*%
%ADD20R,2.300000X2.500000*%
%ADD21R,0.400000X0.650000*%
%ADD22R,1.500000X1.050000*%
%ADD23O,1.500000X1.050000*%
%ADD24R,1.050000X1.500000*%
%ADD25O,1.050000X1.500000*%
%ADD26C,2.300000*%
%ADD27R,2.300000X2.300000*%
%ADD28R,2.000000X1.200000*%
%ADD29R,2.000000X4.500000*%
%ADD30C,0.787400*%
%ADD31C,0.990600*%
%ADD32C,0.450000*%
%ADD33C,0.500000*%
G04 APERTURE END LIST*
D10*
X47811560Y9541500D02*
X47811560Y38296900D01*
X47310460Y39114620D02*
X46483160Y40318400D01*
X9533860Y19200D02*
X38289260Y19200D01*
X512665Y8723800D02*
X1340000Y7520000D01*
X40310760Y46490760D02*
X39106960Y47318095D01*
X47310460Y8723800D02*
X47811560Y9541500D01*
X47811560Y38296900D02*
X47310460Y39114620D01*
X2229200Y41477230D02*
X1340000Y40318400D01*
X512665Y39114620D02*
X11566Y38296900D01*
X3177830Y42587930D02*
X2229200Y41477230D01*
X8716140Y520300D02*
X9533860Y19200D01*
X7512360Y46490760D02*
X6353530Y45601560D01*
X42580260Y44652930D02*
X41469560Y45601560D01*
X5242830Y3185500D02*
X6353530Y2236800D01*
X46483160Y40318400D02*
X45593960Y41477230D01*
X2229200Y6361200D02*
X3177830Y5250500D01*
X40310760Y1347600D02*
X41469560Y2236800D01*
X6353530Y45601560D02*
X5242830Y44652930D01*
X41469560Y45601560D02*
X40310760Y46490760D01*
X38289260Y19200D02*
X39106960Y520300D01*
X7512360Y1347600D02*
X8716140Y520300D01*
X45593960Y41477230D02*
X44645260Y42587930D01*
X46483160Y7520000D02*
X47310460Y8723800D01*
X3177830Y5250500D02*
X4183290Y4190900D01*
X1340000Y40318400D02*
X512665Y39114620D01*
X4183290Y43647470D02*
X3177830Y42587930D01*
X44645260Y42587930D02*
X43639860Y43647470D01*
X39106960Y520300D02*
X40310760Y1347600D01*
X44645260Y5250500D02*
X45593960Y6361200D01*
X41469560Y2236800D02*
X42580260Y3185500D01*
X4183290Y4190900D02*
X5242830Y3185500D01*
X8716140Y47318095D02*
X7512360Y46490760D01*
X43639860Y4190900D02*
X44645260Y5250500D01*
X42580260Y3185500D02*
X43639860Y4190900D01*
X11566Y9541500D02*
X512665Y8723800D01*
X43639860Y43647470D02*
X42580260Y44652930D01*
X45593960Y6361200D02*
X46483160Y7520000D01*
X5242830Y44652930D02*
X4183290Y43647470D01*
X39106960Y47318095D02*
X38289260Y47819194D01*
X6353530Y2236800D02*
X7512360Y1347600D01*
X38289260Y47819194D02*
X9533860Y47819194D01*
X11566Y38296900D02*
X11566Y9541500D01*
X9533860Y47819194D02*
X8716140Y47318095D01*
X1340000Y7520000D02*
X2229200Y6361200D01*
D11*
G04 #@! TO.C,J103*
X22278600Y40591100D02*
X22778600Y40591100D01*
X22778600Y40591100D02*
X22778600Y45591100D01*
X22778600Y45591100D02*
X21008600Y45591100D01*
X12468600Y40591100D02*
X10698600Y40591100D01*
X10698600Y40591100D02*
X10698600Y41841100D01*
X10698600Y41841100D02*
X11398600Y41841100D01*
X11398600Y41841100D02*
X11398600Y44341100D01*
X11398600Y44341100D02*
X10698600Y44341100D01*
X10698600Y44341100D02*
X10698600Y45591100D01*
X10698600Y45591100D02*
X11198600Y45591100D01*
D12*
G04 #@! TO.C,FL202*
X38846760Y32618680D02*
X38846760Y33279080D01*
X43477180Y33309560D02*
X41404540Y33309560D01*
X41402000Y33309560D02*
X41402000Y32618680D01*
X41402000Y32618680D02*
X38846760Y32618680D01*
X38846760Y33279080D02*
X36756340Y33281620D01*
X41407080Y35605720D02*
X43497500Y35603180D01*
X41407080Y36266120D02*
X41407080Y35605720D01*
X38851840Y36266120D02*
X41407080Y36266120D01*
X38851840Y35575240D02*
X38851840Y36266120D01*
X36776660Y35575240D02*
X38849300Y35575240D01*
G04 #@! TO.C,FL201*
X28864560Y21582380D02*
X28864560Y22242780D01*
X33494980Y22273260D02*
X31422340Y22273260D01*
X31419800Y22273260D02*
X31419800Y21582380D01*
X31419800Y21582380D02*
X28864560Y21582380D01*
X28864560Y22242780D02*
X26774140Y22245320D01*
X31424880Y24569420D02*
X33515300Y24566880D01*
X31424880Y25229820D02*
X31424880Y24569420D01*
X28869640Y25229820D02*
X31424880Y25229820D01*
X28869640Y24538940D02*
X28869640Y25229820D01*
X26794460Y24538940D02*
X28867100Y24538940D01*
G04 #@! TO.C,FL501*
X31264860Y17023080D02*
X31264860Y17683480D01*
X35895280Y17713960D02*
X33822640Y17713960D01*
X33820100Y17713960D02*
X33820100Y17023080D01*
X33820100Y17023080D02*
X31264860Y17023080D01*
X31264860Y17683480D02*
X29174440Y17686020D01*
X33825180Y20010120D02*
X35915600Y20007580D01*
X33825180Y20670520D02*
X33825180Y20010120D01*
X31269940Y20670520D02*
X33825180Y20670520D01*
X31269940Y19979640D02*
X31269940Y20670520D01*
X29194760Y19979640D02*
X31267400Y19979640D01*
D11*
G04 #@! TO.C,J102*
X47310000Y10997640D02*
X47310000Y24612220D01*
X42304300Y22254920D02*
X43802900Y22254920D01*
X42304300Y19720000D02*
X43802900Y19720000D01*
X42304300Y17177460D02*
X43802900Y17177460D01*
X42304300Y14637460D02*
X43802900Y14637460D01*
X42304300Y12097460D02*
X43802900Y12097460D01*
X45653333Y12902640D02*
X45653333Y13842440D01*
X45653333Y15442640D02*
X45653333Y16379900D01*
X45653333Y17980100D02*
X45653333Y18919900D01*
X45653333Y20522640D02*
X45653333Y21464980D01*
X45653333Y23044860D02*
X45653333Y24612220D01*
X43806667Y22729900D02*
X43806667Y21792640D01*
X43806667Y20192440D02*
X43806667Y19252640D01*
X47310000Y24612220D02*
X45653333Y24612220D01*
X45653333Y24612220D02*
X45653333Y25147220D01*
X45653333Y25147220D02*
X43806667Y25147220D01*
X43806667Y25147220D02*
X43806667Y24612220D01*
X43806667Y24612220D02*
X42310000Y24612220D01*
X43806667Y10997460D02*
X42310000Y10997460D01*
X43806667Y10465000D02*
X43806667Y10997460D01*
X47310000Y10997460D02*
X45653333Y10997460D01*
X45653333Y10465000D02*
X43806667Y10465000D01*
X45653333Y10997460D02*
X45653333Y10465000D01*
X45653333Y10997460D02*
X45653333Y11294820D01*
X43806667Y24612220D02*
X43806667Y24314860D01*
X43806667Y17652440D02*
X43806667Y16712640D01*
X43806667Y15109900D02*
X43806667Y14172640D01*
X43806667Y12572440D02*
X43806667Y10997460D01*
X42310000Y24612040D02*
X42310000Y10997460D01*
G04 #@! TO.C,R208*
X26940742Y24877500D02*
X27415258Y24877500D01*
X26940742Y25922500D02*
X27415258Y25922500D01*
G04 #@! TO.C,D202*
X38621600Y30735600D02*
X40906600Y30735600D01*
X38621600Y32205600D02*
X38621600Y30735600D01*
X40906600Y32205600D02*
X38621600Y32205600D01*
G04 #@! TO.C,C202*
X27203348Y26547400D02*
X28625852Y26547400D01*
X27203348Y28367400D02*
X28625852Y28367400D01*
G04 #@! TO.C,C203*
X35431900Y31381752D02*
X35431900Y29959248D01*
X38151900Y31381752D02*
X38151900Y29959248D01*
G04 #@! TO.C,C204*
X31866048Y28642900D02*
X33288552Y28642900D01*
X31866048Y30462900D02*
X33288552Y30462900D01*
G04 #@! TO.C,C205*
X42784300Y39340400D02*
X42784300Y39059240D01*
X43804300Y39340400D02*
X43804300Y39059240D01*
G04 #@! TO.C,C206*
X43162588Y35922280D02*
X43685092Y35922280D01*
X43162588Y37392280D02*
X43685092Y37392280D01*
G04 #@! TO.C,C207*
X47069680Y35888028D02*
X47069680Y36410532D01*
X45599680Y35888028D02*
X45599680Y36410532D01*
G04 #@! TO.C,C214*
X18346960Y26089220D02*
X18346960Y25808060D01*
X19366960Y26089220D02*
X19366960Y25808060D01*
G04 #@! TO.C,C215*
X36740220Y44232100D02*
X37021380Y44232100D01*
X36740220Y45252100D02*
X37021380Y45252100D01*
G04 #@! TO.C,C216*
X17601320Y33246600D02*
X17882480Y33246600D01*
X17601320Y34266600D02*
X17882480Y34266600D01*
G04 #@! TO.C,C217*
X13018380Y32514000D02*
X12737220Y32514000D01*
X13018380Y31494000D02*
X12737220Y31494000D01*
G04 #@! TO.C,C218*
X19588848Y36222000D02*
X20111352Y36222000D01*
X19588848Y37692000D02*
X20111352Y37692000D01*
G04 #@! TO.C,C219*
X11241100Y28401952D02*
X11241100Y27879448D01*
X12711100Y28401952D02*
X12711100Y27879448D01*
G04 #@! TO.C,C220*
X17588620Y31697200D02*
X17869780Y31697200D01*
X17588620Y32717200D02*
X17869780Y32717200D01*
G04 #@! TO.C,C221*
X18503020Y27734800D02*
X18784180Y27734800D01*
X18503020Y28754800D02*
X18784180Y28754800D01*
G04 #@! TO.C,C222*
X13244100Y25832680D02*
X13244100Y25551520D01*
X14264100Y25832680D02*
X14264100Y25551520D01*
G04 #@! TO.C,C223*
X15328020Y21753100D02*
X15609180Y21753100D01*
X15328020Y22773100D02*
X15609180Y22773100D01*
G04 #@! TO.C,C224*
X18707980Y22760400D02*
X18426820Y22760400D01*
X18707980Y21740400D02*
X18426820Y21740400D01*
G04 #@! TO.C,C401*
X5170900Y39775520D02*
X5170900Y40056680D01*
X4150900Y39775520D02*
X4150900Y40056680D01*
G04 #@! TO.C,C502*
X39515148Y23242600D02*
X40037652Y23242600D01*
X39515148Y24712600D02*
X40037652Y24712600D01*
G04 #@! TO.C,C503*
X28789720Y15479300D02*
X29070880Y15479300D01*
X28789720Y16499300D02*
X29070880Y16499300D01*
G04 #@! TO.C,D203*
X38315000Y47026500D02*
X36030000Y47026500D01*
X38315000Y45556500D02*
X38315000Y47026500D01*
X36030000Y45556500D02*
X38315000Y45556500D01*
G04 #@! TO.C,D204*
X23102200Y45886700D02*
X25387200Y45886700D01*
X23102200Y47356700D02*
X23102200Y45886700D01*
X25387200Y47356700D02*
X23102200Y47356700D01*
G04 #@! TO.C,D301*
X12774600Y8192300D02*
X12774600Y10477300D01*
X11304600Y8192300D02*
X12774600Y8192300D01*
X11304600Y10477300D02*
X11304600Y8192300D01*
G04 #@! TO.C,D304*
X11098200Y8192500D02*
X11098200Y10477500D01*
X9628200Y8192500D02*
X11098200Y8192500D01*
X9628200Y10477500D02*
X9628200Y8192500D01*
G04 #@! TO.C,D401*
X28536000Y34821800D02*
X26251000Y34821800D01*
X28536000Y33351800D02*
X28536000Y34821800D01*
X26251000Y33351800D02*
X28536000Y33351800D01*
G04 #@! TO.C,D402*
X28536000Y36460100D02*
X26251000Y36460100D01*
X28536000Y34990100D02*
X28536000Y36460100D01*
X26251000Y34990100D02*
X28536000Y34990100D01*
G04 #@! TO.C,D501*
X41875600Y22447600D02*
X41875600Y16747600D01*
X37575600Y22447600D02*
X37575600Y16747600D01*
X41875600Y22447600D02*
X37575600Y22447600D01*
G04 #@! TO.C,IC201*
X28168600Y31951100D02*
X26368600Y31951100D01*
X28168600Y31951100D02*
X28968600Y31951100D01*
X28168600Y28831100D02*
X27368600Y28831100D01*
X28168600Y28831100D02*
X28968600Y28831100D01*
G04 #@! TO.C,IC202*
X40436800Y40968100D02*
X38636800Y40968100D01*
X40436800Y40968100D02*
X41236800Y40968100D01*
X40436800Y37848100D02*
X39636800Y37848100D01*
X40436800Y37848100D02*
X41236800Y37848100D01*
G04 #@! TO.C,IC204*
X27647900Y45219300D02*
X24197900Y45219300D01*
X27647900Y45219300D02*
X29597900Y45219300D01*
X27647900Y40099300D02*
X25697900Y40099300D01*
X27647900Y40099300D02*
X29597900Y40099300D01*
G04 #@! TO.C,IC301*
X18308000Y11836400D02*
X18308000Y15286400D01*
X18308000Y11836400D02*
X18308000Y9886400D01*
X13188000Y11836400D02*
X13188000Y13786400D01*
X13188000Y11836400D02*
X13188000Y9886400D01*
G04 #@! TO.C,IC302*
X10117600Y13755600D02*
X10117600Y12355600D01*
X12437600Y12355600D02*
X12437600Y14255600D01*
G04 #@! TO.C,IC501*
X21862100Y18427700D02*
X21862100Y14977700D01*
X21862100Y18427700D02*
X21862100Y20377700D01*
X26982100Y18427700D02*
X26982100Y16477700D01*
X26982100Y18427700D02*
X26982100Y20377700D01*
G04 #@! TO.C,IC502*
X21877900Y16030800D02*
X21877900Y19630800D01*
X21866378Y19669278D02*
G75*
G03*
X17427900Y17830800I-1838478J-1838478D01*
G01*
X21866378Y15992322D02*
G75*
G02*
X17427900Y17830800I-1838478J1838478D01*
G01*
G04 #@! TO.C,IC503*
X15566800Y20303100D02*
X11966800Y20303100D01*
X11928322Y20291578D02*
G75*
G03*
X13766800Y15853100I1838478J-1838478D01*
G01*
X15605278Y20291578D02*
G75*
G02*
X13766800Y15853100I-1838478J-1838478D01*
G01*
G04 #@! TO.C,J101*
X5555700Y13372540D02*
X4057100Y13372540D01*
X5555700Y15915080D02*
X4057100Y15915080D01*
X5555700Y18450000D02*
X4057100Y18450000D01*
X5555700Y20992540D02*
X4057100Y20992540D01*
X5555700Y23532540D02*
X4057100Y23532540D01*
X5555700Y26072540D02*
X4057100Y26072540D01*
X2206667Y25267360D02*
X2206667Y24327560D01*
X2206667Y22727360D02*
X2206667Y21790100D01*
X2206667Y20189900D02*
X2206667Y19250100D01*
X2206667Y17647360D02*
X2206667Y16705020D01*
X2206667Y15104820D02*
X2206667Y14167560D01*
X2206667Y12567360D02*
X2206667Y11000000D01*
X4053333Y12897560D02*
X4053333Y13834820D01*
X4053333Y15440100D02*
X4053333Y16377360D01*
X4053333Y17977560D02*
X4053333Y18917360D01*
X5550000Y11000000D02*
X5550000Y27170000D01*
X550000Y27170000D02*
X550000Y11000000D01*
X550000Y11000000D02*
X2206667Y11000000D01*
X2206667Y11000000D02*
X2206667Y10465000D01*
X2206667Y10465000D02*
X4053333Y10465000D01*
X4053333Y10465000D02*
X4053333Y11000000D01*
X4053333Y11000000D02*
X5550000Y11000000D01*
X4053333Y27172540D02*
X5550000Y27172540D01*
X4053333Y27705000D02*
X4053333Y27172540D01*
X550000Y27172540D02*
X2206667Y27172540D01*
X2206667Y27705000D02*
X4053333Y27705000D01*
X2206667Y27172540D02*
X2206667Y27705000D01*
X2206667Y27172540D02*
X2206667Y26875180D01*
X4053333Y11000000D02*
X4053333Y11297360D01*
X4053333Y20517560D02*
X4053333Y21457360D01*
X4053333Y23060100D02*
X4053333Y23997360D01*
X4053333Y25597560D02*
X4053333Y27172540D01*
G04 #@! TO.C,J301*
X20134452Y714558D02*
X21634452Y714558D01*
X20134452Y2454558D02*
X20134452Y714558D01*
X28081452Y3800558D02*
X28005452Y3724558D01*
X30174452Y5894558D02*
X30120452Y5840558D01*
X28249452Y3589558D02*
X28195452Y3534558D01*
X30364452Y5704558D02*
X30288452Y5628558D01*
X24581452Y3800558D02*
X24505452Y3724558D01*
X26674452Y5894558D02*
X26620452Y5840558D01*
X24749452Y3589558D02*
X24695452Y3534558D01*
X26864452Y5704558D02*
X26788452Y5628558D01*
X30994452Y7574558D02*
X30994452Y954558D01*
X20374452Y7574558D02*
X20374452Y954558D01*
X20374452Y954558D02*
X30994452Y954558D01*
X20374452Y7574558D02*
X30994452Y7574558D01*
X20374452Y2514558D02*
X30994452Y2514558D01*
X30739452Y4714558D02*
G75*
G03*
X30739452Y4714558I-1555000J0D01*
G01*
X27239452Y4714558D02*
G75*
G03*
X27239452Y4714558I-1555000J0D01*
G01*
X22210896Y3158877D02*
G75*
G02*
X21477452Y3328558I-26444J1555681D01*
G01*
X20797807Y4008825D02*
G75*
G02*
X20798452Y5421558I1386645J705733D01*
G01*
X21478719Y6101203D02*
G75*
G02*
X22891452Y6100558I705733J-1386645D01*
G01*
X23571097Y5420291D02*
G75*
G02*
X23570452Y4007558I-1386645J-705733D01*
G01*
X22890407Y3329043D02*
G75*
G02*
X22184452Y3159558I-705955J1385515D01*
G01*
G04 #@! TO.C,J303*
X9550000Y718000D02*
X11050000Y718000D01*
X9550000Y2458000D02*
X9550000Y718000D01*
X17497000Y3804000D02*
X17421000Y3728000D01*
X19590000Y5898000D02*
X19536000Y5844000D01*
X17665000Y3593000D02*
X17611000Y3538000D01*
X19780000Y5708000D02*
X19704000Y5632000D01*
X13997000Y3804000D02*
X13921000Y3728000D01*
X16090000Y5898000D02*
X16036000Y5844000D01*
X14165000Y3593000D02*
X14111000Y3538000D01*
X16280000Y5708000D02*
X16204000Y5632000D01*
X20410000Y7578000D02*
X20410000Y958000D01*
X9790000Y7578000D02*
X9790000Y958000D01*
X9790000Y958000D02*
X20410000Y958000D01*
X9790000Y7578000D02*
X20410000Y7578000D01*
X9790000Y2518000D02*
X20410000Y2518000D01*
X20155000Y4718000D02*
G75*
G03*
X20155000Y4718000I-1555000J0D01*
G01*
X16655000Y4718000D02*
G75*
G03*
X16655000Y4718000I-1555000J0D01*
G01*
X11626444Y3162319D02*
G75*
G02*
X10893000Y3332000I-26444J1555681D01*
G01*
X10213355Y4012267D02*
G75*
G02*
X10214000Y5425000I1386645J705733D01*
G01*
X10894267Y6104645D02*
G75*
G02*
X12307000Y6104000I705733J-1386645D01*
G01*
X12986645Y5423733D02*
G75*
G02*
X12986000Y4011000I-1386645J-705733D01*
G01*
X12305955Y3332485D02*
G75*
G02*
X11600000Y3163000I-705955J1385515D01*
G01*
G04 #@! TO.C,J304*
X30750000Y700000D02*
X32250000Y700000D01*
X30750000Y2440000D02*
X30750000Y700000D01*
X35197000Y3786000D02*
X35121000Y3710000D01*
X37290000Y5880000D02*
X37236000Y5826000D01*
X35365000Y3575000D02*
X35311000Y3520000D01*
X37480000Y5690000D02*
X37404000Y5614000D01*
X38110000Y7560000D02*
X38110000Y940000D01*
X30990000Y7560000D02*
X30990000Y940000D01*
X30990000Y940000D02*
X38110000Y940000D01*
X30990000Y7560000D02*
X38110000Y7560000D01*
X30990000Y2500000D02*
X38110000Y2500000D01*
X37855000Y4700000D02*
G75*
G03*
X37855000Y4700000I-1555000J0D01*
G01*
X32826444Y3144319D02*
G75*
G02*
X32093000Y3314000I-26444J1555681D01*
G01*
X31413355Y3994267D02*
G75*
G02*
X31414000Y5407000I1386645J705733D01*
G01*
X32094267Y6086645D02*
G75*
G02*
X33507000Y6086000I705733J-1386645D01*
G01*
X34186645Y5405733D02*
G75*
G02*
X34186000Y3993000I-1386645J-705733D01*
G01*
X33505955Y3314485D02*
G75*
G02*
X32800000Y3145000I-705955J1385515D01*
G01*
G04 #@! TO.C,JP201*
X32035240Y43069280D02*
X32035240Y44469280D01*
X32735240Y45169280D02*
X33335240Y45169280D01*
X34035240Y44469280D02*
X34035240Y43069280D01*
X33335240Y42369280D02*
X32735240Y42369280D01*
X32735240Y42369280D02*
G75*
G02*
X32035240Y43069280I0J700000D01*
G01*
X34035240Y43069280D02*
G75*
G02*
X33335240Y42369280I-700000J0D01*
G01*
X33335240Y45169280D02*
G75*
G02*
X34035240Y44469280I0J-700000D01*
G01*
X32035240Y44469280D02*
G75*
G02*
X32735240Y45169280I700000J0D01*
G01*
G04 #@! TO.C,JP402*
X14238200Y36033200D02*
X12838200Y36033200D01*
X12138200Y36733200D02*
X12138200Y37333200D01*
X12838200Y38033200D02*
X14238200Y38033200D01*
X14938200Y37333200D02*
X14938200Y36733200D01*
X14938200Y36733200D02*
G75*
G02*
X14238200Y36033200I-700000J0D01*
G01*
X14238200Y38033200D02*
G75*
G02*
X14938200Y37333200I0J-700000D01*
G01*
X12138200Y37333200D02*
G75*
G02*
X12838200Y38033200I700000J0D01*
G01*
X12838200Y36033200D02*
G75*
G02*
X12138200Y36733200I0J700000D01*
G01*
G04 #@! TO.C,L201*
X33059800Y31162400D02*
X32319800Y31162400D01*
X32319800Y35182400D02*
X33059800Y35182400D01*
G04 #@! TO.C,L301*
X29236400Y8291900D02*
X19836400Y8291900D01*
X29236400Y8291900D02*
X29236400Y9191900D01*
X19836400Y8291900D02*
X19836400Y9191900D01*
X29236400Y14491900D02*
X29236400Y13591900D01*
X19836400Y14491900D02*
X19836400Y13591900D01*
X19836400Y14491900D02*
X29236400Y14491900D01*
X19636400Y13591900D02*
X19736400Y13591900D01*
X19836400Y13591900D02*
X19636400Y13591900D01*
X19836400Y11691900D02*
X19836400Y11091900D01*
X19636400Y11691900D02*
X19836400Y11691900D01*
X29236400Y11691900D02*
X29236400Y11091900D01*
G04 #@! TO.C,L302*
X40920400Y8634800D02*
X31520400Y8634800D01*
X40920400Y8634800D02*
X40920400Y9534800D01*
X31520400Y8634800D02*
X31520400Y9534800D01*
X40920400Y14834800D02*
X40920400Y13934800D01*
X31520400Y14834800D02*
X31520400Y13934800D01*
X31520400Y14834800D02*
X40920400Y14834800D01*
X31320400Y13934800D02*
X31420400Y13934800D01*
X31520400Y13934800D02*
X31320400Y13934800D01*
X31520400Y12034800D02*
X31520400Y11434800D01*
X31320400Y12034800D02*
X31520400Y12034800D01*
X40920400Y12034800D02*
X40920400Y11434800D01*
G04 #@! TO.C,R201*
X31999958Y27941800D02*
X31525442Y27941800D01*
X31999958Y26896800D02*
X31525442Y26896800D01*
G04 #@! TO.C,R202*
X43442658Y32008340D02*
X42968142Y32008340D01*
X43442658Y30963340D02*
X42968142Y30963340D01*
G04 #@! TO.C,R205*
X39670722Y42172360D02*
X40145238Y42172360D01*
X39670722Y43217360D02*
X40145238Y43217360D01*
G04 #@! TO.C,R206*
X33443142Y45794400D02*
X33917658Y45794400D01*
X33443142Y46839400D02*
X33917658Y46839400D01*
G04 #@! TO.C,R207*
X37969720Y41683402D02*
X37969720Y42157918D01*
X36924720Y41683402D02*
X36924720Y42157918D01*
G04 #@! TO.C,R209*
X27910558Y47118800D02*
X27436042Y47118800D01*
X27910558Y46073800D02*
X27436042Y46073800D01*
G04 #@! TO.C,R211*
X29899842Y36942500D02*
X30374358Y36942500D01*
X29899842Y37987500D02*
X30374358Y37987500D01*
G04 #@! TO.C,R212*
X26839142Y36929800D02*
X27313658Y36929800D01*
X26839142Y37974800D02*
X27313658Y37974800D01*
G04 #@! TO.C,R411*
X14969258Y34279100D02*
X14494742Y34279100D01*
X14969258Y33234100D02*
X14494742Y33234100D01*
G04 #@! TO.C,R502*
X36590500Y22267142D02*
X36590500Y22741658D01*
X35545500Y22267142D02*
X35545500Y22741658D01*
G04 #@! TO.C,XTAL401*
X25384600Y22332200D02*
X25384600Y34932200D01*
X20284600Y22332200D02*
X25384600Y22332200D01*
X20284600Y34932200D02*
X20284600Y22332200D01*
G04 #@! TO.C,J401*
X6667500Y43764200D02*
X6667500Y44399200D01*
X6667500Y44399200D02*
X7302500Y44399200D01*
G04 #@! TO.C,J402*
X1546000Y35650000D02*
X1546000Y36285000D01*
X1546000Y36285000D02*
X2181000Y36285000D01*
G04 #@! TD*
G04 #@! TO.C,J103*
D13*
X9987790Y45458143D02*
X10344933Y45458143D01*
X10416361Y45434334D01*
X10463980Y45386715D01*
X10487790Y45315286D01*
X10487790Y45267667D01*
X10487790Y45958143D02*
X10487790Y45672429D01*
X10487790Y45815286D02*
X9987790Y45815286D01*
X10059219Y45767667D01*
X10106838Y45720048D01*
X10130647Y45672429D01*
X9987790Y46267667D02*
X9987790Y46315286D01*
X10011600Y46362905D01*
X10035409Y46386715D01*
X10083028Y46410524D01*
X10178266Y46434334D01*
X10297314Y46434334D01*
X10392552Y46410524D01*
X10440171Y46386715D01*
X10463980Y46362905D01*
X10487790Y46315286D01*
X10487790Y46267667D01*
X10463980Y46220048D01*
X10440171Y46196239D01*
X10392552Y46172429D01*
X10297314Y46148620D01*
X10178266Y46148620D01*
X10083028Y46172429D01*
X10035409Y46196239D01*
X10011600Y46220048D01*
X9987790Y46267667D01*
X9987790Y46601000D02*
X9987790Y46910524D01*
X10178266Y46743858D01*
X10178266Y46815286D01*
X10202076Y46862905D01*
X10225885Y46886715D01*
X10273504Y46910524D01*
X10392552Y46910524D01*
X10440171Y46886715D01*
X10463980Y46862905D01*
X10487790Y46815286D01*
X10487790Y46672429D01*
X10463980Y46624810D01*
X10440171Y46601000D01*
G04 #@! TO.C,FL202*
X36708661Y36129115D02*
X36541995Y36129115D01*
X36541995Y35867210D02*
X36541995Y36367210D01*
X36780090Y36367210D01*
X37208661Y35867210D02*
X36970566Y35867210D01*
X36970566Y36367210D01*
X37351519Y36319591D02*
X37375328Y36343400D01*
X37422947Y36367210D01*
X37541995Y36367210D01*
X37589614Y36343400D01*
X37613423Y36319591D01*
X37637233Y36271972D01*
X37637233Y36224353D01*
X37613423Y36152924D01*
X37327709Y35867210D01*
X37637233Y35867210D01*
X37946757Y36367210D02*
X37994376Y36367210D01*
X38041995Y36343400D01*
X38065804Y36319591D01*
X38089614Y36271972D01*
X38113423Y36176734D01*
X38113423Y36057686D01*
X38089614Y35962448D01*
X38065804Y35914829D01*
X38041995Y35891020D01*
X37994376Y35867210D01*
X37946757Y35867210D01*
X37899138Y35891020D01*
X37875328Y35914829D01*
X37851519Y35962448D01*
X37827709Y36057686D01*
X37827709Y36176734D01*
X37851519Y36271972D01*
X37875328Y36319591D01*
X37899138Y36343400D01*
X37946757Y36367210D01*
X38303900Y36319591D02*
X38327709Y36343400D01*
X38375328Y36367210D01*
X38494376Y36367210D01*
X38541995Y36343400D01*
X38565804Y36319591D01*
X38589614Y36271972D01*
X38589614Y36224353D01*
X38565804Y36152924D01*
X38280090Y35867210D01*
X38589614Y35867210D01*
G04 #@! TO.C,FL201*
X31793761Y25067415D02*
X31627095Y25067415D01*
X31627095Y24805510D02*
X31627095Y25305510D01*
X31865190Y25305510D01*
X32293761Y24805510D02*
X32055666Y24805510D01*
X32055666Y25305510D01*
X32436619Y25257891D02*
X32460428Y25281700D01*
X32508047Y25305510D01*
X32627095Y25305510D01*
X32674714Y25281700D01*
X32698523Y25257891D01*
X32722333Y25210272D01*
X32722333Y25162653D01*
X32698523Y25091224D01*
X32412809Y24805510D01*
X32722333Y24805510D01*
X33031857Y25305510D02*
X33079476Y25305510D01*
X33127095Y25281700D01*
X33150904Y25257891D01*
X33174714Y25210272D01*
X33198523Y25115034D01*
X33198523Y24995986D01*
X33174714Y24900748D01*
X33150904Y24853129D01*
X33127095Y24829320D01*
X33079476Y24805510D01*
X33031857Y24805510D01*
X32984238Y24829320D01*
X32960428Y24853129D01*
X32936619Y24900748D01*
X32912809Y24995986D01*
X32912809Y25115034D01*
X32936619Y25210272D01*
X32960428Y25257891D01*
X32984238Y25281700D01*
X33031857Y25305510D01*
X33674714Y24805510D02*
X33389000Y24805510D01*
X33531857Y24805510D02*
X33531857Y25305510D01*
X33484238Y25234081D01*
X33436619Y25186462D01*
X33389000Y25162653D01*
G04 #@! TO.C,FL501*
X34333761Y17244215D02*
X34167095Y17244215D01*
X34167095Y16982310D02*
X34167095Y17482310D01*
X34405190Y17482310D01*
X34833761Y16982310D02*
X34595666Y16982310D01*
X34595666Y17482310D01*
X35238523Y17482310D02*
X35000428Y17482310D01*
X34976619Y17244215D01*
X35000428Y17268024D01*
X35048047Y17291834D01*
X35167095Y17291834D01*
X35214714Y17268024D01*
X35238523Y17244215D01*
X35262333Y17196596D01*
X35262333Y17077548D01*
X35238523Y17029929D01*
X35214714Y17006120D01*
X35167095Y16982310D01*
X35048047Y16982310D01*
X35000428Y17006120D01*
X34976619Y17029929D01*
X35571857Y17482310D02*
X35619476Y17482310D01*
X35667095Y17458500D01*
X35690904Y17434691D01*
X35714714Y17387072D01*
X35738523Y17291834D01*
X35738523Y17172786D01*
X35714714Y17077548D01*
X35690904Y17029929D01*
X35667095Y17006120D01*
X35619476Y16982310D01*
X35571857Y16982310D01*
X35524238Y17006120D01*
X35500428Y17029929D01*
X35476619Y17077548D01*
X35452809Y17172786D01*
X35452809Y17291834D01*
X35476619Y17387072D01*
X35500428Y17434691D01*
X35524238Y17458500D01*
X35571857Y17482310D01*
X36214714Y16982310D02*
X35929000Y16982310D01*
X36071857Y16982310D02*
X36071857Y17482310D01*
X36024238Y17410881D01*
X35976619Y17363262D01*
X35929000Y17339453D01*
G04 #@! TO.C,J102*
X44071902Y26315870D02*
X44071902Y25958727D01*
X44048093Y25887299D01*
X44000474Y25839680D01*
X43929045Y25815870D01*
X43881426Y25815870D01*
X44571902Y25815870D02*
X44286188Y25815870D01*
X44429045Y25815870D02*
X44429045Y26315870D01*
X44381426Y26244441D01*
X44333807Y26196822D01*
X44286188Y26173013D01*
X44881426Y26315870D02*
X44929045Y26315870D01*
X44976664Y26292060D01*
X45000474Y26268251D01*
X45024283Y26220632D01*
X45048093Y26125394D01*
X45048093Y26006346D01*
X45024283Y25911108D01*
X45000474Y25863489D01*
X44976664Y25839680D01*
X44929045Y25815870D01*
X44881426Y25815870D01*
X44833807Y25839680D01*
X44809998Y25863489D01*
X44786188Y25911108D01*
X44762379Y26006346D01*
X44762379Y26125394D01*
X44786188Y26220632D01*
X44809998Y26268251D01*
X44833807Y26292060D01*
X44881426Y26315870D01*
X45238569Y26268251D02*
X45262379Y26292060D01*
X45309998Y26315870D01*
X45429045Y26315870D01*
X45476664Y26292060D01*
X45500474Y26268251D01*
X45524283Y26220632D01*
X45524283Y26173013D01*
X45500474Y26101584D01*
X45214760Y25815870D01*
X45524283Y25815870D01*
G04 #@! TO.C,R208*
X29044176Y25605610D02*
X28877509Y25843705D01*
X28758461Y25605610D02*
X28758461Y26105610D01*
X28948938Y26105610D01*
X28996557Y26081800D01*
X29020366Y26057991D01*
X29044176Y26010372D01*
X29044176Y25938943D01*
X29020366Y25891324D01*
X28996557Y25867515D01*
X28948938Y25843705D01*
X28758461Y25843705D01*
X29234652Y26057991D02*
X29258461Y26081800D01*
X29306080Y26105610D01*
X29425128Y26105610D01*
X29472747Y26081800D01*
X29496557Y26057991D01*
X29520366Y26010372D01*
X29520366Y25962753D01*
X29496557Y25891324D01*
X29210842Y25605610D01*
X29520366Y25605610D01*
X29829890Y26105610D02*
X29877509Y26105610D01*
X29925128Y26081800D01*
X29948938Y26057991D01*
X29972747Y26010372D01*
X29996557Y25915134D01*
X29996557Y25796086D01*
X29972747Y25700848D01*
X29948938Y25653229D01*
X29925128Y25629420D01*
X29877509Y25605610D01*
X29829890Y25605610D01*
X29782271Y25629420D01*
X29758461Y25653229D01*
X29734652Y25700848D01*
X29710842Y25796086D01*
X29710842Y25915134D01*
X29734652Y26010372D01*
X29758461Y26057991D01*
X29782271Y26081800D01*
X29829890Y26105610D01*
X30282271Y25891324D02*
X30234652Y25915134D01*
X30210842Y25938943D01*
X30187033Y25986562D01*
X30187033Y26010372D01*
X30210842Y26057991D01*
X30234652Y26081800D01*
X30282271Y26105610D01*
X30377509Y26105610D01*
X30425128Y26081800D01*
X30448938Y26057991D01*
X30472747Y26010372D01*
X30472747Y25986562D01*
X30448938Y25938943D01*
X30425128Y25915134D01*
X30377509Y25891324D01*
X30282271Y25891324D01*
X30234652Y25867515D01*
X30210842Y25843705D01*
X30187033Y25796086D01*
X30187033Y25700848D01*
X30210842Y25653229D01*
X30234652Y25629420D01*
X30282271Y25605610D01*
X30377509Y25605610D01*
X30425128Y25629420D01*
X30448938Y25653229D01*
X30472747Y25700848D01*
X30472747Y25796086D01*
X30448938Y25843705D01*
X30425128Y25867515D01*
X30377509Y25891324D01*
G04 #@! TO.C,D202*
X39553461Y30050610D02*
X39553461Y30550610D01*
X39672509Y30550610D01*
X39743938Y30526800D01*
X39791557Y30479181D01*
X39815366Y30431562D01*
X39839176Y30336324D01*
X39839176Y30264896D01*
X39815366Y30169658D01*
X39791557Y30122039D01*
X39743938Y30074420D01*
X39672509Y30050610D01*
X39553461Y30050610D01*
X40029652Y30502991D02*
X40053461Y30526800D01*
X40101080Y30550610D01*
X40220128Y30550610D01*
X40267747Y30526800D01*
X40291557Y30502991D01*
X40315366Y30455372D01*
X40315366Y30407753D01*
X40291557Y30336324D01*
X40005842Y30050610D01*
X40315366Y30050610D01*
X40624890Y30550610D02*
X40672509Y30550610D01*
X40720128Y30526800D01*
X40743938Y30502991D01*
X40767747Y30455372D01*
X40791557Y30360134D01*
X40791557Y30241086D01*
X40767747Y30145848D01*
X40743938Y30098229D01*
X40720128Y30074420D01*
X40672509Y30050610D01*
X40624890Y30050610D01*
X40577271Y30074420D01*
X40553461Y30098229D01*
X40529652Y30145848D01*
X40505842Y30241086D01*
X40505842Y30360134D01*
X40529652Y30455372D01*
X40553461Y30502991D01*
X40577271Y30526800D01*
X40624890Y30550610D01*
X40982033Y30502991D02*
X41005842Y30526800D01*
X41053461Y30550610D01*
X41172509Y30550610D01*
X41220128Y30526800D01*
X41243938Y30502991D01*
X41267747Y30455372D01*
X41267747Y30407753D01*
X41243938Y30336324D01*
X40958223Y30050610D01*
X41267747Y30050610D01*
G04 #@! TO.C,C202*
X26010371Y28853677D02*
X26034180Y28829867D01*
X26057990Y28758439D01*
X26057990Y28710820D01*
X26034180Y28639391D01*
X25986561Y28591772D01*
X25938942Y28567962D01*
X25843704Y28544153D01*
X25772276Y28544153D01*
X25677038Y28567962D01*
X25629419Y28591772D01*
X25581800Y28639391D01*
X25557990Y28710820D01*
X25557990Y28758439D01*
X25581800Y28829867D01*
X25605609Y28853677D01*
X25605609Y29044153D02*
X25581800Y29067962D01*
X25557990Y29115581D01*
X25557990Y29234629D01*
X25581800Y29282248D01*
X25605609Y29306058D01*
X25653228Y29329867D01*
X25700847Y29329867D01*
X25772276Y29306058D01*
X26057990Y29020343D01*
X26057990Y29329867D01*
X25557990Y29639391D02*
X25557990Y29687010D01*
X25581800Y29734629D01*
X25605609Y29758439D01*
X25653228Y29782248D01*
X25748466Y29806058D01*
X25867514Y29806058D01*
X25962752Y29782248D01*
X26010371Y29758439D01*
X26034180Y29734629D01*
X26057990Y29687010D01*
X26057990Y29639391D01*
X26034180Y29591772D01*
X26010371Y29567962D01*
X25962752Y29544153D01*
X25867514Y29520343D01*
X25748466Y29520343D01*
X25653228Y29544153D01*
X25605609Y29567962D01*
X25581800Y29591772D01*
X25557990Y29639391D01*
X25605609Y29996534D02*
X25581800Y30020343D01*
X25557990Y30067962D01*
X25557990Y30187010D01*
X25581800Y30234629D01*
X25605609Y30258439D01*
X25653228Y30282248D01*
X25700847Y30282248D01*
X25772276Y30258439D01*
X26057990Y29972724D01*
X26057990Y30282248D01*
G04 #@! TO.C,C203*
X39091371Y28764777D02*
X39115180Y28740967D01*
X39138990Y28669539D01*
X39138990Y28621920D01*
X39115180Y28550491D01*
X39067561Y28502872D01*
X39019942Y28479062D01*
X38924704Y28455253D01*
X38853276Y28455253D01*
X38758038Y28479062D01*
X38710419Y28502872D01*
X38662800Y28550491D01*
X38638990Y28621920D01*
X38638990Y28669539D01*
X38662800Y28740967D01*
X38686609Y28764777D01*
X38686609Y28955253D02*
X38662800Y28979062D01*
X38638990Y29026681D01*
X38638990Y29145729D01*
X38662800Y29193348D01*
X38686609Y29217158D01*
X38734228Y29240967D01*
X38781847Y29240967D01*
X38853276Y29217158D01*
X39138990Y28931443D01*
X39138990Y29240967D01*
X38638990Y29550491D02*
X38638990Y29598110D01*
X38662800Y29645729D01*
X38686609Y29669539D01*
X38734228Y29693348D01*
X38829466Y29717158D01*
X38948514Y29717158D01*
X39043752Y29693348D01*
X39091371Y29669539D01*
X39115180Y29645729D01*
X39138990Y29598110D01*
X39138990Y29550491D01*
X39115180Y29502872D01*
X39091371Y29479062D01*
X39043752Y29455253D01*
X38948514Y29431443D01*
X38829466Y29431443D01*
X38734228Y29455253D01*
X38686609Y29479062D01*
X38662800Y29502872D01*
X38638990Y29550491D01*
X38638990Y29883824D02*
X38638990Y30193348D01*
X38829466Y30026681D01*
X38829466Y30098110D01*
X38853276Y30145729D01*
X38877085Y30169539D01*
X38924704Y30193348D01*
X39043752Y30193348D01*
X39091371Y30169539D01*
X39115180Y30145729D01*
X39138990Y30098110D01*
X39138990Y29955253D01*
X39115180Y29907634D01*
X39091371Y29883824D01*
G04 #@! TO.C,C204*
X33654276Y27850329D02*
X33630466Y27826520D01*
X33559038Y27802710D01*
X33511419Y27802710D01*
X33439990Y27826520D01*
X33392371Y27874139D01*
X33368561Y27921758D01*
X33344752Y28016996D01*
X33344752Y28088424D01*
X33368561Y28183662D01*
X33392371Y28231281D01*
X33439990Y28278900D01*
X33511419Y28302710D01*
X33559038Y28302710D01*
X33630466Y28278900D01*
X33654276Y28255091D01*
X33844752Y28255091D02*
X33868561Y28278900D01*
X33916180Y28302710D01*
X34035228Y28302710D01*
X34082847Y28278900D01*
X34106657Y28255091D01*
X34130466Y28207472D01*
X34130466Y28159853D01*
X34106657Y28088424D01*
X33820942Y27802710D01*
X34130466Y27802710D01*
X34439990Y28302710D02*
X34487609Y28302710D01*
X34535228Y28278900D01*
X34559038Y28255091D01*
X34582847Y28207472D01*
X34606657Y28112234D01*
X34606657Y27993186D01*
X34582847Y27897948D01*
X34559038Y27850329D01*
X34535228Y27826520D01*
X34487609Y27802710D01*
X34439990Y27802710D01*
X34392371Y27826520D01*
X34368561Y27850329D01*
X34344752Y27897948D01*
X34320942Y27993186D01*
X34320942Y28112234D01*
X34344752Y28207472D01*
X34368561Y28255091D01*
X34392371Y28278900D01*
X34439990Y28302710D01*
X35035228Y28136043D02*
X35035228Y27802710D01*
X34916180Y28326520D02*
X34797133Y27969377D01*
X35106657Y27969377D01*
G04 #@! TO.C,C205*
X44488871Y38772377D02*
X44512680Y38748567D01*
X44536490Y38677139D01*
X44536490Y38629520D01*
X44512680Y38558091D01*
X44465061Y38510472D01*
X44417442Y38486662D01*
X44322204Y38462853D01*
X44250776Y38462853D01*
X44155538Y38486662D01*
X44107919Y38510472D01*
X44060300Y38558091D01*
X44036490Y38629520D01*
X44036490Y38677139D01*
X44060300Y38748567D01*
X44084109Y38772377D01*
X44084109Y38962853D02*
X44060300Y38986662D01*
X44036490Y39034281D01*
X44036490Y39153329D01*
X44060300Y39200948D01*
X44084109Y39224758D01*
X44131728Y39248567D01*
X44179347Y39248567D01*
X44250776Y39224758D01*
X44536490Y38939043D01*
X44536490Y39248567D01*
X44036490Y39558091D02*
X44036490Y39605710D01*
X44060300Y39653329D01*
X44084109Y39677139D01*
X44131728Y39700948D01*
X44226966Y39724758D01*
X44346014Y39724758D01*
X44441252Y39700948D01*
X44488871Y39677139D01*
X44512680Y39653329D01*
X44536490Y39605710D01*
X44536490Y39558091D01*
X44512680Y39510472D01*
X44488871Y39486662D01*
X44441252Y39462853D01*
X44346014Y39439043D01*
X44226966Y39439043D01*
X44131728Y39462853D01*
X44084109Y39486662D01*
X44060300Y39510472D01*
X44036490Y39558091D01*
X44036490Y40177139D02*
X44036490Y39939043D01*
X44274585Y39915234D01*
X44250776Y39939043D01*
X44226966Y39986662D01*
X44226966Y40105710D01*
X44250776Y40153329D01*
X44274585Y40177139D01*
X44322204Y40200948D01*
X44441252Y40200948D01*
X44488871Y40177139D01*
X44512680Y40153329D01*
X44536490Y40105710D01*
X44536490Y39986662D01*
X44512680Y39939043D01*
X44488871Y39915234D01*
G04 #@! TO.C,C206*
X40131276Y36943529D02*
X40107466Y36919720D01*
X40036038Y36895910D01*
X39988419Y36895910D01*
X39916990Y36919720D01*
X39869371Y36967339D01*
X39845561Y37014958D01*
X39821752Y37110196D01*
X39821752Y37181624D01*
X39845561Y37276862D01*
X39869371Y37324481D01*
X39916990Y37372100D01*
X39988419Y37395910D01*
X40036038Y37395910D01*
X40107466Y37372100D01*
X40131276Y37348291D01*
X40321752Y37348291D02*
X40345561Y37372100D01*
X40393180Y37395910D01*
X40512228Y37395910D01*
X40559847Y37372100D01*
X40583657Y37348291D01*
X40607466Y37300672D01*
X40607466Y37253053D01*
X40583657Y37181624D01*
X40297942Y36895910D01*
X40607466Y36895910D01*
X40916990Y37395910D02*
X40964609Y37395910D01*
X41012228Y37372100D01*
X41036038Y37348291D01*
X41059847Y37300672D01*
X41083657Y37205434D01*
X41083657Y37086386D01*
X41059847Y36991148D01*
X41036038Y36943529D01*
X41012228Y36919720D01*
X40964609Y36895910D01*
X40916990Y36895910D01*
X40869371Y36919720D01*
X40845561Y36943529D01*
X40821752Y36991148D01*
X40797942Y37086386D01*
X40797942Y37205434D01*
X40821752Y37300672D01*
X40845561Y37348291D01*
X40869371Y37372100D01*
X40916990Y37395910D01*
X41512228Y37395910D02*
X41416990Y37395910D01*
X41369371Y37372100D01*
X41345561Y37348291D01*
X41297942Y37276862D01*
X41274133Y37181624D01*
X41274133Y36991148D01*
X41297942Y36943529D01*
X41321752Y36919720D01*
X41369371Y36895910D01*
X41464609Y36895910D01*
X41512228Y36919720D01*
X41536038Y36943529D01*
X41559847Y36991148D01*
X41559847Y37110196D01*
X41536038Y37157815D01*
X41512228Y37181624D01*
X41464609Y37205434D01*
X41369371Y37205434D01*
X41321752Y37181624D01*
X41297942Y37157815D01*
X41274133Y37110196D01*
G04 #@! TO.C,C207*
X47130471Y32879577D02*
X47154280Y32855767D01*
X47178090Y32784339D01*
X47178090Y32736720D01*
X47154280Y32665291D01*
X47106661Y32617672D01*
X47059042Y32593862D01*
X46963804Y32570053D01*
X46892376Y32570053D01*
X46797138Y32593862D01*
X46749519Y32617672D01*
X46701900Y32665291D01*
X46678090Y32736720D01*
X46678090Y32784339D01*
X46701900Y32855767D01*
X46725709Y32879577D01*
X46725709Y33070053D02*
X46701900Y33093862D01*
X46678090Y33141481D01*
X46678090Y33260529D01*
X46701900Y33308148D01*
X46725709Y33331958D01*
X46773328Y33355767D01*
X46820947Y33355767D01*
X46892376Y33331958D01*
X47178090Y33046243D01*
X47178090Y33355767D01*
X46678090Y33665291D02*
X46678090Y33712910D01*
X46701900Y33760529D01*
X46725709Y33784339D01*
X46773328Y33808148D01*
X46868566Y33831958D01*
X46987614Y33831958D01*
X47082852Y33808148D01*
X47130471Y33784339D01*
X47154280Y33760529D01*
X47178090Y33712910D01*
X47178090Y33665291D01*
X47154280Y33617672D01*
X47130471Y33593862D01*
X47082852Y33570053D01*
X46987614Y33546243D01*
X46868566Y33546243D01*
X46773328Y33570053D01*
X46725709Y33593862D01*
X46701900Y33617672D01*
X46678090Y33665291D01*
X46678090Y33998624D02*
X46678090Y34331958D01*
X47178090Y34117672D01*
G04 #@! TO.C,C214*
X17882371Y25462777D02*
X17906180Y25438967D01*
X17929990Y25367539D01*
X17929990Y25319920D01*
X17906180Y25248491D01*
X17858561Y25200872D01*
X17810942Y25177062D01*
X17715704Y25153253D01*
X17644276Y25153253D01*
X17549038Y25177062D01*
X17501419Y25200872D01*
X17453800Y25248491D01*
X17429990Y25319920D01*
X17429990Y25367539D01*
X17453800Y25438967D01*
X17477609Y25462777D01*
X17477609Y25653253D02*
X17453800Y25677062D01*
X17429990Y25724681D01*
X17429990Y25843729D01*
X17453800Y25891348D01*
X17477609Y25915158D01*
X17525228Y25938967D01*
X17572847Y25938967D01*
X17644276Y25915158D01*
X17929990Y25629443D01*
X17929990Y25938967D01*
X17929990Y26415158D02*
X17929990Y26129443D01*
X17929990Y26272300D02*
X17429990Y26272300D01*
X17501419Y26224681D01*
X17549038Y26177062D01*
X17572847Y26129443D01*
X17596657Y26843729D02*
X17929990Y26843729D01*
X17406180Y26724681D02*
X17763323Y26605634D01*
X17763323Y26915158D01*
G04 #@! TO.C,C215*
X36295876Y43534829D02*
X36272066Y43511020D01*
X36200638Y43487210D01*
X36153019Y43487210D01*
X36081590Y43511020D01*
X36033971Y43558639D01*
X36010161Y43606258D01*
X35986352Y43701496D01*
X35986352Y43772924D01*
X36010161Y43868162D01*
X36033971Y43915781D01*
X36081590Y43963400D01*
X36153019Y43987210D01*
X36200638Y43987210D01*
X36272066Y43963400D01*
X36295876Y43939591D01*
X36486352Y43939591D02*
X36510161Y43963400D01*
X36557780Y43987210D01*
X36676828Y43987210D01*
X36724447Y43963400D01*
X36748257Y43939591D01*
X36772066Y43891972D01*
X36772066Y43844353D01*
X36748257Y43772924D01*
X36462542Y43487210D01*
X36772066Y43487210D01*
X37248257Y43487210D02*
X36962542Y43487210D01*
X37105400Y43487210D02*
X37105400Y43987210D01*
X37057780Y43915781D01*
X37010161Y43868162D01*
X36962542Y43844353D01*
X37700638Y43987210D02*
X37462542Y43987210D01*
X37438733Y43749115D01*
X37462542Y43772924D01*
X37510161Y43796734D01*
X37629209Y43796734D01*
X37676828Y43772924D01*
X37700638Y43749115D01*
X37724447Y43701496D01*
X37724447Y43582448D01*
X37700638Y43534829D01*
X37676828Y43511020D01*
X37629209Y43487210D01*
X37510161Y43487210D01*
X37462542Y43511020D01*
X37438733Y43534829D01*
G04 #@! TO.C,C216*
X17106176Y34581329D02*
X17082366Y34557520D01*
X17010938Y34533710D01*
X16963319Y34533710D01*
X16891890Y34557520D01*
X16844271Y34605139D01*
X16820461Y34652758D01*
X16796652Y34747996D01*
X16796652Y34819424D01*
X16820461Y34914662D01*
X16844271Y34962281D01*
X16891890Y35009900D01*
X16963319Y35033710D01*
X17010938Y35033710D01*
X17082366Y35009900D01*
X17106176Y34986091D01*
X17296652Y34986091D02*
X17320461Y35009900D01*
X17368080Y35033710D01*
X17487128Y35033710D01*
X17534747Y35009900D01*
X17558557Y34986091D01*
X17582366Y34938472D01*
X17582366Y34890853D01*
X17558557Y34819424D01*
X17272842Y34533710D01*
X17582366Y34533710D01*
X18058557Y34533710D02*
X17772842Y34533710D01*
X17915700Y34533710D02*
X17915700Y35033710D01*
X17868080Y34962281D01*
X17820461Y34914662D01*
X17772842Y34890853D01*
X18487128Y35033710D02*
X18391890Y35033710D01*
X18344271Y35009900D01*
X18320461Y34986091D01*
X18272842Y34914662D01*
X18249033Y34819424D01*
X18249033Y34628948D01*
X18272842Y34581329D01*
X18296652Y34557520D01*
X18344271Y34533710D01*
X18439509Y34533710D01*
X18487128Y34557520D01*
X18510938Y34581329D01*
X18534747Y34628948D01*
X18534747Y34747996D01*
X18510938Y34795615D01*
X18487128Y34819424D01*
X18439509Y34843234D01*
X18344271Y34843234D01*
X18296652Y34819424D01*
X18272842Y34795615D01*
X18249033Y34747996D01*
G04 #@! TO.C,C217*
X12369076Y30707829D02*
X12345266Y30684020D01*
X12273838Y30660210D01*
X12226219Y30660210D01*
X12154790Y30684020D01*
X12107171Y30731639D01*
X12083361Y30779258D01*
X12059552Y30874496D01*
X12059552Y30945924D01*
X12083361Y31041162D01*
X12107171Y31088781D01*
X12154790Y31136400D01*
X12226219Y31160210D01*
X12273838Y31160210D01*
X12345266Y31136400D01*
X12369076Y31112591D01*
X12559552Y31112591D02*
X12583361Y31136400D01*
X12630980Y31160210D01*
X12750028Y31160210D01*
X12797647Y31136400D01*
X12821457Y31112591D01*
X12845266Y31064972D01*
X12845266Y31017353D01*
X12821457Y30945924D01*
X12535742Y30660210D01*
X12845266Y30660210D01*
X13321457Y30660210D02*
X13035742Y30660210D01*
X13178600Y30660210D02*
X13178600Y31160210D01*
X13130980Y31088781D01*
X13083361Y31041162D01*
X13035742Y31017353D01*
X13488123Y31160210D02*
X13821457Y31160210D01*
X13607171Y30660210D01*
G04 #@! TO.C,C218*
X19290576Y38035729D02*
X19266766Y38011920D01*
X19195338Y37988110D01*
X19147719Y37988110D01*
X19076290Y38011920D01*
X19028671Y38059539D01*
X19004861Y38107158D01*
X18981052Y38202396D01*
X18981052Y38273824D01*
X19004861Y38369062D01*
X19028671Y38416681D01*
X19076290Y38464300D01*
X19147719Y38488110D01*
X19195338Y38488110D01*
X19266766Y38464300D01*
X19290576Y38440491D01*
X19481052Y38440491D02*
X19504861Y38464300D01*
X19552480Y38488110D01*
X19671528Y38488110D01*
X19719147Y38464300D01*
X19742957Y38440491D01*
X19766766Y38392872D01*
X19766766Y38345253D01*
X19742957Y38273824D01*
X19457242Y37988110D01*
X19766766Y37988110D01*
X20242957Y37988110D02*
X19957242Y37988110D01*
X20100100Y37988110D02*
X20100100Y38488110D01*
X20052480Y38416681D01*
X20004861Y38369062D01*
X19957242Y38345253D01*
X20528671Y38273824D02*
X20481052Y38297634D01*
X20457242Y38321443D01*
X20433433Y38369062D01*
X20433433Y38392872D01*
X20457242Y38440491D01*
X20481052Y38464300D01*
X20528671Y38488110D01*
X20623909Y38488110D01*
X20671528Y38464300D01*
X20695338Y38440491D01*
X20719147Y38392872D01*
X20719147Y38369062D01*
X20695338Y38321443D01*
X20671528Y38297634D01*
X20623909Y38273824D01*
X20528671Y38273824D01*
X20481052Y38250015D01*
X20457242Y38226205D01*
X20433433Y38178586D01*
X20433433Y38083348D01*
X20457242Y38035729D01*
X20481052Y38011920D01*
X20528671Y37988110D01*
X20623909Y37988110D01*
X20671528Y38011920D01*
X20695338Y38035729D01*
X20719147Y38083348D01*
X20719147Y38178586D01*
X20695338Y38226205D01*
X20671528Y38250015D01*
X20623909Y38273824D01*
G04 #@! TO.C,C219*
X13513571Y28104377D02*
X13537380Y28080567D01*
X13561190Y28009139D01*
X13561190Y27961520D01*
X13537380Y27890091D01*
X13489761Y27842472D01*
X13442142Y27818662D01*
X13346904Y27794853D01*
X13275476Y27794853D01*
X13180238Y27818662D01*
X13132619Y27842472D01*
X13085000Y27890091D01*
X13061190Y27961520D01*
X13061190Y28009139D01*
X13085000Y28080567D01*
X13108809Y28104377D01*
X13108809Y28294853D02*
X13085000Y28318662D01*
X13061190Y28366281D01*
X13061190Y28485329D01*
X13085000Y28532948D01*
X13108809Y28556758D01*
X13156428Y28580567D01*
X13204047Y28580567D01*
X13275476Y28556758D01*
X13561190Y28271043D01*
X13561190Y28580567D01*
X13561190Y29056758D02*
X13561190Y28771043D01*
X13561190Y28913900D02*
X13061190Y28913900D01*
X13132619Y28866281D01*
X13180238Y28818662D01*
X13204047Y28771043D01*
X13561190Y29294853D02*
X13561190Y29390091D01*
X13537380Y29437710D01*
X13513571Y29461520D01*
X13442142Y29509139D01*
X13346904Y29532948D01*
X13156428Y29532948D01*
X13108809Y29509139D01*
X13085000Y29485329D01*
X13061190Y29437710D01*
X13061190Y29342472D01*
X13085000Y29294853D01*
X13108809Y29271043D01*
X13156428Y29247234D01*
X13275476Y29247234D01*
X13323095Y29271043D01*
X13346904Y29294853D01*
X13370714Y29342472D01*
X13370714Y29437710D01*
X13346904Y29485329D01*
X13323095Y29509139D01*
X13275476Y29532948D01*
G04 #@! TO.C,C220*
X17068076Y30987229D02*
X17044266Y30963420D01*
X16972838Y30939610D01*
X16925219Y30939610D01*
X16853790Y30963420D01*
X16806171Y31011039D01*
X16782361Y31058658D01*
X16758552Y31153896D01*
X16758552Y31225324D01*
X16782361Y31320562D01*
X16806171Y31368181D01*
X16853790Y31415800D01*
X16925219Y31439610D01*
X16972838Y31439610D01*
X17044266Y31415800D01*
X17068076Y31391991D01*
X17258552Y31391991D02*
X17282361Y31415800D01*
X17329980Y31439610D01*
X17449028Y31439610D01*
X17496647Y31415800D01*
X17520457Y31391991D01*
X17544266Y31344372D01*
X17544266Y31296753D01*
X17520457Y31225324D01*
X17234742Y30939610D01*
X17544266Y30939610D01*
X17734742Y31391991D02*
X17758552Y31415800D01*
X17806171Y31439610D01*
X17925219Y31439610D01*
X17972838Y31415800D01*
X17996647Y31391991D01*
X18020457Y31344372D01*
X18020457Y31296753D01*
X17996647Y31225324D01*
X17710933Y30939610D01*
X18020457Y30939610D01*
X18329980Y31439610D02*
X18377600Y31439610D01*
X18425219Y31415800D01*
X18449028Y31391991D01*
X18472838Y31344372D01*
X18496647Y31249134D01*
X18496647Y31130086D01*
X18472838Y31034848D01*
X18449028Y30987229D01*
X18425219Y30963420D01*
X18377600Y30939610D01*
X18329980Y30939610D01*
X18282361Y30963420D01*
X18258552Y30987229D01*
X18234742Y31034848D01*
X18210933Y31130086D01*
X18210933Y31249134D01*
X18234742Y31344372D01*
X18258552Y31391991D01*
X18282361Y31415800D01*
X18329980Y31439610D01*
G04 #@! TO.C,C221*
X17804676Y29107629D02*
X17780866Y29083820D01*
X17709438Y29060010D01*
X17661819Y29060010D01*
X17590390Y29083820D01*
X17542771Y29131439D01*
X17518961Y29179058D01*
X17495152Y29274296D01*
X17495152Y29345724D01*
X17518961Y29440962D01*
X17542771Y29488581D01*
X17590390Y29536200D01*
X17661819Y29560010D01*
X17709438Y29560010D01*
X17780866Y29536200D01*
X17804676Y29512391D01*
X17995152Y29512391D02*
X18018961Y29536200D01*
X18066580Y29560010D01*
X18185628Y29560010D01*
X18233247Y29536200D01*
X18257057Y29512391D01*
X18280866Y29464772D01*
X18280866Y29417153D01*
X18257057Y29345724D01*
X17971342Y29060010D01*
X18280866Y29060010D01*
X18471342Y29512391D02*
X18495152Y29536200D01*
X18542771Y29560010D01*
X18661819Y29560010D01*
X18709438Y29536200D01*
X18733247Y29512391D01*
X18757057Y29464772D01*
X18757057Y29417153D01*
X18733247Y29345724D01*
X18447533Y29060010D01*
X18757057Y29060010D01*
X19233247Y29060010D02*
X18947533Y29060010D01*
X19090390Y29060010D02*
X19090390Y29560010D01*
X19042771Y29488581D01*
X18995152Y29440962D01*
X18947533Y29417153D01*
G04 #@! TO.C,C222*
X15024871Y25157977D02*
X15048680Y25134167D01*
X15072490Y25062739D01*
X15072490Y25015120D01*
X15048680Y24943691D01*
X15001061Y24896072D01*
X14953442Y24872262D01*
X14858204Y24848453D01*
X14786776Y24848453D01*
X14691538Y24872262D01*
X14643919Y24896072D01*
X14596300Y24943691D01*
X14572490Y25015120D01*
X14572490Y25062739D01*
X14596300Y25134167D01*
X14620109Y25157977D01*
X14620109Y25348453D02*
X14596300Y25372262D01*
X14572490Y25419881D01*
X14572490Y25538929D01*
X14596300Y25586548D01*
X14620109Y25610358D01*
X14667728Y25634167D01*
X14715347Y25634167D01*
X14786776Y25610358D01*
X15072490Y25324643D01*
X15072490Y25634167D01*
X14620109Y25824643D02*
X14596300Y25848453D01*
X14572490Y25896072D01*
X14572490Y26015120D01*
X14596300Y26062739D01*
X14620109Y26086548D01*
X14667728Y26110358D01*
X14715347Y26110358D01*
X14786776Y26086548D01*
X15072490Y25800834D01*
X15072490Y26110358D01*
X14620109Y26300834D02*
X14596300Y26324643D01*
X14572490Y26372262D01*
X14572490Y26491310D01*
X14596300Y26538929D01*
X14620109Y26562739D01*
X14667728Y26586548D01*
X14715347Y26586548D01*
X14786776Y26562739D01*
X15072490Y26277024D01*
X15072490Y26586548D01*
G04 #@! TO.C,C223*
X14731276Y23164029D02*
X14707466Y23140220D01*
X14636038Y23116410D01*
X14588419Y23116410D01*
X14516990Y23140220D01*
X14469371Y23187839D01*
X14445561Y23235458D01*
X14421752Y23330696D01*
X14421752Y23402124D01*
X14445561Y23497362D01*
X14469371Y23544981D01*
X14516990Y23592600D01*
X14588419Y23616410D01*
X14636038Y23616410D01*
X14707466Y23592600D01*
X14731276Y23568791D01*
X14921752Y23568791D02*
X14945561Y23592600D01*
X14993180Y23616410D01*
X15112228Y23616410D01*
X15159847Y23592600D01*
X15183657Y23568791D01*
X15207466Y23521172D01*
X15207466Y23473553D01*
X15183657Y23402124D01*
X14897942Y23116410D01*
X15207466Y23116410D01*
X15397942Y23568791D02*
X15421752Y23592600D01*
X15469371Y23616410D01*
X15588419Y23616410D01*
X15636038Y23592600D01*
X15659847Y23568791D01*
X15683657Y23521172D01*
X15683657Y23473553D01*
X15659847Y23402124D01*
X15374133Y23116410D01*
X15683657Y23116410D01*
X15850323Y23616410D02*
X16159847Y23616410D01*
X15993180Y23425934D01*
X16064609Y23425934D01*
X16112228Y23402124D01*
X16136038Y23378315D01*
X16159847Y23330696D01*
X16159847Y23211648D01*
X16136038Y23164029D01*
X16112228Y23140220D01*
X16064609Y23116410D01*
X15921752Y23116410D01*
X15874133Y23140220D01*
X15850323Y23164029D01*
G04 #@! TO.C,C224*
X18122176Y23037029D02*
X18098366Y23013220D01*
X18026938Y22989410D01*
X17979319Y22989410D01*
X17907890Y23013220D01*
X17860271Y23060839D01*
X17836461Y23108458D01*
X17812652Y23203696D01*
X17812652Y23275124D01*
X17836461Y23370362D01*
X17860271Y23417981D01*
X17907890Y23465600D01*
X17979319Y23489410D01*
X18026938Y23489410D01*
X18098366Y23465600D01*
X18122176Y23441791D01*
X18312652Y23441791D02*
X18336461Y23465600D01*
X18384080Y23489410D01*
X18503128Y23489410D01*
X18550747Y23465600D01*
X18574557Y23441791D01*
X18598366Y23394172D01*
X18598366Y23346553D01*
X18574557Y23275124D01*
X18288842Y22989410D01*
X18598366Y22989410D01*
X18788842Y23441791D02*
X18812652Y23465600D01*
X18860271Y23489410D01*
X18979319Y23489410D01*
X19026938Y23465600D01*
X19050747Y23441791D01*
X19074557Y23394172D01*
X19074557Y23346553D01*
X19050747Y23275124D01*
X18765033Y22989410D01*
X19074557Y22989410D01*
X19503128Y23322743D02*
X19503128Y22989410D01*
X19384080Y23513220D02*
X19265033Y23156077D01*
X19574557Y23156077D01*
G04 #@! TO.C,C401*
X3823471Y39369277D02*
X3847280Y39345467D01*
X3871090Y39274039D01*
X3871090Y39226420D01*
X3847280Y39154991D01*
X3799661Y39107372D01*
X3752042Y39083562D01*
X3656804Y39059753D01*
X3585376Y39059753D01*
X3490138Y39083562D01*
X3442519Y39107372D01*
X3394900Y39154991D01*
X3371090Y39226420D01*
X3371090Y39274039D01*
X3394900Y39345467D01*
X3418709Y39369277D01*
X3537757Y39797848D02*
X3871090Y39797848D01*
X3347280Y39678800D02*
X3704423Y39559753D01*
X3704423Y39869277D01*
X3371090Y40154991D02*
X3371090Y40202610D01*
X3394900Y40250229D01*
X3418709Y40274039D01*
X3466328Y40297848D01*
X3561566Y40321658D01*
X3680614Y40321658D01*
X3775852Y40297848D01*
X3823471Y40274039D01*
X3847280Y40250229D01*
X3871090Y40202610D01*
X3871090Y40154991D01*
X3847280Y40107372D01*
X3823471Y40083562D01*
X3775852Y40059753D01*
X3680614Y40035943D01*
X3561566Y40035943D01*
X3466328Y40059753D01*
X3418709Y40083562D01*
X3394900Y40107372D01*
X3371090Y40154991D01*
X3871090Y40797848D02*
X3871090Y40512134D01*
X3871090Y40654991D02*
X3371090Y40654991D01*
X3442519Y40607372D01*
X3490138Y40559753D01*
X3513947Y40512134D01*
G04 #@! TO.C,C502*
X39102576Y25234129D02*
X39078766Y25210320D01*
X39007338Y25186510D01*
X38959719Y25186510D01*
X38888290Y25210320D01*
X38840671Y25257939D01*
X38816861Y25305558D01*
X38793052Y25400796D01*
X38793052Y25472224D01*
X38816861Y25567462D01*
X38840671Y25615081D01*
X38888290Y25662700D01*
X38959719Y25686510D01*
X39007338Y25686510D01*
X39078766Y25662700D01*
X39102576Y25638891D01*
X39554957Y25686510D02*
X39316861Y25686510D01*
X39293052Y25448415D01*
X39316861Y25472224D01*
X39364480Y25496034D01*
X39483528Y25496034D01*
X39531147Y25472224D01*
X39554957Y25448415D01*
X39578766Y25400796D01*
X39578766Y25281748D01*
X39554957Y25234129D01*
X39531147Y25210320D01*
X39483528Y25186510D01*
X39364480Y25186510D01*
X39316861Y25210320D01*
X39293052Y25234129D01*
X39888290Y25686510D02*
X39935909Y25686510D01*
X39983528Y25662700D01*
X40007338Y25638891D01*
X40031147Y25591272D01*
X40054957Y25496034D01*
X40054957Y25376986D01*
X40031147Y25281748D01*
X40007338Y25234129D01*
X39983528Y25210320D01*
X39935909Y25186510D01*
X39888290Y25186510D01*
X39840671Y25210320D01*
X39816861Y25234129D01*
X39793052Y25281748D01*
X39769242Y25376986D01*
X39769242Y25496034D01*
X39793052Y25591272D01*
X39816861Y25638891D01*
X39840671Y25662700D01*
X39888290Y25686510D01*
X40245433Y25638891D02*
X40269242Y25662700D01*
X40316861Y25686510D01*
X40435909Y25686510D01*
X40483528Y25662700D01*
X40507338Y25638891D01*
X40531147Y25591272D01*
X40531147Y25543653D01*
X40507338Y25472224D01*
X40221623Y25186510D01*
X40531147Y25186510D01*
G04 #@! TO.C,C503*
X28307576Y16902929D02*
X28283766Y16879120D01*
X28212338Y16855310D01*
X28164719Y16855310D01*
X28093290Y16879120D01*
X28045671Y16926739D01*
X28021861Y16974358D01*
X27998052Y17069596D01*
X27998052Y17141024D01*
X28021861Y17236262D01*
X28045671Y17283881D01*
X28093290Y17331500D01*
X28164719Y17355310D01*
X28212338Y17355310D01*
X28283766Y17331500D01*
X28307576Y17307691D01*
X28759957Y17355310D02*
X28521861Y17355310D01*
X28498052Y17117215D01*
X28521861Y17141024D01*
X28569480Y17164834D01*
X28688528Y17164834D01*
X28736147Y17141024D01*
X28759957Y17117215D01*
X28783766Y17069596D01*
X28783766Y16950548D01*
X28759957Y16902929D01*
X28736147Y16879120D01*
X28688528Y16855310D01*
X28569480Y16855310D01*
X28521861Y16879120D01*
X28498052Y16902929D01*
X29093290Y17355310D02*
X29140909Y17355310D01*
X29188528Y17331500D01*
X29212338Y17307691D01*
X29236147Y17260072D01*
X29259957Y17164834D01*
X29259957Y17045786D01*
X29236147Y16950548D01*
X29212338Y16902929D01*
X29188528Y16879120D01*
X29140909Y16855310D01*
X29093290Y16855310D01*
X29045671Y16879120D01*
X29021861Y16902929D01*
X28998052Y16950548D01*
X28974242Y17045786D01*
X28974242Y17164834D01*
X28998052Y17260072D01*
X29021861Y17307691D01*
X29045671Y17331500D01*
X29093290Y17355310D01*
X29426623Y17355310D02*
X29736147Y17355310D01*
X29569480Y17164834D01*
X29640909Y17164834D01*
X29688528Y17141024D01*
X29712338Y17117215D01*
X29736147Y17069596D01*
X29736147Y16950548D01*
X29712338Y16902929D01*
X29688528Y16879120D01*
X29640909Y16855310D01*
X29498052Y16855310D01*
X29450433Y16879120D01*
X29426623Y16902929D01*
G04 #@! TO.C,D203*
X38986590Y45039862D02*
X38486590Y45039862D01*
X38486590Y45158910D01*
X38510400Y45230339D01*
X38558019Y45277958D01*
X38605638Y45301767D01*
X38700876Y45325577D01*
X38772304Y45325577D01*
X38867542Y45301767D01*
X38915161Y45277958D01*
X38962780Y45230339D01*
X38986590Y45158910D01*
X38986590Y45039862D01*
X38534209Y45516053D02*
X38510400Y45539862D01*
X38486590Y45587481D01*
X38486590Y45706529D01*
X38510400Y45754148D01*
X38534209Y45777958D01*
X38581828Y45801767D01*
X38629447Y45801767D01*
X38700876Y45777958D01*
X38986590Y45492243D01*
X38986590Y45801767D01*
X38486590Y46111291D02*
X38486590Y46158910D01*
X38510400Y46206529D01*
X38534209Y46230339D01*
X38581828Y46254148D01*
X38677066Y46277958D01*
X38796114Y46277958D01*
X38891352Y46254148D01*
X38938971Y46230339D01*
X38962780Y46206529D01*
X38986590Y46158910D01*
X38986590Y46111291D01*
X38962780Y46063672D01*
X38938971Y46039862D01*
X38891352Y46016053D01*
X38796114Y45992243D01*
X38677066Y45992243D01*
X38581828Y46016053D01*
X38534209Y46039862D01*
X38510400Y46063672D01*
X38486590Y46111291D01*
X38486590Y46444624D02*
X38486590Y46754148D01*
X38677066Y46587481D01*
X38677066Y46658910D01*
X38700876Y46706529D01*
X38724685Y46730339D01*
X38772304Y46754148D01*
X38891352Y46754148D01*
X38938971Y46730339D01*
X38962780Y46706529D01*
X38986590Y46658910D01*
X38986590Y46516053D01*
X38962780Y46468434D01*
X38938971Y46444624D01*
G04 #@! TO.C,D204*
X22781390Y45712962D02*
X22281390Y45712962D01*
X22281390Y45832010D01*
X22305200Y45903439D01*
X22352819Y45951058D01*
X22400438Y45974867D01*
X22495676Y45998677D01*
X22567104Y45998677D01*
X22662342Y45974867D01*
X22709961Y45951058D01*
X22757580Y45903439D01*
X22781390Y45832010D01*
X22781390Y45712962D01*
X22329009Y46189153D02*
X22305200Y46212962D01*
X22281390Y46260581D01*
X22281390Y46379629D01*
X22305200Y46427248D01*
X22329009Y46451058D01*
X22376628Y46474867D01*
X22424247Y46474867D01*
X22495676Y46451058D01*
X22781390Y46165343D01*
X22781390Y46474867D01*
X22281390Y46784391D02*
X22281390Y46832010D01*
X22305200Y46879629D01*
X22329009Y46903439D01*
X22376628Y46927248D01*
X22471866Y46951058D01*
X22590914Y46951058D01*
X22686152Y46927248D01*
X22733771Y46903439D01*
X22757580Y46879629D01*
X22781390Y46832010D01*
X22781390Y46784391D01*
X22757580Y46736772D01*
X22733771Y46712962D01*
X22686152Y46689153D01*
X22590914Y46665343D01*
X22471866Y46665343D01*
X22376628Y46689153D01*
X22329009Y46712962D01*
X22305200Y46736772D01*
X22281390Y46784391D01*
X22448057Y47379629D02*
X22781390Y47379629D01*
X22257580Y47260581D02*
X22614723Y47141534D01*
X22614723Y47451058D01*
G04 #@! TO.C,D301*
X9433690Y8628962D02*
X8933690Y8628962D01*
X8933690Y8748010D01*
X8957500Y8819439D01*
X9005119Y8867058D01*
X9052738Y8890867D01*
X9147976Y8914677D01*
X9219404Y8914677D01*
X9314642Y8890867D01*
X9362261Y8867058D01*
X9409880Y8819439D01*
X9433690Y8748010D01*
X9433690Y8628962D01*
X8933690Y9081343D02*
X8933690Y9390867D01*
X9124166Y9224200D01*
X9124166Y9295629D01*
X9147976Y9343248D01*
X9171785Y9367058D01*
X9219404Y9390867D01*
X9338452Y9390867D01*
X9386071Y9367058D01*
X9409880Y9343248D01*
X9433690Y9295629D01*
X9433690Y9152772D01*
X9409880Y9105153D01*
X9386071Y9081343D01*
X8933690Y9700391D02*
X8933690Y9748010D01*
X8957500Y9795629D01*
X8981309Y9819439D01*
X9028928Y9843248D01*
X9124166Y9867058D01*
X9243214Y9867058D01*
X9338452Y9843248D01*
X9386071Y9819439D01*
X9409880Y9795629D01*
X9433690Y9748010D01*
X9433690Y9700391D01*
X9409880Y9652772D01*
X9386071Y9628962D01*
X9338452Y9605153D01*
X9243214Y9581343D01*
X9124166Y9581343D01*
X9028928Y9605153D01*
X8981309Y9628962D01*
X8957500Y9652772D01*
X8933690Y9700391D01*
X9433690Y10343248D02*
X9433690Y10057534D01*
X9433690Y10200391D02*
X8933690Y10200391D01*
X9005119Y10152772D01*
X9052738Y10105153D01*
X9076547Y10057534D01*
G04 #@! TO.C,D304*
X8684390Y8590862D02*
X8184390Y8590862D01*
X8184390Y8709910D01*
X8208200Y8781339D01*
X8255819Y8828958D01*
X8303438Y8852767D01*
X8398676Y8876577D01*
X8470104Y8876577D01*
X8565342Y8852767D01*
X8612961Y8828958D01*
X8660580Y8781339D01*
X8684390Y8709910D01*
X8684390Y8590862D01*
X8184390Y9043243D02*
X8184390Y9352767D01*
X8374866Y9186100D01*
X8374866Y9257529D01*
X8398676Y9305148D01*
X8422485Y9328958D01*
X8470104Y9352767D01*
X8589152Y9352767D01*
X8636771Y9328958D01*
X8660580Y9305148D01*
X8684390Y9257529D01*
X8684390Y9114672D01*
X8660580Y9067053D01*
X8636771Y9043243D01*
X8184390Y9662291D02*
X8184390Y9709910D01*
X8208200Y9757529D01*
X8232009Y9781339D01*
X8279628Y9805148D01*
X8374866Y9828958D01*
X8493914Y9828958D01*
X8589152Y9805148D01*
X8636771Y9781339D01*
X8660580Y9757529D01*
X8684390Y9709910D01*
X8684390Y9662291D01*
X8660580Y9614672D01*
X8636771Y9590862D01*
X8589152Y9567053D01*
X8493914Y9543243D01*
X8374866Y9543243D01*
X8279628Y9567053D01*
X8232009Y9590862D01*
X8208200Y9614672D01*
X8184390Y9662291D01*
X8351057Y10257529D02*
X8684390Y10257529D01*
X8160580Y10138481D02*
X8517723Y10019434D01*
X8517723Y10328958D01*
G04 #@! TO.C,D401*
X29258390Y32885962D02*
X28758390Y32885962D01*
X28758390Y33005010D01*
X28782200Y33076439D01*
X28829819Y33124058D01*
X28877438Y33147867D01*
X28972676Y33171677D01*
X29044104Y33171677D01*
X29139342Y33147867D01*
X29186961Y33124058D01*
X29234580Y33076439D01*
X29258390Y33005010D01*
X29258390Y32885962D01*
X28925057Y33600248D02*
X29258390Y33600248D01*
X28734580Y33481200D02*
X29091723Y33362153D01*
X29091723Y33671677D01*
X28758390Y33957391D02*
X28758390Y34005010D01*
X28782200Y34052629D01*
X28806009Y34076439D01*
X28853628Y34100248D01*
X28948866Y34124058D01*
X29067914Y34124058D01*
X29163152Y34100248D01*
X29210771Y34076439D01*
X29234580Y34052629D01*
X29258390Y34005010D01*
X29258390Y33957391D01*
X29234580Y33909772D01*
X29210771Y33885962D01*
X29163152Y33862153D01*
X29067914Y33838343D01*
X28948866Y33838343D01*
X28853628Y33862153D01*
X28806009Y33885962D01*
X28782200Y33909772D01*
X28758390Y33957391D01*
X29258390Y34600248D02*
X29258390Y34314534D01*
X29258390Y34457391D02*
X28758390Y34457391D01*
X28829819Y34409772D01*
X28877438Y34362153D01*
X28901247Y34314534D01*
G04 #@! TO.C,D402*
X29258390Y34943362D02*
X28758390Y34943362D01*
X28758390Y35062410D01*
X28782200Y35133839D01*
X28829819Y35181458D01*
X28877438Y35205267D01*
X28972676Y35229077D01*
X29044104Y35229077D01*
X29139342Y35205267D01*
X29186961Y35181458D01*
X29234580Y35133839D01*
X29258390Y35062410D01*
X29258390Y34943362D01*
X28925057Y35657648D02*
X29258390Y35657648D01*
X28734580Y35538600D02*
X29091723Y35419553D01*
X29091723Y35729077D01*
X28758390Y36014791D02*
X28758390Y36062410D01*
X28782200Y36110029D01*
X28806009Y36133839D01*
X28853628Y36157648D01*
X28948866Y36181458D01*
X29067914Y36181458D01*
X29163152Y36157648D01*
X29210771Y36133839D01*
X29234580Y36110029D01*
X29258390Y36062410D01*
X29258390Y36014791D01*
X29234580Y35967172D01*
X29210771Y35943362D01*
X29163152Y35919553D01*
X29067914Y35895743D01*
X28948866Y35895743D01*
X28853628Y35919553D01*
X28806009Y35943362D01*
X28782200Y35967172D01*
X28758390Y36014791D01*
X28806009Y36371934D02*
X28782200Y36395743D01*
X28758390Y36443362D01*
X28758390Y36562410D01*
X28782200Y36610029D01*
X28806009Y36633839D01*
X28853628Y36657648D01*
X28901247Y36657648D01*
X28972676Y36633839D01*
X29258390Y36348124D01*
X29258390Y36657648D01*
G04 #@! TO.C,D501*
X37310190Y15448862D02*
X36810190Y15448862D01*
X36810190Y15567910D01*
X36834000Y15639339D01*
X36881619Y15686958D01*
X36929238Y15710767D01*
X37024476Y15734577D01*
X37095904Y15734577D01*
X37191142Y15710767D01*
X37238761Y15686958D01*
X37286380Y15639339D01*
X37310190Y15567910D01*
X37310190Y15448862D01*
X36810190Y16186958D02*
X36810190Y15948862D01*
X37048285Y15925053D01*
X37024476Y15948862D01*
X37000666Y15996481D01*
X37000666Y16115529D01*
X37024476Y16163148D01*
X37048285Y16186958D01*
X37095904Y16210767D01*
X37214952Y16210767D01*
X37262571Y16186958D01*
X37286380Y16163148D01*
X37310190Y16115529D01*
X37310190Y15996481D01*
X37286380Y15948862D01*
X37262571Y15925053D01*
X36810190Y16520291D02*
X36810190Y16567910D01*
X36834000Y16615529D01*
X36857809Y16639339D01*
X36905428Y16663148D01*
X37000666Y16686958D01*
X37119714Y16686958D01*
X37214952Y16663148D01*
X37262571Y16639339D01*
X37286380Y16615529D01*
X37310190Y16567910D01*
X37310190Y16520291D01*
X37286380Y16472672D01*
X37262571Y16448862D01*
X37214952Y16425053D01*
X37119714Y16401243D01*
X37000666Y16401243D01*
X36905428Y16425053D01*
X36857809Y16448862D01*
X36834000Y16472672D01*
X36810190Y16520291D01*
X37310190Y17163148D02*
X37310190Y16877434D01*
X37310190Y17020291D02*
X36810190Y17020291D01*
X36881619Y16972672D01*
X36929238Y16925053D01*
X36953047Y16877434D01*
G04 #@! TO.C,IC201*
X26632814Y32146110D02*
X26632814Y32646110D01*
X27156623Y32193729D02*
X27132814Y32169920D01*
X27061385Y32146110D01*
X27013766Y32146110D01*
X26942338Y32169920D01*
X26894719Y32217539D01*
X26870909Y32265158D01*
X26847100Y32360396D01*
X26847100Y32431824D01*
X26870909Y32527062D01*
X26894719Y32574681D01*
X26942338Y32622300D01*
X27013766Y32646110D01*
X27061385Y32646110D01*
X27132814Y32622300D01*
X27156623Y32598491D01*
X27347100Y32598491D02*
X27370909Y32622300D01*
X27418528Y32646110D01*
X27537576Y32646110D01*
X27585195Y32622300D01*
X27609004Y32598491D01*
X27632814Y32550872D01*
X27632814Y32503253D01*
X27609004Y32431824D01*
X27323290Y32146110D01*
X27632814Y32146110D01*
X27942338Y32646110D02*
X27989957Y32646110D01*
X28037576Y32622300D01*
X28061385Y32598491D01*
X28085195Y32550872D01*
X28109004Y32455634D01*
X28109004Y32336586D01*
X28085195Y32241348D01*
X28061385Y32193729D01*
X28037576Y32169920D01*
X27989957Y32146110D01*
X27942338Y32146110D01*
X27894719Y32169920D01*
X27870909Y32193729D01*
X27847100Y32241348D01*
X27823290Y32336586D01*
X27823290Y32455634D01*
X27847100Y32550872D01*
X27870909Y32598491D01*
X27894719Y32622300D01*
X27942338Y32646110D01*
X28585195Y32146110D02*
X28299480Y32146110D01*
X28442338Y32146110D02*
X28442338Y32646110D01*
X28394719Y32574681D01*
X28347100Y32527062D01*
X28299480Y32503253D01*
G04 #@! TO.C,IC202*
X39015314Y41201210D02*
X39015314Y41701210D01*
X39539123Y41248829D02*
X39515314Y41225020D01*
X39443885Y41201210D01*
X39396266Y41201210D01*
X39324838Y41225020D01*
X39277219Y41272639D01*
X39253409Y41320258D01*
X39229600Y41415496D01*
X39229600Y41486924D01*
X39253409Y41582162D01*
X39277219Y41629781D01*
X39324838Y41677400D01*
X39396266Y41701210D01*
X39443885Y41701210D01*
X39515314Y41677400D01*
X39539123Y41653591D01*
X39729600Y41653591D02*
X39753409Y41677400D01*
X39801028Y41701210D01*
X39920076Y41701210D01*
X39967695Y41677400D01*
X39991504Y41653591D01*
X40015314Y41605972D01*
X40015314Y41558353D01*
X39991504Y41486924D01*
X39705790Y41201210D01*
X40015314Y41201210D01*
X40324838Y41701210D02*
X40372457Y41701210D01*
X40420076Y41677400D01*
X40443885Y41653591D01*
X40467695Y41605972D01*
X40491504Y41510734D01*
X40491504Y41391686D01*
X40467695Y41296448D01*
X40443885Y41248829D01*
X40420076Y41225020D01*
X40372457Y41201210D01*
X40324838Y41201210D01*
X40277219Y41225020D01*
X40253409Y41248829D01*
X40229600Y41296448D01*
X40205790Y41391686D01*
X40205790Y41510734D01*
X40229600Y41605972D01*
X40253409Y41653591D01*
X40277219Y41677400D01*
X40324838Y41701210D01*
X40681980Y41653591D02*
X40705790Y41677400D01*
X40753409Y41701210D01*
X40872457Y41701210D01*
X40920076Y41677400D01*
X40943885Y41653591D01*
X40967695Y41605972D01*
X40967695Y41558353D01*
X40943885Y41486924D01*
X40658171Y41201210D01*
X40967695Y41201210D01*
G04 #@! TO.C,IC204*
X27902814Y39448610D02*
X27902814Y39948610D01*
X28426623Y39496229D02*
X28402814Y39472420D01*
X28331385Y39448610D01*
X28283766Y39448610D01*
X28212338Y39472420D01*
X28164719Y39520039D01*
X28140909Y39567658D01*
X28117100Y39662896D01*
X28117100Y39734324D01*
X28140909Y39829562D01*
X28164719Y39877181D01*
X28212338Y39924800D01*
X28283766Y39948610D01*
X28331385Y39948610D01*
X28402814Y39924800D01*
X28426623Y39900991D01*
X28617100Y39900991D02*
X28640909Y39924800D01*
X28688528Y39948610D01*
X28807576Y39948610D01*
X28855195Y39924800D01*
X28879004Y39900991D01*
X28902814Y39853372D01*
X28902814Y39805753D01*
X28879004Y39734324D01*
X28593290Y39448610D01*
X28902814Y39448610D01*
X29212338Y39948610D02*
X29259957Y39948610D01*
X29307576Y39924800D01*
X29331385Y39900991D01*
X29355195Y39853372D01*
X29379004Y39758134D01*
X29379004Y39639086D01*
X29355195Y39543848D01*
X29331385Y39496229D01*
X29307576Y39472420D01*
X29259957Y39448610D01*
X29212338Y39448610D01*
X29164719Y39472420D01*
X29140909Y39496229D01*
X29117100Y39543848D01*
X29093290Y39639086D01*
X29093290Y39758134D01*
X29117100Y39853372D01*
X29140909Y39900991D01*
X29164719Y39924800D01*
X29212338Y39948610D01*
X29807576Y39781943D02*
X29807576Y39448610D01*
X29688528Y39972420D02*
X29569480Y39615277D01*
X29879004Y39615277D01*
G04 #@! TO.C,IC301*
X19009490Y11545215D02*
X18509490Y11545215D01*
X18961871Y12069024D02*
X18985680Y12045215D01*
X19009490Y11973786D01*
X19009490Y11926167D01*
X18985680Y11854739D01*
X18938061Y11807120D01*
X18890442Y11783310D01*
X18795204Y11759500D01*
X18723776Y11759500D01*
X18628538Y11783310D01*
X18580919Y11807120D01*
X18533300Y11854739D01*
X18509490Y11926167D01*
X18509490Y11973786D01*
X18533300Y12045215D01*
X18557109Y12069024D01*
X18509490Y12235691D02*
X18509490Y12545215D01*
X18699966Y12378548D01*
X18699966Y12449977D01*
X18723776Y12497596D01*
X18747585Y12521405D01*
X18795204Y12545215D01*
X18914252Y12545215D01*
X18961871Y12521405D01*
X18985680Y12497596D01*
X19009490Y12449977D01*
X19009490Y12307120D01*
X18985680Y12259500D01*
X18961871Y12235691D01*
X18509490Y12854739D02*
X18509490Y12902358D01*
X18533300Y12949977D01*
X18557109Y12973786D01*
X18604728Y12997596D01*
X18699966Y13021405D01*
X18819014Y13021405D01*
X18914252Y12997596D01*
X18961871Y12973786D01*
X18985680Y12949977D01*
X19009490Y12902358D01*
X19009490Y12854739D01*
X18985680Y12807120D01*
X18961871Y12783310D01*
X18914252Y12759500D01*
X18819014Y12735691D01*
X18699966Y12735691D01*
X18604728Y12759500D01*
X18557109Y12783310D01*
X18533300Y12807120D01*
X18509490Y12854739D01*
X19009490Y13497596D02*
X19009490Y13211881D01*
X19009490Y13354739D02*
X18509490Y13354739D01*
X18580919Y13307120D01*
X18628538Y13259500D01*
X18652347Y13211881D01*
G04 #@! TO.C,IC302*
X9852790Y12129415D02*
X9352790Y12129415D01*
X9805171Y12653224D02*
X9828980Y12629415D01*
X9852790Y12557986D01*
X9852790Y12510367D01*
X9828980Y12438939D01*
X9781361Y12391320D01*
X9733742Y12367510D01*
X9638504Y12343700D01*
X9567076Y12343700D01*
X9471838Y12367510D01*
X9424219Y12391320D01*
X9376600Y12438939D01*
X9352790Y12510367D01*
X9352790Y12557986D01*
X9376600Y12629415D01*
X9400409Y12653224D01*
X9352790Y12819891D02*
X9352790Y13129415D01*
X9543266Y12962748D01*
X9543266Y13034177D01*
X9567076Y13081796D01*
X9590885Y13105605D01*
X9638504Y13129415D01*
X9757552Y13129415D01*
X9805171Y13105605D01*
X9828980Y13081796D01*
X9852790Y13034177D01*
X9852790Y12891320D01*
X9828980Y12843700D01*
X9805171Y12819891D01*
X9352790Y13438939D02*
X9352790Y13486558D01*
X9376600Y13534177D01*
X9400409Y13557986D01*
X9448028Y13581796D01*
X9543266Y13605605D01*
X9662314Y13605605D01*
X9757552Y13581796D01*
X9805171Y13557986D01*
X9828980Y13534177D01*
X9852790Y13486558D01*
X9852790Y13438939D01*
X9828980Y13391320D01*
X9805171Y13367510D01*
X9757552Y13343700D01*
X9662314Y13319891D01*
X9543266Y13319891D01*
X9448028Y13343700D01*
X9400409Y13367510D01*
X9376600Y13391320D01*
X9352790Y13438939D01*
X9400409Y13796081D02*
X9376600Y13819891D01*
X9352790Y13867510D01*
X9352790Y13986558D01*
X9376600Y14034177D01*
X9400409Y14057986D01*
X9448028Y14081796D01*
X9495647Y14081796D01*
X9567076Y14057986D01*
X9852790Y13772272D01*
X9852790Y14081796D01*
G04 #@! TO.C,IC501*
X27759790Y18339715D02*
X27259790Y18339715D01*
X27712171Y18863524D02*
X27735980Y18839715D01*
X27759790Y18768286D01*
X27759790Y18720667D01*
X27735980Y18649239D01*
X27688361Y18601620D01*
X27640742Y18577810D01*
X27545504Y18554000D01*
X27474076Y18554000D01*
X27378838Y18577810D01*
X27331219Y18601620D01*
X27283600Y18649239D01*
X27259790Y18720667D01*
X27259790Y18768286D01*
X27283600Y18839715D01*
X27307409Y18863524D01*
X27259790Y19315905D02*
X27259790Y19077810D01*
X27497885Y19054000D01*
X27474076Y19077810D01*
X27450266Y19125429D01*
X27450266Y19244477D01*
X27474076Y19292096D01*
X27497885Y19315905D01*
X27545504Y19339715D01*
X27664552Y19339715D01*
X27712171Y19315905D01*
X27735980Y19292096D01*
X27759790Y19244477D01*
X27759790Y19125429D01*
X27735980Y19077810D01*
X27712171Y19054000D01*
X27259790Y19649239D02*
X27259790Y19696858D01*
X27283600Y19744477D01*
X27307409Y19768286D01*
X27355028Y19792096D01*
X27450266Y19815905D01*
X27569314Y19815905D01*
X27664552Y19792096D01*
X27712171Y19768286D01*
X27735980Y19744477D01*
X27759790Y19696858D01*
X27759790Y19649239D01*
X27735980Y19601620D01*
X27712171Y19577810D01*
X27664552Y19554000D01*
X27569314Y19530191D01*
X27450266Y19530191D01*
X27355028Y19554000D01*
X27307409Y19577810D01*
X27283600Y19601620D01*
X27259790Y19649239D01*
X27759790Y20292096D02*
X27759790Y20006381D01*
X27759790Y20149239D02*
X27259790Y20149239D01*
X27331219Y20101620D01*
X27378838Y20054000D01*
X27402647Y20006381D01*
G04 #@! TO.C,IC502*
X18603090Y16942715D02*
X18103090Y16942715D01*
X18555471Y17466524D02*
X18579280Y17442715D01*
X18603090Y17371286D01*
X18603090Y17323667D01*
X18579280Y17252239D01*
X18531661Y17204620D01*
X18484042Y17180810D01*
X18388804Y17157000D01*
X18317376Y17157000D01*
X18222138Y17180810D01*
X18174519Y17204620D01*
X18126900Y17252239D01*
X18103090Y17323667D01*
X18103090Y17371286D01*
X18126900Y17442715D01*
X18150709Y17466524D01*
X18103090Y17918905D02*
X18103090Y17680810D01*
X18341185Y17657000D01*
X18317376Y17680810D01*
X18293566Y17728429D01*
X18293566Y17847477D01*
X18317376Y17895096D01*
X18341185Y17918905D01*
X18388804Y17942715D01*
X18507852Y17942715D01*
X18555471Y17918905D01*
X18579280Y17895096D01*
X18603090Y17847477D01*
X18603090Y17728429D01*
X18579280Y17680810D01*
X18555471Y17657000D01*
X18103090Y18252239D02*
X18103090Y18299858D01*
X18126900Y18347477D01*
X18150709Y18371286D01*
X18198328Y18395096D01*
X18293566Y18418905D01*
X18412614Y18418905D01*
X18507852Y18395096D01*
X18555471Y18371286D01*
X18579280Y18347477D01*
X18603090Y18299858D01*
X18603090Y18252239D01*
X18579280Y18204620D01*
X18555471Y18180810D01*
X18507852Y18157000D01*
X18412614Y18133191D01*
X18293566Y18133191D01*
X18198328Y18157000D01*
X18150709Y18180810D01*
X18126900Y18204620D01*
X18103090Y18252239D01*
X18150709Y18609381D02*
X18126900Y18633191D01*
X18103090Y18680810D01*
X18103090Y18799858D01*
X18126900Y18847477D01*
X18150709Y18871286D01*
X18198328Y18895096D01*
X18245947Y18895096D01*
X18317376Y18871286D01*
X18603090Y18585572D01*
X18603090Y18895096D01*
G04 #@! TO.C,IC503*
X12777114Y16791810D02*
X12777114Y17291810D01*
X13300923Y16839429D02*
X13277114Y16815620D01*
X13205685Y16791810D01*
X13158066Y16791810D01*
X13086638Y16815620D01*
X13039019Y16863239D01*
X13015209Y16910858D01*
X12991400Y17006096D01*
X12991400Y17077524D01*
X13015209Y17172762D01*
X13039019Y17220381D01*
X13086638Y17268000D01*
X13158066Y17291810D01*
X13205685Y17291810D01*
X13277114Y17268000D01*
X13300923Y17244191D01*
X13753304Y17291810D02*
X13515209Y17291810D01*
X13491400Y17053715D01*
X13515209Y17077524D01*
X13562828Y17101334D01*
X13681876Y17101334D01*
X13729495Y17077524D01*
X13753304Y17053715D01*
X13777114Y17006096D01*
X13777114Y16887048D01*
X13753304Y16839429D01*
X13729495Y16815620D01*
X13681876Y16791810D01*
X13562828Y16791810D01*
X13515209Y16815620D01*
X13491400Y16839429D01*
X14086638Y17291810D02*
X14134257Y17291810D01*
X14181876Y17268000D01*
X14205685Y17244191D01*
X14229495Y17196572D01*
X14253304Y17101334D01*
X14253304Y16982286D01*
X14229495Y16887048D01*
X14205685Y16839429D01*
X14181876Y16815620D01*
X14134257Y16791810D01*
X14086638Y16791810D01*
X14039019Y16815620D01*
X14015209Y16839429D01*
X13991400Y16887048D01*
X13967590Y16982286D01*
X13967590Y17101334D01*
X13991400Y17196572D01*
X14015209Y17244191D01*
X14039019Y17268000D01*
X14086638Y17291810D01*
X14419971Y17291810D02*
X14729495Y17291810D01*
X14562828Y17101334D01*
X14634257Y17101334D01*
X14681876Y17077524D01*
X14705685Y17053715D01*
X14729495Y17006096D01*
X14729495Y16887048D01*
X14705685Y16839429D01*
X14681876Y16815620D01*
X14634257Y16791810D01*
X14491400Y16791810D01*
X14443780Y16815620D01*
X14419971Y16839429D01*
G04 #@! TO.C,J101*
X2502382Y9843970D02*
X2502382Y9486827D01*
X2478573Y9415399D01*
X2430954Y9367780D01*
X2359525Y9343970D01*
X2311906Y9343970D01*
X3002382Y9343970D02*
X2716668Y9343970D01*
X2859525Y9343970D02*
X2859525Y9843970D01*
X2811906Y9772541D01*
X2764287Y9724922D01*
X2716668Y9701113D01*
X3311906Y9843970D02*
X3359525Y9843970D01*
X3407144Y9820160D01*
X3430954Y9796351D01*
X3454763Y9748732D01*
X3478573Y9653494D01*
X3478573Y9534446D01*
X3454763Y9439208D01*
X3430954Y9391589D01*
X3407144Y9367780D01*
X3359525Y9343970D01*
X3311906Y9343970D01*
X3264287Y9367780D01*
X3240478Y9391589D01*
X3216668Y9439208D01*
X3192859Y9534446D01*
X3192859Y9653494D01*
X3216668Y9748732D01*
X3240478Y9796351D01*
X3264287Y9820160D01*
X3311906Y9843970D01*
X3954763Y9343970D02*
X3669049Y9343970D01*
X3811906Y9343970D02*
X3811906Y9843970D01*
X3764287Y9772541D01*
X3716668Y9724922D01*
X3669049Y9701113D01*
G04 #@! TO.C,J301*
X24990822Y1924810D02*
X24990822Y1567667D01*
X24967013Y1496239D01*
X24919394Y1448620D01*
X24847965Y1424810D01*
X24800346Y1424810D01*
X25181299Y1924810D02*
X25490822Y1924810D01*
X25324156Y1734334D01*
X25395584Y1734334D01*
X25443203Y1710524D01*
X25467013Y1686715D01*
X25490822Y1639096D01*
X25490822Y1520048D01*
X25467013Y1472429D01*
X25443203Y1448620D01*
X25395584Y1424810D01*
X25252727Y1424810D01*
X25205108Y1448620D01*
X25181299Y1472429D01*
X25800346Y1924810D02*
X25847965Y1924810D01*
X25895584Y1901000D01*
X25919394Y1877191D01*
X25943203Y1829572D01*
X25967013Y1734334D01*
X25967013Y1615286D01*
X25943203Y1520048D01*
X25919394Y1472429D01*
X25895584Y1448620D01*
X25847965Y1424810D01*
X25800346Y1424810D01*
X25752727Y1448620D01*
X25728918Y1472429D01*
X25705108Y1520048D01*
X25681299Y1615286D01*
X25681299Y1734334D01*
X25705108Y1829572D01*
X25728918Y1877191D01*
X25752727Y1901000D01*
X25800346Y1924810D01*
X26443203Y1424810D02*
X26157489Y1424810D01*
X26300346Y1424810D02*
X26300346Y1924810D01*
X26252727Y1853381D01*
X26205108Y1805762D01*
X26157489Y1781953D01*
G04 #@! TO.C,J303*
X14211062Y1960370D02*
X14211062Y1603227D01*
X14187253Y1531799D01*
X14139634Y1484180D01*
X14068205Y1460370D01*
X14020586Y1460370D01*
X14401539Y1960370D02*
X14711062Y1960370D01*
X14544396Y1769894D01*
X14615824Y1769894D01*
X14663443Y1746084D01*
X14687253Y1722275D01*
X14711062Y1674656D01*
X14711062Y1555608D01*
X14687253Y1507989D01*
X14663443Y1484180D01*
X14615824Y1460370D01*
X14472967Y1460370D01*
X14425348Y1484180D01*
X14401539Y1507989D01*
X15020586Y1960370D02*
X15068205Y1960370D01*
X15115824Y1936560D01*
X15139634Y1912751D01*
X15163443Y1865132D01*
X15187253Y1769894D01*
X15187253Y1650846D01*
X15163443Y1555608D01*
X15139634Y1507989D01*
X15115824Y1484180D01*
X15068205Y1460370D01*
X15020586Y1460370D01*
X14972967Y1484180D01*
X14949158Y1507989D01*
X14925348Y1555608D01*
X14901539Y1650846D01*
X14901539Y1769894D01*
X14925348Y1865132D01*
X14949158Y1912751D01*
X14972967Y1936560D01*
X15020586Y1960370D01*
X15353920Y1960370D02*
X15663443Y1960370D01*
X15496777Y1769894D01*
X15568205Y1769894D01*
X15615824Y1746084D01*
X15639634Y1722275D01*
X15663443Y1674656D01*
X15663443Y1555608D01*
X15639634Y1507989D01*
X15615824Y1484180D01*
X15568205Y1460370D01*
X15425348Y1460370D01*
X15377729Y1484180D01*
X15353920Y1507989D01*
G04 #@! TO.C,J304*
X33987502Y1884170D02*
X33987502Y1527027D01*
X33963693Y1455599D01*
X33916074Y1407980D01*
X33844645Y1384170D01*
X33797026Y1384170D01*
X34177979Y1884170D02*
X34487502Y1884170D01*
X34320836Y1693694D01*
X34392264Y1693694D01*
X34439883Y1669884D01*
X34463693Y1646075D01*
X34487502Y1598456D01*
X34487502Y1479408D01*
X34463693Y1431789D01*
X34439883Y1407980D01*
X34392264Y1384170D01*
X34249407Y1384170D01*
X34201788Y1407980D01*
X34177979Y1431789D01*
X34797026Y1884170D02*
X34844645Y1884170D01*
X34892264Y1860360D01*
X34916074Y1836551D01*
X34939883Y1788932D01*
X34963693Y1693694D01*
X34963693Y1574646D01*
X34939883Y1479408D01*
X34916074Y1431789D01*
X34892264Y1407980D01*
X34844645Y1384170D01*
X34797026Y1384170D01*
X34749407Y1407980D01*
X34725598Y1431789D01*
X34701788Y1479408D01*
X34677979Y1574646D01*
X34677979Y1693694D01*
X34701788Y1788932D01*
X34725598Y1836551D01*
X34749407Y1860360D01*
X34797026Y1884170D01*
X35392264Y1717503D02*
X35392264Y1384170D01*
X35273217Y1907980D02*
X35154169Y1550837D01*
X35463693Y1550837D01*
G04 #@! TO.C,JP201*
X30961430Y42876423D02*
X31318573Y42876423D01*
X31390001Y42852614D01*
X31437620Y42804995D01*
X31461430Y42733566D01*
X31461430Y42685947D01*
X31461430Y43114519D02*
X30961430Y43114519D01*
X30961430Y43304995D01*
X30985240Y43352614D01*
X31009049Y43376423D01*
X31056668Y43400233D01*
X31128097Y43400233D01*
X31175716Y43376423D01*
X31199525Y43352614D01*
X31223335Y43304995D01*
X31223335Y43114519D01*
X31009049Y43590709D02*
X30985240Y43614519D01*
X30961430Y43662138D01*
X30961430Y43781185D01*
X30985240Y43828804D01*
X31009049Y43852614D01*
X31056668Y43876423D01*
X31104287Y43876423D01*
X31175716Y43852614D01*
X31461430Y43566900D01*
X31461430Y43876423D01*
X30961430Y44185947D02*
X30961430Y44233566D01*
X30985240Y44281185D01*
X31009049Y44304995D01*
X31056668Y44328804D01*
X31151906Y44352614D01*
X31270954Y44352614D01*
X31366192Y44328804D01*
X31413811Y44304995D01*
X31437620Y44281185D01*
X31461430Y44233566D01*
X31461430Y44185947D01*
X31437620Y44138328D01*
X31413811Y44114519D01*
X31366192Y44090709D01*
X31270954Y44066900D01*
X31151906Y44066900D01*
X31056668Y44090709D01*
X31009049Y44114519D01*
X30985240Y44138328D01*
X30961430Y44185947D01*
X31461430Y44828804D02*
X31461430Y44543090D01*
X31461430Y44685947D02*
X30961430Y44685947D01*
X31032859Y44638328D01*
X31080478Y44590709D01*
X31104287Y44543090D01*
G04 #@! TO.C,JP402*
X12581842Y35846510D02*
X12581842Y35489367D01*
X12558033Y35417939D01*
X12510414Y35370320D01*
X12438985Y35346510D01*
X12391366Y35346510D01*
X12819938Y35346510D02*
X12819938Y35846510D01*
X13010414Y35846510D01*
X13058033Y35822700D01*
X13081842Y35798891D01*
X13105652Y35751272D01*
X13105652Y35679843D01*
X13081842Y35632224D01*
X13058033Y35608415D01*
X13010414Y35584605D01*
X12819938Y35584605D01*
X13534223Y35679843D02*
X13534223Y35346510D01*
X13415176Y35870320D02*
X13296128Y35513177D01*
X13605652Y35513177D01*
X13891366Y35846510D02*
X13938985Y35846510D01*
X13986604Y35822700D01*
X14010414Y35798891D01*
X14034223Y35751272D01*
X14058033Y35656034D01*
X14058033Y35536986D01*
X14034223Y35441748D01*
X14010414Y35394129D01*
X13986604Y35370320D01*
X13938985Y35346510D01*
X13891366Y35346510D01*
X13843747Y35370320D01*
X13819938Y35394129D01*
X13796128Y35441748D01*
X13772319Y35536986D01*
X13772319Y35656034D01*
X13796128Y35751272D01*
X13819938Y35798891D01*
X13843747Y35822700D01*
X13891366Y35846510D01*
X14248509Y35798891D02*
X14272319Y35822700D01*
X14319938Y35846510D01*
X14438985Y35846510D01*
X14486604Y35822700D01*
X14510414Y35798891D01*
X14534223Y35751272D01*
X14534223Y35703653D01*
X14510414Y35632224D01*
X14224700Y35346510D01*
X14534223Y35346510D01*
G04 #@! TO.C,L201*
X32295376Y35702110D02*
X32057280Y35702110D01*
X32057280Y36202110D01*
X32438233Y36154491D02*
X32462042Y36178300D01*
X32509661Y36202110D01*
X32628709Y36202110D01*
X32676328Y36178300D01*
X32700138Y36154491D01*
X32723947Y36106872D01*
X32723947Y36059253D01*
X32700138Y35987824D01*
X32414423Y35702110D01*
X32723947Y35702110D01*
X33033471Y36202110D02*
X33081090Y36202110D01*
X33128709Y36178300D01*
X33152519Y36154491D01*
X33176328Y36106872D01*
X33200138Y36011634D01*
X33200138Y35892586D01*
X33176328Y35797348D01*
X33152519Y35749729D01*
X33128709Y35725920D01*
X33081090Y35702110D01*
X33033471Y35702110D01*
X32985852Y35725920D01*
X32962042Y35749729D01*
X32938233Y35797348D01*
X32914423Y35892586D01*
X32914423Y36011634D01*
X32938233Y36106872D01*
X32962042Y36154491D01*
X32985852Y36178300D01*
X33033471Y36202110D01*
X33676328Y35702110D02*
X33390614Y35702110D01*
X33533471Y35702110D02*
X33533471Y36202110D01*
X33485852Y36130681D01*
X33438233Y36083062D01*
X33390614Y36059253D01*
G04 #@! TO.C,L301*
X27520176Y14683610D02*
X27282080Y14683610D01*
X27282080Y15183610D01*
X27639223Y15183610D02*
X27948747Y15183610D01*
X27782080Y14993134D01*
X27853509Y14993134D01*
X27901128Y14969324D01*
X27924938Y14945515D01*
X27948747Y14897896D01*
X27948747Y14778848D01*
X27924938Y14731229D01*
X27901128Y14707420D01*
X27853509Y14683610D01*
X27710652Y14683610D01*
X27663033Y14707420D01*
X27639223Y14731229D01*
X28258271Y15183610D02*
X28305890Y15183610D01*
X28353509Y15159800D01*
X28377319Y15135991D01*
X28401128Y15088372D01*
X28424938Y14993134D01*
X28424938Y14874086D01*
X28401128Y14778848D01*
X28377319Y14731229D01*
X28353509Y14707420D01*
X28305890Y14683610D01*
X28258271Y14683610D01*
X28210652Y14707420D01*
X28186842Y14731229D01*
X28163033Y14778848D01*
X28139223Y14874086D01*
X28139223Y14993134D01*
X28163033Y15088372D01*
X28186842Y15135991D01*
X28210652Y15159800D01*
X28258271Y15183610D01*
X28901128Y14683610D02*
X28615414Y14683610D01*
X28758271Y14683610D02*
X28758271Y15183610D01*
X28710652Y15112181D01*
X28663033Y15064562D01*
X28615414Y15040753D01*
G04 #@! TO.C,L302*
X33057376Y15140810D02*
X32819280Y15140810D01*
X32819280Y15640810D01*
X33176423Y15640810D02*
X33485947Y15640810D01*
X33319280Y15450334D01*
X33390709Y15450334D01*
X33438328Y15426524D01*
X33462138Y15402715D01*
X33485947Y15355096D01*
X33485947Y15236048D01*
X33462138Y15188429D01*
X33438328Y15164620D01*
X33390709Y15140810D01*
X33247852Y15140810D01*
X33200233Y15164620D01*
X33176423Y15188429D01*
X33795471Y15640810D02*
X33843090Y15640810D01*
X33890709Y15617000D01*
X33914519Y15593191D01*
X33938328Y15545572D01*
X33962138Y15450334D01*
X33962138Y15331286D01*
X33938328Y15236048D01*
X33914519Y15188429D01*
X33890709Y15164620D01*
X33843090Y15140810D01*
X33795471Y15140810D01*
X33747852Y15164620D01*
X33724042Y15188429D01*
X33700233Y15236048D01*
X33676423Y15331286D01*
X33676423Y15450334D01*
X33700233Y15545572D01*
X33724042Y15593191D01*
X33747852Y15617000D01*
X33795471Y15640810D01*
X34152614Y15593191D02*
X34176423Y15617000D01*
X34224042Y15640810D01*
X34343090Y15640810D01*
X34390709Y15617000D01*
X34414519Y15593191D01*
X34438328Y15545572D01*
X34438328Y15497953D01*
X34414519Y15426524D01*
X34128804Y15140810D01*
X34438328Y15140810D01*
G04 #@! TO.C,R201*
X31774676Y26139010D02*
X31608009Y26377105D01*
X31488961Y26139010D02*
X31488961Y26639010D01*
X31679438Y26639010D01*
X31727057Y26615200D01*
X31750866Y26591391D01*
X31774676Y26543772D01*
X31774676Y26472343D01*
X31750866Y26424724D01*
X31727057Y26400915D01*
X31679438Y26377105D01*
X31488961Y26377105D01*
X31965152Y26591391D02*
X31988961Y26615200D01*
X32036580Y26639010D01*
X32155628Y26639010D01*
X32203247Y26615200D01*
X32227057Y26591391D01*
X32250866Y26543772D01*
X32250866Y26496153D01*
X32227057Y26424724D01*
X31941342Y26139010D01*
X32250866Y26139010D01*
X32560390Y26639010D02*
X32608009Y26639010D01*
X32655628Y26615200D01*
X32679438Y26591391D01*
X32703247Y26543772D01*
X32727057Y26448534D01*
X32727057Y26329486D01*
X32703247Y26234248D01*
X32679438Y26186629D01*
X32655628Y26162820D01*
X32608009Y26139010D01*
X32560390Y26139010D01*
X32512771Y26162820D01*
X32488961Y26186629D01*
X32465152Y26234248D01*
X32441342Y26329486D01*
X32441342Y26448534D01*
X32465152Y26543772D01*
X32488961Y26591391D01*
X32512771Y26615200D01*
X32560390Y26639010D01*
X33203247Y26139010D02*
X32917533Y26139010D01*
X33060390Y26139010D02*
X33060390Y26639010D01*
X33012771Y26567581D01*
X32965152Y26519962D01*
X32917533Y26496153D01*
G04 #@! TO.C,R202*
X42607776Y30126810D02*
X42441109Y30364905D01*
X42322061Y30126810D02*
X42322061Y30626810D01*
X42512538Y30626810D01*
X42560157Y30603000D01*
X42583966Y30579191D01*
X42607776Y30531572D01*
X42607776Y30460143D01*
X42583966Y30412524D01*
X42560157Y30388715D01*
X42512538Y30364905D01*
X42322061Y30364905D01*
X42798252Y30579191D02*
X42822061Y30603000D01*
X42869680Y30626810D01*
X42988728Y30626810D01*
X43036347Y30603000D01*
X43060157Y30579191D01*
X43083966Y30531572D01*
X43083966Y30483953D01*
X43060157Y30412524D01*
X42774442Y30126810D01*
X43083966Y30126810D01*
X43393490Y30626810D02*
X43441109Y30626810D01*
X43488728Y30603000D01*
X43512538Y30579191D01*
X43536347Y30531572D01*
X43560157Y30436334D01*
X43560157Y30317286D01*
X43536347Y30222048D01*
X43512538Y30174429D01*
X43488728Y30150620D01*
X43441109Y30126810D01*
X43393490Y30126810D01*
X43345871Y30150620D01*
X43322061Y30174429D01*
X43298252Y30222048D01*
X43274442Y30317286D01*
X43274442Y30436334D01*
X43298252Y30531572D01*
X43322061Y30579191D01*
X43345871Y30603000D01*
X43393490Y30626810D01*
X43750633Y30579191D02*
X43774442Y30603000D01*
X43822061Y30626810D01*
X43941109Y30626810D01*
X43988728Y30603000D01*
X44012538Y30579191D01*
X44036347Y30531572D01*
X44036347Y30483953D01*
X44012538Y30412524D01*
X43726823Y30126810D01*
X44036347Y30126810D01*
G04 #@! TO.C,R205*
X39267676Y43461810D02*
X39101009Y43699905D01*
X38981961Y43461810D02*
X38981961Y43961810D01*
X39172438Y43961810D01*
X39220057Y43938000D01*
X39243866Y43914191D01*
X39267676Y43866572D01*
X39267676Y43795143D01*
X39243866Y43747524D01*
X39220057Y43723715D01*
X39172438Y43699905D01*
X38981961Y43699905D01*
X39458152Y43914191D02*
X39481961Y43938000D01*
X39529580Y43961810D01*
X39648628Y43961810D01*
X39696247Y43938000D01*
X39720057Y43914191D01*
X39743866Y43866572D01*
X39743866Y43818953D01*
X39720057Y43747524D01*
X39434342Y43461810D01*
X39743866Y43461810D01*
X40053390Y43961810D02*
X40101009Y43961810D01*
X40148628Y43938000D01*
X40172438Y43914191D01*
X40196247Y43866572D01*
X40220057Y43771334D01*
X40220057Y43652286D01*
X40196247Y43557048D01*
X40172438Y43509429D01*
X40148628Y43485620D01*
X40101009Y43461810D01*
X40053390Y43461810D01*
X40005771Y43485620D01*
X39981961Y43509429D01*
X39958152Y43557048D01*
X39934342Y43652286D01*
X39934342Y43771334D01*
X39958152Y43866572D01*
X39981961Y43914191D01*
X40005771Y43938000D01*
X40053390Y43961810D01*
X40672438Y43961810D02*
X40434342Y43961810D01*
X40410533Y43723715D01*
X40434342Y43747524D01*
X40481961Y43771334D01*
X40601009Y43771334D01*
X40648628Y43747524D01*
X40672438Y43723715D01*
X40696247Y43676096D01*
X40696247Y43557048D01*
X40672438Y43509429D01*
X40648628Y43485620D01*
X40601009Y43461810D01*
X40481961Y43461810D01*
X40434342Y43485620D01*
X40410533Y43509429D01*
G04 #@! TO.C,R206*
X31861890Y45935177D02*
X31623795Y45768510D01*
X31861890Y45649462D02*
X31361890Y45649462D01*
X31361890Y45839939D01*
X31385700Y45887558D01*
X31409509Y45911367D01*
X31457128Y45935177D01*
X31528557Y45935177D01*
X31576176Y45911367D01*
X31599985Y45887558D01*
X31623795Y45839939D01*
X31623795Y45649462D01*
X31409509Y46125653D02*
X31385700Y46149462D01*
X31361890Y46197081D01*
X31361890Y46316129D01*
X31385700Y46363748D01*
X31409509Y46387558D01*
X31457128Y46411367D01*
X31504747Y46411367D01*
X31576176Y46387558D01*
X31861890Y46101843D01*
X31861890Y46411367D01*
X31361890Y46720891D02*
X31361890Y46768510D01*
X31385700Y46816129D01*
X31409509Y46839939D01*
X31457128Y46863748D01*
X31552366Y46887558D01*
X31671414Y46887558D01*
X31766652Y46863748D01*
X31814271Y46839939D01*
X31838080Y46816129D01*
X31861890Y46768510D01*
X31861890Y46720891D01*
X31838080Y46673272D01*
X31814271Y46649462D01*
X31766652Y46625653D01*
X31671414Y46601843D01*
X31552366Y46601843D01*
X31457128Y46625653D01*
X31409509Y46649462D01*
X31385700Y46673272D01*
X31361890Y46720891D01*
X31361890Y47316129D02*
X31361890Y47220891D01*
X31385700Y47173272D01*
X31409509Y47149462D01*
X31480938Y47101843D01*
X31576176Y47078034D01*
X31766652Y47078034D01*
X31814271Y47101843D01*
X31838080Y47125653D01*
X31861890Y47173272D01*
X31861890Y47268510D01*
X31838080Y47316129D01*
X31814271Y47339939D01*
X31766652Y47363748D01*
X31647604Y47363748D01*
X31599985Y47339939D01*
X31576176Y47316129D01*
X31552366Y47268510D01*
X31552366Y47173272D01*
X31576176Y47125653D01*
X31599985Y47101843D01*
X31647604Y47078034D01*
G04 #@! TO.C,R207*
X36586290Y41375877D02*
X36348195Y41209210D01*
X36586290Y41090162D02*
X36086290Y41090162D01*
X36086290Y41280639D01*
X36110100Y41328258D01*
X36133909Y41352067D01*
X36181528Y41375877D01*
X36252957Y41375877D01*
X36300576Y41352067D01*
X36324385Y41328258D01*
X36348195Y41280639D01*
X36348195Y41090162D01*
X36133909Y41566353D02*
X36110100Y41590162D01*
X36086290Y41637781D01*
X36086290Y41756829D01*
X36110100Y41804448D01*
X36133909Y41828258D01*
X36181528Y41852067D01*
X36229147Y41852067D01*
X36300576Y41828258D01*
X36586290Y41542543D01*
X36586290Y41852067D01*
X36086290Y42161591D02*
X36086290Y42209210D01*
X36110100Y42256829D01*
X36133909Y42280639D01*
X36181528Y42304448D01*
X36276766Y42328258D01*
X36395814Y42328258D01*
X36491052Y42304448D01*
X36538671Y42280639D01*
X36562480Y42256829D01*
X36586290Y42209210D01*
X36586290Y42161591D01*
X36562480Y42113972D01*
X36538671Y42090162D01*
X36491052Y42066353D01*
X36395814Y42042543D01*
X36276766Y42042543D01*
X36181528Y42066353D01*
X36133909Y42090162D01*
X36110100Y42113972D01*
X36086290Y42161591D01*
X36086290Y42494924D02*
X36086290Y42828258D01*
X36586290Y42613972D01*
G04 #@! TO.C,R209*
X27050276Y45379510D02*
X26883609Y45617605D01*
X26764561Y45379510D02*
X26764561Y45879510D01*
X26955038Y45879510D01*
X27002657Y45855700D01*
X27026466Y45831891D01*
X27050276Y45784272D01*
X27050276Y45712843D01*
X27026466Y45665224D01*
X27002657Y45641415D01*
X26955038Y45617605D01*
X26764561Y45617605D01*
X27240752Y45831891D02*
X27264561Y45855700D01*
X27312180Y45879510D01*
X27431228Y45879510D01*
X27478847Y45855700D01*
X27502657Y45831891D01*
X27526466Y45784272D01*
X27526466Y45736653D01*
X27502657Y45665224D01*
X27216942Y45379510D01*
X27526466Y45379510D01*
X27835990Y45879510D02*
X27883609Y45879510D01*
X27931228Y45855700D01*
X27955038Y45831891D01*
X27978847Y45784272D01*
X28002657Y45689034D01*
X28002657Y45569986D01*
X27978847Y45474748D01*
X27955038Y45427129D01*
X27931228Y45403320D01*
X27883609Y45379510D01*
X27835990Y45379510D01*
X27788371Y45403320D01*
X27764561Y45427129D01*
X27740752Y45474748D01*
X27716942Y45569986D01*
X27716942Y45689034D01*
X27740752Y45784272D01*
X27764561Y45831891D01*
X27788371Y45855700D01*
X27835990Y45879510D01*
X28240752Y45379510D02*
X28335990Y45379510D01*
X28383609Y45403320D01*
X28407419Y45427129D01*
X28455038Y45498558D01*
X28478847Y45593796D01*
X28478847Y45784272D01*
X28455038Y45831891D01*
X28431228Y45855700D01*
X28383609Y45879510D01*
X28288371Y45879510D01*
X28240752Y45855700D01*
X28216942Y45831891D01*
X28193133Y45784272D01*
X28193133Y45665224D01*
X28216942Y45617605D01*
X28240752Y45593796D01*
X28288371Y45569986D01*
X28383609Y45569986D01*
X28431228Y45593796D01*
X28455038Y45617605D01*
X28478847Y45665224D01*
G04 #@! TO.C,R211*
X29475976Y38254810D02*
X29309309Y38492905D01*
X29190261Y38254810D02*
X29190261Y38754810D01*
X29380738Y38754810D01*
X29428357Y38731000D01*
X29452166Y38707191D01*
X29475976Y38659572D01*
X29475976Y38588143D01*
X29452166Y38540524D01*
X29428357Y38516715D01*
X29380738Y38492905D01*
X29190261Y38492905D01*
X29666452Y38707191D02*
X29690261Y38731000D01*
X29737880Y38754810D01*
X29856928Y38754810D01*
X29904547Y38731000D01*
X29928357Y38707191D01*
X29952166Y38659572D01*
X29952166Y38611953D01*
X29928357Y38540524D01*
X29642642Y38254810D01*
X29952166Y38254810D01*
X30428357Y38254810D02*
X30142642Y38254810D01*
X30285500Y38254810D02*
X30285500Y38754810D01*
X30237880Y38683381D01*
X30190261Y38635762D01*
X30142642Y38611953D01*
X30904547Y38254810D02*
X30618833Y38254810D01*
X30761690Y38254810D02*
X30761690Y38754810D01*
X30714071Y38683381D01*
X30666452Y38635762D01*
X30618833Y38611953D01*
G04 #@! TO.C,R212*
X26440676Y38280210D02*
X26274009Y38518305D01*
X26154961Y38280210D02*
X26154961Y38780210D01*
X26345438Y38780210D01*
X26393057Y38756400D01*
X26416866Y38732591D01*
X26440676Y38684972D01*
X26440676Y38613543D01*
X26416866Y38565924D01*
X26393057Y38542115D01*
X26345438Y38518305D01*
X26154961Y38518305D01*
X26631152Y38732591D02*
X26654961Y38756400D01*
X26702580Y38780210D01*
X26821628Y38780210D01*
X26869247Y38756400D01*
X26893057Y38732591D01*
X26916866Y38684972D01*
X26916866Y38637353D01*
X26893057Y38565924D01*
X26607342Y38280210D01*
X26916866Y38280210D01*
X27393057Y38280210D02*
X27107342Y38280210D01*
X27250200Y38280210D02*
X27250200Y38780210D01*
X27202580Y38708781D01*
X27154961Y38661162D01*
X27107342Y38637353D01*
X27583533Y38732591D02*
X27607342Y38756400D01*
X27654961Y38780210D01*
X27774009Y38780210D01*
X27821628Y38756400D01*
X27845438Y38732591D01*
X27869247Y38684972D01*
X27869247Y38637353D01*
X27845438Y38565924D01*
X27559723Y38280210D01*
X27869247Y38280210D01*
G04 #@! TO.C,R411*
X14743976Y32489010D02*
X14577309Y32727105D01*
X14458261Y32489010D02*
X14458261Y32989010D01*
X14648738Y32989010D01*
X14696357Y32965200D01*
X14720166Y32941391D01*
X14743976Y32893772D01*
X14743976Y32822343D01*
X14720166Y32774724D01*
X14696357Y32750915D01*
X14648738Y32727105D01*
X14458261Y32727105D01*
X15172547Y32822343D02*
X15172547Y32489010D01*
X15053500Y33012820D02*
X14934452Y32655677D01*
X15243976Y32655677D01*
X15696357Y32489010D02*
X15410642Y32489010D01*
X15553500Y32489010D02*
X15553500Y32989010D01*
X15505880Y32917581D01*
X15458261Y32869962D01*
X15410642Y32846153D01*
X16172547Y32489010D02*
X15886833Y32489010D01*
X16029690Y32489010D02*
X16029690Y32989010D01*
X15982071Y32917581D01*
X15934452Y32869962D01*
X15886833Y32846153D01*
G04 #@! TO.C,R502*
X37348290Y21995677D02*
X37110195Y21829010D01*
X37348290Y21709962D02*
X36848290Y21709962D01*
X36848290Y21900439D01*
X36872100Y21948058D01*
X36895909Y21971867D01*
X36943528Y21995677D01*
X37014957Y21995677D01*
X37062576Y21971867D01*
X37086385Y21948058D01*
X37110195Y21900439D01*
X37110195Y21709962D01*
X36848290Y22448058D02*
X36848290Y22209962D01*
X37086385Y22186153D01*
X37062576Y22209962D01*
X37038766Y22257581D01*
X37038766Y22376629D01*
X37062576Y22424248D01*
X37086385Y22448058D01*
X37134004Y22471867D01*
X37253052Y22471867D01*
X37300671Y22448058D01*
X37324480Y22424248D01*
X37348290Y22376629D01*
X37348290Y22257581D01*
X37324480Y22209962D01*
X37300671Y22186153D01*
X36848290Y22781391D02*
X36848290Y22829010D01*
X36872100Y22876629D01*
X36895909Y22900439D01*
X36943528Y22924248D01*
X37038766Y22948058D01*
X37157814Y22948058D01*
X37253052Y22924248D01*
X37300671Y22900439D01*
X37324480Y22876629D01*
X37348290Y22829010D01*
X37348290Y22781391D01*
X37324480Y22733772D01*
X37300671Y22709962D01*
X37253052Y22686153D01*
X37157814Y22662343D01*
X37038766Y22662343D01*
X36943528Y22686153D01*
X36895909Y22709962D01*
X36872100Y22733772D01*
X36848290Y22781391D01*
X36895909Y23138534D02*
X36872100Y23162343D01*
X36848290Y23209962D01*
X36848290Y23329010D01*
X36872100Y23376629D01*
X36895909Y23400439D01*
X36943528Y23424248D01*
X36991147Y23424248D01*
X37062576Y23400439D01*
X37348290Y23114724D01*
X37348290Y23424248D01*
G04 #@! TO.C,XTAL401*
X19461990Y30960405D02*
X19961990Y31293739D01*
X19461990Y31293739D02*
X19961990Y30960405D01*
X19461990Y31412786D02*
X19461990Y31698500D01*
X19961990Y31555643D02*
X19461990Y31555643D01*
X19819133Y31841358D02*
X19819133Y32079453D01*
X19961990Y31793739D02*
X19461990Y31960405D01*
X19961990Y32127072D01*
X19961990Y32531834D02*
X19961990Y32293739D01*
X19461990Y32293739D01*
X19628657Y32912786D02*
X19961990Y32912786D01*
X19438180Y32793739D02*
X19795323Y32674691D01*
X19795323Y32984215D01*
X19461990Y33269929D02*
X19461990Y33317548D01*
X19485800Y33365167D01*
X19509609Y33388977D01*
X19557228Y33412786D01*
X19652466Y33436596D01*
X19771514Y33436596D01*
X19866752Y33412786D01*
X19914371Y33388977D01*
X19938180Y33365167D01*
X19961990Y33317548D01*
X19961990Y33269929D01*
X19938180Y33222310D01*
X19914371Y33198500D01*
X19866752Y33174691D01*
X19771514Y33150881D01*
X19652466Y33150881D01*
X19557228Y33174691D01*
X19509609Y33198500D01*
X19485800Y33222310D01*
X19461990Y33269929D01*
X19961990Y33912786D02*
X19961990Y33627072D01*
X19961990Y33769929D02*
X19461990Y33769929D01*
X19533419Y33722310D01*
X19581038Y33674691D01*
X19604847Y33627072D01*
G04 #@! TO.C,J401*
X5631690Y41851343D02*
X5988833Y41851343D01*
X6060261Y41827534D01*
X6107880Y41779915D01*
X6131690Y41708486D01*
X6131690Y41660867D01*
X5798357Y42303724D02*
X6131690Y42303724D01*
X5607880Y42184677D02*
X5965023Y42065629D01*
X5965023Y42375153D01*
X5631690Y42660867D02*
X5631690Y42708486D01*
X5655500Y42756105D01*
X5679309Y42779915D01*
X5726928Y42803724D01*
X5822166Y42827534D01*
X5941214Y42827534D01*
X6036452Y42803724D01*
X6084071Y42779915D01*
X6107880Y42756105D01*
X6131690Y42708486D01*
X6131690Y42660867D01*
X6107880Y42613248D01*
X6084071Y42589439D01*
X6036452Y42565629D01*
X5941214Y42541820D01*
X5822166Y42541820D01*
X5726928Y42565629D01*
X5679309Y42589439D01*
X5655500Y42613248D01*
X5631690Y42660867D01*
X6131690Y43303724D02*
X6131690Y43018010D01*
X6131690Y43160867D02*
X5631690Y43160867D01*
X5703119Y43113248D01*
X5750738Y43065629D01*
X5774547Y43018010D01*
G04 #@! TO.C,J402*
X4450590Y33075643D02*
X4807733Y33075643D01*
X4879161Y33051834D01*
X4926780Y33004215D01*
X4950590Y32932786D01*
X4950590Y32885167D01*
X4617257Y33528024D02*
X4950590Y33528024D01*
X4426780Y33408977D02*
X4783923Y33289929D01*
X4783923Y33599453D01*
X4450590Y33885167D02*
X4450590Y33932786D01*
X4474400Y33980405D01*
X4498209Y34004215D01*
X4545828Y34028024D01*
X4641066Y34051834D01*
X4760114Y34051834D01*
X4855352Y34028024D01*
X4902971Y34004215D01*
X4926780Y33980405D01*
X4950590Y33932786D01*
X4950590Y33885167D01*
X4926780Y33837548D01*
X4902971Y33813739D01*
X4855352Y33789929D01*
X4760114Y33766120D01*
X4641066Y33766120D01*
X4545828Y33789929D01*
X4498209Y33813739D01*
X4474400Y33837548D01*
X4450590Y33885167D01*
X4498209Y34242310D02*
X4474400Y34266120D01*
X4450590Y34313739D01*
X4450590Y34432786D01*
X4474400Y34480405D01*
X4498209Y34504215D01*
X4545828Y34528024D01*
X4593447Y34528024D01*
X4664876Y34504215D01*
X4950590Y34218500D01*
X4950590Y34528024D01*
D14*
X1018190Y30689048D02*
X1018190Y30450953D01*
X1256285Y30427143D01*
X1232476Y30450953D01*
X1208666Y30498572D01*
X1208666Y30617620D01*
X1232476Y30665239D01*
X1256285Y30689048D01*
X1303904Y30712858D01*
X1422952Y30712858D01*
X1470571Y30689048D01*
X1494380Y30665239D01*
X1518190Y30617620D01*
X1518190Y30498572D01*
X1494380Y30450953D01*
X1470571Y30427143D01*
X3939190Y30665239D02*
X3939190Y30570000D01*
X3963000Y30522381D01*
X3986809Y30498572D01*
X4058238Y30450953D01*
X4153476Y30427143D01*
X4343952Y30427143D01*
X4391571Y30450953D01*
X4415380Y30474762D01*
X4439190Y30522381D01*
X4439190Y30617620D01*
X4415380Y30665239D01*
X4391571Y30689048D01*
X4343952Y30712858D01*
X4224904Y30712858D01*
X4177285Y30689048D01*
X4153476Y30665239D01*
X4129666Y30617620D01*
X4129666Y30522381D01*
X4153476Y30474762D01*
X4177285Y30450953D01*
X4224904Y30427143D01*
X4108990Y36793853D02*
X4108990Y36508139D01*
X4108990Y36650996D02*
X3608990Y36650996D01*
X3680419Y36603377D01*
X3728038Y36555758D01*
X3751847Y36508139D01*
X3608990Y37103377D02*
X3608990Y37150996D01*
X3632800Y37198615D01*
X3656609Y37222424D01*
X3704228Y37246234D01*
X3799466Y37270043D01*
X3918514Y37270043D01*
X4013752Y37246234D01*
X4061371Y37222424D01*
X4085180Y37198615D01*
X4108990Y37150996D01*
X4108990Y37103377D01*
X4085180Y37055758D01*
X4061371Y37031948D01*
X4013752Y37008139D01*
X3918514Y36984329D01*
X3799466Y36984329D01*
X3704228Y37008139D01*
X3656609Y37031948D01*
X3632800Y37055758D01*
X3608990Y37103377D01*
X1988090Y36793853D02*
X1988090Y36508139D01*
X1988090Y36650996D02*
X1488090Y36650996D01*
X1559519Y36603377D01*
X1607138Y36555758D01*
X1630947Y36508139D01*
G04 #@! TD*
%LPC*%
D15*
G04 #@! TO.C,J103*
X11023600Y43599100D03*
D16*
X12293600Y45691100D03*
X13563600Y40491100D03*
X14833600Y45691100D03*
X16103600Y40491100D03*
X17373600Y45691100D03*
X18643600Y40491100D03*
X19913600Y45691100D03*
X21183600Y40491100D03*
G04 #@! TD*
D17*
G04 #@! TO.C,FL203*
X34762440Y45091480D03*
X34762440Y42091480D03*
G04 #@! TD*
G04 #@! TO.C,FL502*
X32562800Y14349600D03*
X32562800Y17349600D03*
G04 #@! TD*
G04 #@! TO.C,FL202*
X40132000Y35942400D03*
X40132000Y32942400D03*
G36*
G01*
X39132000Y33642400D02*
X39132000Y35242400D01*
G75*
G02*
X39632000Y35742400I500000J0D01*
G01*
X40632000Y35742400D01*
G75*
G02*
X41132000Y35242400I0J-500000D01*
G01*
X41132000Y33642400D01*
G75*
G02*
X40632000Y33142400I-500000J0D01*
G01*
X39632000Y33142400D01*
G75*
G02*
X39132000Y33642400I0J500000D01*
G01*
G37*
G36*
G01*
X42532000Y34026400D02*
X42532000Y34858400D01*
G75*
G02*
X42916000Y35242400I384000J0D01*
G01*
X44148000Y35242400D01*
G75*
G02*
X44532000Y34858400I0J-384000D01*
G01*
X44532000Y34026400D01*
G75*
G02*
X44148000Y33642400I-384000J0D01*
G01*
X42916000Y33642400D01*
G75*
G02*
X42532000Y34026400I0J384000D01*
G01*
G37*
G36*
G01*
X35732000Y34026400D02*
X35732000Y34858400D01*
G75*
G02*
X36116000Y35242400I384000J0D01*
G01*
X37348000Y35242400D01*
G75*
G02*
X37732000Y34858400I0J-384000D01*
G01*
X37732000Y34026400D01*
G75*
G02*
X37348000Y33642400I-384000J0D01*
G01*
X36116000Y33642400D01*
G75*
G02*
X35732000Y34026400I0J384000D01*
G01*
G37*
G04 #@! TD*
G04 #@! TO.C,FL201*
X30149800Y24906100D03*
X30149800Y21906100D03*
G36*
G01*
X29149800Y22606100D02*
X29149800Y24206100D01*
G75*
G02*
X29649800Y24706100I500000J0D01*
G01*
X30649800Y24706100D01*
G75*
G02*
X31149800Y24206100I0J-500000D01*
G01*
X31149800Y22606100D01*
G75*
G02*
X30649800Y22106100I-500000J0D01*
G01*
X29649800Y22106100D01*
G75*
G02*
X29149800Y22606100I0J500000D01*
G01*
G37*
G36*
G01*
X32549800Y22990100D02*
X32549800Y23822100D01*
G75*
G02*
X32933800Y24206100I384000J0D01*
G01*
X34165800Y24206100D01*
G75*
G02*
X34549800Y23822100I0J-384000D01*
G01*
X34549800Y22990100D01*
G75*
G02*
X34165800Y22606100I-384000J0D01*
G01*
X32933800Y22606100D01*
G75*
G02*
X32549800Y22990100I0J384000D01*
G01*
G37*
G36*
G01*
X25749800Y22990100D02*
X25749800Y23822100D01*
G75*
G02*
X26133800Y24206100I384000J0D01*
G01*
X27365800Y24206100D01*
G75*
G02*
X27749800Y23822100I0J-384000D01*
G01*
X27749800Y22990100D01*
G75*
G02*
X27365800Y22606100I-384000J0D01*
G01*
X26133800Y22606100D01*
G75*
G02*
X25749800Y22990100I0J384000D01*
G01*
G37*
G04 #@! TD*
G04 #@! TO.C,FL501*
X32550100Y20346800D03*
X32550100Y17346800D03*
G36*
G01*
X31550100Y18046800D02*
X31550100Y19646800D01*
G75*
G02*
X32050100Y20146800I500000J0D01*
G01*
X33050100Y20146800D01*
G75*
G02*
X33550100Y19646800I0J-500000D01*
G01*
X33550100Y18046800D01*
G75*
G02*
X33050100Y17546800I-500000J0D01*
G01*
X32050100Y17546800D01*
G75*
G02*
X31550100Y18046800I0J500000D01*
G01*
G37*
G36*
G01*
X34950100Y18430800D02*
X34950100Y19262800D01*
G75*
G02*
X35334100Y19646800I384000J0D01*
G01*
X36566100Y19646800D01*
G75*
G02*
X36950100Y19262800I0J-384000D01*
G01*
X36950100Y18430800D01*
G75*
G02*
X36566100Y18046800I-384000J0D01*
G01*
X35334100Y18046800D01*
G75*
G02*
X34950100Y18430800I0J384000D01*
G01*
G37*
G36*
G01*
X28150100Y18430800D02*
X28150100Y19262800D01*
G75*
G02*
X28534100Y19646800I384000J0D01*
G01*
X29766100Y19646800D01*
G75*
G02*
X30150100Y19262800I0J-384000D01*
G01*
X30150100Y18430800D01*
G75*
G02*
X29766100Y18046800I-384000J0D01*
G01*
X28534100Y18046800D01*
G75*
G02*
X28150100Y18430800I0J384000D01*
G01*
G37*
G04 #@! TD*
D18*
G04 #@! TO.C,J102*
X43460000Y23530000D03*
X46000000Y22260000D03*
X43460000Y20990000D03*
X46000000Y19720000D03*
X43460000Y18450000D03*
X46000000Y17180000D03*
X43460000Y15910000D03*
X46000000Y14640000D03*
X43460000Y13370000D03*
X46000000Y12100000D03*
G04 #@! TD*
G04 #@! TO.C,R208*
G36*
G01*
X27603000Y25125000D02*
X27603000Y25675000D01*
G75*
G02*
X27803000Y25875000I200000J0D01*
G01*
X28203000Y25875000D01*
G75*
G02*
X28403000Y25675000I0J-200000D01*
G01*
X28403000Y25125000D01*
G75*
G02*
X28203000Y24925000I-200000J0D01*
G01*
X27803000Y24925000D01*
G75*
G02*
X27603000Y25125000I0J200000D01*
G01*
G37*
G36*
G01*
X25953000Y25125000D02*
X25953000Y25675000D01*
G75*
G02*
X26153000Y25875000I200000J0D01*
G01*
X26553000Y25875000D01*
G75*
G02*
X26753000Y25675000I0J-200000D01*
G01*
X26753000Y25125000D01*
G75*
G02*
X26553000Y24925000I-200000J0D01*
G01*
X26153000Y24925000D01*
G75*
G02*
X25953000Y25125000I0J200000D01*
G01*
G37*
G04 #@! TD*
D19*
G04 #@! TO.C,FID106*
X35077400Y36842700D03*
G04 #@! TD*
G04 #@! TO.C,FID104*
X41617900Y4584700D03*
G04 #@! TD*
G04 #@! TO.C,FID102*
X5067300Y6032500D03*
G04 #@! TD*
G04 #@! TO.C,D202*
G36*
G01*
X40456600Y31214350D02*
X40456600Y31726850D01*
G75*
G02*
X40675350Y31945600I218750J0D01*
G01*
X41112850Y31945600D01*
G75*
G02*
X41331600Y31726850I0J-218750D01*
G01*
X41331600Y31214350D01*
G75*
G02*
X41112850Y30995600I-218750J0D01*
G01*
X40675350Y30995600D01*
G75*
G02*
X40456600Y31214350I0J218750D01*
G01*
G37*
G36*
G01*
X38881600Y31214350D02*
X38881600Y31726850D01*
G75*
G02*
X39100350Y31945600I218750J0D01*
G01*
X39537850Y31945600D01*
G75*
G02*
X39756600Y31726850I0J-218750D01*
G01*
X39756600Y31214350D01*
G75*
G02*
X39537850Y30995600I-218750J0D01*
G01*
X39100350Y30995600D01*
G75*
G02*
X38881600Y31214350I0J218750D01*
G01*
G37*
G04 #@! TD*
G04 #@! TO.C,C202*
G36*
G01*
X28814600Y26807399D02*
X28814600Y28107401D01*
G75*
G02*
X29064599Y28357400I249999J0D01*
G01*
X29714601Y28357400D01*
G75*
G02*
X29964600Y28107401I0J-249999D01*
G01*
X29964600Y26807399D01*
G75*
G02*
X29714601Y26557400I-249999J0D01*
G01*
X29064599Y26557400D01*
G75*
G02*
X28814600Y26807399I0J249999D01*
G01*
G37*
G36*
G01*
X25864600Y26807399D02*
X25864600Y28107401D01*
G75*
G02*
X26114599Y28357400I249999J0D01*
G01*
X26764601Y28357400D01*
G75*
G02*
X27014600Y28107401I0J-249999D01*
G01*
X27014600Y26807399D01*
G75*
G02*
X26764601Y26557400I-249999J0D01*
G01*
X26114599Y26557400D01*
G75*
G02*
X25864600Y26807399I0J249999D01*
G01*
G37*
G04 #@! TD*
G04 #@! TO.C,C203*
G36*
G01*
X35691899Y29770500D02*
X37891901Y29770500D01*
G75*
G02*
X38141900Y29520501I0J-249999D01*
G01*
X38141900Y28870499D01*
G75*
G02*
X37891901Y28620500I-249999J0D01*
G01*
X35691899Y28620500D01*
G75*
G02*
X35441900Y28870499I0J249999D01*
G01*
X35441900Y29520501D01*
G75*
G02*
X35691899Y29770500I249999J0D01*
G01*
G37*
G36*
G01*
X35691899Y32720500D02*
X37891901Y32720500D01*
G75*
G02*
X38141900Y32470501I0J-249999D01*
G01*
X38141900Y31820499D01*
G75*
G02*
X37891901Y31570500I-249999J0D01*
G01*
X35691899Y31570500D01*
G75*
G02*
X35441900Y31820499I0J249999D01*
G01*
X35441900Y32470501D01*
G75*
G02*
X35691899Y32720500I249999J0D01*
G01*
G37*
G04 #@! TD*
G04 #@! TO.C,C204*
G36*
G01*
X33477300Y28902899D02*
X33477300Y30202901D01*
G75*
G02*
X33727299Y30452900I249999J0D01*
G01*
X34377301Y30452900D01*
G75*
G02*
X34627300Y30202901I0J-249999D01*
G01*
X34627300Y28902899D01*
G75*
G02*
X34377301Y28652900I-249999J0D01*
G01*
X33727299Y28652900D01*
G75*
G02*
X33477300Y28902899I0J249999D01*
G01*
G37*
G36*
G01*
X30527300Y28902899D02*
X30527300Y30202901D01*
G75*
G02*
X30777299Y30452900I249999J0D01*
G01*
X31427301Y30452900D01*
G75*
G02*
X31677300Y30202901I0J-249999D01*
G01*
X31677300Y28902899D01*
G75*
G02*
X31427301Y28652900I-249999J0D01*
G01*
X30777299Y28652900D01*
G75*
G02*
X30527300Y28902899I0J249999D01*
G01*
G37*
G04 #@! TD*
G04 #@! TO.C,C205*
G36*
G01*
X43044300Y38874820D02*
X43544300Y38874820D01*
G75*
G02*
X43769300Y38649820I0J-225000D01*
G01*
X43769300Y38199820D01*
G75*
G02*
X43544300Y37974820I-225000J0D01*
G01*
X43044300Y37974820D01*
G75*
G02*
X42819300Y38199820I0J225000D01*
G01*
X42819300Y38649820D01*
G75*
G02*
X43044300Y38874820I225000J0D01*
G01*
G37*
G36*
G01*
X43044300Y40424820D02*
X43544300Y40424820D01*
G75*
G02*
X43769300Y40199820I0J-225000D01*
G01*
X43769300Y39749820D01*
G75*
G02*
X43544300Y39524820I-225000J0D01*
G01*
X43044300Y39524820D01*
G75*
G02*
X42819300Y39749820I0J225000D01*
G01*
X42819300Y40199820D01*
G75*
G02*
X43044300Y40424820I225000J0D01*
G01*
G37*
G04 #@! TD*
G04 #@! TO.C,C206*
G36*
G01*
X43873840Y36182280D02*
X43873840Y37132280D01*
G75*
G02*
X44123840Y37382280I250000J0D01*
G01*
X44623840Y37382280D01*
G75*
G02*
X44873840Y37132280I0J-250000D01*
G01*
X44873840Y36182280D01*
G75*
G02*
X44623840Y35932280I-250000J0D01*
G01*
X44123840Y35932280D01*
G75*
G02*
X43873840Y36182280I0J250000D01*
G01*
G37*
G36*
G01*
X41973840Y36182280D02*
X41973840Y37132280D01*
G75*
G02*
X42223840Y37382280I250000J0D01*
G01*
X42723840Y37382280D01*
G75*
G02*
X42973840Y37132280I0J-250000D01*
G01*
X42973840Y36182280D01*
G75*
G02*
X42723840Y35932280I-250000J0D01*
G01*
X42223840Y35932280D01*
G75*
G02*
X41973840Y36182280I0J250000D01*
G01*
G37*
G04 #@! TD*
G04 #@! TO.C,C207*
G36*
G01*
X46809680Y36599280D02*
X45859680Y36599280D01*
G75*
G02*
X45609680Y36849280I0J250000D01*
G01*
X45609680Y37349280D01*
G75*
G02*
X45859680Y37599280I250000J0D01*
G01*
X46809680Y37599280D01*
G75*
G02*
X47059680Y37349280I0J-250000D01*
G01*
X47059680Y36849280D01*
G75*
G02*
X46809680Y36599280I-250000J0D01*
G01*
G37*
G36*
G01*
X46809680Y34699280D02*
X45859680Y34699280D01*
G75*
G02*
X45609680Y34949280I0J250000D01*
G01*
X45609680Y35449280D01*
G75*
G02*
X45859680Y35699280I250000J0D01*
G01*
X46809680Y35699280D01*
G75*
G02*
X47059680Y35449280I0J-250000D01*
G01*
X47059680Y34949280D01*
G75*
G02*
X46809680Y34699280I-250000J0D01*
G01*
G37*
G04 #@! TD*
G04 #@! TO.C,C214*
G36*
G01*
X18606960Y25623640D02*
X19106960Y25623640D01*
G75*
G02*
X19331960Y25398640I0J-225000D01*
G01*
X19331960Y24948640D01*
G75*
G02*
X19106960Y24723640I-225000J0D01*
G01*
X18606960Y24723640D01*
G75*
G02*
X18381960Y24948640I0J225000D01*
G01*
X18381960Y25398640D01*
G75*
G02*
X18606960Y25623640I225000J0D01*
G01*
G37*
G36*
G01*
X18606960Y27173640D02*
X19106960Y27173640D01*
G75*
G02*
X19331960Y26948640I0J-225000D01*
G01*
X19331960Y26498640D01*
G75*
G02*
X19106960Y26273640I-225000J0D01*
G01*
X18606960Y26273640D01*
G75*
G02*
X18381960Y26498640I0J225000D01*
G01*
X18381960Y26948640D01*
G75*
G02*
X18606960Y27173640I225000J0D01*
G01*
G37*
G04 #@! TD*
G04 #@! TO.C,C215*
G36*
G01*
X37205800Y44492100D02*
X37205800Y44992100D01*
G75*
G02*
X37430800Y45217100I225000J0D01*
G01*
X37880800Y45217100D01*
G75*
G02*
X38105800Y44992100I0J-225000D01*
G01*
X38105800Y44492100D01*
G75*
G02*
X37880800Y44267100I-225000J0D01*
G01*
X37430800Y44267100D01*
G75*
G02*
X37205800Y44492100I0J225000D01*
G01*
G37*
G36*
G01*
X35655800Y44492100D02*
X35655800Y44992100D01*
G75*
G02*
X35880800Y45217100I225000J0D01*
G01*
X36330800Y45217100D01*
G75*
G02*
X36555800Y44992100I0J-225000D01*
G01*
X36555800Y44492100D01*
G75*
G02*
X36330800Y44267100I-225000J0D01*
G01*
X35880800Y44267100D01*
G75*
G02*
X35655800Y44492100I0J225000D01*
G01*
G37*
G04 #@! TD*
G04 #@! TO.C,C216*
G36*
G01*
X18066900Y33506600D02*
X18066900Y34006600D01*
G75*
G02*
X18291900Y34231600I225000J0D01*
G01*
X18741900Y34231600D01*
G75*
G02*
X18966900Y34006600I0J-225000D01*
G01*
X18966900Y33506600D01*
G75*
G02*
X18741900Y33281600I-225000J0D01*
G01*
X18291900Y33281600D01*
G75*
G02*
X18066900Y33506600I0J225000D01*
G01*
G37*
G36*
G01*
X16516900Y33506600D02*
X16516900Y34006600D01*
G75*
G02*
X16741900Y34231600I225000J0D01*
G01*
X17191900Y34231600D01*
G75*
G02*
X17416900Y34006600I0J-225000D01*
G01*
X17416900Y33506600D01*
G75*
G02*
X17191900Y33281600I-225000J0D01*
G01*
X16741900Y33281600D01*
G75*
G02*
X16516900Y33506600I0J225000D01*
G01*
G37*
G04 #@! TD*
G04 #@! TO.C,C217*
G36*
G01*
X12552800Y32254000D02*
X12552800Y31754000D01*
G75*
G02*
X12327800Y31529000I-225000J0D01*
G01*
X11877800Y31529000D01*
G75*
G02*
X11652800Y31754000I0J225000D01*
G01*
X11652800Y32254000D01*
G75*
G02*
X11877800Y32479000I225000J0D01*
G01*
X12327800Y32479000D01*
G75*
G02*
X12552800Y32254000I0J-225000D01*
G01*
G37*
G36*
G01*
X14102800Y32254000D02*
X14102800Y31754000D01*
G75*
G02*
X13877800Y31529000I-225000J0D01*
G01*
X13427800Y31529000D01*
G75*
G02*
X13202800Y31754000I0J225000D01*
G01*
X13202800Y32254000D01*
G75*
G02*
X13427800Y32479000I225000J0D01*
G01*
X13877800Y32479000D01*
G75*
G02*
X14102800Y32254000I0J-225000D01*
G01*
G37*
G04 #@! TD*
G04 #@! TO.C,C218*
G36*
G01*
X20300100Y36482000D02*
X20300100Y37432000D01*
G75*
G02*
X20550100Y37682000I250000J0D01*
G01*
X21050100Y37682000D01*
G75*
G02*
X21300100Y37432000I0J-250000D01*
G01*
X21300100Y36482000D01*
G75*
G02*
X21050100Y36232000I-250000J0D01*
G01*
X20550100Y36232000D01*
G75*
G02*
X20300100Y36482000I0J250000D01*
G01*
G37*
G36*
G01*
X18400100Y36482000D02*
X18400100Y37432000D01*
G75*
G02*
X18650100Y37682000I250000J0D01*
G01*
X19150100Y37682000D01*
G75*
G02*
X19400100Y37432000I0J-250000D01*
G01*
X19400100Y36482000D01*
G75*
G02*
X19150100Y36232000I-250000J0D01*
G01*
X18650100Y36232000D01*
G75*
G02*
X18400100Y36482000I0J250000D01*
G01*
G37*
G04 #@! TD*
G04 #@! TO.C,C219*
G36*
G01*
X11501100Y27690700D02*
X12451100Y27690700D01*
G75*
G02*
X12701100Y27440700I0J-250000D01*
G01*
X12701100Y26940700D01*
G75*
G02*
X12451100Y26690700I-250000J0D01*
G01*
X11501100Y26690700D01*
G75*
G02*
X11251100Y26940700I0J250000D01*
G01*
X11251100Y27440700D01*
G75*
G02*
X11501100Y27690700I250000J0D01*
G01*
G37*
G36*
G01*
X11501100Y29590700D02*
X12451100Y29590700D01*
G75*
G02*
X12701100Y29340700I0J-250000D01*
G01*
X12701100Y28840700D01*
G75*
G02*
X12451100Y28590700I-250000J0D01*
G01*
X11501100Y28590700D01*
G75*
G02*
X11251100Y28840700I0J250000D01*
G01*
X11251100Y29340700D01*
G75*
G02*
X11501100Y29590700I250000J0D01*
G01*
G37*
G04 #@! TD*
G04 #@! TO.C,C220*
G36*
G01*
X18054200Y31957200D02*
X18054200Y32457200D01*
G75*
G02*
X18279200Y32682200I225000J0D01*
G01*
X18729200Y32682200D01*
G75*
G02*
X18954200Y32457200I0J-225000D01*
G01*
X18954200Y31957200D01*
G75*
G02*
X18729200Y31732200I-225000J0D01*
G01*
X18279200Y31732200D01*
G75*
G02*
X18054200Y31957200I0J225000D01*
G01*
G37*
G36*
G01*
X16504200Y31957200D02*
X16504200Y32457200D01*
G75*
G02*
X16729200Y32682200I225000J0D01*
G01*
X17179200Y32682200D01*
G75*
G02*
X17404200Y32457200I0J-225000D01*
G01*
X17404200Y31957200D01*
G75*
G02*
X17179200Y31732200I-225000J0D01*
G01*
X16729200Y31732200D01*
G75*
G02*
X16504200Y31957200I0J225000D01*
G01*
G37*
G04 #@! TD*
G04 #@! TO.C,C221*
G36*
G01*
X18968600Y27994800D02*
X18968600Y28494800D01*
G75*
G02*
X19193600Y28719800I225000J0D01*
G01*
X19643600Y28719800D01*
G75*
G02*
X19868600Y28494800I0J-225000D01*
G01*
X19868600Y27994800D01*
G75*
G02*
X19643600Y27769800I-225000J0D01*
G01*
X19193600Y27769800D01*
G75*
G02*
X18968600Y27994800I0J225000D01*
G01*
G37*
G36*
G01*
X17418600Y27994800D02*
X17418600Y28494800D01*
G75*
G02*
X17643600Y28719800I225000J0D01*
G01*
X18093600Y28719800D01*
G75*
G02*
X18318600Y28494800I0J-225000D01*
G01*
X18318600Y27994800D01*
G75*
G02*
X18093600Y27769800I-225000J0D01*
G01*
X17643600Y27769800D01*
G75*
G02*
X17418600Y27994800I0J225000D01*
G01*
G37*
G04 #@! TD*
G04 #@! TO.C,C222*
G36*
G01*
X13504100Y25367100D02*
X14004100Y25367100D01*
G75*
G02*
X14229100Y25142100I0J-225000D01*
G01*
X14229100Y24692100D01*
G75*
G02*
X14004100Y24467100I-225000J0D01*
G01*
X13504100Y24467100D01*
G75*
G02*
X13279100Y24692100I0J225000D01*
G01*
X13279100Y25142100D01*
G75*
G02*
X13504100Y25367100I225000J0D01*
G01*
G37*
G36*
G01*
X13504100Y26917100D02*
X14004100Y26917100D01*
G75*
G02*
X14229100Y26692100I0J-225000D01*
G01*
X14229100Y26242100D01*
G75*
G02*
X14004100Y26017100I-225000J0D01*
G01*
X13504100Y26017100D01*
G75*
G02*
X13279100Y26242100I0J225000D01*
G01*
X13279100Y26692100D01*
G75*
G02*
X13504100Y26917100I225000J0D01*
G01*
G37*
G04 #@! TD*
G04 #@! TO.C,C223*
G36*
G01*
X15793600Y22013100D02*
X15793600Y22513100D01*
G75*
G02*
X16018600Y22738100I225000J0D01*
G01*
X16468600Y22738100D01*
G75*
G02*
X16693600Y22513100I0J-225000D01*
G01*
X16693600Y22013100D01*
G75*
G02*
X16468600Y21788100I-225000J0D01*
G01*
X16018600Y21788100D01*
G75*
G02*
X15793600Y22013100I0J225000D01*
G01*
G37*
G36*
G01*
X14243600Y22013100D02*
X14243600Y22513100D01*
G75*
G02*
X14468600Y22738100I225000J0D01*
G01*
X14918600Y22738100D01*
G75*
G02*
X15143600Y22513100I0J-225000D01*
G01*
X15143600Y22013100D01*
G75*
G02*
X14918600Y21788100I-225000J0D01*
G01*
X14468600Y21788100D01*
G75*
G02*
X14243600Y22013100I0J225000D01*
G01*
G37*
G04 #@! TD*
G04 #@! TO.C,C224*
G36*
G01*
X18242400Y22500400D02*
X18242400Y22000400D01*
G75*
G02*
X18017400Y21775400I-225000J0D01*
G01*
X17567400Y21775400D01*
G75*
G02*
X17342400Y22000400I0J225000D01*
G01*
X17342400Y22500400D01*
G75*
G02*
X17567400Y22725400I225000J0D01*
G01*
X18017400Y22725400D01*
G75*
G02*
X18242400Y22500400I0J-225000D01*
G01*
G37*
G36*
G01*
X19792400Y22500400D02*
X19792400Y22000400D01*
G75*
G02*
X19567400Y21775400I-225000J0D01*
G01*
X19117400Y21775400D01*
G75*
G02*
X18892400Y22000400I0J225000D01*
G01*
X18892400Y22500400D01*
G75*
G02*
X19117400Y22725400I225000J0D01*
G01*
X19567400Y22725400D01*
G75*
G02*
X19792400Y22500400I0J-225000D01*
G01*
G37*
G04 #@! TD*
G04 #@! TO.C,C401*
G36*
G01*
X4910900Y40241100D02*
X4410900Y40241100D01*
G75*
G02*
X4185900Y40466100I0J225000D01*
G01*
X4185900Y40916100D01*
G75*
G02*
X4410900Y41141100I225000J0D01*
G01*
X4910900Y41141100D01*
G75*
G02*
X5135900Y40916100I0J-225000D01*
G01*
X5135900Y40466100D01*
G75*
G02*
X4910900Y40241100I-225000J0D01*
G01*
G37*
G36*
G01*
X4910900Y38691100D02*
X4410900Y38691100D01*
G75*
G02*
X4185900Y38916100I0J225000D01*
G01*
X4185900Y39366100D01*
G75*
G02*
X4410900Y39591100I225000J0D01*
G01*
X4910900Y39591100D01*
G75*
G02*
X5135900Y39366100I0J-225000D01*
G01*
X5135900Y38916100D01*
G75*
G02*
X4910900Y38691100I-225000J0D01*
G01*
G37*
G04 #@! TD*
G04 #@! TO.C,C502*
G36*
G01*
X40226400Y23502600D02*
X40226400Y24452600D01*
G75*
G02*
X40476400Y24702600I250000J0D01*
G01*
X40976400Y24702600D01*
G75*
G02*
X41226400Y24452600I0J-250000D01*
G01*
X41226400Y23502600D01*
G75*
G02*
X40976400Y23252600I-250000J0D01*
G01*
X40476400Y23252600D01*
G75*
G02*
X40226400Y23502600I0J250000D01*
G01*
G37*
G36*
G01*
X38326400Y23502600D02*
X38326400Y24452600D01*
G75*
G02*
X38576400Y24702600I250000J0D01*
G01*
X39076400Y24702600D01*
G75*
G02*
X39326400Y24452600I0J-250000D01*
G01*
X39326400Y23502600D01*
G75*
G02*
X39076400Y23252600I-250000J0D01*
G01*
X38576400Y23252600D01*
G75*
G02*
X38326400Y23502600I0J250000D01*
G01*
G37*
G04 #@! TD*
G04 #@! TO.C,C503*
G36*
G01*
X29255300Y15739300D02*
X29255300Y16239300D01*
G75*
G02*
X29480300Y16464300I225000J0D01*
G01*
X29930300Y16464300D01*
G75*
G02*
X30155300Y16239300I0J-225000D01*
G01*
X30155300Y15739300D01*
G75*
G02*
X29930300Y15514300I-225000J0D01*
G01*
X29480300Y15514300D01*
G75*
G02*
X29255300Y15739300I0J225000D01*
G01*
G37*
G36*
G01*
X27705300Y15739300D02*
X27705300Y16239300D01*
G75*
G02*
X27930300Y16464300I225000J0D01*
G01*
X28380300Y16464300D01*
G75*
G02*
X28605300Y16239300I0J-225000D01*
G01*
X28605300Y15739300D01*
G75*
G02*
X28380300Y15514300I-225000J0D01*
G01*
X27930300Y15514300D01*
G75*
G02*
X27705300Y15739300I0J225000D01*
G01*
G37*
G04 #@! TD*
G04 #@! TO.C,D203*
G36*
G01*
X36480000Y46547750D02*
X36480000Y46035250D01*
G75*
G02*
X36261250Y45816500I-218750J0D01*
G01*
X35823750Y45816500D01*
G75*
G02*
X35605000Y46035250I0J218750D01*
G01*
X35605000Y46547750D01*
G75*
G02*
X35823750Y46766500I218750J0D01*
G01*
X36261250Y46766500D01*
G75*
G02*
X36480000Y46547750I0J-218750D01*
G01*
G37*
G36*
G01*
X38055000Y46547750D02*
X38055000Y46035250D01*
G75*
G02*
X37836250Y45816500I-218750J0D01*
G01*
X37398750Y45816500D01*
G75*
G02*
X37180000Y46035250I0J218750D01*
G01*
X37180000Y46547750D01*
G75*
G02*
X37398750Y46766500I218750J0D01*
G01*
X37836250Y46766500D01*
G75*
G02*
X38055000Y46547750I0J-218750D01*
G01*
G37*
G04 #@! TD*
G04 #@! TO.C,D204*
G36*
G01*
X24937200Y46365450D02*
X24937200Y46877950D01*
G75*
G02*
X25155950Y47096700I218750J0D01*
G01*
X25593450Y47096700D01*
G75*
G02*
X25812200Y46877950I0J-218750D01*
G01*
X25812200Y46365450D01*
G75*
G02*
X25593450Y46146700I-218750J0D01*
G01*
X25155950Y46146700D01*
G75*
G02*
X24937200Y46365450I0J218750D01*
G01*
G37*
G36*
G01*
X23362200Y46365450D02*
X23362200Y46877950D01*
G75*
G02*
X23580950Y47096700I218750J0D01*
G01*
X24018450Y47096700D01*
G75*
G02*
X24237200Y46877950I0J-218750D01*
G01*
X24237200Y46365450D01*
G75*
G02*
X24018450Y46146700I-218750J0D01*
G01*
X23580950Y46146700D01*
G75*
G02*
X23362200Y46365450I0J218750D01*
G01*
G37*
G04 #@! TD*
G04 #@! TO.C,D301*
G36*
G01*
X12295850Y10027300D02*
X11783350Y10027300D01*
G75*
G02*
X11564600Y10246050I0J218750D01*
G01*
X11564600Y10683550D01*
G75*
G02*
X11783350Y10902300I218750J0D01*
G01*
X12295850Y10902300D01*
G75*
G02*
X12514600Y10683550I0J-218750D01*
G01*
X12514600Y10246050D01*
G75*
G02*
X12295850Y10027300I-218750J0D01*
G01*
G37*
G36*
G01*
X12295850Y8452300D02*
X11783350Y8452300D01*
G75*
G02*
X11564600Y8671050I0J218750D01*
G01*
X11564600Y9108550D01*
G75*
G02*
X11783350Y9327300I218750J0D01*
G01*
X12295850Y9327300D01*
G75*
G02*
X12514600Y9108550I0J-218750D01*
G01*
X12514600Y8671050D01*
G75*
G02*
X12295850Y8452300I-218750J0D01*
G01*
G37*
G04 #@! TD*
G04 #@! TO.C,D304*
G36*
G01*
X10619450Y10027500D02*
X10106950Y10027500D01*
G75*
G02*
X9888200Y10246250I0J218750D01*
G01*
X9888200Y10683750D01*
G75*
G02*
X10106950Y10902500I218750J0D01*
G01*
X10619450Y10902500D01*
G75*
G02*
X10838200Y10683750I0J-218750D01*
G01*
X10838200Y10246250D01*
G75*
G02*
X10619450Y10027500I-218750J0D01*
G01*
G37*
G36*
G01*
X10619450Y8452500D02*
X10106950Y8452500D01*
G75*
G02*
X9888200Y8671250I0J218750D01*
G01*
X9888200Y9108750D01*
G75*
G02*
X10106950Y9327500I218750J0D01*
G01*
X10619450Y9327500D01*
G75*
G02*
X10838200Y9108750I0J-218750D01*
G01*
X10838200Y8671250D01*
G75*
G02*
X10619450Y8452500I-218750J0D01*
G01*
G37*
G04 #@! TD*
G04 #@! TO.C,D401*
G36*
G01*
X26701000Y34343050D02*
X26701000Y33830550D01*
G75*
G02*
X26482250Y33611800I-218750J0D01*
G01*
X26044750Y33611800D01*
G75*
G02*
X25826000Y33830550I0J218750D01*
G01*
X25826000Y34343050D01*
G75*
G02*
X26044750Y34561800I218750J0D01*
G01*
X26482250Y34561800D01*
G75*
G02*
X26701000Y34343050I0J-218750D01*
G01*
G37*
G36*
G01*
X28276000Y34343050D02*
X28276000Y33830550D01*
G75*
G02*
X28057250Y33611800I-218750J0D01*
G01*
X27619750Y33611800D01*
G75*
G02*
X27401000Y33830550I0J218750D01*
G01*
X27401000Y34343050D01*
G75*
G02*
X27619750Y34561800I218750J0D01*
G01*
X28057250Y34561800D01*
G75*
G02*
X28276000Y34343050I0J-218750D01*
G01*
G37*
G04 #@! TD*
G04 #@! TO.C,D402*
G36*
G01*
X26701000Y35981350D02*
X26701000Y35468850D01*
G75*
G02*
X26482250Y35250100I-218750J0D01*
G01*
X26044750Y35250100D01*
G75*
G02*
X25826000Y35468850I0J218750D01*
G01*
X25826000Y35981350D01*
G75*
G02*
X26044750Y36200100I218750J0D01*
G01*
X26482250Y36200100D01*
G75*
G02*
X26701000Y35981350I0J-218750D01*
G01*
G37*
G36*
G01*
X28276000Y35981350D02*
X28276000Y35468850D01*
G75*
G02*
X28057250Y35250100I-218750J0D01*
G01*
X27619750Y35250100D01*
G75*
G02*
X27401000Y35468850I0J218750D01*
G01*
X27401000Y35981350D01*
G75*
G02*
X27619750Y36200100I218750J0D01*
G01*
X28057250Y36200100D01*
G75*
G02*
X28276000Y35981350I0J-218750D01*
G01*
G37*
G04 #@! TD*
D20*
G04 #@! TO.C,D501*
X39725600Y16747600D03*
X39725600Y21047600D03*
G04 #@! TD*
G04 #@! TO.C,IC201*
G36*
G01*
X28643600Y31191100D02*
X28643600Y31491100D01*
G75*
G02*
X28793600Y31641100I150000J0D01*
G01*
X29818600Y31641100D01*
G75*
G02*
X29968600Y31491100I0J-150000D01*
G01*
X29968600Y31191100D01*
G75*
G02*
X29818600Y31041100I-150000J0D01*
G01*
X28793600Y31041100D01*
G75*
G02*
X28643600Y31191100I0J150000D01*
G01*
G37*
G36*
G01*
X28643600Y30241100D02*
X28643600Y30541100D01*
G75*
G02*
X28793600Y30691100I150000J0D01*
G01*
X29818600Y30691100D01*
G75*
G02*
X29968600Y30541100I0J-150000D01*
G01*
X29968600Y30241100D01*
G75*
G02*
X29818600Y30091100I-150000J0D01*
G01*
X28793600Y30091100D01*
G75*
G02*
X28643600Y30241100I0J150000D01*
G01*
G37*
G36*
G01*
X28643600Y29291100D02*
X28643600Y29591100D01*
G75*
G02*
X28793600Y29741100I150000J0D01*
G01*
X29818600Y29741100D01*
G75*
G02*
X29968600Y29591100I0J-150000D01*
G01*
X29968600Y29291100D01*
G75*
G02*
X29818600Y29141100I-150000J0D01*
G01*
X28793600Y29141100D01*
G75*
G02*
X28643600Y29291100I0J150000D01*
G01*
G37*
G36*
G01*
X26368600Y29291100D02*
X26368600Y29591100D01*
G75*
G02*
X26518600Y29741100I150000J0D01*
G01*
X27543600Y29741100D01*
G75*
G02*
X27693600Y29591100I0J-150000D01*
G01*
X27693600Y29291100D01*
G75*
G02*
X27543600Y29141100I-150000J0D01*
G01*
X26518600Y29141100D01*
G75*
G02*
X26368600Y29291100I0J150000D01*
G01*
G37*
G36*
G01*
X26368600Y30241100D02*
X26368600Y30541100D01*
G75*
G02*
X26518600Y30691100I150000J0D01*
G01*
X27543600Y30691100D01*
G75*
G02*
X27693600Y30541100I0J-150000D01*
G01*
X27693600Y30241100D01*
G75*
G02*
X27543600Y30091100I-150000J0D01*
G01*
X26518600Y30091100D01*
G75*
G02*
X26368600Y30241100I0J150000D01*
G01*
G37*
G36*
G01*
X26368600Y31191100D02*
X26368600Y31491100D01*
G75*
G02*
X26518600Y31641100I150000J0D01*
G01*
X27543600Y31641100D01*
G75*
G02*
X27693600Y31491100I0J-150000D01*
G01*
X27693600Y31191100D01*
G75*
G02*
X27543600Y31041100I-150000J0D01*
G01*
X26518600Y31041100D01*
G75*
G02*
X26368600Y31191100I0J150000D01*
G01*
G37*
G04 #@! TD*
G04 #@! TO.C,IC202*
G36*
G01*
X40911800Y40208100D02*
X40911800Y40508100D01*
G75*
G02*
X41061800Y40658100I150000J0D01*
G01*
X42086800Y40658100D01*
G75*
G02*
X42236800Y40508100I0J-150000D01*
G01*
X42236800Y40208100D01*
G75*
G02*
X42086800Y40058100I-150000J0D01*
G01*
X41061800Y40058100D01*
G75*
G02*
X40911800Y40208100I0J150000D01*
G01*
G37*
G36*
G01*
X40911800Y38308100D02*
X40911800Y38608100D01*
G75*
G02*
X41061800Y38758100I150000J0D01*
G01*
X42086800Y38758100D01*
G75*
G02*
X42236800Y38608100I0J-150000D01*
G01*
X42236800Y38308100D01*
G75*
G02*
X42086800Y38158100I-150000J0D01*
G01*
X41061800Y38158100D01*
G75*
G02*
X40911800Y38308100I0J150000D01*
G01*
G37*
G36*
G01*
X38636800Y38308100D02*
X38636800Y38608100D01*
G75*
G02*
X38786800Y38758100I150000J0D01*
G01*
X39811800Y38758100D01*
G75*
G02*
X39961800Y38608100I0J-150000D01*
G01*
X39961800Y38308100D01*
G75*
G02*
X39811800Y38158100I-150000J0D01*
G01*
X38786800Y38158100D01*
G75*
G02*
X38636800Y38308100I0J150000D01*
G01*
G37*
G36*
G01*
X38636800Y39258100D02*
X38636800Y39558100D01*
G75*
G02*
X38786800Y39708100I150000J0D01*
G01*
X39811800Y39708100D01*
G75*
G02*
X39961800Y39558100I0J-150000D01*
G01*
X39961800Y39258100D01*
G75*
G02*
X39811800Y39108100I-150000J0D01*
G01*
X38786800Y39108100D01*
G75*
G02*
X38636800Y39258100I0J150000D01*
G01*
G37*
G36*
G01*
X38636800Y40208100D02*
X38636800Y40508100D01*
G75*
G02*
X38786800Y40658100I150000J0D01*
G01*
X39811800Y40658100D01*
G75*
G02*
X39961800Y40508100I0J-150000D01*
G01*
X39961800Y40208100D01*
G75*
G02*
X39811800Y40058100I-150000J0D01*
G01*
X38786800Y40058100D01*
G75*
G02*
X38636800Y40208100I0J150000D01*
G01*
G37*
G04 #@! TD*
G04 #@! TO.C,IC204*
G36*
G01*
X29347900Y44414300D02*
X29347900Y44714300D01*
G75*
G02*
X29497900Y44864300I150000J0D01*
G01*
X30947900Y44864300D01*
G75*
G02*
X31097900Y44714300I0J-150000D01*
G01*
X31097900Y44414300D01*
G75*
G02*
X30947900Y44264300I-150000J0D01*
G01*
X29497900Y44264300D01*
G75*
G02*
X29347900Y44414300I0J150000D01*
G01*
G37*
G36*
G01*
X29347900Y43144300D02*
X29347900Y43444300D01*
G75*
G02*
X29497900Y43594300I150000J0D01*
G01*
X30947900Y43594300D01*
G75*
G02*
X31097900Y43444300I0J-150000D01*
G01*
X31097900Y43144300D01*
G75*
G02*
X30947900Y42994300I-150000J0D01*
G01*
X29497900Y42994300D01*
G75*
G02*
X29347900Y43144300I0J150000D01*
G01*
G37*
G36*
G01*
X29347900Y41874300D02*
X29347900Y42174300D01*
G75*
G02*
X29497900Y42324300I150000J0D01*
G01*
X30947900Y42324300D01*
G75*
G02*
X31097900Y42174300I0J-150000D01*
G01*
X31097900Y41874300D01*
G75*
G02*
X30947900Y41724300I-150000J0D01*
G01*
X29497900Y41724300D01*
G75*
G02*
X29347900Y41874300I0J150000D01*
G01*
G37*
G36*
G01*
X29347900Y40604300D02*
X29347900Y40904300D01*
G75*
G02*
X29497900Y41054300I150000J0D01*
G01*
X30947900Y41054300D01*
G75*
G02*
X31097900Y40904300I0J-150000D01*
G01*
X31097900Y40604300D01*
G75*
G02*
X30947900Y40454300I-150000J0D01*
G01*
X29497900Y40454300D01*
G75*
G02*
X29347900Y40604300I0J150000D01*
G01*
G37*
G36*
G01*
X24197900Y40604300D02*
X24197900Y40904300D01*
G75*
G02*
X24347900Y41054300I150000J0D01*
G01*
X25797900Y41054300D01*
G75*
G02*
X25947900Y40904300I0J-150000D01*
G01*
X25947900Y40604300D01*
G75*
G02*
X25797900Y40454300I-150000J0D01*
G01*
X24347900Y40454300D01*
G75*
G02*
X24197900Y40604300I0J150000D01*
G01*
G37*
G36*
G01*
X24197900Y41874300D02*
X24197900Y42174300D01*
G75*
G02*
X24347900Y42324300I150000J0D01*
G01*
X25797900Y42324300D01*
G75*
G02*
X25947900Y42174300I0J-150000D01*
G01*
X25947900Y41874300D01*
G75*
G02*
X25797900Y41724300I-150000J0D01*
G01*
X24347900Y41724300D01*
G75*
G02*
X24197900Y41874300I0J150000D01*
G01*
G37*
G36*
G01*
X24197900Y43144300D02*
X24197900Y43444300D01*
G75*
G02*
X24347900Y43594300I150000J0D01*
G01*
X25797900Y43594300D01*
G75*
G02*
X25947900Y43444300I0J-150000D01*
G01*
X25947900Y43144300D01*
G75*
G02*
X25797900Y42994300I-150000J0D01*
G01*
X24347900Y42994300D01*
G75*
G02*
X24197900Y43144300I0J150000D01*
G01*
G37*
G36*
G01*
X24197900Y44414300D02*
X24197900Y44714300D01*
G75*
G02*
X24347900Y44864300I150000J0D01*
G01*
X25797900Y44864300D01*
G75*
G02*
X25947900Y44714300I0J-150000D01*
G01*
X25947900Y44414300D01*
G75*
G02*
X25797900Y44264300I-150000J0D01*
G01*
X24347900Y44264300D01*
G75*
G02*
X24197900Y44414300I0J150000D01*
G01*
G37*
G04 #@! TD*
G04 #@! TO.C,IC301*
G36*
G01*
X17503000Y10136400D02*
X17803000Y10136400D01*
G75*
G02*
X17953000Y9986400I0J-150000D01*
G01*
X17953000Y8536400D01*
G75*
G02*
X17803000Y8386400I-150000J0D01*
G01*
X17503000Y8386400D01*
G75*
G02*
X17353000Y8536400I0J150000D01*
G01*
X17353000Y9986400D01*
G75*
G02*
X17503000Y10136400I150000J0D01*
G01*
G37*
G36*
G01*
X16233000Y10136400D02*
X16533000Y10136400D01*
G75*
G02*
X16683000Y9986400I0J-150000D01*
G01*
X16683000Y8536400D01*
G75*
G02*
X16533000Y8386400I-150000J0D01*
G01*
X16233000Y8386400D01*
G75*
G02*
X16083000Y8536400I0J150000D01*
G01*
X16083000Y9986400D01*
G75*
G02*
X16233000Y10136400I150000J0D01*
G01*
G37*
G36*
G01*
X14963000Y10136400D02*
X15263000Y10136400D01*
G75*
G02*
X15413000Y9986400I0J-150000D01*
G01*
X15413000Y8536400D01*
G75*
G02*
X15263000Y8386400I-150000J0D01*
G01*
X14963000Y8386400D01*
G75*
G02*
X14813000Y8536400I0J150000D01*
G01*
X14813000Y9986400D01*
G75*
G02*
X14963000Y10136400I150000J0D01*
G01*
G37*
G36*
G01*
X13693000Y10136400D02*
X13993000Y10136400D01*
G75*
G02*
X14143000Y9986400I0J-150000D01*
G01*
X14143000Y8536400D01*
G75*
G02*
X13993000Y8386400I-150000J0D01*
G01*
X13693000Y8386400D01*
G75*
G02*
X13543000Y8536400I0J150000D01*
G01*
X13543000Y9986400D01*
G75*
G02*
X13693000Y10136400I150000J0D01*
G01*
G37*
G36*
G01*
X13693000Y15286400D02*
X13993000Y15286400D01*
G75*
G02*
X14143000Y15136400I0J-150000D01*
G01*
X14143000Y13686400D01*
G75*
G02*
X13993000Y13536400I-150000J0D01*
G01*
X13693000Y13536400D01*
G75*
G02*
X13543000Y13686400I0J150000D01*
G01*
X13543000Y15136400D01*
G75*
G02*
X13693000Y15286400I150000J0D01*
G01*
G37*
G36*
G01*
X14963000Y15286400D02*
X15263000Y15286400D01*
G75*
G02*
X15413000Y15136400I0J-150000D01*
G01*
X15413000Y13686400D01*
G75*
G02*
X15263000Y13536400I-150000J0D01*
G01*
X14963000Y13536400D01*
G75*
G02*
X14813000Y13686400I0J150000D01*
G01*
X14813000Y15136400D01*
G75*
G02*
X14963000Y15286400I150000J0D01*
G01*
G37*
G36*
G01*
X16233000Y15286400D02*
X16533000Y15286400D01*
G75*
G02*
X16683000Y15136400I0J-150000D01*
G01*
X16683000Y13686400D01*
G75*
G02*
X16533000Y13536400I-150000J0D01*
G01*
X16233000Y13536400D01*
G75*
G02*
X16083000Y13686400I0J150000D01*
G01*
X16083000Y15136400D01*
G75*
G02*
X16233000Y15286400I150000J0D01*
G01*
G37*
G36*
G01*
X17503000Y15286400D02*
X17803000Y15286400D01*
G75*
G02*
X17953000Y15136400I0J-150000D01*
G01*
X17953000Y13686400D01*
G75*
G02*
X17803000Y13536400I-150000J0D01*
G01*
X17503000Y13536400D01*
G75*
G02*
X17353000Y13686400I0J150000D01*
G01*
X17353000Y15136400D01*
G75*
G02*
X17503000Y15286400I150000J0D01*
G01*
G37*
G04 #@! TD*
D21*
G04 #@! TO.C,IC302*
X11927600Y12105600D03*
X10627600Y12105600D03*
X11277600Y14005600D03*
X11277600Y12105600D03*
X10627600Y14005600D03*
X11927600Y14005600D03*
G04 #@! TD*
G04 #@! TO.C,IC501*
G36*
G01*
X22667100Y20127700D02*
X22367100Y20127700D01*
G75*
G02*
X22217100Y20277700I0J150000D01*
G01*
X22217100Y21727700D01*
G75*
G02*
X22367100Y21877700I150000J0D01*
G01*
X22667100Y21877700D01*
G75*
G02*
X22817100Y21727700I0J-150000D01*
G01*
X22817100Y20277700D01*
G75*
G02*
X22667100Y20127700I-150000J0D01*
G01*
G37*
G36*
G01*
X23937100Y20127700D02*
X23637100Y20127700D01*
G75*
G02*
X23487100Y20277700I0J150000D01*
G01*
X23487100Y21727700D01*
G75*
G02*
X23637100Y21877700I150000J0D01*
G01*
X23937100Y21877700D01*
G75*
G02*
X24087100Y21727700I0J-150000D01*
G01*
X24087100Y20277700D01*
G75*
G02*
X23937100Y20127700I-150000J0D01*
G01*
G37*
G36*
G01*
X25207100Y20127700D02*
X24907100Y20127700D01*
G75*
G02*
X24757100Y20277700I0J150000D01*
G01*
X24757100Y21727700D01*
G75*
G02*
X24907100Y21877700I150000J0D01*
G01*
X25207100Y21877700D01*
G75*
G02*
X25357100Y21727700I0J-150000D01*
G01*
X25357100Y20277700D01*
G75*
G02*
X25207100Y20127700I-150000J0D01*
G01*
G37*
G36*
G01*
X26477100Y20127700D02*
X26177100Y20127700D01*
G75*
G02*
X26027100Y20277700I0J150000D01*
G01*
X26027100Y21727700D01*
G75*
G02*
X26177100Y21877700I150000J0D01*
G01*
X26477100Y21877700D01*
G75*
G02*
X26627100Y21727700I0J-150000D01*
G01*
X26627100Y20277700D01*
G75*
G02*
X26477100Y20127700I-150000J0D01*
G01*
G37*
G36*
G01*
X26477100Y14977700D02*
X26177100Y14977700D01*
G75*
G02*
X26027100Y15127700I0J150000D01*
G01*
X26027100Y16577700D01*
G75*
G02*
X26177100Y16727700I150000J0D01*
G01*
X26477100Y16727700D01*
G75*
G02*
X26627100Y16577700I0J-150000D01*
G01*
X26627100Y15127700D01*
G75*
G02*
X26477100Y14977700I-150000J0D01*
G01*
G37*
G36*
G01*
X25207100Y14977700D02*
X24907100Y14977700D01*
G75*
G02*
X24757100Y15127700I0J150000D01*
G01*
X24757100Y16577700D01*
G75*
G02*
X24907100Y16727700I150000J0D01*
G01*
X25207100Y16727700D01*
G75*
G02*
X25357100Y16577700I0J-150000D01*
G01*
X25357100Y15127700D01*
G75*
G02*
X25207100Y14977700I-150000J0D01*
G01*
G37*
G36*
G01*
X23937100Y14977700D02*
X23637100Y14977700D01*
G75*
G02*
X23487100Y15127700I0J150000D01*
G01*
X23487100Y16577700D01*
G75*
G02*
X23637100Y16727700I150000J0D01*
G01*
X23937100Y16727700D01*
G75*
G02*
X24087100Y16577700I0J-150000D01*
G01*
X24087100Y15127700D01*
G75*
G02*
X23937100Y14977700I-150000J0D01*
G01*
G37*
G36*
G01*
X22667100Y14977700D02*
X22367100Y14977700D01*
G75*
G02*
X22217100Y15127700I0J150000D01*
G01*
X22217100Y16577700D01*
G75*
G02*
X22367100Y16727700I150000J0D01*
G01*
X22667100Y16727700D01*
G75*
G02*
X22817100Y16577700I0J-150000D01*
G01*
X22817100Y15127700D01*
G75*
G02*
X22667100Y14977700I-150000J0D01*
G01*
G37*
G04 #@! TD*
D22*
G04 #@! TO.C,IC502*
X20027900Y16560800D03*
D23*
X20027900Y19100800D03*
X20027900Y17830800D03*
G04 #@! TD*
D24*
G04 #@! TO.C,IC503*
X15036800Y18453100D03*
D25*
X12496800Y18453100D03*
G04 #@! TD*
D18*
G04 #@! TO.C,J101*
X4400000Y12100000D03*
X1860000Y13370000D03*
X4400000Y14640000D03*
X1860000Y15910000D03*
X4400000Y17180000D03*
X1860000Y18450000D03*
X4400000Y19720000D03*
X1860000Y20990000D03*
X4400000Y22260000D03*
X1860000Y23530000D03*
X4400000Y24800000D03*
X1860000Y26070000D03*
G04 #@! TD*
D26*
G04 #@! TO.C,J301*
X29184452Y4714558D03*
X25684452Y4714558D03*
D27*
X22184452Y4714558D03*
G04 #@! TD*
D26*
G04 #@! TO.C,J303*
X18600000Y4718000D03*
X15100000Y4718000D03*
D27*
X11600000Y4718000D03*
G04 #@! TD*
D26*
G04 #@! TO.C,J304*
X36300000Y4700000D03*
D27*
X32800000Y4700000D03*
G04 #@! TD*
D13*
G04 #@! TO.C,JP201*
G36*
X32285842Y44419280D02*
G01*
X32285842Y44443814D01*
X32290652Y44492645D01*
X32300224Y44540770D01*
X32314468Y44587725D01*
X32333245Y44633058D01*
X32356376Y44676331D01*
X32383636Y44717130D01*
X32414764Y44755059D01*
X32449461Y44789756D01*
X32487390Y44820884D01*
X32528189Y44848144D01*
X32571462Y44871275D01*
X32616795Y44890052D01*
X32663750Y44904296D01*
X32711875Y44913868D01*
X32760706Y44918678D01*
X32785240Y44918678D01*
X32785240Y44919280D01*
X33285240Y44919280D01*
X33285240Y44918678D01*
X33309774Y44918678D01*
X33358605Y44913868D01*
X33406730Y44904296D01*
X33453685Y44890052D01*
X33499018Y44871275D01*
X33542291Y44848144D01*
X33583090Y44820884D01*
X33621019Y44789756D01*
X33655716Y44755059D01*
X33686844Y44717130D01*
X33714104Y44676331D01*
X33737235Y44633058D01*
X33756012Y44587725D01*
X33770256Y44540770D01*
X33779828Y44492645D01*
X33784638Y44443814D01*
X33784638Y44419280D01*
X33785240Y44419280D01*
X33785240Y43919280D01*
X32285240Y43919280D01*
X32285240Y44419280D01*
X32285842Y44419280D01*
G37*
G36*
X33785240Y43619280D02*
G01*
X33785240Y43119280D01*
X33784638Y43119280D01*
X33784638Y43094746D01*
X33779828Y43045915D01*
X33770256Y42997790D01*
X33756012Y42950835D01*
X33737235Y42905502D01*
X33714104Y42862229D01*
X33686844Y42821430D01*
X33655716Y42783501D01*
X33621019Y42748804D01*
X33583090Y42717676D01*
X33542291Y42690416D01*
X33499018Y42667285D01*
X33453685Y42648508D01*
X33406730Y42634264D01*
X33358605Y42624692D01*
X33309774Y42619882D01*
X33285240Y42619882D01*
X33285240Y42619280D01*
X32785240Y42619280D01*
X32785240Y42619882D01*
X32760706Y42619882D01*
X32711875Y42624692D01*
X32663750Y42634264D01*
X32616795Y42648508D01*
X32571462Y42667285D01*
X32528189Y42690416D01*
X32487390Y42717676D01*
X32449461Y42748804D01*
X32414764Y42783501D01*
X32383636Y42821430D01*
X32356376Y42862229D01*
X32333245Y42905502D01*
X32314468Y42950835D01*
X32300224Y42997790D01*
X32290652Y43045915D01*
X32285842Y43094746D01*
X32285842Y43119280D01*
X32285240Y43119280D01*
X32285240Y43619280D01*
X33785240Y43619280D01*
G37*
G04 #@! TD*
G04 #@! TO.C,JP402*
G36*
X12888200Y36283802D02*
G01*
X12863666Y36283802D01*
X12814835Y36288612D01*
X12766710Y36298184D01*
X12719755Y36312428D01*
X12674422Y36331205D01*
X12631149Y36354336D01*
X12590350Y36381596D01*
X12552421Y36412724D01*
X12517724Y36447421D01*
X12486596Y36485350D01*
X12459336Y36526149D01*
X12436205Y36569422D01*
X12417428Y36614755D01*
X12403184Y36661710D01*
X12393612Y36709835D01*
X12388802Y36758666D01*
X12388802Y36783200D01*
X12388200Y36783200D01*
X12388200Y37283200D01*
X12388802Y37283200D01*
X12388802Y37307734D01*
X12393612Y37356565D01*
X12403184Y37404690D01*
X12417428Y37451645D01*
X12436205Y37496978D01*
X12459336Y37540251D01*
X12486596Y37581050D01*
X12517724Y37618979D01*
X12552421Y37653676D01*
X12590350Y37684804D01*
X12631149Y37712064D01*
X12674422Y37735195D01*
X12719755Y37753972D01*
X12766710Y37768216D01*
X12814835Y37777788D01*
X12863666Y37782598D01*
X12888200Y37782598D01*
X12888200Y37783200D01*
X13388200Y37783200D01*
X13388200Y36283200D01*
X12888200Y36283200D01*
X12888200Y36283802D01*
G37*
G36*
X13688200Y37783200D02*
G01*
X14188200Y37783200D01*
X14188200Y37782598D01*
X14212734Y37782598D01*
X14261565Y37777788D01*
X14309690Y37768216D01*
X14356645Y37753972D01*
X14401978Y37735195D01*
X14445251Y37712064D01*
X14486050Y37684804D01*
X14523979Y37653676D01*
X14558676Y37618979D01*
X14589804Y37581050D01*
X14617064Y37540251D01*
X14640195Y37496978D01*
X14658972Y37451645D01*
X14673216Y37404690D01*
X14682788Y37356565D01*
X14687598Y37307734D01*
X14687598Y37283200D01*
X14688200Y37283200D01*
X14688200Y36783200D01*
X14687598Y36783200D01*
X14687598Y36758666D01*
X14682788Y36709835D01*
X14673216Y36661710D01*
X14658972Y36614755D01*
X14640195Y36569422D01*
X14617064Y36526149D01*
X14589804Y36485350D01*
X14558676Y36447421D01*
X14523979Y36412724D01*
X14486050Y36381596D01*
X14445251Y36354336D01*
X14401978Y36331205D01*
X14356645Y36312428D01*
X14309690Y36298184D01*
X14261565Y36288612D01*
X14212734Y36283802D01*
X14188200Y36283802D01*
X14188200Y36283200D01*
X13688200Y36283200D01*
X13688200Y37783200D01*
G37*
G04 #@! TD*
G04 #@! TO.C,L201*
G36*
X33435905Y32107822D02*
G01*
X33609361Y32253483D01*
X33754901Y32427041D01*
X33868107Y32623226D01*
X33945543Y32836082D01*
X33984858Y33059148D01*
X33984858Y33285652D01*
X33945543Y33508718D01*
X33868107Y33721574D01*
X33754901Y33917759D01*
X33609361Y34091317D01*
X33435905Y34236978D01*
X33239800Y34350322D01*
X33239800Y35322400D01*
X34839800Y35322400D01*
X34839800Y31022400D01*
X33239800Y31022400D01*
X33239800Y31994478D01*
X33435905Y32107822D01*
G37*
G36*
X32139800Y35322400D02*
G01*
X32139800Y34350322D01*
X31943695Y34236978D01*
X31770239Y34091317D01*
X31624699Y33917759D01*
X31511493Y33721574D01*
X31434057Y33508718D01*
X31394742Y33285652D01*
X31394742Y33059148D01*
X31434057Y32836082D01*
X31511493Y32623226D01*
X31624699Y32427041D01*
X31770239Y32253483D01*
X31943695Y32107822D01*
X32139800Y31994478D01*
X32139800Y31022400D01*
X30539800Y31022400D01*
X30539800Y35322400D01*
X32139800Y35322400D01*
G37*
G04 #@! TD*
D28*
G04 #@! TO.C,L301*
X28286400Y12661900D03*
X28286400Y10121900D03*
X20786400Y10121900D03*
X20786400Y12661900D03*
G04 #@! TD*
G04 #@! TO.C,L302*
X39970400Y13004800D03*
X39970400Y10464800D03*
X32470400Y10464800D03*
X32470400Y13004800D03*
G04 #@! TD*
G04 #@! TO.C,R201*
G36*
G01*
X31337700Y27694300D02*
X31337700Y27144300D01*
G75*
G02*
X31137700Y26944300I-200000J0D01*
G01*
X30737700Y26944300D01*
G75*
G02*
X30537700Y27144300I0J200000D01*
G01*
X30537700Y27694300D01*
G75*
G02*
X30737700Y27894300I200000J0D01*
G01*
X31137700Y27894300D01*
G75*
G02*
X31337700Y27694300I0J-200000D01*
G01*
G37*
G36*
G01*
X32987700Y27694300D02*
X32987700Y27144300D01*
G75*
G02*
X32787700Y26944300I-200000J0D01*
G01*
X32387700Y26944300D01*
G75*
G02*
X32187700Y27144300I0J200000D01*
G01*
X32187700Y27694300D01*
G75*
G02*
X32387700Y27894300I200000J0D01*
G01*
X32787700Y27894300D01*
G75*
G02*
X32987700Y27694300I0J-200000D01*
G01*
G37*
G04 #@! TD*
G04 #@! TO.C,R202*
G36*
G01*
X42780400Y31760840D02*
X42780400Y31210840D01*
G75*
G02*
X42580400Y31010840I-200000J0D01*
G01*
X42180400Y31010840D01*
G75*
G02*
X41980400Y31210840I0J200000D01*
G01*
X41980400Y31760840D01*
G75*
G02*
X42180400Y31960840I200000J0D01*
G01*
X42580400Y31960840D01*
G75*
G02*
X42780400Y31760840I0J-200000D01*
G01*
G37*
G36*
G01*
X44430400Y31760840D02*
X44430400Y31210840D01*
G75*
G02*
X44230400Y31010840I-200000J0D01*
G01*
X43830400Y31010840D01*
G75*
G02*
X43630400Y31210840I0J200000D01*
G01*
X43630400Y31760840D01*
G75*
G02*
X43830400Y31960840I200000J0D01*
G01*
X44230400Y31960840D01*
G75*
G02*
X44430400Y31760840I0J-200000D01*
G01*
G37*
G04 #@! TD*
G04 #@! TO.C,R205*
G36*
G01*
X40332980Y42419860D02*
X40332980Y42969860D01*
G75*
G02*
X40532980Y43169860I200000J0D01*
G01*
X40932980Y43169860D01*
G75*
G02*
X41132980Y42969860I0J-200000D01*
G01*
X41132980Y42419860D01*
G75*
G02*
X40932980Y42219860I-200000J0D01*
G01*
X40532980Y42219860D01*
G75*
G02*
X40332980Y42419860I0J200000D01*
G01*
G37*
G36*
G01*
X38682980Y42419860D02*
X38682980Y42969860D01*
G75*
G02*
X38882980Y43169860I200000J0D01*
G01*
X39282980Y43169860D01*
G75*
G02*
X39482980Y42969860I0J-200000D01*
G01*
X39482980Y42419860D01*
G75*
G02*
X39282980Y42219860I-200000J0D01*
G01*
X38882980Y42219860D01*
G75*
G02*
X38682980Y42419860I0J200000D01*
G01*
G37*
G04 #@! TD*
G04 #@! TO.C,R206*
G36*
G01*
X34105400Y46041900D02*
X34105400Y46591900D01*
G75*
G02*
X34305400Y46791900I200000J0D01*
G01*
X34705400Y46791900D01*
G75*
G02*
X34905400Y46591900I0J-200000D01*
G01*
X34905400Y46041900D01*
G75*
G02*
X34705400Y45841900I-200000J0D01*
G01*
X34305400Y45841900D01*
G75*
G02*
X34105400Y46041900I0J200000D01*
G01*
G37*
G36*
G01*
X32455400Y46041900D02*
X32455400Y46591900D01*
G75*
G02*
X32655400Y46791900I200000J0D01*
G01*
X33055400Y46791900D01*
G75*
G02*
X33255400Y46591900I0J-200000D01*
G01*
X33255400Y46041900D01*
G75*
G02*
X33055400Y45841900I-200000J0D01*
G01*
X32655400Y45841900D01*
G75*
G02*
X32455400Y46041900I0J200000D01*
G01*
G37*
G04 #@! TD*
G04 #@! TO.C,R207*
G36*
G01*
X37722220Y42345660D02*
X37172220Y42345660D01*
G75*
G02*
X36972220Y42545660I0J200000D01*
G01*
X36972220Y42945660D01*
G75*
G02*
X37172220Y43145660I200000J0D01*
G01*
X37722220Y43145660D01*
G75*
G02*
X37922220Y42945660I0J-200000D01*
G01*
X37922220Y42545660D01*
G75*
G02*
X37722220Y42345660I-200000J0D01*
G01*
G37*
G36*
G01*
X37722220Y40695660D02*
X37172220Y40695660D01*
G75*
G02*
X36972220Y40895660I0J200000D01*
G01*
X36972220Y41295660D01*
G75*
G02*
X37172220Y41495660I200000J0D01*
G01*
X37722220Y41495660D01*
G75*
G02*
X37922220Y41295660I0J-200000D01*
G01*
X37922220Y40895660D01*
G75*
G02*
X37722220Y40695660I-200000J0D01*
G01*
G37*
G04 #@! TD*
G04 #@! TO.C,R209*
G36*
G01*
X27248300Y46871300D02*
X27248300Y46321300D01*
G75*
G02*
X27048300Y46121300I-200000J0D01*
G01*
X26648300Y46121300D01*
G75*
G02*
X26448300Y46321300I0J200000D01*
G01*
X26448300Y46871300D01*
G75*
G02*
X26648300Y47071300I200000J0D01*
G01*
X27048300Y47071300D01*
G75*
G02*
X27248300Y46871300I0J-200000D01*
G01*
G37*
G36*
G01*
X28898300Y46871300D02*
X28898300Y46321300D01*
G75*
G02*
X28698300Y46121300I-200000J0D01*
G01*
X28298300Y46121300D01*
G75*
G02*
X28098300Y46321300I0J200000D01*
G01*
X28098300Y46871300D01*
G75*
G02*
X28298300Y47071300I200000J0D01*
G01*
X28698300Y47071300D01*
G75*
G02*
X28898300Y46871300I0J-200000D01*
G01*
G37*
G04 #@! TD*
G04 #@! TO.C,R211*
G36*
G01*
X30562100Y37190000D02*
X30562100Y37740000D01*
G75*
G02*
X30762100Y37940000I200000J0D01*
G01*
X31162100Y37940000D01*
G75*
G02*
X31362100Y37740000I0J-200000D01*
G01*
X31362100Y37190000D01*
G75*
G02*
X31162100Y36990000I-200000J0D01*
G01*
X30762100Y36990000D01*
G75*
G02*
X30562100Y37190000I0J200000D01*
G01*
G37*
G36*
G01*
X28912100Y37190000D02*
X28912100Y37740000D01*
G75*
G02*
X29112100Y37940000I200000J0D01*
G01*
X29512100Y37940000D01*
G75*
G02*
X29712100Y37740000I0J-200000D01*
G01*
X29712100Y37190000D01*
G75*
G02*
X29512100Y36990000I-200000J0D01*
G01*
X29112100Y36990000D01*
G75*
G02*
X28912100Y37190000I0J200000D01*
G01*
G37*
G04 #@! TD*
G04 #@! TO.C,R212*
G36*
G01*
X27501400Y37177300D02*
X27501400Y37727300D01*
G75*
G02*
X27701400Y37927300I200000J0D01*
G01*
X28101400Y37927300D01*
G75*
G02*
X28301400Y37727300I0J-200000D01*
G01*
X28301400Y37177300D01*
G75*
G02*
X28101400Y36977300I-200000J0D01*
G01*
X27701400Y36977300D01*
G75*
G02*
X27501400Y37177300I0J200000D01*
G01*
G37*
G36*
G01*
X25851400Y37177300D02*
X25851400Y37727300D01*
G75*
G02*
X26051400Y37927300I200000J0D01*
G01*
X26451400Y37927300D01*
G75*
G02*
X26651400Y37727300I0J-200000D01*
G01*
X26651400Y37177300D01*
G75*
G02*
X26451400Y36977300I-200000J0D01*
G01*
X26051400Y36977300D01*
G75*
G02*
X25851400Y37177300I0J200000D01*
G01*
G37*
G04 #@! TD*
G04 #@! TO.C,R411*
G36*
G01*
X14307000Y34031600D02*
X14307000Y33481600D01*
G75*
G02*
X14107000Y33281600I-200000J0D01*
G01*
X13707000Y33281600D01*
G75*
G02*
X13507000Y33481600I0J200000D01*
G01*
X13507000Y34031600D01*
G75*
G02*
X13707000Y34231600I200000J0D01*
G01*
X14107000Y34231600D01*
G75*
G02*
X14307000Y34031600I0J-200000D01*
G01*
G37*
G36*
G01*
X15957000Y34031600D02*
X15957000Y33481600D01*
G75*
G02*
X15757000Y33281600I-200000J0D01*
G01*
X15357000Y33281600D01*
G75*
G02*
X15157000Y33481600I0J200000D01*
G01*
X15157000Y34031600D01*
G75*
G02*
X15357000Y34231600I200000J0D01*
G01*
X15757000Y34231600D01*
G75*
G02*
X15957000Y34031600I0J-200000D01*
G01*
G37*
G04 #@! TD*
G04 #@! TO.C,R502*
G36*
G01*
X36343000Y22929400D02*
X35793000Y22929400D01*
G75*
G02*
X35593000Y23129400I0J200000D01*
G01*
X35593000Y23529400D01*
G75*
G02*
X35793000Y23729400I200000J0D01*
G01*
X36343000Y23729400D01*
G75*
G02*
X36543000Y23529400I0J-200000D01*
G01*
X36543000Y23129400D01*
G75*
G02*
X36343000Y22929400I-200000J0D01*
G01*
G37*
G36*
G01*
X36343000Y21279400D02*
X35793000Y21279400D01*
G75*
G02*
X35593000Y21479400I0J200000D01*
G01*
X35593000Y21879400D01*
G75*
G02*
X35793000Y22079400I200000J0D01*
G01*
X36343000Y22079400D01*
G75*
G02*
X36543000Y21879400I0J-200000D01*
G01*
X36543000Y21479400D01*
G75*
G02*
X36343000Y21279400I-200000J0D01*
G01*
G37*
G04 #@! TD*
D29*
G04 #@! TO.C,XTAL401*
X22834600Y33282200D03*
X22834600Y24782200D03*
G04 #@! TD*
D30*
G04 #@! TO.C,J401*
X8572500Y41224200D03*
X7302500Y41224200D03*
X8572500Y42494200D03*
X7302500Y42494200D03*
X8572500Y43764200D03*
X7302500Y43764200D03*
D31*
X7937500Y45034200D03*
X6921500Y39954200D03*
X8953500Y39954200D03*
G04 #@! TD*
D30*
G04 #@! TO.C,J402*
X2181000Y31840000D03*
X3451000Y31840000D03*
X2181000Y34380000D03*
X3451000Y34380000D03*
X3451000Y30570000D03*
X2181000Y30570000D03*
X3451000Y33110000D03*
X2181000Y33110000D03*
X3451000Y35650000D03*
X2181000Y35650000D03*
D31*
X2816000Y36920000D03*
X1800000Y29300000D03*
X3832000Y29300000D03*
G04 #@! TD*
D32*
X28199080Y31917640D03*
D33*
X32222440Y33116520D03*
D32*
X29311600Y32379920D03*
X38455600Y33147000D03*
X31866840Y45628560D03*
X12816840Y25369520D03*
X8128000Y27051000D03*
X9271000Y44450000D03*
X12271629Y32914090D03*
X12776200Y42468800D03*
X19707959Y33859768D03*
X3898900Y41973500D03*
X20980400Y33235900D03*
X26797000Y42773600D03*
X21666045Y28644223D03*
X23609300Y36969700D03*
X15752440Y17081289D03*
X38315900Y42291000D03*
X39814500Y43675300D03*
X41351200Y43649900D03*
X24582120Y24003000D03*
X18741449Y23994051D03*
X25603200Y39306500D03*
X17544490Y24402498D03*
X18059400Y23469604D03*
X25082500Y37084000D03*
X42367198Y10464800D03*
X43827700Y10464800D03*
X32346900Y11861800D03*
X22834600Y27432002D03*
X21932900Y30734000D03*
X27391360Y16596360D03*
X25700396Y13926904D03*
X14465300Y16014700D03*
X13400332Y11072622D03*
X23439120Y10099040D03*
X23500080Y13172440D03*
X42351960Y11699240D03*
X43840400Y11722100D03*
X11252200Y8006080D03*
X25019000Y33185100D03*
X24892000Y34798000D03*
X28194000Y28737560D03*
X40294829Y38383100D03*
X4267200Y35941000D03*
X18948400Y30543500D03*
X11203963Y36173910D03*
X28727400Y40195500D03*
X28702000Y43789600D03*
X30137100Y46583600D03*
X15608300Y37084000D03*
X17348200Y36258500D03*
X17375831Y29288046D03*
X16103600Y36360100D03*
X16450810Y28598610D03*
X14795500Y38493700D03*
X15108690Y26997665D03*
X12357100Y38608000D03*
X19697700Y24053800D03*
X19994110Y35699700D03*
X16709227Y26472451D03*
X10693400Y17653000D03*
X10168390Y18259460D03*
X9702800Y19151600D03*
X9283700Y19862802D03*
X7150100Y25057100D03*
X6134100Y23685020D03*
X9779000Y41910000D03*
X9842500Y29159200D03*
X9118600Y29743400D03*
X9258300Y38900100D03*
X6477000Y43053000D03*
X6362700Y30632400D03*
X10278610Y40421349D03*
X10672789Y30591084D03*
X9271000Y41160700D03*
X3797300Y37782500D03*
X10913433Y36930638D03*
X10680698Y31508700D03*
X1270000Y31496000D03*
X5689600Y33896300D03*
X4394200Y31826200D03*
X10972800Y35483800D03*
X15925800Y35433000D03*
X12763500Y21031200D03*
X5969000Y18567400D03*
X15951200Y23418800D03*
X21141683Y20627805D03*
X17219121Y35160592D03*
X13381490Y21698505D03*
X16918553Y23974342D03*
X24447500Y22339300D03*
X15673879Y32432149D03*
X26217880Y18826480D03*
X23901400Y19090640D03*
X22270720Y18796000D03*
X1689100Y36398200D03*
X1142996Y30607000D03*
X4064000Y33782000D03*
X17653000Y10622280D03*
X11277600Y11333480D03*
X22199600Y16413480D03*
X30540960Y18669000D03*
X30734000Y36195000D03*
X45593000Y33782000D03*
X45212000Y32766000D03*
X42164000Y32893000D03*
X12954000Y14605000D03*
X28930600Y44602400D03*
X35041840Y29230320D03*
X37930590Y30088840D03*
X38153340Y39311580D03*
X16997680Y12913360D03*
X13065760Y8046720D03*
X14381480Y13116560D03*
X12938760Y12369800D03*
X12938760Y13512800D03*
X41686480Y23017480D03*
X41422320Y18846800D03*
X24683720Y16774160D03*
X30275174Y14446550D03*
X25303480Y11668760D03*
X13345160Y27594560D03*
X25908000Y28702000D03*
X13462000Y42926000D03*
X18669000Y38227000D03*
X1270000Y32258000D03*
X24919505Y31622516D03*
X14623868Y32255982D03*
X18269132Y35107880D03*
X28609590Y34877298D03*
X7747000Y37871400D03*
X11264900Y38290500D03*
X7048500Y29324300D03*
X11976100Y23558500D03*
X8547100Y23761700D03*
X8648700Y14389100D03*
X6896100Y9893300D03*
X6921500Y4800600D03*
X18999200Y8915400D03*
X23368000Y8013700D03*
X20726400Y14757400D03*
X39916100Y3886200D03*
X44869100Y9093200D03*
X30861000Y2362200D03*
X13957300Y2298700D03*
X35115500Y25565100D03*
X41795700Y28321000D03*
X46570900Y32626300D03*
X28473400Y23304500D03*
X36728400Y37833300D03*
X33007300Y41986200D03*
X33134300Y33451800D03*
X39331900Y45466000D03*
X21907500Y46189900D03*
X21666200Y43014900D03*
X16065500Y42875200D03*
X18669000Y42659300D03*
X9982200Y46151800D03*
X16332200Y27724100D03*
X14541500Y28321000D03*
X22085300Y29718000D03*
X8293100Y33413700D03*
X8331200Y35674300D03*
X7937500Y31254700D03*
X901700Y38290500D03*
X3467100Y18402300D03*
X1460500Y11645900D03*
X4867039Y42199161D03*
X46367700Y38773100D03*
X43180000Y42011600D03*
X36398200Y42151300D03*
X40589200Y39408100D03*
X32842200Y36779200D03*
X18872200Y29133800D03*
X15570200Y21285200D03*
X20398279Y23533100D03*
X21907500Y36957000D03*
X29781500Y10883900D03*
X13309600Y16713200D03*
X13906500Y23685500D03*
X16256000Y18732500D03*
X18834100Y14528800D03*
X11079480Y14755602D03*
X11366500Y19126200D03*
M02*
