G04 #@! TF.GenerationSoftware,KiCad,Pcbnew,5.1.12*
G04 #@! TF.CreationDate,2022-08-14T20:08:33+02:00*
G04 #@! TF.ProjectId,hec-base,6865632d-6261-4736-952e-6b696361645f,0001*
G04 #@! TF.SameCoordinates,PX4cec620PY8f8c0c0*
G04 #@! TF.FileFunction,Profile,NP*
%FSLAX46Y46*%
G04 Gerber Fmt 4.6, Leading zero omitted, Abs format (unit mm)*
G04 Created by KiCad (PCBNEW 5.1.12) date 2022-08-14 20:08:33*
%MOMM*%
%LPD*%
G01*
G04 APERTURE LIST*
G04 #@! TA.AperFunction,Profile*
%ADD10C,0.200000*%
G04 #@! TD*
G04 APERTURE END LIST*
D10*
X47811560Y9541500D02*
X47811560Y38296900D01*
X47310460Y39114620D02*
X46483160Y40318400D01*
X9533860Y19200D02*
X38289260Y19200D01*
X512665Y8723800D02*
X1340000Y7520000D01*
X40310760Y46490760D02*
X39106960Y47318095D01*
X47310460Y8723800D02*
X47811560Y9541500D01*
X47811560Y38296900D02*
X47310460Y39114620D01*
X2229200Y41477230D02*
X1340000Y40318400D01*
X512665Y39114620D02*
X11566Y38296900D01*
X3177830Y42587930D02*
X2229200Y41477230D01*
X8716140Y520300D02*
X9533860Y19200D01*
X7512360Y46490760D02*
X6353530Y45601560D01*
X42580260Y44652930D02*
X41469560Y45601560D01*
X5242830Y3185500D02*
X6353530Y2236800D01*
X46483160Y40318400D02*
X45593960Y41477230D01*
X2229200Y6361200D02*
X3177830Y5250500D01*
X40310760Y1347600D02*
X41469560Y2236800D01*
X6353530Y45601560D02*
X5242830Y44652930D01*
X41469560Y45601560D02*
X40310760Y46490760D01*
X38289260Y19200D02*
X39106960Y520300D01*
X7512360Y1347600D02*
X8716140Y520300D01*
X45593960Y41477230D02*
X44645260Y42587930D01*
X46483160Y7520000D02*
X47310460Y8723800D01*
X3177830Y5250500D02*
X4183290Y4190900D01*
X1340000Y40318400D02*
X512665Y39114620D01*
X4183290Y43647470D02*
X3177830Y42587930D01*
X44645260Y42587930D02*
X43639860Y43647470D01*
X39106960Y520300D02*
X40310760Y1347600D01*
X44645260Y5250500D02*
X45593960Y6361200D01*
X41469560Y2236800D02*
X42580260Y3185500D01*
X4183290Y4190900D02*
X5242830Y3185500D01*
X8716140Y47318095D02*
X7512360Y46490760D01*
X43639860Y4190900D02*
X44645260Y5250500D01*
X42580260Y3185500D02*
X43639860Y4190900D01*
X11566Y9541500D02*
X512665Y8723800D01*
X43639860Y43647470D02*
X42580260Y44652930D01*
X45593960Y6361200D02*
X46483160Y7520000D01*
X5242830Y44652930D02*
X4183290Y43647470D01*
X39106960Y47318095D02*
X38289260Y47819194D01*
X6353530Y2236800D02*
X7512360Y1347600D01*
X38289260Y47819194D02*
X9533860Y47819194D01*
X11566Y38296900D02*
X11566Y9541500D01*
X9533860Y47819194D02*
X8716140Y47318095D01*
X1340000Y7520000D02*
X2229200Y6361200D01*
M02*
